<?xml version="1.0" standalone="no"?>
<!DOCTYPE svg PUBLIC "-//W3C//DTD SVG 1.1//EN" "http://www.w3.org/Graphics/SVG/1.1/DTD/svg11.dtd" >
<svg xmlns="http://www.w3.org/2000/svg">
<metadata></metadata>
<defs>
<font id="DharmaGothicPBoldItalic" horiz-adv-x="741" >
<font-face units-per-em="2048" ascent="1638" descent="-410" />
<missing-glyph horiz-adv-x="280" />
<glyph unicode="&#xfb01;" horiz-adv-x="794" d="M-6 47q0 12 2 25t6 32.5t6 30.5q1 9 7.5 17t7.5 15t-3 36v21t4 22.5t5 21.5q3 20 8 82t12 96q28 142 45 295q1 8 6.5 36.5t5.5 45.5q0 72 -16 78q-29 13 -29 62q0 17 6 49.5t7 42.5q0 6 0.5 9t1 7.5t0.5 5.5t1 5t1 4.5t2 4.5t2.5 5.5t3.5 7t4 8.5q13 21 29 21q13 0 24 14 q14 15 18.5 51.5t6.5 42.5q25 71 60 111.5t102 62.5q1 0 8 3.5t15.5 6t17.5 2.5q3 0 8.5 -7t13.5 -7q6 0 8 9.5t9 9.5q6 0 16.5 1t15.5 1t19.5 1t19.5 1q20 0 39 -16.5t19 -30.5q0 -13 -5 -28t-4 -20q2 -13 1.5 -23t-2 -22.5t-1.5 -13.5q-6 -38 -20.5 -51.5t-46.5 -16.5 q-35 -3 -41 -34q-5 -37 14 -37q11 0 20.5 -7t14.5 -8q21 -6 25 -14.5t4 -38.5q0 -12 -6 -35t-7 -36q-2 -22 -5.5 -36t-7.5 -23.5t-5 -12.5q-8 -35 -57 -35q-16 0 -26.5 -14.5t-10.5 -32.5q0 -9 -5.5 -42.5t-2.5 -53.5q4 -16 -6 -45.5t-11 -34.5q-6 -37 -13 -102.5 t-13 -102.5q-5 -22 -5 -51q0 -16 -9 -42t-19 -32q-8 -5 -10 -8.5t0.5 -7.5t6 -8t6.5 -11.5t3 -15.5q0 -35 -14.5 -110.5t-14.5 -110.5q0 -22 -14.5 -42t-38.5 -20q-15 0 -50 -5t-54 -5q-10 0 -26.5 -2.5t-28.5 -2t-25 6.5q-9 5 -22 21.5t-13 23.5zM150 1028q0 -7 2 -10 t4.5 -3.5t7.5 -0.5q9 0 19 5t10 9q0 2 -0.5 4t-2 3l-3 2t-4 1h-4h-5h-4.5h-6q-9 0 -11.5 -1.5t-2.5 -8.5zM408 51q0 4 3 14.5t6 31.5t3 53q0 16 13.5 85.5t21.5 143.5q3 18 10 39q4 10 5 20.5t0 27.5t-1 21q0 7 6.5 40t9.5 44q7 24 10.5 70t6.5 64l16 100q8 42 13.5 83 t11 92t8.5 77q4 21 19.5 44t35.5 23q8 0 29 4.5t29 4.5t23.5 2t23.5 2q37 0 69 -11q24 -9 32.5 -23t8.5 -44q0 -18 -2.5 -35.5t-9.5 -46t-8 -35.5q-6 -23 -10 -67.5t-7 -63.5l-26 -172q-1 -4 -0.5 -12t1.5 -14.5t2 -14.5t1 -12q0 -11 -9 -34t-10 -32q-3 -35 -7.5 -68 t-14.5 -87.5t-14 -81.5q-6 -34 -15 -154q-1 -12 -4 -26t-5.5 -26t-2.5 -22q0 -18 -21.5 -36.5t-40.5 -18.5q-11 0 -19.5 6t-14.5 6q-7 0 -33 -6t-76 -6q-67 0 -67 51zM578 1266q0 9 6 27.5t6 27.5q0 3 1 29t1 28q2 11 7 18.5t10.5 11.5t15.5 9q38 23 92 23q7 0 27 -2t24 -2 q3 0 10 0.5t12.5 1t12 0t12.5 -1.5q45 -11 45 -47q0 -6 -2 -17.5t-2 -17.5q0 -62 -4 -74q-8 -26 -28 -46t-46 -20q-17 0 -46.5 -1t-43.5 -1h-6q-20 0 -31 0.5t-27.5 3t-24.5 8t-14.5 16t-6.5 26.5zM690 1276q0 -6 12 -6q21 0 21 8q0 10 -21 10q-3 0 -7.5 -4t-4.5 -8z M694 582q0 -7 3.5 -13t9.5 -6q12 0 21 11.5t9 23.5q0 4 -1.5 5t-4.5 1t-12.5 -3t-13.5 -3q-11 0 -11 -16z" />
<glyph unicode="&#xfb02;" horiz-adv-x="794" d="M-6 47q0 12 2 25t6 32.5t6 30.5q1 9 7.5 17t7.5 15t-3 36v21t4 22.5t5 21.5q3 20 8 82t12 96q28 142 45 295q1 8 6.5 36.5t5.5 45.5q0 72 -16 78q-29 13 -29 62q0 17 6 49.5t7 42.5q0 6 0.5 9t1 7.5t0.5 5.5t1 5t1 4.5t2 4.5t2.5 5.5t3.5 7t4 8.5q13 21 29 21q13 0 24 14 q14 15 18.5 51.5t6.5 42.5q25 71 60 111.5t102 62.5q1 0 8 3.5t15.5 6t17.5 2.5q3 0 8.5 -7t13.5 -7q6 0 8 9.5t9 9.5q6 0 16.5 1t15.5 1t19.5 1t19.5 1q20 0 39 -16.5t19 -30.5q0 -13 -5 -28t-4 -20q2 -13 1.5 -23t-2 -22.5t-1.5 -13.5q-6 -38 -20.5 -51.5t-46.5 -16.5 q-35 -3 -41 -34q-5 -37 14 -37q11 0 20.5 -7t14.5 -8q21 -6 25 -14.5t4 -38.5q0 -12 -6 -35t-7 -36q-2 -22 -5.5 -36t-7.5 -23.5t-5 -12.5q-8 -35 -57 -35q-16 0 -26.5 -14.5t-10.5 -32.5q0 -9 -5.5 -42.5t-2.5 -53.5q4 -16 -6 -45.5t-11 -34.5q-6 -37 -13 -102.5 t-13 -102.5q-5 -22 -5 -51q0 -16 -9 -42t-19 -32q-8 -5 -10 -8.5t0.5 -7.5t6 -8t6.5 -11.5t3 -15.5q0 -35 -14.5 -110.5t-14.5 -110.5q0 -22 -14.5 -42t-38.5 -20q-15 0 -50 -5t-54 -5q-10 0 -26.5 -2.5t-28.5 -2t-25 6.5q-9 5 -22 21.5t-13 23.5zM150 1028q0 -7 2 -10 t4.5 -3.5t7.5 -0.5q9 0 19 5t10 9q0 2 -0.5 4t-2 3l-3 2t-4 1h-4h-5h-4.5h-6q-9 0 -11.5 -1.5t-2.5 -8.5zM406 45q0 41 2 61q2 18 9 40.5t7 43.5q0 20 6.5 49t7.5 40q2 12 1.5 29t2.5 26q0 2 2 11.5t4.5 25t4.5 24.5q6 30 9.5 54t6 57t4.5 47q1 6 11 16.5t10 24.5 q0 10 -3.5 25.5t-3.5 21.5q0 46 11 80q2 8 7.5 11.5t12 4t12 1t9.5 4t4 10.5q0 3 -4 5t-8.5 3.5t-6.5 3.5t-6 5t-5 4t-2.5 3.5t-2 5t-0.5 6.5q0 3 2.5 14.5t3.5 18.5q1 8 0 23t0 24q3 22 12 70.5t14.5 88.5t6.5 79q0 6 0.5 14.5t0.5 11t0.5 6.5t1 7t1 5.5t2.5 10t4 13.5 l10 45q4 19 9 62.5t10 70.5q1 4 3 18t3.5 19.5t5.5 14.5t11 13t18 6q1 0 18.5 3.5t32.5 3.5q9 0 21 2t22 2q12 0 25 -3t24 -4q9 -1 22.5 2.5t24.5 0.5q41 -11 41 -54q0 -14 -1 -26.5t-3.5 -26.5t-4 -23t-5.5 -27t-6 -26q-2 -10 -4.5 -32.5t-4.5 -32.5t0 -23.5t0 -23.5 q-14 -54 -14 -58q-2 -13 -5 -47t-6.5 -58t-8.5 -46q-5 -23 -10.5 -65.5t-8.5 -59.5q-19 -105 -26 -168q-2 -21 -5.5 -49.5t-6.5 -52.5t-3 -44q0 -12 -3 -28t-6.5 -32t-4.5 -28q-1 -13 -10 -86q-1 -6 -5 -12.5t-8.5 -10t-12 -9t-9.5 -7.5t-7 -6.5t-8 -7.5t-5.5 -7.5 t-2.5 -8.5q0 -13 13 -13q2 0 8 4.5t12 4.5q2 0 3 -1t2 -6t1 -16q0 -15 -8.5 -82t-13.5 -84q-11 -35 -37 -47q-10 -4 -22 -4.5t-24 1t-14 1.5q-1 0 -18.5 -2t-34.5 -2q-6 0 -41.5 5t-38.5 5q-15 0 -24.5 11t-9.5 26zM559 750q0 -4 7.5 -7.5t14.5 -1.5t7 11q0 8 -17 8 q-12 0 -12 -10z" />
<glyph horiz-adv-x="0" />
<glyph horiz-adv-x="2048" />
<glyph unicode=" "  horiz-adv-x="280" />
<glyph unicode="&#x09;" horiz-adv-x="280" />
<glyph unicode="&#xa0;" horiz-adv-x="280" />
<glyph unicode="!" horiz-adv-x="385" d="M-18 72q0 23 5 53.5t5 36.5q0 12 1 18t4 18t5 29q1 5 0.5 15t0.5 18.5t5 15.5q10 21 30.5 33.5t41.5 12.5q8 0 58.5 3t68.5 3q82 0 82 -52q0 -27 -10.5 -88.5t-10.5 -91.5q0 -33 -15.5 -60.5t-49.5 -27.5q-12 0 -44 -2.5t-50 -1.5q-10 1 -43 -2t-43 2q-21 5 -31 26.5 t-10 41.5zM70 451q0 7 2 20.5t2 20.5q0 40 7.5 110t8.5 94q1 13 -1.5 48.5t1.5 48.5q1 9 3 17.5t3.5 13.5t2.5 11.5t1 12.5q0 26 5.5 78.5t5.5 77.5q0 32 9 90t11 73q1 14 4 45.5t5.5 53.5t6.5 50.5t9 49.5q3 14 5.5 22t7.5 16.5t14 12.5t22 4q3 0 16 7.5t27 7.5q9 0 33 -2 t34 -2q5 0 36 2t36 2q51 0 51 -56q0 -17 -1 -36t-3 -36t-5 -36.5t-5.5 -35.5t-5 -35.5t-4.5 -33.5q-2 -17 -6.5 -57.5t-9 -70.5t-11.5 -52q-3 -9 -14.5 -70t-16.5 -77q-1 -3 -8 -14.5t-8 -18.5v-41q-2 -31 -18 -85.5t-23 -98.5q-1 -6 -5 -40.5t-8.5 -57t-11.5 -40.5 q-5 -18 -47 -26q-12 -2 -33 -10.5t-38 -8.5q-39 0 -62.5 10t-23.5 42zM340 1294q0 -37 8 -37q7 0 13 14t6 23q0 4 -5 9.5t-12 5.5q-10 0 -10 -15z" />
<glyph unicode="&#x22;" horiz-adv-x="667" d="M109 1024q1 7 1 36.5t3 47.5q8 34 4 117q-1 27 6 59t8 43q3 41 7 52.5t20 25.5q31 29 100 25q45 -3 90 0q23 2 42.5 -15.5t19.5 -40.5q0 -15 -6 -39.5t-7 -36.5q-9 -88 -45 -225q-1 -4 -5.5 -21t-7 -24t-7.5 -20.5t-11 -23.5t-14 -19q-12 -15 -42.5 -20.5t-45.5 3.5 q-5 4 -8 14.5t2 18.5q7 9 3 25t-11 18q-3 1 -7.5 -4t-8 -14.5t-3.5 -20.5q0 -9 -4.5 -13t-10 -3.5t-12 2.5t-7.5 2q-47 3 -43 51zM451 985q-4 6 -4 19t2 27t2 16q0 23 3 51t3 35q0 75 8 231q2 21 21.5 46t39.5 26q59 4 92.5 -6.5t59.5 -10.5q24 0 44.5 -12t20.5 -33 q0 -37 -16.5 -100.5t-19.5 -93.5q-2 -29 -20 -94t-21 -80q-7 -36 -32 -47t-69 -11q-6 0 -19.5 -0.5t-21 -0.5t-19 1.5t-20.5 5.5q-19 6 -34 31z" />
<glyph unicode="#" d="M-18 49q0 12 5 35.5t5 38.5q1 26 19 31t34 -2t21 2q1 6 -7 13.5t-19 14t-20.5 21.5t-9.5 35q0 10 1 22t1.5 17t-2.5 9.5t-10 6.5q-18 4 -18 33q0 6 4 17t4 17q0 10 6 49t6 46q0 8 4 24.5t16 33.5t29 15q16 -2 33 33q5 19 20 103q4 18 12 50.5t12.5 52t4.5 28.5 q0 17 9.5 50t9.5 52q0 2 0.5 10.5t0 13.5t-1.5 12.5t-4 12t-8 6.5q-20 6 -20 41q0 5 3 15.5t3 15.5q0 2 7 38t7 54q0 24 14 45t33 21q13 0 24 17t11 32q0 8 13.5 45t13.5 45q0 15 20 76q13 37 47 37q11 0 30.5 2t35.5 2t31 -4q15 -3 30 0q14 3 27.5 -12t13.5 -27 q0 -11 -6 -33t-6 -33q0 -15 -2 -27t-6.5 -28.5t-5.5 -22.5q-11 -47 41 -47h7h5.5t4 0.5t4 1t4 2t5.5 4.5q19 19 21 27q6 17 7.5 40.5t8.5 35.5q3 5 2.5 17.5t1.5 23.5q4 27 19.5 52.5t38.5 25.5q14 0 37.5 2.5t31.5 3.5q7 0 18 -14t19 -13q3 0 4.5 4.5t7 9.5t19.5 7 q11 1 24 -19.5t13 -32.5t-4 -36q-3 -18 -6 -42.5t-6 -42.5t-7 -36q-6 -24 6 -27q10 -3 18.5 -19t8.5 -36q0 -12 -2.5 -24t-7 -26.5t-6.5 -23.5q-1 -5 -2.5 -18.5t-3 -20.5t-5.5 -17.5t-10 -19.5q-18 -35 -35 -37q-21 -2 -30 -34q-29 -102 -31 -107q-6 -15 -2.5 -43t-5.5 -33 q-2 -1 -13 -59q-18 -83 -18 -102q0 -5 1 -15.5t1 -15.5q0 -12 15.5 -26.5t15.5 -24.5q0 -22 -4 -68q-6 -51 -23.5 -83.5t-17.5 -33.5q-3 -10 -11 -17t-14 -7t-11 -1.5t-7.5 -2.5t-5.5 -6t-3.5 -5.5t-2.5 -7.5l-3 -8q-17 -45 -24 -94q-1 -5 -5.5 -42t-11.5 -54 q-8 -22 -24 -37t-35 -15q-13 0 -35 -5t-33 -5q-5 0 -15.5 -1.5t-19 -1.5t-16.5 3q-47 13 -47 35q0 14 7 44.5t7 43.5q0 19 10.5 56t10.5 55q0 14 -16 32q-13 15 -25 15q-18 0 -27.5 -5t-12.5 -9.5t-7.5 -22t-7.5 -25.5q-9 -24 -9 -35q0 -6 -9 -36.5t-9 -36.5q0 -2 -1 -19.5 t-4 -31t-9 -19.5q-4 -4 -13 -16.5t-17 -18.5t-19 -6q-6 0 -19.5 -2t-19.5 -2q-28 0 -90 4q-14 1 -27.5 16.5t-13.5 28.5zM98 147q0 -4 3.5 -7.5t9.5 -7t8 -5.5q7 -7 16.5 0.5t9.5 19.5q0 6 -7 10.5t-13 4.5q-27 0 -27 -15zM295 1171q0 -6 2.5 -7t11.5 -1q7 0 15.5 4.5 t9.5 10.5q1 8 -6.5 10t-18.5 2q-5 0 -9.5 -5.5t-4.5 -13.5zM324 567q4 -12 17 -21t24 -9q12 0 25 11.5t16 22.5q4 11 14 58t12 61q1 13 15.5 18t15.5 13q1 7 -8 20.5t-9 22.5q0 23 13.5 70t13.5 73q0 15 -11 27t-24 12q-15 0 -36 -18t-21 -37q0 -18 -12.5 -56.5t-12.5 -46.5 q0 -17 -9.5 -50t-10.5 -38t-6.5 -24t-6 -30t0.5 -44q1 -5 -0.5 -17.5t0.5 -17.5z" />
<glyph unicode="$" d="M14 176q-3 13 -3 29t1.5 37t1.5 32q0 20 4.5 40.5t4.5 37.5q0 34 12 70q9 27 5.5 48.5t3.5 41t32 29.5q32 12 98 12q13 0 41 -4t45 -4q23 0 29 -29q1 -7 3.5 -18.5t2.5 -14.5q0 -21 -4 -58t-4 -58q0 -12 1 -20.5t6.5 -17t16.5 -7.5q8 1 25 -5.5t26 -1.5q11 7 17.5 15 t9 19.5t3 17t0 21.5t-0.5 20t6 18.5t6 28.5q0 41 -25.5 82.5t-56.5 69t-74.5 64.5t-62.5 58q-31 33 -55.5 86.5t-24.5 97.5q0 13 3.5 45t3.5 54q0 24 7 54t7 48q0 5 9 26t9 31q-1 12 1.5 24.5t7.5 23.5t9.5 18.5t10 16t6.5 10.5q10 18 33 19.5t25 6.5q5 12 1 17.5t-1 15 t20 23.5q16 12 29.5 19.5t32 15t32.5 14.5q7 4 11 11t6.5 17t5.5 15q16 24 41 35q11 4 22.5 4.5t26.5 -1t24 -1.5q7 0 27.5 0.5t31 0t26 -2.5t25.5 -7.5t17 -15.5q6 -10 4.5 -26.5t4.5 -28.5t19.5 -19t34 -13t28.5 -9q35 -17 53 -61t18 -91q0 -122 -31 -231 q-6 -20 -25 -34.5t-36 -16.5q-11 -1 -21.5 -1t-21.5 0.5t-18 0.5q-8 0 -26 -3.5t-26 -3.5q-3 0 -13 4t-17 3q-11 -2 -26 11t-15 23q0 6 -1.5 16t-1.5 20t3 22q9 47 8 61q-1 23 -15.5 37t-33.5 14q-26 0 -43 -21t-17 -46q0 -16 -5 -43.5t-7 -44t4 -45.5q4 -11 13 -23.5 t25 -28.5t17 -18q19 -20 72 -70.5t78 -78.5q84 -94 84 -201q0 -14 -3 -45t-3 -45q0 -6 3 -17t3 -20q0 -6 -9 -25t-9 -35q0 -32 -33 -106.5t-58 -99.5q-21 -21 -82 -48q-5 -2 -26.5 -7.5t-28.5 -12.5q-9 -9 -18.5 -29.5t-22 -34.5t-37.5 -18q-20 -3 -54.5 2.5t-47.5 5.5 q-6 0 -19 -1.5t-21.5 -1t-14.5 4.5q-9 7 -16 35t-19 33q-5 2 -23.5 9.5t-29 12.5t-25.5 13t-26 17t-19 20q-20 26 -27 65zM264 176q0 -7 6.5 -12.5t14.5 -5.5q18 0 18 10q0 3 -10.5 10.5t-13.5 7.5q-15 0 -15 -10zM336 887q0 -19 12 -19q23 0 23 9q0 5 -8 10.5t-15 5.5 q-12 0 -12 -6z" />
<glyph unicode="%" horiz-adv-x="1251" d="M49 684q0 38 14.5 106t14.5 105q0 25 9.5 82t10.5 65q1 10 2 29t3.5 35.5t7.5 32.5q8 27 8 61q0 14 3 29t5.5 25.5t10.5 29t11 25t14 29t13 26.5q15 33 72 57q19 9 36.5 14.5t36.5 7.5t26.5 3t29 0.5t22.5 -0.5q27 0 47 -5t27 -3q9 3 29 1t26 -7q88 -40 88 -89 q0 -22 2.5 -60t2.5 -56q0 -14 -7.5 -44t-7.5 -46q0 -25 -3.5 -49t-10.5 -59t-10 -52q-2 -7 -11.5 -23.5t-9.5 -27.5q0 -9 2 -29t2 -33q0 -14 -5 -34t-5 -33q0 -8 -3 -32.5t-3 -43.5q0 -14 -2 -27t-4 -23t-6.5 -20.5t-7.5 -17t-9 -15t-8.5 -12t-8.5 -10.5t-7 -8 q-46 -68 -111 -68q-23 0 -72 -5t-75 -5q-85 0 -144 41q-22 13 -41 61q-5 13 -6 24.5t0.5 26t1.5 21.5zM266 795q0 -5 -0.5 -18t-0.5 -20t2 -17t6.5 -15.5t13.5 -9.5t22 -4q19 0 32.5 22t18 49.5t0.5 48.5q-1 4 -0.5 9.5t2 12t4 12t5.5 9.5q5 6 6.5 16t2 23.5t1.5 20.5 q5 32 14 110.5t17 120.5q2 10 -3.5 28.5t-5.5 25.5t-10.5 17.5t-21.5 10.5q-22 0 -37 -19.5t-15 -41.5q0 -12 -5 -37.5t-5 -38.5q0 -36 -13 -92.5t-13 -87.5q0 -21 -8.5 -65.5t-8.5 -69.5zM272 23q0 9 8.5 28t24.5 39q7 10 37 74q4 10 38.5 76t45.5 102q5 11 17 31.5 t16 27.5q5 8 14.5 21.5t17 25.5t11.5 23q5 14 35 86q4 10 13.5 14.5t19.5 8.5t14 14q8 17 16.5 62.5t15.5 56.5q10 19 35 69t50 99t38 71q23 39 63 132t72 143q17 26 41 77t31 64q25 45 49 45q12 0 16.5 -4t4.5 -16q0 -17 -4 -25q-7 -15 -25 -58t-35 -73q-46 -85 -69 -135 l-66 -135q-5 -13 -17.5 -35t-27.5 -47.5t-20 -34.5q-15 -26 -27 -51.5t-19 -42.5t-18.5 -42.5t-25.5 -51.5q-13 -22 -26 -48.5t-28 -56.5t-26 -51q-14 -27 -55 -118t-74 -144q-2 -4 -13 -20.5t-17.5 -29t-10.5 -24.5q-3 -10 -14 -33.5t-22.5 -47.5t-13.5 -28 q-9 -20 -24.5 -35.5t-32.5 -15.5h-6h-6h-5.5t-5 0.5t-4 1.5t-3.5 2.5t-2 3.5t-1 5zM672 152l16 141q2 13 5 34.5t5.5 37t4.5 35.5t2 38q0 16 3 47.5t7 63t8 47.5q3 14 16 39t13 39q0 18 2.5 30t10 34t11.5 38q6 22 17 44t34 45.5t52 31.5q24 3 41 3t28 -1.5t20 -1t17 5.5 q6 4 14.5 4t31 -2t46.5 -2q27 0 47.5 -6.5t35.5 -15.5t20 -11q26 -8 40.5 -50t14.5 -62q3 -54 -12 -185q-3 -30 -18 -100.5t-15 -114.5q0 -16 -1.5 -32t-5 -32t-6 -25.5t-7 -24.5t-5.5 -19q-1 -6 -4.5 -41t-11.5 -53q-41 -82 -45 -86q-15 -15 -43.5 -29t-44.5 -18 q-29 -6 -133 -6q-9 0 -35 -3t-44.5 -1.5t-33.5 10.5q-5 4 -13.5 9t-20 11t-17.5 9q-55 32 -47 125zM823 625v-5v-6t0.5 -5t1.5 -4.5t3.5 -3t5.5 -1.5q8 0 12 8t4 15q0 10 -2.5 13t-9.5 3q-5 0 -10 -4t-5 -10zM879 231q0 -16 13.5 -33.5t31.5 -17.5q24 0 38 18.5t17 49.5 q3 18 7.5 88.5t8.5 95.5q1 5 6.5 25t8.5 37q3 16 7 64.5t11 74.5q1 3 4 8.5t5.5 9.5t4 9t0.5 9.5t-6 8.5t-14 15t-18 17.5t-19 6.5q-21 0 -33 -21.5t-12 -42.5q0 -12 -10 -75q-3 -25 -9.5 -61t-7.5 -52q-1 -13 -8.5 -45.5t-9.5 -54.5q-3 -46 -7.5 -76.5t-6.5 -42t-2 -15.5z M1034 174q0 -3 1.5 -6.5t4 -5.5t4.5 -2q11 0 11 14v3.5v5t-1 3.5t-2.5 3t-4.5 1t-8 -6t-5 -10z" />
<glyph unicode="&#x26;" horiz-adv-x="804" d="M-31 143q0 79 15 123q7 21 20 22.5t16 4.5q6 4 1.5 11t-12.5 11.5t-14 20.5t-3 39l22 96q0 2 5.5 18t5.5 23q0 56 22 94q49 85 78 105q22 16 23.5 29.5t-11.5 37.5q-24 47 -33 67.5t-16.5 53.5t-7.5 74q0 26 8 88q1 8 2 24.5t2 25t6 23.5t15 29q7 11 7.5 32t2.5 28 q13 39 65 125q9 13 22.5 24t34 19.5t32 12.5t38.5 11t31 8q39 13 80 13q14 0 45.5 0.5t47.5 0.5t37.5 -1.5t35.5 -5.5q22 -6 27.5 -25t5.5 -68q0 -8 -7.5 -25t-7.5 -26q0 -5 -3 -36t-3 -36q0 -17 -17 -37t-36 -20q-17 0 -45 2t-49 2q-10 0 -29 -15.5t-22 -23.5 q-18 -46 -19 -51q-3 -3 -0.5 -37t2.5 -59q0 -8 -2 -23t-2 -24q0 -17 20 -29t44 -12q10 0 24 14.5t16 26.5l3 21t3 22.5t4.5 19.5t8 17.5t12.5 11t19 4.5q27 0 86 3t86 3q33 0 51 -26q3 -11 3 -19.5t-2.5 -29.5t-2.5 -33q0 -27 10 -37q2 -2 11 -4.5t19.5 -5t12.5 -3.5 q5 -1 8 -3.5t5 -5.5t2.5 -8.5t0.5 -9v-10.5v-10q0 -24 -8 -69.5t-8 -67.5q0 -42 -8 -55q-14 -19 -47.5 -24.5t-46.5 -22.5q-17 -21 -17 -74q0 -14 -4 -44t-4 -46t-8 -50t-8 -53q0 -17 -2.5 -33.5t-8 -39t-6.5 -29.5q-4 -19 -4 -46t2 -61.5t2 -52.5q0 -51 -45 -51 q-18 0 -55.5 -2t-66 -2t-46.5 4q-12 3 -35 24t-53 21q-18 0 -50 -18.5t-48 -18.5q-18 0 -50 -12t-50 -12q-126 0 -168 84q-17 30 -17 69zM43 252q0 -10 13.5 -16t17.5 -13q10 -15 16 7q2 5 2 10q0 10 -15.5 19t-25.5 9q-8 0 -8 -16zM291 328q0 -20 14.5 -34.5t36.5 -14.5 q24 0 39 11t21.5 30t9 37t4 40.5t4.5 32.5q8 36 8 76q0 14 -4 35t-4 41q0 28 -41 28q-14 0 -25 -5t-18.5 -15.5t-12.5 -21t-8 -27t-4.5 -27t-3 -27t-2.5 -22.5t-7.5 -57.5t-6.5 -79.5zM492 420q0 -23 14 -23q8 0 8 15q0 22 -12 22q-10 0 -10 -14z" />
<glyph unicode="'" horiz-adv-x="374" d="M127 1044q0 7 4 30t4 30q0 10 1.5 47.5t0.5 67.5q-2 31 15 96q3 10 1 30t1 29q7 26 32 43q20 13 23 13q12 2 24.5 1t21 -2t16 -2.5t10.5 -1.5q1 0 37 5.5t65 3.5q22 -1 36.5 -18t14.5 -38q0 -20 -3 -41.5t-5 -30.5t-9.5 -37t-8.5 -32q-4 -12 -11 -28.5t-11 -31t-5 -32.5 q0 -7 -8 -39q-2 -10 -14 -30.5t-13 -26.5l-12 -56q-5 -20 -25 -31t-49 -12t-53.5 1t-48.5 7q-8 2 -16.5 10.5t-8.5 14.5q0 8 -3 28.5t-3 32.5z" />
<glyph unicode="(" horiz-adv-x="458" d="M-20 -12q0 51 1.5 79.5t4.5 55t4 35.5q2 19 12 65.5t10 73.5q0 89 21 162q3 35 15.5 103.5t14.5 107.5q2 12 21 69q2 6 -1.5 32.5t-0.5 41.5q7 32 15 97.5t16 97.5q2 12 8.5 76t11.5 77q5 15 12.5 55.5t18.5 61.5q19 31 35 72q6 12 14.5 21.5t21 17.5t22 12.5t26.5 12 t24 11.5q43 21 139 21h15h16.5t15 -0.5t15.5 -2t12.5 -4t12 -7t8.5 -10t6.5 -13.5t1.5 -18q0 -22 -8 -60t-9 -57q0 -14 -17 -28t-34 -19q-3 0 -15.5 -2t-14.5 -2q-27 -7 -42 -31.5t-18.5 -51.5t-7 -65t-8.5 -57q-7 -28 -10.5 -81.5t-10.5 -78.5t-12 -65.5t-8 -53.5 q0 -95 -2 -112q-3 -19 -17 -65t-20 -85q-3 -18 -7 -50t-7 -50q-2 -13 -7.5 -68t-13.5 -82q-4 -25 -4 -75v-46q16 -25 41 -30q34 -8 45.5 -19t11.5 -43q0 -19 -2 -39.5t-7 -47t-16.5 -43.5t-27.5 -17q-4 0 -35 -3t-35 -3q-6 0 -19 -3l-13 -3q-121 0 -185 69q-34 40 -34 64z M260 1223q0 -5 4.5 -11t11.5 -6q4 0 10.5 5t6.5 12q0 1 1 4.5t1.5 7.5t1 8.5t-1.5 7t-6 2.5q-7 0 -18 -11t-11 -19z" />
<glyph unicode=")" horiz-adv-x="458" d="M-66 -74q0 72 3 88q4 24 24 35.5t42 12t43 8.5t26 26q11 27 14 56q5 61 10 73t11 54t6 43q8 50 17 145t15 137q3 18 10 72.5t13 83.5q29 165 37 262q1 14 7.5 55.5t6.5 65.5q0 32 -15.5 51t-33.5 25t-33.5 21t-15.5 40q0 10 12 70q0 2 1 7q4 37 19 54l11 12q26 23 53 21 q21 -1 39 0t38.5 -3t37.5 -14q8 -4 37 -4q44 0 77 -32t33 -82q0 -8 8 -21.5t7 -27.5q-1 -21 -6 -70.5t-7 -73.5q-3 -45 -18.5 -130.5t-18.5 -129.5q-3 -35 -16 -108.5t-14 -118.5q0 -2 -5.5 -35.5t-5.5 -36.5q-1 -8 -2.5 -53.5t-7.5 -69.5q-19 -92 -20 -119q-6 -46 -29 -186 q-8 -47 -12 -68t-18 -59t-33 -59l-52 -52q-49 -36 -127 -36q-21 0 -51.5 -3.5t-42.5 -3.5q-8 0 -20 4.5t-19 4.5q-9 0 -15 2t-10 7t-6 9t-3 12t-1 12v14.5v12.5z" />
<glyph unicode="*" horiz-adv-x="737" d="M76 971q0 24 25.5 37.5t56.5 18t56.5 17t25.5 35.5q0 10 -5 17.5t-16.5 13.5t-19 8.5t-23 6.5t-18.5 5q-6 2 -19 7.5t-22 7.5q-25 5 -6 61q5 12 14.5 23t17.5 19l9 9q2 3 8.5 11.5t11 13.5t12 13t14 12.5t15 8t16.5 3.5q11 0 17 -4q5 -4 22.5 -21t27 -24t27 -15t35.5 -8 q8 0 12.5 4t6.5 13t2.5 14t0 17.5t-0.5 13.5q0 17 -3 33.5t-3 25.5q0 4 1.5 8.5t2.5 8t4.5 8t5.5 6.5t6.5 7t5.5 7q9 10 19.5 14.5t16 5t21 0t19.5 -0.5q13 0 37.5 -3.5t36.5 -3.5q17 0 27 -12.5t8 -28.5q-1 -15 -16.5 -52t-18.5 -54q-2 -12 3 -19t13 -9.5t19 -2.5 q19 0 26 6q9 8 27.5 23t21.5 18q12 10 30.5 19.5t31.5 9.5q17 0 20 -14q1 -7 21 -47q3 -5 10.5 -15.5t12 -18t8.5 -17.5t4 -19q0 -12 -3 -20t-11 -14t-13 -9t-19 -7.5t-18 -6.5q-11 -3 -35.5 -9.5t-40.5 -11.5q-10 -4 -17 -14t-7 -21q0 -14 8.5 -23t18 -12t25 -6.5 t22.5 -5.5q5 0 21 -8t20 -12q26 -19 14 -45q0 -9 -19 -33q-5 -5 -24 -31.5t-35.5 -41.5t-32.5 -15q-9 0 -17 2t-14.5 3.5t-14.5 7t-12 8t-12 10.5l-10 10t-10.5 11.5t-9.5 10.5q-25 29 -37 11l-5.5 -5.5t-5 -7t-1.5 -8.5q0 -7 -3 -53t-3 -53q0 -27 -7 -41t-28 -21 q-10 -4 -22.5 -5.5t-21.5 -1.5t-27 0.5t-28 0.5q-22 0 -48.5 8t-26.5 27q0 24 20.5 63t20.5 62q0 14 -7.5 19t-23.5 5q-29 0 -71.5 -35.5t-67.5 -35.5q-14 0 -22.5 9t-18.5 28.5t-21 31.5q-20 23 -20 64zM385 1036q5 -4 16 0t20 11t9 12q0 7 -9.5 13.5t-17.5 6.5 q-14 0 -14 -16q0 -4 -3 -10t-3.5 -9.5t2.5 -7.5z" />
<glyph unicode="+" d="M55 684q8 24 8 90q0 13 19 32t33 19q3 0 25.5 2.5t27.5 -0.5q8 -5 41 -0.5t39 4.5q14 0 30.5 11.5t16.5 23.5q0 5 3 31t3 31q0 14 6 33t6 38q0 34 21.5 56t54.5 22q10 0 45 3t45 3q26 0 52 -11.5t26 -35.5q0 -8 -5 -21t-5 -20q0 -15 -7.5 -45t-7.5 -47q0 -27 11 -43 q1 -2 5.5 -8.5t7.5 -10t10 -7t16 -3.5q8 0 22 1.5t23.5 1.5t15.5 -3q15 -6 51 -6q8 0 19.5 -10.5t11.5 -19.5q0 -15 2 -40.5t2 -33.5q0 -6 -13.5 -16.5t-15.5 -18.5q-2 -7 5 -21.5t6 -21.5q-2 -10 -16 -23.5t-25 -13.5q-8 0 -52 -2t-51 -2q-3 0 -11 0.5t-12.5 0.5t-11 -1.5 t-12.5 -5.5q-15 -10 -23.5 -24.5t-11 -23.5t-6 -34.5t-4.5 -32.5q-8 -54 -8 -59q0 -22 -17.5 -44t-33.5 -22q-7 0 -28 -3t-38 -3q-58 0 -82 6q-14 4 -20 11.5t-10 28.5t-5 24q-5 17 1 51.5t6 36.5q0 6 16 11t16 11q0 7 -13 12.5t-13 12.5q0 25 -19.5 38.5t-42.5 8.5 q-13 -3 -27.5 -3.5t-24 0t-26 2t-22.5 1.5q-20 0 -28.5 27t-0.5 55zM297 528q0 -7 12.5 -11.5t22.5 -4.5t10 16q0 11 -10 11q-35 0 -35 -11z" />
<glyph unicode="," horiz-adv-x="374" d="M-47 39q0 54 8 70q3 6 8.5 6.5t11 -2t10 0t5.5 11.5q0 1 -11.5 10t-11.5 23q0 27 5.5 54.5t5.5 31.5q0 3 5 18.5t5 28.5q0 12 18 30.5t29 18.5q13 1 46.5 4.5t53.5 3.5q8 0 26 -4t26 -4q5 0 47 6q12 2 26 -8.5t15 -22.5q2 -17 2 -32t-1 -21l-1 -6q0 -2 -1.5 -8.5 t-2.5 -19t-1 -27.5q0 -19 -8 -39t-8 -25q0 -1 1.5 -27.5t-1.5 -29.5q-1 -7 -9.5 -24t-10.5 -23q-2 -7 -7.5 -17.5t-13.5 -22.5t-10 -16q-10 -16 -20.5 -28t-17.5 -17.5t-21.5 -15.5t-22.5 -16q-68 -54 -115 -74q-14 -11 -27 2.5t-8 26.5q2 6 20 20t28 25q30 34 30 51 q0 15 -12 24t-37 16l-26 7q-27 10 -27 41z" />
<glyph unicode="-" horiz-adv-x="497" d="M18 506q5 66 11 90q4 23 28 37t52 14q11 0 31 1.5t36 1t33 -4.5q10 -2 37 3.5t35 4.5q27 -3 79 -3t76 -3q11 -1 19 -10t8 -16q-3 -18 -1.5 -54t-0.5 -53q-1 -16 -20 -35.5t-31 -21.5q-32 -5 -63.5 -6t-73.5 0.5t-60 1.5q-6 0 -67 -1t-72 -1q-26 0 -42.5 17t-13.5 38z M285 483q0 -6 12 -6q18 0 18 6q0 9 -8 9q-6 0 -14 -3t-8 -6z" />
<glyph unicode="." horiz-adv-x="374" d="M-35 31q-7 11 -2.5 39t4.5 32q0 15 9 25.5t10 17.5q0 5 -2.5 14.5t-3.5 12.5q-6 23 6 74q1 4 2.5 19.5t3.5 25.5q3 16 17 34t28 21q7 2 57 2.5t62 3.5q21 6 54 -3t34 -9q37 0 43 -29q6 -24 -8 -69q-3 -9 -3 -70q0 -5 -3 -19.5t-3 -19.5q0 -55 -8.5 -78.5t-44.5 -54.5 q-4 -3 -12 -5t-14.5 -2t-18 0.5t-14.5 0.5q-11 0 -31 -1.5t-36 -1.5t-30 3q-7 1 -26 3t-30.5 4.5t-24 10t-15.5 19.5z" />
<glyph unicode="/" d="M-74 -14q0 22 16.5 51t18.5 35q1 3 5 19.5t5 19.5q5 9 46.5 90.5t58.5 120.5q17 42 20 53q10 29 39.5 78.5t42.5 85.5q9 24 32.5 71.5t33.5 75.5q4 10 39 72.5t39 77.5q9 19 47 90.5t51 113.5q4 14 17.5 37t17.5 33q27 76 61 129q9 15 19 53t22 54q9 9 14.5 19.5t11 27 t9.5 24.5q5 14 19 27.5t28 13.5q15 0 27.5 -12t19.5 -12q13 0 22.5 17t18.5 17q10 0 22 3.5t21 3.5q19 0 40.5 2t23.5 2q20 0 20 -25q0 -19 -11 -48.5t-24 -47.5q-7 -9 -26 -58q-2 -4 -11.5 -28t-19.5 -47.5t-14 -32.5q-5 -11 -27.5 -53t-30.5 -64q-7 -22 -58 -120t-54 -105 t-30 -62t-38 -81q-13 -30 -52 -106t-55 -120q-23 -66 -55 -119q-6 -11 -21.5 -48t-29.5 -56q-13 -17 -47.5 -87t-42.5 -93q-3 -7 -11 -28.5t-13 -31.5t-15 -24.5t-24 -20.5t-33 -6q-23 0 -71.5 -3t-72.5 -3q-41 0 -41 25zM537 983q0 -8 4 -14t10 -6q16 0 16 20q0 4 2.5 12 t3 11.5t-3.5 5.5q-10 0 -21 -10.5t-11 -18.5z" />
<glyph unicode="0" d="M-10 176q0 51 4 80q1 8 5 26.5t3.5 19.5t1.5 19.5t0 26.5q0 50 6 84q19 105 41 252q1 9 4.5 24.5t5.5 28.5t2 27q0 5 4.5 15.5t4.5 15.5q0 55 13 149.5t15 116.5q0 4 2.5 7t6 4.5t7.5 2.5t7.5 2.5t7 4t6 6.5t2.5 10q0 4 -5 7t-10 7t-7 19t4 43q13 69 33 114q2 4 6 9l8 10 t6 10q1 2 1.5 6.5t1.5 8.5t2.5 9.5t2.5 8.5q5 13 17.5 21t30.5 15.5t26 12.5q35 27 76 37t117 10q8 0 27.5 -4t27.5 -4q6 0 26 2.5t35.5 2.5t42.5 -3q105 -16 154 -70q4 -4 7 -15.5t3 -17.5q0 -8 2.5 -15t6 -12.5t7.5 -15.5t5 -22q3 -14 2 -39t-2.5 -40t-4.5 -40.5t-4 -40.5 q-14 -154 -77 -543q-1 -5 -3.5 -11.5t-5.5 -12.5t-4 -10q-1 -3 0 -14.5t0 -20.5q-1 -6 -8 -41q-7 -32 -15 -89.5t-12 -80.5q0 -45 -13.5 -93t-33.5 -81q-3 -8 -7.5 -15t-11 -14t-11 -12t-14 -12t-13.5 -10t-16 -10.5t-15 -9.5t-16.5 -9.5t-15.5 -8.5q-16 -8 -43.5 -11 t-32.5 -5q-16 -5 -38.5 -6t-54 0.5t-40.5 1.5q-7 0 -35 -3t-55 -3t-46 6q-77 27 -117 66.5t-40 115.5zM276 377q-2 -20 5 -62q2 -13 4 -21t7.5 -19t15.5 -16t24 -5q24 0 43 27q5 7 7.5 13t3 9.5t1.5 11.5t2 15q2 12 4 28.5t4 32t4.5 33.5t7.5 39.5t11 44.5q9 35 17.5 135.5 t13.5 126.5q1 6 6 41t8 45q9 29 13.5 75.5t6.5 57.5q3 18 8.5 40t9 40t3.5 39q0 30 -15.5 51t-41.5 21q-58 0 -66 -88q-2 -26 -6 -55.5t-10 -64t-9 -54.5q-1 -12 -7 -52.5t-9.5 -71.5t-3.5 -53q0 -35 -12 -57q-6 -13 -8 -56t-7 -63q-16 -78 -18 -125q-1 -13 -8.5 -32.5 t-8.5 -30.5z" />
<glyph unicode="1" horiz-adv-x="385" d="M-10 49q0 15 4 47q2 16 19.5 17.5t19.5 7.5q2 5 -6 9.5t-16.5 13t-6.5 20.5q2 18 10 99.5t17 125.5q1 3 4 8.5t4 9.5t0 17q-2 16 9 80t11 69q0 32 17 115q12 56 16 141q0 85 19 129q5 12 5.5 41t6.5 41t10 53.5t4 43.5q1 9 4.5 42t7 52t15.5 42.5t31 33.5q4 1 15 8.5 t19 9.5q49 13 72 51q12 23 21 35q20 23 71 23q6 0 12 -2.5t9.5 -5t9.5 -8t8 -7.5q21 -21 14 -35q-6 -14 -6 -61q0 -23 -12 -101q-1 -6 -6 -20.5t-7.5 -27t-0.5 -23.5q5 -23 -7.5 -71t-13.5 -54q-18 -213 -55 -430q-2 -15 -8.5 -48t-9.5 -57.5t-3 -50.5q0 -29 -8 -49 q-5 -13 -7 -39.5t-3 -32.5q-2 -16 -7 -43.5t-8 -50.5t-3 -45q0 -19 -3.5 -39t-11 -48t-10.5 -40q-3 -13 -15.5 -25t-21.5 -12q-11 0 -63 -4t-64 -4q-9 0 -22.5 1.5t-33 6t-33 15t-13.5 26.5zM162 618q0 -16 8 -16q9 0 19 8t10 15q0 10 -11 10q-7 0 -16.5 -7t-9.5 -10z" />
<glyph unicode="2" horiz-adv-x="729" d="M-45 68q0 18 6 39.5t8 33.5q0 1 -1 13.5t-1.5 23t0.5 19.5q1 13 4.5 31t8.5 37.5t6 25.5q3 13 7 23t5.5 16.5t1.5 21.5q0 13 4 22.5t12.5 24.5t14.5 29q9 24 20 46l15 30q5 10 13 21.5t14 18.5t17 19.5t15 16.5q10 12 32 38t32 37.5t29 33t33.5 35.5t36 33t44.5 38 q20 16 34.5 29t23 22.5t12.5 15.5t8.5 12.5t5.5 8.5q30 34 35 47q38 96 41 123q1 7 1 21.5t1 19.5q0 2 4 15t4 30q0 16 -14 29.5t-25 13.5q-7 0 -14 -2t-9 -2q-34 0 -49.5 -38t-15.5 -91q0 -7 -6 -28.5t-4 -31.5q3 -25 -16 -50.5t-46 -25.5q-4 0 -23.5 -2.5t-23.5 0.5 q-14 8 -54.5 5t-47.5 -3q-21 1 -35.5 19t-14.5 39v14q0 12 12 18.5t13 14.5q0 2 -8 11t-8 18q0 23 3.5 44t11 51.5t11.5 57.5q4 19 11 40.5t12 32.5t18 36t15 30q16 34 67 60q5 3 16.5 9.5t18.5 10t18 7t21 4.5q21 2 131 16q41 4 79 -2t64 -6q57 0 117 -37q27 -16 47 -74 q14 -42 14 -82q0 -59 -14 -108q-6 -30 -6 -39q0 -47 -14 -103q-16 -76 -58 -147q-55 -93 -71 -109q-42 -57 -56 -57q-5 0 -20 -29q-10 -16 -24 -29t-38 -30.5t-30 -22.5q-52 -40 -92 -92q-32 -43 -37 -47q-54 -54 -54 -121q0 -24 11 -35q4 -5 9 -7.5t11 -3.5t10 -1.5t12 0 t11 0.5h168q14 0 49 -3t49 -3q8 0 24.5 -20t16.5 -31t-5 -25t-5 -20q0 -154 -76 -160q-9 0 -48.5 -2t-43.5 -2q-28 0 -80 -3t-94 -3t-78 6q-25 4 -55 4t-66.5 -2t-56.5 -2q-11 0 -26.5 6.5t-24.5 7.5q-13 1 -22 23t-9 33zM70 57q0 -10 22 -10q23 0 23 16q0 3 -7.5 7t-15.5 4 q-6 0 -14.5 -6t-7.5 -11z" />
<glyph unicode="3" horiz-adv-x="712" d="M-25 203q0 22 5 35q5 16 6 26t2 27.5t2 32.5q2 18 3 37t2.5 30.5t6.5 26.5q1 4 10 65q2 8 7.5 17t15 15.5t18.5 6.5q11 0 37.5 6.5t52.5 6.5q7 0 21 1t24 1.5t23.5 0t23 -4t18 -9t13 -16t4.5 -25.5q0 -19 -4 -39q-4 -18 -3.5 -39.5t-2.5 -29.5q-3 -7 -4 -16t-1 -15.5 t0.5 -17.5t0.5 -17q0 -4 -0.5 -9t0 -7t1 -6t3 -7t6.5 -8q20 -20 41 -20q8 0 13.5 1.5t10 5.5t6 6.5t5 9.5t4.5 8q3 8 13 22t10 25q0 9 5 24t5 31q0 30 9.5 94.5t10.5 71.5q7 55 -41 63q-10 2 -38 0.5t-37 3.5q-18 7 -47 5.5t-35 -0.5q-24 6 -32.5 22t-8.5 43q0 20 7 51.5 t7 57.5q0 6 1.5 13.5t3.5 12t5 11t4 8.5q5 11 12.5 18t14.5 11t18.5 5.5t18 2t18.5 0.5q4 0 19.5 1t29 1.5t33.5 -0.5q30 -1 48 4t29 17.5t20 35.5q3 7 5.5 15t4 16.5t3 15t2.5 17t1.5 16.5t2 18t1.5 17t4 27t2 38v15v12t-2 9.5t-8 8.5q-20 17 -45 17q-42 0 -62 -97 q-2 -9 -3 -28t-3 -25q-20 -61 -55 -61q-8 0 -20 -1.5t-21.5 -2.5t-19 -1t-15.5 3q-17 6 -38 5.5t-40 -3t-32 6.5t-13 34q0 13 -4 27.5t-4 27.5q0 44 16 100q28 93 54 150q20 43 55.5 68t95.5 49q31 15 75 11.5t54 -1.5q34 8 68 0q24 -5 31.5 -14.5t7 -16.5t4.5 -8 q14 -2 27 15t36 14q77 -10 115.5 -61t38.5 -130q0 -10 -3 -43t1 -43q2 -16 -9.5 -48.5t-11.5 -47.5q0 -55 -28 -141q-6 -16 -19.5 -41t-17.5 -39q-4 -11 -10 -19t-18 -18t-17 -15q-5 -4 -7.5 -10t-3 -9t0 -12t0.5 -10q0 -14 4 -24t11 -21.5t11 -21.5q2 -5 7 -18t8.5 -22 t6.5 -24.5t3 -31.5q0 -12 -10 -129q-3 -23 -7 -49.5t-9.5 -59t-8.5 -49.5q-8 -42 -20 -55q-15 -18 -11 -47q3 -28 -12 -52q-42 -64 -74 -87t-94 -46q-53 -15 -136 -20t-140 4q-13 2 -28 6.5t-32 10t-22 7.5q-22 7 -43.5 23t-28.5 35q-25 73 -25 129zM547 549q0 -7 7.5 -21 t14.5 -14q5 0 6 5t-0.5 13t-1.5 9q0 3 -4 6t-8.5 4.5t-7.5 1.5q-6 0 -6 -4z" />
<glyph unicode="4" horiz-adv-x="712" d="M-47 334q0 10 7 32.5t9 36.5q2 15 14 44.5t21 33.5q4 2 12 3t13.5 3.5t5.5 8.5t-5 16t-5 16q0 9 8 29q8 24 18.5 46.5t27 54.5t27.5 55q2 4 7.5 25.5t13.5 29.5q6 6 15.5 27t17.5 41.5t17.5 45t10.5 27.5q4 10 19 28t18 26q14 31 54 128.5t70 160.5t65 120q9 15 27 31 t32 16q4 0 21.5 7t35 10.5t48.5 -2.5q7 -2 15.5 -2t18 1t13.5 1q56 0 69 -11q27 -18 27 -41q0 -11 -3 -32.5t-3 -34.5q0 -4 1 -14.5t0.5 -18.5t-3.5 -16q-6 -16 -9.5 -34.5t-4.5 -30.5t-2.5 -31.5t-2.5 -28.5q-4 -60 -21 -171.5t-22 -158.5q-2 -18 -10.5 -60t-9.5 -65 q-1 -21 -9 -59.5t-8 -63.5q0 -5 1 -29t-1 -30q-2 -15 5 -30t24 -19q35 -7 37 -56q5 -157 -66 -172q-18 -5 -45 -28q-5 -5 -9 -29.5t-7 -58t-4 -39.5q0 -4 -0.5 -9t-0.5 -7t-1 -5t-3.5 -6.5t-6.5 -9.5q-11 -15 -22.5 -22.5t-18 -8.5t-25.5 0.5t-29 1.5q-7 0 -34.5 -3 t-34.5 -3q-103 0 -103 51q0 12 2 28t2 30q0 6 -1 26t-1 27t2 19.5t2 13.5q0 13 -18.5 21.5t-32.5 8.5q-31 0 -87.5 -2t-86.5 -2q-65 0 -81.5 20.5t-16.5 92.5zM240 502q0 -19 10 -35t31 -16q20 0 38.5 30t18.5 56q0 9 2 36.5t2 51.5q0 7 -9 13.5t-16 6.5q-22 0 -39.5 -30.5 t-21.5 -57.5q-2 -10 -9 -23.5t-7 -31.5zM467 713q0 -21 14 -21q29 0 29 15q0 3 2 11q4 19 -4 19q-7 0 -24 -9t-17 -15zM481 1049q0 -15 21 -15q8 0 8 15q0 18 -4 18q-5 0 -15 -7t-10 -11z" />
<glyph unicode="5" horiz-adv-x="716" d="M-8 178q0 47 14 119q4 28 12 127q1 11 9 27t8 34q0 10 4.5 17t14 14t12.5 10q21 21 53 21q13 0 41 -2t41 -2q5 0 19 0.5t18.5 0t14 -5t17.5 -14.5q13 -17 13 -55q0 -11 -5.5 -41t-5.5 -41q0 -13 -7 -38t-7 -38q0 -28 18.5 -41.5t47.5 -13.5q43 0 51 35q25 159 35 266 q1 11 20 113q6 37 6 82q0 77 -55 77q-14 0 -23.5 -5t-15 -11.5t-9 -19t-4.5 -19.5t-3 -22q-1 -12 -7.5 -34.5t-7.5 -31.5q-7 -36 -32 -53q-8 -5 -18 -5.5t-26.5 0.5t-23.5 1q-9 0 -42 -1t-42 -1q-6 0 -25 3t-24 3t-9 1.5t-6 4.5t-3.5 6t-2 8.5t-0.5 8.5v9.5v8.5q0 16 9 33.5 t10 31.5q0 9 15 25.5t15 20.5t-14.5 10.5t-15.5 21.5q-1 9 0.5 20t1.5 17q0 30 11 86.5t13 81.5q12 138 21 164q8 26 16 83t11 71q10 57 28 71q12 8 24.5 12.5t19.5 5t28 1t31 0.5q19 2 62 -0.5t69.5 -3t50.5 5.5q34 10 102 0q18 -3 74 0.5t90.5 -5t40.5 -40.5 q3 -20 -16 -119q-1 -4 -3.5 -19.5t-4 -21t-5.5 -17t-8.5 -16.5t-12.5 -10.5t-18 -7.5q-17 -4 -36 -5.5t-32 -1.5t-37 0.5t-34 0.5q-9 0 -25.5 -2t-30 -2t-24.5 4q-15 4 -55 0q-9 -1 -15 -2.5t-11 -6t-7.5 -7t-5 -11.5t-3 -12.5l-2.5 -17.5t-3 -19q-6 -23 -4 -39.5t24 -16.5 q12 0 19 2.5t15 7t16 7.5q48 18 118 18h41q25 -4 62 -26q5 -5 37 -21q12 -8 20 -43.5t8 -52.5q0 -12 -2 -35t-2 -35q0 -13 -7 -36t-7 -39q0 -22 -8 -64t-9 -61q-6 -56 -26 -181q-6 -38 -12.5 -113t-12.5 -112q-9 -42 -13 -59t-17 -48t-31 -53q-5 -6 -13 -20.5t-12 -20.5 q-25 -32 -67 -41q-6 -1 -42 -12.5t-48 -11.5q-1 0 -42 -2t-53 -2h-51q-23 0 -66 13t-69 13q-57 0 -96 45t-39 117zM551 1296q-8 -8 6 -10q8 -1 16 2l12 -3q12 -3 15 5q5 8 -5.5 14.5t-21.5 6.5q-7 0 -22 -15zM553 489q0 -5 6 -9.5t10 -4.5q27 0 27 14q0 6 -3.5 9t-11.5 4.5 t-12 3.5q-6 3 -11 -2.5t-5 -14.5z" />
<glyph unicode="6" horiz-adv-x="735" d="M-14 174q0 72 18 191q3 19 11 55t12 64t4 55q0 10 8 29.5t2 37.5t3.5 56t10.5 47q5 37 14 105t13 99q10 50 10 64q0 4 -0.5 11t0 10t2.5 8.5t6 11.5q5 6 7.5 13t2.5 11t-0.5 12.5t-0.5 12.5q0 19 6.5 50.5t7.5 41.5l1 13q2 14 2.5 16t2.5 15t3.5 17.5t5 17.5t7 20.5 t9 21.5t12 25.5t15 27t18.5 31.5q15 24 68 45t102 31q50 12 92 6q39 -6 129 -6q114 0 164 -76q30 -45 30 -113q0 -13 -6 -39.5t-6 -29.5q-6 -64 -14 -117q-3 -19 -20.5 -36t-35.5 -17q-16 1 -35 0t-42 -3t-35 -3q-11 -1 -22 1t-23.5 6t-20.5 5q-24 5 -24 45q0 10 1 26.5 t1 26.5q0 30 -16.5 47t-43.5 17q-28 0 -42.5 -21.5t-16.5 -52.5q-1 -11 0.5 -36t-2.5 -40q-1 -5 -4.5 -15.5t-3.5 -15.5t-5 -24.5t-6 -36.5q0 -25 39 -25q18 0 43.5 11.5t40.5 11.5q4 0 24 8t44 8q46 0 92 -20q9 -4 14 -16.5t13 -12.5q37 0 52 -43.5t9 -87.5q-2 -14 -3 -43 t-3 -41q-2 -10 -6.5 -30t-6.5 -28.5t-3.5 -24t-1.5 -32.5q0 -95 -43 -276q-3 -11 -5 -34.5t-6 -37.5q-17 -55 -27.5 -80.5t-31 -57.5t-50 -50t-75.5 -31q-7 -2 -20.5 -7.5t-21 -8t-21 -4t-19.5 3.5q-10 4 -22 4t-27 -2t-23 -2q-65 0 -101 2.5t-80.5 14t-76 37.5t-59.5 69 q-14 23 -14 61zM82 621q0 -21 14 -21q6 0 11.5 9.5t5.5 21.5q0 7 6 15t6 9q0 13 -12 13q-10 0 -20.5 -16.5t-10.5 -30.5zM246 1294q0 -3 1.5 -3.5t4.5 0t6 2t7 2.5t7 1q14 0 21 11q3 6 -6.5 11t-14.5 5q-9 0 -17.5 -10.5t-8.5 -18.5zM281 354q0 -98 53 -98q21 0 34.5 15 t17 28.5t6 43t3.5 32.5q1 7 5.5 15.5t5.5 15.5q8 56 10 79q0 2 4 34t4 40t2 27.5t1.5 35t-5.5 27.5q-6 13 -10.5 19.5t-14 13t-22.5 6.5q-9 0 -16.5 -3t-13.5 -10t-8.5 -11t-7.5 -15t-7 -14q-4 -7 -6 -18.5t-2 -28.5t-1 -23q-2 -20 -10 -67.5t-10 -71.5l-6 -24 q-6 -25 -6 -48z" />
<glyph unicode="7" horiz-adv-x="673" d="M14 35q0 17 7 34.5t21.5 43.5t18.5 34q15 30 15 48q0 12 14 38t16 33q5 11 16.5 31t14.5 25q25 51 50.5 112t41 102.5t17.5 45.5q1 1 8.5 17t16.5 32.5t16 23.5q6 6 17.5 38.5t21.5 67t12 38.5q5 11 18 37t17 38t18 19.5t15 13.5q1 11 1.5 22t1 16.5t1.5 11t4 10.5 q6 10 11.5 31.5t8.5 29.5q4 10 15.5 31.5t16.5 36.5t5 34t-11 26t-34 7q-12 0 -32.5 6t-33.5 5q-83 -5 -100 -5q-70 0 -123 13q-39 10 -39 57q0 6 2 17.5t2 17.5q0 9 2 21.5t5 29.5t4 27q1 9 7.5 24.5t6.5 16.5q0 24 16.5 31.5t51.5 7.5q21 0 57.5 3t44.5 3q24 1 74 -3 t75 -3q9 0 72.5 3t71.5 3q21 0 65 -3t68 -3q23 0 39 -19.5t16 -36.5q0 -4 0.5 -12t0.5 -13.5t-1 -12.5t-4 -13q-3 -7 -3 -29t-3 -36q-6 -30 -23.5 -84.5t-23.5 -79.5q-5 -25 -29.5 -75.5t-38.5 -74.5q-4 -9 -10 -29t-11.5 -40t-6.5 -23q-3 -10 -11 -26t-10 -21 q-6 -18 -22.5 -61.5t-24.5 -69.5q-4 -18 -20.5 -51.5t-20.5 -44.5q-6 -17 -20 -66t-29 -84l-33 -68q-9 -18 -19 -54.5t-16 -51.5q-8 -20 -25.5 -59.5t-25.5 -59.5q-2 -6 -3.5 -17.5t-2.5 -13.5q-4 -14 -18 -38.5t-17 -32.5t-21.5 -19.5t-25.5 -11.5q-4 0 -30 -5t-29 1 q-11 5 -26.5 5t-32 -2.5t-21.5 -2.5q-17 0 -40 2t-40 2q-7 0 -17 11.5t-10 19.5zM461 1300q0 -12 28 -12q23 0 23 17q0 2 -4 2.5t-11 1.5t-12 4q-9 7 -16.5 0.5t-7.5 -13.5z" />
<glyph unicode="8" horiz-adv-x="729" d="M-6 180q0 121 20 197q2 6 11.5 14t9.5 15q0 10 -8.5 23.5t-8.5 23.5q0 9 5.5 25.5t5.5 25.5q0 38 20 90q34 82 54 111q12 16 28 32q14 14 14 27q0 21 -34 55q-27 27 -27 107q0 15 0.5 30t2.5 33t3 29.5t4.5 32t5 29t6.5 32.5t6 29l6.5 32.5t6.5 30.5q16 61 16 74 q0 9 21 35q2 2 10.5 17t11.5 18q43 47 72 59q63 22 70 23q24 3 36 -1t13.5 -11t4.5 -13t11 -6q6 0 8.5 2.5t2 6t1.5 8.5t7 9q21 17 61 13q10 1 38 6.5t44 5.5q56 0 114.5 -22.5t82.5 -63.5q24 -40 24 -88q2 -27 -1 -74.5t-3 -64.5q0 -40 -14 -117q-10 -38 -15 -51 q-8 -28 -8 -35q0 -13 -1.5 -19t-7 -15t-9.5 -19q-22 -49 -58 -82q-20 -20 -20 -45q0 -13 16 -49q5 -13 18 -35t19.5 -40t3.5 -38q-1 -9 0 -41t-6 -41q-8 -23 -14 -92q-2 -17 -8.5 -61t-8.5 -68q-3 -32 -11.5 -49t-8.5 -27q0 -33 -14 -61q-4 -7 -16 -31.5t-22.5 -42.5 t-17.5 -25t-23.5 -15.5t-38 -17.5t-26.5 -12q-15 -7 -31 -11.5t-39.5 -6.5t-34 -2.5t-40.5 0t-33 0.5q-15 0 -45 -1.5t-48.5 -1.5t-43 4t-43.5 13q-3 1 -20 7t-32.5 11.5t-19.5 8.5q-55 37 -55 151zM121 606q0 -10 6.5 -22.5t17.5 -12.5q5 0 8.5 3.5t0.5 7.5q-3 5 -2 16.5 t-2 15.5q-2 3 -6.5 3t-10 -1.5t-6.5 -1.5q-6 0 -6 -8zM274 303q0 -20 18 -37.5t34 -17.5q39 0 51 24.5t12 69.5q0 8 4 29.5t4 34.5q0 11 9 44t4 54q-1 7 3.5 22.5t4.5 22.5q0 30 -16.5 53t-45.5 23q-13 0 -32 -15t-19 -26q0 -2 -2 -28t-2 -28q0 -3 -6 -23t-6 -46 q-1 -17 -8 -71.5t-7 -84.5zM356 952q-7 -14 10 -37.5t31 -23.5q38 0 49.5 9t22.5 42q10 27 10 98q0 13 5 33t5 23q0 46 -10 53q-2 1 -11.5 10t-17 14t-12.5 5q-19 0 -28 -9q-7 -6 -12 -12t-8.5 -10.5t-6 -12.5t-4 -11t-2 -13t-0.5 -12v-14.5v-14.5q0 -13 -8 -59.5t-13 -57.5 z" />
<glyph unicode="9" horiz-adv-x="735" d="M2 199q0 17 11.5 26t25.5 9.5t26 2t13 5.5q1 6 -8 10t-20 6.5t-20.5 12t-9.5 24.5q0 9 -1.5 28t-0.5 33q4 40 20.5 66.5t51.5 23.5q23 -2 49 0t44 4.5t20 2.5q35 0 61 -21q15 -10 15 -55q0 -12 -2.5 -33.5t-2.5 -28.5q0 -37 12.5 -49t39.5 -12q20 0 37 14t18 35 q1 13 2 37t3 43t7 35q21 65 21 96q0 13 -7 19t-14 7t-22 1q-16 0 -46 -12.5t-44 -12.5q-3 0 -33 -4t-72 -4q-17 0 -50.5 18t-35.5 19q-37 15 -37 112q0 67 8 91q11 24 9 79t0 68q1 9 11.5 40t10.5 48q0 13 5.5 43t6.5 45q0 23 7 74q1 6 5 23t5 26q8 65 22 99.5t52 70.5 q13 12 45 21.5t36 15.5q5 8 21.5 18.5t40.5 14.5l68 10q17 0 56 1t60 1q113 0 170 -43q3 -2 19 -9t29.5 -17.5t21.5 -26.5q14 -28 14 -86q0 -12 2 -33t2 -33q0 -19 -5.5 -39t-6.5 -26q-5 -90 -12 -132q-2 -11 -11 -45.5t-10 -52.5q-12 -145 -35 -307q-2 -11 -6.5 -37.5 t-7 -46.5t-2.5 -39q0 -28 -10.5 -72.5t-11.5 -66.5q-6 -78 -29 -154q-6 -18 -22 -49.5t-21 -44.5q-3 -8 -7 -15t-10.5 -13t-10.5 -9.5t-15 -9l-15 -7.5t-18 -8t-18 -8q-30 -14 -65.5 -21t-52.5 -8t-68 0t-62 1q-62 0 -107 14q-88 24 -123 88q-8 14 -12 29t-4.5 22.5t0 29 t0.5 28.5zM264 1251q0 -3 -1 -8q-1 -3 -1 -5t0.5 -3.5t3.5 -1.5q4 0 13.5 5t9.5 9q0 5 -4.5 10t-10.5 5q-10 0 -10 -11zM340 811q0 -15 16 -28t31 -13q47 0 55 25q2 8 17 43q4 3 1.5 21.5t-1.5 29.5q1 9 5.5 21.5t4.5 13.5q4 17 6 38.5t3.5 48t2.5 40.5q1 10 4.5 27.5 t3.5 33.5q0 6 -0.5 11.5t-1.5 10t-1.5 7.5t-2.5 7t-3 5.5t-4.5 5l-4.5 4.5t-6 5.5t-6 5.5q-9 6 -25 6q-24 0 -38.5 -16.5t-14.5 -39.5q0 -30 -14 -114q-3 -25 -11 -35q-2 -2 -1 -9t2 -16t-1 -22q0 -2 -2.5 -9t-5 -25t-2.5 -46q0 -4 -3 -15.5t-3 -21.5zM481 272q29 0 31 19 q0 14 -16 14q-15 0 -15 -14q0 -2 -2 -7.5t-2 -8.5t4 -3z" />
<glyph unicode=":" horiz-adv-x="374" d="M-25 47q0 8 3.5 16.5t3.5 10.5q0 32 2.5 78.5t5.5 50.5q5 9 12.5 12t13.5 1.5t10.5 0t4.5 8.5t-11.5 15t-13.5 12v20q0 78 66 86q16 0 56 3.5t67 3.5q26 0 55 -7q29 -6 41 -47q5 -14 -2 -58t-25 -56q-5 -6 -2 -8.5t7 -15t1 -28.5q0 -2 -3 -37.5t-3 -37.5q-3 -21 -8.5 -31 t-19.5 -21q-7 -6 -16.5 -8.5t-16 -2.5t-18.5 0.5t-17 0.5q-18 0 -49 -3.5t-57.5 -3.5t-51.5 7q-10 3 -22.5 17t-12.5 22zM74 795l4 24q0 3 3 31.5t3 30.5q12 62 12 82q0 10 3 30.5l3 20.5q0 9 15 39q8 21 57 26q7 1 21.5 -4t21.5 -4q3 1 13 7.5t14 6.5h7q18 2 28.5 2.5 t29.5 0.5t30 -2.5t23.5 -7t18.5 -13.5t6 -21q0 -33 -6 -71q-8 -40 -8 -41q0 -23 -3 -39l-3 -16q0 -59 -13.5 -89.5t-54.5 -37.5q-10 -2 -20.5 -2t-21 1t-13.5 1q-6 0 -18.5 -1.5t-24 -3.5t-13.5 -2q-24 0 -39 1t-35 5.5t-30 16t-10 29.5zM195 932q0 -21 14 -21q5 0 11.5 2 t11 6t4.5 9q0 8 -6.5 10.5t-18.5 -2.5q-4 -2 -7.5 -1.5t-6 0.5t-2.5 -3z" />
<glyph unicode=";" horiz-adv-x="374" d="M-35 39q0 37 6 51q9 18 9 90q0 10 4.5 23t5.5 16q2 13 3 32.5t2.5 32t6.5 19.5q15 18 21.5 24.5t19 13t29.5 7.5q16 1 34 -6t25.5 -9t24.5 9q10 5 15.5 3.5t18 -5.5t21.5 -4q42 0 56 -17.5t14 -50.5q0 -32 -13 -97t-14 -101q0 -33 -21 -68q-26 -37 -63 -63 q-86 -70 -137 -103q-25 -16 -39 -2q-20 20 -12 31q0 1 36.5 39.5t36.5 66.5q0 18 -14 26.5t-31 9t-31 8t-14 24.5zM63 805q0 17 7.5 52t7.5 52q0 25 8 68.5t10 58.5q3 20 23.5 32.5t38.5 12.5q16 0 51 4.5t51 4.5q24 0 36.5 -12t22.5 -13q1 0 9 -0.5t11.5 -1t10.5 -2 t10.5 -3.5t8 -5t6.5 -7t2 -10q0 -42 -10.5 -112.5t-10.5 -112.5q0 -31 -41 -46t-82 -7q-16 3 -64.5 -3.5t-77 2.5t-28.5 48z" />
<glyph unicode="&#x3c;" d="M117 666q-22 25 -23 53t25 49l49 53q6 4 20 13.5t17 11.5q8 6 28 24t27 23q8 5 22 17t30 27t20 19q12 10 37.5 28t45.5 31t21 15q24 27 72 27q12 0 34 3t33 3q8 0 25 -3t25 -3q12 0 33.5 3t35.5 3q8 0 15 -9t4 -25.5t-23 -33.5q-6 -5 -46 -44t-75 -62q-10 -7 -43 -38 t-49 -34q-9 -2 -15 -8t-16.5 -20t-23.5 -27q-25 -25 -28 -37q-3 -9 -3 -25q0 -19 23 -45q9 -10 26 -33.5t23 -31.5q33 -42 61 -68q44 -39 76 -90q11 -22 2 -34.5t-22 -12.5q-7 0 -26 -1.5t-30 -0.5q-15 1 -38 -2.5t-35 -3.5q-69 0 -95 20q-18 17 -41 42.5t-36.5 42.5 t-16.5 22q-17 19 -39 34.5t-28 24.5l-5 13q-6 12 -14 20q-6 6 -59 70zM420 532v-5q-1 -3 -1 -5t1.5 -3t5.5 -1q14 0 14 10q0 3 -5.5 10t-8.5 7q-7 0 -6 -9v-2v-2z" />
<glyph unicode="=" d="M31 461q0 23 7 64t7 63q0 12 6 20t15.5 13.5t11.5 7.5q10 10 24 10q8 0 35.5 1.5t50.5 0.5q151 -7 230 4q17 2 43 -3t39 -5q9 0 31.5 4t31.5 4q64 0 99 -6q17 -3 22.5 -16t5.5 -39q0 -27 -0.5 -43t-4 -43t-10.5 -42.5t-20.5 -27.5t-33.5 -12q-5 0 -30 -1t-44 -1 q-8 0 -26.5 1t-31.5 0.5t-26 -3.5q-6 -1 -19 -5t-19.5 -5.5t-19.5 -3t-18 2.5q-22 7 -111 7q-76 -2 -139 -2q-20 0 -42 4t-43 17t-21 34zM78 838q0 11 4.5 35.5t3.5 33.5q-1 13 7 36t9 32q2 14 21 29l5.5 5.5t6 4t5.5 2.5t5.5 2t5.5 1.5t6.5 0.5h6.5h8h8q15 0 50.5 1t65.5 1 t54 -2q32 -3 66 -3t63.5 1.5t34.5 1.5q14 0 48 2t59 2q14 0 43.5 -2t46.5 -2q19 0 28 -19t9 -43q0 -41 -16.5 -96t-45.5 -55q-5 0 -15.5 2t-15.5 2q-3 0 -11.5 -6.5t-12.5 -7.5q-77 -12 -115 0q-13 4 -53 0q-19 -2 -53 -2.5t-45 -1.5q-74 -2 -222 -2q-20 0 -42.5 12.5 t-22.5 34.5z" />
<glyph unicode="&#x3e;" d="M94 451q17 16 53.5 44.5t59.5 49.5q7 6 19 14.5t22 16.5t16 16q4 6 8.5 11t10 9.5t10 8t12.5 9.5t14 11q4 3 19 13t23.5 16.5t21 19.5t17 24t5 27t-7.5 33q-2 4 -20.5 21.5t-20.5 19.5q-17 17 -34 45l-41 41q-17 15 -45 47t-41 45q-13 12 -9 31.5t25 19.5q9 0 16 1.5 t17 5.5t16 6q20 6 82 6q46 0 66 -10q16 -8 90 -82q15 -17 41.5 -48.5t35.5 -41.5q7 -10 26.5 -32t29.5 -26q11 -4 16.5 -10.5t7.5 -15t2 -9.5q2 -6 16 -17t15 -13q10 -10 8 -38t-22 -46q-5 -4 -26 -27.5t-38 -36.5q-65 -52 -106 -92q-6 -5 -26.5 -18.5t-28.5 -22.5 q-13 -15 -37 -33.5t-35 -29.5q-25 -25 -52.5 -33t-76.5 -8q-8 0 -35 -4t-61 -4q-5 0 -23 4t-31 4q-24 0 -26 27.5t22 50.5z" />
<glyph unicode="?" horiz-adv-x="698" d="M90 1014q5 24 12.5 86.5t18.5 97.5q5 17 11 41.5t11.5 40.5t16.5 39q14 31 25.5 43.5t33.5 19.5q12 4 28 12t29.5 16t16.5 9q19 8 39.5 12.5t33 5t38 1t36.5 0.5q23 0 43 -0.5t33 -1.5t23.5 -2.5t17 -3t11 -2.5t7 -2t3.5 -1q7 0 41.5 -5t44.5 -9q53 -23 71.5 -64.5 t20.5 -115.5q0 -18 -2.5 -33t-7 -36.5t-7.5 -43.5q0 -3 -2.5 -29.5t-4.5 -40t-7 -38t-12 -45.5q-14 -42 -45 -105q-21 -38 -54 -76.5t-72 -80.5t-61 -70q-1 -2 -2.5 -6l-3 -8t-4.5 -7t-6 -4q-14 -3 -25.5 -39t-11.5 -59q0 -2 -1 -24.5t-1 -24.5q-4 -20 -36.5 -30.5 t-55.5 -10.5q-20 0 -50 3t-51 3t-29.5 13t-7.5 28.5t3.5 39.5t1.5 36q-2 13 8 47q28 113 104 180q11 10 33 39t37 47q15 20 26 38t14.5 26.5t9.5 24.5t7 18q3 7 9.5 21.5t10 22.5t7.5 19.5t6 22t2 20.5q0 11 -2 33t-2 35q0 14 -19 26.5t-32 12.5q-62 0 -62 -101 q0 -10 -5 -20t-5 -11q-3 -13 -5.5 -35.5t-5 -34.5t-10 -26t-24.5 -20.5t-45 -7.5q-20 0 -20 28q0 6 -13 6q-14 0 -14 -12q0 -2 0.5 -10t0 -11t-4.5 -6.5t-12 -3.5q-5 0 -16 1t-13 1q-18 0 -27.5 1t-23 7.5t-21.5 20.5q-14 25 -4 72zM104 39q0 4 2 12t3 13l2 6v47 q0 12 9 31.5t9 35.5q0 6 5 47t5 72q0 5 6 12.5t13.5 14t11.5 8.5q10 5 21 5t24.5 -2.5t22.5 -2.5q6 0 20.5 2t20.5 2q17 0 50.5 3t49.5 3q20 0 33.5 -22t13.5 -43q0 -10 -3 -22.5t-3 -18.5q-1 -18 -3 -36.5t-3 -25.5q0 -1 -4 -25.5t-4 -39.5q0 -7 -7.5 -34t-11.5 -36 q-15 -39 -70 -39q-10 0 -80.5 -3.5t-80.5 1.5q-14 2 -33 13.5t-19 21.5zM496 733q0 -5 0.5 -7.5t2.5 -4.5t7 -2q6 0 15 9.5t9 12.5q0 5 -3 9t-7 4q-7 0 -15.5 -8t-8.5 -13z" />
<glyph unicode="@" horiz-adv-x="1159" d="M18 279q1 22 -0.5 59.5t0 67t7.5 59.5q3 13 3.5 27.5t0 22.5t0.5 17q7 38 25.5 156t29.5 174q8 48 33 76q4 4 6.5 32t11.5 46q8 17 17 39t10 24q49 91 186 185q13 9 28.5 16.5t27 12.5t31 13t32.5 13q19 9 44.5 15.5t39 8.5t47.5 7q2 0 10 2t16 3.5t25.5 3t40.5 1.5 q58 0 117.5 -11.5t111.5 -32.5t94.5 -53.5t65.5 -70.5q37 -65 60 -129q3 -8 4.5 -13.5t2.5 -13.5t1 -10v-14.5v-16.5q0 -193 -17 -309q-1 -7 -3 -15t-5 -17t-4 -15q-2 -14 -2 -45q0 -17 -13.5 -63t-23.5 -74q-10 -27 -25.5 -52t-19.5 -38q-19 -53 -46.5 -94.5t-72 -73 t-100.5 -41.5q-30 -7 -78.5 -4.5t-79.5 16.5q-10 5 -13.5 12.5t-1.5 13.5t1 10.5t-8 4.5q-6 0 -16.5 -7t-16.5 -7q-4 0 -21 -3.5t-24 -3.5q-12 0 -30 -8.5t-45 -17t-62 -8.5q-10 0 -33 5t-29 5q-38 0 -60.5 33t-16.5 80q3 21 20 83t21 101q3 27 23 77.5t20 71.5q0 16 8 66 q1 13 8 29t8 22q3 14 9 41t10 44.5t11 42t14.5 42.5t18 38t25 36.5t31.5 30.5q6 5 13.5 8.5t19.5 5.5t20 3.5t24 2t22 0.5h23.5h18.5q8 0 33 -10t47 -10q10 0 27 6t26 6q40 4 56 4q45 0 45 -37q0 -14 -3 -29.5t-6.5 -27.5t-8.5 -28t-7 -26q-20 -69 -27 -116 q-4 -23 -23.5 -97t-23.5 -102q-3 -16 -9.5 -43.5t-13 -53t-14.5 -57t-12 -49.5q-8 -38 0 -55q3 -6 7 -11t7 -7.5t9 -7t8 -5.5q8 -6 17 -6.5t17.5 3t17.5 10.5t16 14t15 14t13 10q6 4 19 7.5t20 11.5q5 5 2.5 12.5t-0.5 13.5q5 22 23.5 78.5t25.5 89.5q5 25 11 81t10 75 q16 72 16 133q0 8 5 22t5 15q3 22 3 44t-1.5 47.5t-1.5 39.5q0 20 -8 42.5t-18.5 47.5t-14.5 43q-4 14 -28 34t-43 28q-15 9 -36.5 15t-35.5 7.5t-43 3t-37 2.5q-2 0 -7 1.5t-14.5 3t-23.5 1.5q-17 0 -33 -2t-41 -6.5t-34 -5.5q-12 -2 -36.5 -3.5t-42 -5t-36.5 -11.5 q-29 -13 -94 -78q-52 -61 -77.5 -105t-43.5 -112q-4 -16 -7.5 -53.5t-8.5 -57.5q-13 -50 -23 -146t-16 -128q-11 -58 -11 -162q0 -8 -0.5 -36t0 -39.5t3 -32.5t8.5 -38q24 -76 69.5 -120.5t122.5 -61.5q82 -20 158 -20q15 0 68 1t69 1q6 0 41.5 5t40.5 5q15 0 31.5 -11.5 t13.5 -25.5q-3 -20 -7.5 -34.5t-9 -25t-13.5 -17.5t-15.5 -11.5t-21.5 -8t-26 -5t-34 -4.5q-14 -1 -33.5 -3.5t-33 -4t-31 -2.5t-33.5 -1q-125 0 -188 31q-8 4 -11 18t-10 25.5t-25 11.5q-10 0 -26 -10t-25 -10q-29 0 -51 16q-65 40 -116 105.5t-72 142.5q-11 33 -11 103z M471 309q2 -9 8.5 -14t13 -5.5t19.5 -0.5q15 0 24.5 3.5t14.5 13.5t7 18t5 26q1 5 8.5 23t6.5 26q-1 3 3 20t11 42t10 39q35 167 53 241q2 10 12.5 45.5t10.5 55.5q0 17 -10 29t-31 12q-22 0 -34 -6.5t-21 -24.5l-15 -37q-1 -5 -1 -11.5t1 -11.5t1 -12t-1.5 -14t-9.5 -24.5 t-10 -32.5q-9 -51 -21.5 -105t-17.5 -84q-1 -9 -8 -37.5t-8 -46.5q-1 -10 -10.5 -35.5t-10.5 -35.5q0 -1 -1 -11t-1 -22t2 -23zM1024 725q0 -20 6 -20q3 0 6.5 3t5.5 7.5t2 9.5q0 7 -4.5 13.5t-9.5 6.5q-6 0 -6 -20z" />
<glyph unicode="A" horiz-adv-x="776" d="M-51 41q0 16 3.5 35t9 38.5t10.5 33.5t11 30t7 19q2 6 5.5 41t10.5 59q18 55 19 68q5 38 30.5 118.5t30.5 98.5q1 3 21 68t24 104q1 16 12 50t13 48q2 21 19.5 58t17.5 48q0 16 3 31t11 39t10 31q26 75 29 110q2 22 22 78t23 68q14 56 30 77t50 21q7 0 16.5 5.5t41 11.5 t89.5 6q13 0 17.5 -10.5t7.5 -10.5t13.5 10.5t23.5 10.5q61 0 83.5 -12.5t28.5 -53.5q15 -98 15 -135q0 -14 -3.5 -44t-3.5 -46q0 -6 2 -19t2 -25.5t-4 -25.5q-4 -1 -1 -29.5t3 -31.5q0 -13 4.5 -83t-1.5 -83q-7 -45 -8 -86.5t1 -85t2 -68.5q0 -11 -4.5 -28.5t-6.5 -27.5 t3 -26q7 -16 8 -30t-1.5 -31t-2.5 -25q-2 -39 -2 -102q0 -34 -15 -51.5t-29.5 -22t-14.5 -8.5q0 -13 9.5 -17.5t21 -5.5t21 -17.5t9.5 -51.5q0 -10 -1 -26t-1 -19v-35q0 -24 -12 -51t-39 -27q-23 0 -63 -3t-56 -3q-72 0 -88 16q-35 30 -35 66q0 7 1 25t0.5 25t-4 19.5 t-11 17t-22 9t-35.5 4.5q-13 0 -31 -3t-23 -3q-20 0 -33.5 -23t-13.5 -47q0 -53 -37.5 -79.5t-91.5 -26.5q-8 0 -23 5t-22 5q-4 0 -27 -3t-34 -3q-15 0 -30 10.5t-15 26.5zM324 506q0 -41 16 -51h20q21 0 33.5 12.5t16.5 28t6 41.5q10 108 10 120q2 33 5.5 60t5.5 43 q3 19 3 25t-6 6q-9 0 -19.5 -18.5t-13.5 -18.5q-18 0 -29.5 -26t-11.5 -46q0 -25 -18 -81.5t-18 -94.5zM412 866q-4 -6 -4.5 -10t4 -4.5t16.5 4.5q3 1 7 2t5.5 2t1.5 6q0 11 -14 11q-8 0 -16 -11zM535 252q0 -12 16 -12q5 0 17 4.5t12 7.5q0 5 -12 8.5t-27 3.5q-6 0 -6 -12z " />
<glyph unicode="B" horiz-adv-x="794" d="M-20 63q0 24 2 51t4 47.5t7.5 52t8 46.5t9.5 51t9 47q3 17 14 31t13 27q0 1 -8.5 14.5t-7.5 30.5q10 73 10 96q0 2 18 92q4 18 4 60q0 8 6.5 28t6.5 54q0 23 20 100q2 7 0.5 29.5t-0.5 31.5q3 29 29 189q6 37 14.5 108t14.5 107q3 20 15 36.5t28 24.5q8 4 37 3t42 3 q10 3 21.5 -6t11.5 -22q0 -21 9 -27q4 -2 8 2q6 5 9 21.5t12.5 27.5t33.5 11q10 0 89 6t110 6q10 0 31.5 -6t31.5 -6q47 0 119 -35q51 -20 59 -62q2 -9 8 -27.5t9.5 -36t3.5 -36.5q0 -15 -3 -47t-3 -49t-11 -52t-12 -45q-4 -58 -12 -98q-10 -43 -34 -84t-46 -61 q-27 -27 -16 -54q32 -73 40 -116q5 -20 4 -74t-8 -82q-5 -19 -5.5 -54.5t-10.5 -49.5t-9.5 -28.5t-0.5 -31.5q-16 -76 -27 -104q-2 -5 -8.5 -18t-11 -22.5t-4.5 -12.5q-13 -30 -24 -47t-32 -33q-133 -93 -372 -66q-62 5 -70 4q-76 -6 -152 6q-14 2 -24 16t-10 33zM309 328 q0 -35 45 -35q55 0 72 35q14 35 14 65q0 7 4.5 20t4.5 27q0 17 6 55t6 58t-4 25q-3 5 -14 16t-17 14q-5 4 -27 4q-17 0 -30 -8t-19.5 -17t-11 -28t-5.5 -28.5t-3 -30.5q0 -2 -3 -24.5t-3 -24.5q-4 -55 -9 -70q-6 -18 -6 -53zM399 918q5 -11 17 -16t18 -5h23q29 0 47 23.5 t18 52.5q0 35 4 59q2 12 2 22.5t-1 19.5t-1 11q0 6 1 16t1 17t-2 12q-4 11 -12 15.5t-13 5t-20 0.5q-42 0 -55.5 -19.5t-13.5 -62.5q0 -23 -6 -59q0 -1 -2 -7t-3.5 -19t-1.5 -32q0 -4 -1.5 -11t-1.5 -12.5t3 -10.5zM502 406q0 -6 7 -10.5t13 -4.5q17 0 17 19v2q0 8 -1.5 11 t-9.5 3q-4 0 -15 -6.5t-11 -13.5z" />
<glyph unicode="C" horiz-adv-x="780" d="M0 289q18 141 31 176q2 6 4 15l3 13.5t4 11t7 8t11.5 3.5t17.5 -2q25 -5 31 1.5t-17 21.5q-6 4 -13.5 8t-11 6t-7.5 6t-5.5 10.5t-2.5 17t-1 27.5q0 77 35 279q4 24 18 127q1 9 5.5 31t7.5 44t4 44q2 31 26 106q11 36 33.5 78t46.5 59l62 31q48 27 86 27q2 0 69 2t88 2 q51 0 88 -3t85 -20.5t75 -48.5q9 -11 12.5 -29.5t4.5 -21.5q0 -1 12 -13t12 -22q0 -97 -10 -154q-3 -16 -4.5 -46t-5.5 -54q-8 -56 -8 -90q0 -15 -19 -33t-33 -18q-2 0 -33 -7.5t-67 -7.5q-5 1 -12 2t-26 3.5t-25 -0.5q-9 -2 -28.5 1t-21.5 3q-6 0 -13 10.5t-7 26.5 q0 27 8.5 74.5t11.5 76.5q4 40 -6 63t-45 23q-21 0 -31 -6q-13 -11 -17.5 -15t-12 -16t-10.5 -24q-3 -11 -2 -38.5t-3 -33.5q-9 -18 -10.5 -34.5t-3.5 -51.5t-10 -78q-2 -15 -33 -229q-2 -12 -13.5 -35.5t-11.5 -38.5q0 -8 2.5 -29t2.5 -36q0 -22 -7.5 -79t-7.5 -73 q0 -61 45 -61q16 0 26.5 4t16.5 13t9 17.5t7.5 23t8.5 23.5q15 37 24 111q1 8 4 33.5t5 34.5t8 27.5t15 26.5t24.5 16t36.5 9q17 0 58 3.5t69 3.5q17 0 41 -13.5t24 -27.5q0 -25 -5.5 -74.5t-6.5 -73.5q0 -51 -14 -121q-14 -78 -56 -163q-3 -8 -12 -18t-12 -21 q0 -15 -17 -41q-4 -8 -16.5 -15t-28 -13t-20.5 -9q-53 -35 -121 -35q-34 0 -93 -3t-102 -3q-59 0 -135 31q-19 8 -31 17.5t-17 16t-14 22t-16 25.5q-8 11 -13 23.5t-7 27t-3.5 24.5t0 28.5t2 25.5t3.5 28t4 26zM135 508q0 -7 12 -15t23 -8q25 0 25 15q0 10 -25 10 q-4 0 -14.5 1t-15.5 0.5t-5 -3.5zM741 1303q0 -5 6.5 -10t14.5 -5q4 0 11 7t7 12q0 3 -2 5t-4.5 2t-6.5 -0.5t-5 -0.5q-21 0 -21 -10z" />
<glyph unicode="D" horiz-adv-x="808" d="M-12 84q0 42 13 119.5t15 93.5q0 3 1.5 14t3 26l2.5 25q5 66 20 158q1 7 7 14t7 9q1 3 -2.5 18.5t-3.5 24.5q0 11 6 34.5t6 36.5q0 11 15 88q20 106 20 168q0 20 3.5 39.5t11 54t12.5 68.5q7 47 15.5 128.5t13.5 109.5q1 6 5.5 14.5t4.5 11.5q0 9 6 39q4 15 21.5 31 t41.5 16q11 0 46 2t60.5 2.5t70.5 -2.5q25 -2 68 3t71 4q81 0 133 -15q10 -3 32 -9t31 -8.5t25.5 -10.5t25.5 -17t20.5 -24.5t19.5 -36.5q18 -37 14 -76q-4 -33 -8 -94t-6 -80q-2 -25 -15 -77.5t-16 -92.5q-9 -106 -27 -209q-2 -10 -0.5 -39.5t-1.5 -52.5q-3 -17 -18 -83.5 t-25 -117.5q-1 -7 -10 -71.5t-21 -104.5q-7 -21 -26.5 -54.5t-22.5 -45.5q-2 -8 -6 -15t-7 -11.5t-8.5 -9.5t-8 -7.5t-9 -7t-8.5 -5.5q-71 -55 -166 -55q-31 0 -74 1.5t-60.5 2t-45.5 -1.5q-1 0 -29.5 -3.5t-37 -4t-29.5 1.5q-11 3 -25.5 3.5t-36.5 -0.5t-30 -1t-24 7t-23 7 q-14 0 -25.5 15.5t-11.5 52.5zM301 485q0 -14 10.5 -36t10.5 -33q0 -3 -1 -14t-2.5 -35.5t-1.5 -59.5q0 -12 9 -21.5t20 -9.5q8 0 53 15q13 3 22 12t13 24t5.5 26t2.5 31t2 26q4 60 25 161q6 27 10.5 79t9.5 75q0 6 11 35q2 5 2 12.5t-1 14.5t-1 8q0 44 13 101t13 132 q0 9 4.5 21t4.5 26q0 28 -16 49t-44 21q-35 0 -43.5 -13t-17.5 -67q-1 -6 -2 -10q-2 -13 -3.5 -45t-7.5 -52q-14 -54 -14 -77q0 -61 -25 -174q-5 -22 -9.5 -73t-10.5 -77q-3 -13 -22 -33t-19 -39zM518 760q0 -11 4 -20t8 -9q11 0 11 23q0 28 -13 28q-3 0 -6.5 -7.5 t-3.5 -14.5zM623 688q0 -31 39 -31q7 0 5 12q-4 12 -16 13q-4 0 -21 10q-6 0 -7 -4z" />
<glyph unicode="E" horiz-adv-x="626" d="M-10 53q0 31 2.5 55.5t7.5 55t6 41.5l12 84q6 23 10 48t5.5 38.5t3 42.5t2.5 39q3 35 8.5 72.5t14 84t12.5 72.5q3 19 10.5 79t15.5 93q3 12 2.5 37.5t8.5 34.5q2 3 16 147q11 94 35 228q2 11 3.5 29t3.5 26t9 21t21 26q20 16 43 16q7 0 44.5 2.5t67.5 2.5t78 -4 q44 -3 67 -2t52.5 2.5t40.5 2.5q70 0 82 -4q12 -3 26.5 -19t14.5 -28q0 -25 -9.5 -72.5t-11.5 -64.5q-1 -5 -1.5 -21t-2.5 -24t-18 -23.5t-23 -15.5q-12 0 -47.5 -4.5t-54.5 -1.5q-22 2 -31.5 1.5t-27 -3.5t-27.5 -4q-10 0 -22.5 -15.5t-12.5 -25.5q0 -14 -7.5 -47.5 t-8.5 -46.5q-2 -22 -5.5 -46.5t-3.5 -41.5q0 -11 9.5 -26t19.5 -15q89 0 127 -11q9 -2 18 -14t9 -31q0 -20 -7 -52.5t-8 -49.5q0 -2 -3 -24.5t-3 -24.5q-6 -23 -33 -31q-5 -2 -16.5 -13.5t-17.5 -11.5q-15 1 -47 -0.5t-48 -1.5q-24 0 -35 -14t-22 -51q-20 -66 -20 -100 q0 -6 3.5 -18.5t2.5 -22.5q0 -3 -5.5 -21t-5.5 -20q-4 -29 -0.5 -39t25.5 -33q2 -4 49 -4q19 0 57 -3t48 -3q13 0 32 -20t19 -32q0 -18 -6 -49t-6 -45q0 -7 1 -19.5t1 -22.5t-2 -19q-10 -45 -70 -74q-9 -4 -35.5 -5.5t-52.5 -1t-55.5 1.5t-34.5 1q-13 0 -37 -2t-43.5 -2 t-36.5 4t-37 4t-44.5 -2t-37.5 -2q-21 0 -42 14t-21 39zM225 791q0 -6 9.5 -11.5t17.5 -5.5t8 6q0 21 -16 21q-19 0 -19 -10zM279 150q0 -13 4 -13q11 0 25 7t14 16q0 4 -8 10t-13 6q-6 0 -14 -8.5t-8 -17.5z" />
<glyph unicode="F" horiz-adv-x="591" d="M-10 100q0 13 4 39t4 41q0 9 5.5 16.5t6.5 16.5q1 6 1.5 26.5t2.5 28.5q3 10 8.5 15.5t10 6t8.5 2.5t4 7q0 4 -10 22t-10 29l3 10q3 10 3 21q0 24 8 70t8 73q0 26 9 49t10 37q5 70 10.5 114t11 74.5t6.5 39.5q6 41 6 67q0 36 10.5 71.5t10.5 43.5q0 26 14 98 q6 34 12 101.5t9 91.5q1 3 10 17t6 24q0 1 -2.5 5t-3.5 8.5t0 10.5q3 28 29 43t63 15q14 0 40 -1t40 -1t40.5 2t48 2t40.5 -4q20 -4 88.5 0t97.5 0q21 -3 33 -19.5t12 -36.5q0 -10 -5 -43.5t-9 -42.5q-2 -14 -4 -55q-2 -32 -22.5 -54t-53.5 -22q-7 0 -66 -3t-73 -3 q-11 0 -24 -13.5t-15 -21.5q-5 -23 -8 -47t-5 -60t-3 -46q0 -3 -4.5 -27.5t-4.5 -44.5q0 -15 17 -22t37 -7q14 0 37.5 -3t35.5 -3q35 0 35 -61q0 -15 -6 -44t-6 -48q0 -20 -8 -66q-3 -15 -19.5 -30t-31.5 -15q-7 0 -42.5 -2t-43.5 -2q-30 0 -48 -21t-18 -53q0 -48 -10 -106 q-3 -18 -8.5 -62t-8.5 -61q-2 -12 -11 -59t-13 -76q-10 -67 -10 -86q0 -24 -19 -43t-41 -19q-27 0 -83 -2t-83 -2q-12 0 -34 10.5t-25 22.5q-4 36 -4 67zM59 295q0 -7 5.5 -11.5t9.5 -4.5h6t4.5 0.5t3.5 1.5t1.5 3t0.5 5q0 10 -3 12t-13 2q-15 0 -15 -8zM287 1010 q0 -2 -1 -6t-1 -5.5t0.5 -3.5t3.5 -2q8 0 15 7t7 16q0 8 -12 8q-4 0 -8 -4.5t-4 -9.5zM381 1305q0 -21 14 -21q9 0 17 4.5t8 11.5q0 3 -9 10t-16 7q-6 0 -8.5 -0.5t-4 -3t-1.5 -8.5z" />
<glyph unicode="G" horiz-adv-x="782" d="M-4 248q0 41 16 102q3 9 6.5 41.5t6 65t2.5 45.5q0 35 26 157q2 8 8.5 13t13 9t7.5 9q1 6 -3 10.5t-9.5 8t-9 12.5t0.5 24q2 8 8 36t9.5 43.5t6.5 39.5t3 43q0 24 3 47.5t7 40t10 40.5t9 40q2 8 2 19t-1 21.5t-1 12.5q0 40 13.5 81.5t26.5 64.5t44 72q39 60 125.5 78 t218.5 18q124 0 223 -62q3 -2 13.5 -19t13.5 -20q8 -8 16 -41q1 -4 10 -20t8 -27q-2 -14 -6 -76t-12 -92q-3 -8 -4 -16.5t-1 -19.5t-1 -17q-4 -33 -12.5 -54t-32.5 -38q-27 -20 -53 -20q-9 0 -29.5 2t-30.5 2q-17 2 -35 0.5t-35 0t-30 5.5t-19.5 17.5t-3.5 35.5q6 75 6 78 q0 12 -5 37t-11 32q-17 27 -35 27q-50 0 -67 -47q-5 -14 -6.5 -46t-2.5 -40q-2 -16 -10.5 -50.5t-9.5 -53.5q-7 -105 -23 -185q-7 -32 -13.5 -92t-8.5 -74q-3 -23 -12 -72t-9 -69q0 -18 -6 -47t-6 -41q0 -17 6 -27.5t21 -25.5q4 -4 9.5 -5t17 0t14.5 1q22 0 34 6.5t17 29.5 q12 53 12 119q0 10 5.5 32t7.5 42q3 25 -4.5 35.5t-17.5 10.5t-16.5 9t-2.5 31q3 19 6 58t6 59q3 16 5 42t3.5 38.5t12.5 25t32 17.5q22 5 42.5 6.5t54.5 0.5t44 -1q35 0 61.5 -8.5t29.5 -8.5q16 0 25.5 -1t19.5 -8t14 -21q2 -9 1 -18.5t-3 -20.5t-2 -13v-34 q-2 -15 -11.5 -49.5t-11.5 -57.5q-5 -49 -17.5 -151t-17.5 -154q0 -2 -4 -16.5t-7 -28.5t-3 -21q0 -20 -20.5 -65t-38.5 -70q-2 -3 -4 -5t-4.5 -3.5t-4 -2.5t-4.5 -2l-4.5 -1.5t-5 -1.5t-5 -1t-6 -0.5t-5.5 -0.5q-7 -1 -13 -17.5t-14 -21.5q-42 -26 -75 -33.5t-91 -7.5 q-7 0 -26 -3t-21 -3q-48 -7 -156 0q-6 0 -29.5 7.5t-31.5 8.5q-35 5 -67.5 27t-45.5 55q-20 54 -20 156zM180 807q8 0 21.5 6.5t13.5 13.5q0 8 -5 14.5t-15 6.5q-3 0 -7 -5.5t-4 -8.5q0 -5 -2.5 -12.5t-3.5 -10t2 -4.5z" />
<glyph unicode="H" horiz-adv-x="817" d="M-14 76q0 17 6 59q4 25 10 74t10 74q19 105 19 120q0 37 12 95.5t14 87.5q1 12 6 41.5t5 46.5q0 79 28 141q9 20 28 26.5t21 10.5q3 5 -6 6h-12q-31 -1 -31 10q0 5 3 22.5t7 47t7 59.5q1 12 7.5 43.5t6.5 44.5q0 41 14.5 118.5t18.5 109.5q2 14 3 30l1.5 24t2 15.5 t5.5 12.5q26 37 68 37q7 0 41 -2.5t41 0.5q18 2 53 -1.5t47 -3.5q41 0 41 -55q0 -15 -7 -48t-7 -50q0 -11 -6.5 -35.5t-8.5 -34.5q-20 -140 -20 -168q0 -18 -6.5 -56t-6.5 -56q0 -23 6.5 -34t30.5 -11q20 0 60 14q7 2 18 45q5 28 13 95t18 102q9 32 13.5 84.5t8.5 72.5 q2 9 4.5 33.5t6 37t11 30t22.5 27.5t38 14q3 3 30.5 1.5t39.5 -1.5q16 0 34.5 -7.5t37.5 -7.5q6 0 20.5 -3t20.5 -3q13 0 24.5 -16t11.5 -29q0 -12 -3 -37t-3 -37q0 -27 -12 -83t-12 -87q0 -52 -21 -159q-5 -23 -9 -60t-5 -45q0 -42 -5 -74t-14.5 -77t-15.5 -93 q-5 -36 -12 -92t-15 -106q-1 -4 -3.5 -34t-7.5 -54.5t-13 -38.5q-9 -13 -9 -26.5t4 -29t-1 -47.5q-2 -12 -6.5 -52t-6.5 -52q-8 -70 -75 -70q-12 0 -30.5 -7t-35.5 -3q-19 4 -49 3.5t-47 2.5q-45 9 -45 33q0 4 -2.5 14t-3.5 19.5t2 31.5q12 83 28 250q5 48 13 82t8 47 q0 1 1.5 49t-1.5 48q-1 7 -4.5 11.5t-9.5 6t-11 1.5t-12 -0.5t-8 -0.5h-8h-8h-7t-7 -0.5t-6.5 -1.5t-6.5 -2.5t-5.5 -3.5t-6 -4.5l-5.5 -5.5q-8 -10 -11.5 -24t-5.5 -32.5t-5 -29.5q-10 -35 -21 -168q0 -22 -14 -92q-5 -21 -14 -101q0 -4 -2 -20t-2.5 -21.5t-3 -19.5t-5 -20 t-7.5 -16t-11.5 -15.5t-15.5 -11.5t-21 -9q-5 -2 -11.5 -2t-14.5 1t-13 1q-11 0 -38.5 1t-41.5 1q-18 0 -45 4t-32 4q-19 0 -28 20.5t-9 43.5zM213 729q0 -8 12 -8q6 0 11.5 6.5t5.5 11.5q0 9 -6 9q-8 0 -15.5 -7t-7.5 -12zM287 1298q0 -20 8 -20t13 18q5 17 -7 17 q-14 0 -14 -15zM520 821q0 -14 15 -14q24 0 24 12q0 3 -9.5 6.5t-14.5 3.5q-15 0 -15 -8z" />
<glyph unicode="I" horiz-adv-x="401" d="M-12 72q0 39 16 137q4 23 6.5 69t7.5 72q16 83 17 92q1 10 7.5 38.5t6.5 47.5q0 31 12.5 85.5t12.5 82.5q0 57 32 213q3 17 3 72q0 8 6.5 42.5t7.5 41.5q1 6 10.5 54.5t9.5 72.5q0 14 4.5 33.5t4.5 31.5v16.5v14.5t0.5 11.5t1 11.5t2 9t3.5 10t5 9t4 21t4 22 q6 11 14 18.5t9 8.5q12 18 24 18q11 0 38 3.5t48 3.5t60 -3t53 -4q16 -2 30.5 -14.5t14.5 -30.5q0 -6 -14 -106q-5 -40 -23 -152q-2 -12 -11.5 -52.5t-11.5 -61.5q-8 -74 -8 -121q0 -8 -7 -34.5t-11 -57.5q-2 -14 -24 -172t-36 -248q0 -1 2 -26.5t-6 -35.5q-12 -24 -12 -41 q0 -10 -4 -30.5t-4 -30.5q0 -20 -2.5 -41.5t-7.5 -48t-7 -41.5q-7 -50 -33 -66t-81 -16q-8 0 -31 -0.5t-36 -0.5t-32 1.5t-34 5.5q-41 10 -41 66zM285 664q0 -4 3.5 -11.5t6.5 -7.5t8.5 7.5t5.5 13.5q0 10 -12 10t-12 -12zM295 1102q0 -3 1 -4.5t3 -2t4.5 -0.5t6 0.5 t5.5 0.5q17 0 17 10t-17 10q-20 0 -20 -14z" />
<glyph unicode="J" horiz-adv-x="759" d="M-35 193q3 16 4.5 45t3.5 41q6 43 11 114q0 34 4 62q1 13 8 34.5t8 28.5q0 4 1.5 14.5t2 13t1.5 10.5t2.5 10.5t4 8.5t5.5 8t7.5 6.5t10 6.5t13 5t16.5 5q32 8 100 8q10 0 16.5 -12t10.5 -12q11 0 27.5 10.5t25.5 7.5q41 -10 41 -55q0 -23 -7 -63t-8 -54q-1 -6 -8.5 -44 t-7.5 -60q0 -25 13 -41.5t38 -16.5q38 0 58 23q7 8 10.5 16t4 14t1 19t2.5 25q3 18 5 37t4 30.5t7 28.5q2 5 2 33t7 75q1 4 7 25t7 33q3 21 12 63q2 8 1.5 27t2.5 27t6 45q6 70 26.5 189.5t25.5 162.5q1 11 6.5 38.5t5.5 43.5q0 22 7.5 62t10.5 83q1 14 21 32.5t31 18.5 q16 0 43 4.5t43 4.5t55 -5t57 -4q15 1 30 -12.5t15 -28.5q0 -9 -4 -41q-8 -67 -14 -141q-2 -26 -17 -82t-16 -86q-1 -25 -8 -63t-8 -60q-4 -89 -19 -104q-2 -2 -15 -4.5t-15 -5.5q-5 -9 9.5 -25t14.5 -27q0 -20 -6.5 -57.5t-7.5 -48.5q-7 -74 -17.5 -129.5t-23.5 -190.5 q-7 -75 -31 -126q-4 -9 -13 -34t-15 -40.5t-19 -34t-29 -29.5q-37 -33 -151 -61q-20 -5 -44 -5.5t-59.5 0.5t-46.5 1q-7 0 -57 2t-57 2q-28 0 -74 21.5t-53 23.5q-33 16 -56 92q-12 38 -6 62zM662 795q0 -3 9 -7t13 -4q8 0 8 11q0 7 -6 12.5t-12 5.5q-12 0 -12 -18z" />
<glyph unicode="K" horiz-adv-x="829" d="M-23 53q0 7 3.5 19t3.5 16q0 6 5 44t5 44t5 16t5 19q0 34 10 92q15 88 15 146q0 15 7 46t7 46q0 11 12 71q15 88 15 131q0 21 20 113q16 80 16 137q0 27 11.5 82.5t11.5 85.5q0 13 4.5 38t5.5 34q1 18 34 22.5t34 6.5q1 3 -13 4.5t-28 7.5t-14 20q0 15 3.5 41.5t4.5 36.5 q1 16 17.5 31.5t29.5 19.5q13 3 23 5.5t21.5 3t18 0.5h23h24.5q5 0 46.5 -2.5t46.5 -2.5q15 0 30 -17t15 -32q0 -16 -5 -46t-6 -42q-1 -17 -7.5 -47.5t-6.5 -46.5q0 -34 -7.5 -85t-8.5 -83q0 -14 20 -14q11 0 25 16.5t26 44.5q5 12 15.5 30t11.5 25q3 20 22 55t23 52 q3 11 15.5 30.5t15.5 32.5q2 10 10 27.5t10 24.5q11 28 31.5 51.5t44.5 23.5q10 0 34 2.5t34 2.5q22 0 65 -2.5t66 -2.5q24 0 24 -28t-35 -86q-4 -8 -7.5 -27t-6.5 -24q-52 -95 -57 -107t-25.5 -52.5t-25.5 -64.5q-4 -21 -39 -84q-15 -25 -62 -118q-33 -66 -33 -99 q0 -25 4 -51.5t12 -63t11 -51.5q1 -6 -0.5 -22t0.5 -23q2 -5 8 -16.5t9.5 -21.5t3.5 -19q0 -78 26 -164q17 -62 25 -121q2 -16 11 -54t9 -60q0 -44 -20 -54q-9 -4 -40 -10t-46 -6q-13 0 -44.5 2t-47.5 2q-22 0 -62 8q-8 2 -14.5 6.5t-11 12t-7.5 13.5t-5.5 18t-4 19 t-3.5 21.5t-3 20.5q-3 15 -16.5 56.5t-16.5 58.5q-4 23 -14 135q0 2 -0.5 11t-1.5 14t-3 13t-5 12t-8.5 7.5t-12.5 3.5q-15 0 -24 -26q-13 -28 -17 -84q-2 -17 -4 -49t-5.5 -60t-10.5 -59q-15 -68 -15 -82q-4 -23 -12 -32.5t-27 -21.5q-11 -7 -26 -10t-25.5 -3.5t-30 0.5 t-26.5 1q-9 0 -37.5 -2.5t-47 -0.5t-34.5 11q-11 6 -20 18t-9 19zM467 588q0 -10 7.5 -22.5t14.5 -12.5t7 35q0 4 -3.5 9t-7.5 5q-18 0 -18 -14z" />
<glyph unicode="L" horiz-adv-x="563" d="M-4 45q-5 12 -5 35.5t2.5 44t7 49.5t5.5 39q2 19 8.5 42t8.5 36q3 22 3 48.5t1 29.5q16 93 16 112q0 37 10 77t10 54q0 6 2.5 28t2.5 24q0 14 8 48.5t8 53.5q0 67 8 86q2 7 3.5 22t2.5 28t4 16q2 3 9.5 5.5t16 3.5t16.5 1.5t13.5 2t4.5 3.5q-1 3 -15 6t-26 10t-8 19 q1 6 1.5 30t3.5 52t11 47q3 6 6.5 35t6.5 62t3 36q2 16 10 49t11 51v35q1 14 8 27.5t18 22.5t23 9q9 0 33 1t33 1t28.5 3.5t28.5 3.5q13 0 39 -3.5t31 -3.5q26 -3 38.5 -20.5t12.5 -40.5q0 -34 -10.5 -74t-10.5 -90q0 -12 -6 -28t-6 -29q0 -5 -6 -47.5t-6 -69.5 q0 -9 -7.5 -41.5t-7.5 -56.5q0 -31 -2 -43q-3 -14 -10.5 -33t-9.5 -35q-13 -85 -21 -180q-2 -23 -12 -80.5t-10 -87.5q0 -10 -3 -34.5t-3 -26.5q0 -5 -7 -28t-6 -48q0 -11 0.5 -17t3.5 -15.5t10 -14t19 -4.5q5 0 12 -0.5t13 -1t12.5 -0.5t12.5 0.5t12 1.5q41 10 70.5 -9 t29.5 -53q0 -48 -10 -82q-2 -7 0.5 -22.5t-0.5 -20.5q-4 -8 -6 -17.5t-3 -18.5t-2 -11q-7 -34 -75 -45q-14 -3 -39.5 -3t-61.5 1.5t-53 1.5t-49 -1.5t-58 -1.5t-49 3q-80 10 -81 10q-6 0 -15 11t-12 20zM154 492q0 -2 1 -4t3.5 -4.5t7.5 -2.5q7 0 15.5 3.5t8.5 7.5 q0 12 -24 12q-8 0 -10 -1.5t-2 -10.5z" />
<glyph unicode="M" horiz-adv-x="1101" d="M-20 84q0 12 10 70q2 17 8 52t10 63.5t6 54.5q0 5 5.5 53.5t5.5 52.5q0 6 5 21t5 24q0 50 14.5 131.5t16.5 98.5q2 12 4.5 41.5t6 50t9.5 41.5q11 35 18 102t9 80q1 4 7.5 18t6.5 23q0 8 -3 20t-3 15q0 19 7 59.5t7 61.5q0 18 10.5 58.5t12.5 53.5q0 3 1 14t1.5 15.5 t3.5 12t8 13.5q2 2 10 12t12 14t11 9t14 6q20 4 51 4t74.5 -2t67.5 -2q2 0 33.5 4t33.5 -2q8 -4 29.5 -2.5t28.5 -5.5q2 -2 11.5 -9.5t12 -10.5t6.5 -11t4 -18q0 -12 3.5 -33t3.5 -32q0 -17 -6 -71.5t1 -62.5q2 -6 -2 -65q-1 -9 0.5 -62.5t-2.5 -80.5q-1 -13 18 -19.5 t25 4.5q7 11 17 51q12 48 36.5 123t34.5 115q1 2 4 10t5.5 16t1.5 15q-3 20 10 37q4 5 2.5 16t1.5 19q9 23 17 38t25.5 29.5t39.5 14.5t66.5 3t70.5 3q12 0 36 -3t36 -3q4 0 35 1t42.5 -0.5t32 -5.5t29 -15t8.5 -28q0 -38 -5.5 -92t-10.5 -63q-5 -11 -8 -22.5t-4 -16t-3 -22 t-2 -21.5q-2 -17 -10 -70t-10 -82q-1 -13 -7.5 -42t-6.5 -46q0 -104 -21 -168q-18 -52 -18 -73q0 -93 -27 -236q-5 -29 -20 -164q-1 -8 -6 -34.5t-5 -41.5q0 -10 -5 -20.5t-5 -15.5v-56q0 -17 -14 -45q-6 -12 -28 -28.5t-34 -16.5q-11 0 -49.5 5t-46.5 -1q-5 -2 -23.5 -0.5 t-27.5 0.5q-12 -1 -21.5 0.5t-16 5t-11 6t-8 6t-4.5 3.5q-11 11 -11 45q0 6 1 13t2.5 15t2.5 13q1 7 6 58t5 59q0 7 4.5 21.5t5.5 18.5t1.5 27t2.5 37q1 5 6 12t6 13q1 9 -1.5 27t-2.5 24q0 1 3 20.5t3 34.5q0 26 -18 25.5t-29 -25.5q-10 -23 -16 -46t-13.5 -58.5 t-17.5 -69.5q-3 -9 -11 -25.5t-9 -25.5q-4 -28 -22.5 -90.5t-24.5 -77.5q-22 -70 -97 -70q-10 0 -29.5 -2t-31.5 -2q-44 0 -66 33q-4 6 -5.5 15t-2 15.5t-1.5 18.5t-1 18q-5 81 -4 101q1 26 -1.5 79t-2.5 70q0 78 -17 82q-12 3 -23.5 -2.5t-12.5 -17.5q-1 -10 -7.5 -42.5 t-7.5 -49.5q-4 -52 -20 -144q-2 -12 -4.5 -49.5t-5.5 -59.5t-17 -42.5t-39 -20.5q-12 0 -34 -4t-33 -4q-19 0 -51.5 6t-40.5 6q-43 0 -43 72zM90 190q0 -6 16 -6q25 0 25 11q0 7 -3 8.5t-13 1.5q-7 0 -16 -5.5t-9 -9.5zM205 1071q0 -3 1.5 -5t4.5 -2t6 1t7.5 1.5t8.5 0.5 q15 0 15 14q0 6 -5 10.5t-10 4.5q-10 0 -19 -9t-9 -16zM297 504q0 -8 3.5 -10t12.5 -2q5 0 11 -1t9.5 -2t6.5 -1.5t4.5 1.5t1.5 7q0 7 -12.5 19.5t-20.5 12.5q-7 0 -11.5 -8t-4.5 -16zM887 1290q0 -4 2.5 -6.5t7 -5t6.5 -4.5q4 -2 10.5 0.5t6.5 9.5q0 6 -0.5 8.5t-3.5 4 t-9 1.5q-4 0 -12 -2.5t-8 -5.5z" />
<glyph unicode="N" horiz-adv-x="829" d="M-12 35q-2 8 -2 14t1 17.5t1 15.5q0 37 9.5 106.5t10.5 85.5q5 54 10 78q5 20 12.5 30.5t8.5 14.5q2 11 -1 24t-3 23q0 25 2.5 48t5.5 33l2 10q1 10 7.5 59.5t6.5 77.5q0 15 8.5 33t8.5 22q0 15 1 29.5t3 30t4 27t5 29.5t5 27q2 16 10 90t17 113q4 17 11 83t9 79 q2 9 3 23.5t2 26.5t4 20t6.5 24t6.5 26.5t8.5 24t12 21.5t17 14t24.5 6q5 0 27.5 4.5t40.5 6t45 -4.5q7 -3 19.5 -2.5t21 2t26 3.5t35.5 2q27 0 45.5 -9.5t36.5 -31.5q10 -13 10 -62q0 -33 3 -86q0 -3 3 -31t3 -41q0 -71 30 -71q18 0 26.5 21t8.5 42q0 14 6 29t6 43 q0 31 13 94q2 10 3.5 24.5t3.5 25t5 14.5q21 27 39 33t57 6q9 0 39 -5q23 -2 74 -2q14 0 24.5 -14.5t10.5 -30.5q0 -48 -15 -125q-2 -10 -3 -30t-3 -29q-2 -12 -12.5 -75.5t-17.5 -98.5q-1 -7 -2.5 -26t-5.5 -53t-13 -79q-14 -79 -14 -137q0 -66 -15 -102q-11 -27 -14.5 -59 t-5 -74t-6.5 -74q-3 -16 -6.5 -35t-8 -38.5t-6.5 -33.5q-1 -5 -2 -29.5t-7.5 -79t-20.5 -132.5q-11 -66 -105 -66q-12 0 -35.5 -2t-36.5 -2q-10 0 -33.5 2.5t-37.5 1.5q-33 -2 -57.5 10t-28.5 41q-2 17 -10.5 54t-10.5 57q-1 29 -10 166q-5 113 -6 117q-2 14 -11.5 22 t-20 2.5t-15.5 -24.5q-8 -27 -16.5 -95t-12.5 -88q-8 -38 -12.5 -82.5t-7.5 -60.5q-2 -10 -4.5 -37t-4.5 -35q-4 -15 -21.5 -28.5t-35.5 -18.5q-16 -5 -59 4q-8 2 -19.5 1t-21.5 -3l-10 -2q-63 0 -78 31zM307 522q0 -6 0.5 -8.5t2 -4t5.5 -1.5q5 0 9 3t4 7q0 5 -3.5 17 t-7.5 12q-2 0 -4 -3t-3.5 -7t-2 -8.5t-0.5 -6.5zM379 1094q0 -15 18 -15q8 0 15.5 4.5t7.5 8.5q0 12 -21 12q-14 0 -17 -2t-3 -8zM504 854q0 -8 14.5 -19.5t24.5 -11.5q5 0 8.5 3t-0.5 8q-6 9 -17.5 16.5t-21.5 7.5q-8 0 -8 -4z" />
<glyph unicode="O" horiz-adv-x="798" d="M4 201q1 18 5.5 46.5t4.5 45.5q0 47 12.5 167t28.5 163q2 7 8 51q15 128 15 151q0 14 5.5 31t6.5 31q7 119 29 213q1 10 3 32.5t4.5 40.5t6.5 35q1 4 3 9t4 9t3.5 7.5t2.5 6t1 3.5q6 12 19 45.5t25 53.5t30 34q84 70 178 70q24 0 66 1t75.5 1t63.5 -2q23 -2 62 -14 q8 -2 37.5 -6.5t46.5 -12.5q27 -15 36 -27q41 -59 41 -126q0 -89 -18 -222q-2 -14 -7 -43t-8 -50.5t-3 -37.5q0 -44 -12 -125t-13 -92q-3 -25 -12.5 -73.5t-12.5 -71.5q-3 -26 -8 -78t-10.5 -91t-15.5 -71q-4 -17 -10.5 -62t-12.5 -59q-38 -88 -72.5 -126t-113.5 -60 q-30 -10 -49 -10t-70.5 -1.5t-86.5 -2t-78.5 4t-70.5 15.5l-19.5 6.5t-20 6.5t-16.5 6.5t-18 9.5t-13.5 10.5t-14.5 15t-12 19.5q-2 3 -7.5 12.5t-7.5 14t-6.5 20t-3.5 30.5t0 46zM270 1198q0 -16 15 -16q17 0 22 7q4 4 -12 9q-1 0 -2.5 6t-7.5 4q-15 -6 -15 -10zM305 324 q3 -50 55 -50q56 0 68 45q3 4 0.5 17t-2.5 14q0 8 5.5 23.5t6.5 23.5q9 79 15 152q2 26 11 79t11 85q2 46 15 126t16 109q1 16 9.5 67t8.5 81v9.5v7v4.5t-1.5 4.5t-2.5 3.5t-4 5q-7 11 -20 20t-25 9q-26 0 -42 -17t-19 -42q-12 -61 -13 -64q-1 -4 -7 -11.5t-7 -16.5 q-1 -7 0.5 -14t3.5 -15t2 -14q0 -9 -6 -24t-6 -23q-14 -102 -19 -181q-1 -12 -6 -34t-6 -35q-11 -100 -31 -226q-2 -15 0.5 -36t1.5 -31q-1 -7 -7 -20t-5 -31z" />
<glyph unicode="P" horiz-adv-x="784" d="M-6 49q0 66 14 168q3 19 6.5 37t5.5 29t3 24q0 1 -1 8.5t-2 14.5t0 16q1 5 8 17t9 28q1 9 6 68q1 14 6.5 36.5t5.5 39.5q0 88 27 223q6 28 11.5 85.5t8.5 78.5q1 6 7 36t6 48q0 24 8 72.5t8 74.5t14 80.5t15 81.5q0 1 0.5 12.5t0.5 13.5t1 12.5t2.5 14t3.5 12t5 12t7 9.5 t9.5 9t12.5 6.5t15 4.5q105 16 264 6h156q66 0 106.5 -28t71.5 -92q16 -28 16 -72q0 -42 -10 -129q-2 -17 -13 -79t-11 -97q0 -12 -8.5 -38.5t-8.5 -41.5q0 -33 -4 -57q-6 -43 -18.5 -89.5t-39.5 -97t-59 -61.5q-8 -3 -34.5 -6.5t-34.5 -6.5q-5 -2 -25.5 -17t-42.5 -19 q-32 -5 -71.5 -7t-62.5 -3.5t-30 -6.5q-13 -11 -21.5 -23.5t-12.5 -28.5t-5.5 -27t-3 -31.5t-2.5 -30.5q-2 -19 -10 -59.5t-10 -57.5q0 -3 -1 -33t-5 -47q-3 -15 -7.5 -41.5t-6 -34t-6.5 -22t-11 -18.5t-16.5 -9t-26.5 -8q-50 -10 -63 -10q-12 0 -42.5 5t-31.5 5 q-29 0 -55.5 9t-26.5 32zM381 864q0 -3 -0.5 -16.5t-0.5 -21.5t2 -20.5t6 -19.5t12 -12.5t20 -5.5q25 0 40.5 6.5t22.5 21.5t9.5 27.5t5 37t4.5 38.5q2 13 5 38.5t5 37.5q1 5 5.5 18.5t4.5 18.5q0 12 2 41t2 41q0 23 -16.5 41t-38.5 18q-12 0 -25 -10q-18 -13 -24.5 -30 t-8 -42.5t-7.5 -42.5q-1 -2 -2.5 -23.5t-4.5 -33.5q-10 -29 -10 -31q-1 -4 -1 -22t-3 -27q-4 -12 -4 -27zM483 549q0 -4 7 -5t19 0t13 1q3 0 6.5 2.5t5.5 4.5l3 3q0 10 -15 10q-10 0 -24.5 -4.5t-14.5 -11.5zM684 956q0 -26 8 -26q5 0 11 9.5t6 16.5q0 4 -5.5 7.5t-9.5 3.5 q-10 0 -10 -11z" />
<glyph unicode="Q" horiz-adv-x="798" d="M-8 162q0 16 1 32t3 33.5t4 31t5 34.5t5 33q27 176 33 256q1 6 8.5 24.5t7.5 32.5q0 18 3.5 47t3.5 55q0 20 9 63.5t9 67.5q0 16 5 34.5t5 31.5q0 19 6 59.5t6 63.5q0 9 5.5 22.5t5.5 14.5q2 6 7 39l10 66t7 40q2 9 5 17.5t5.5 15t7.5 15t7.5 13t9 14t9 12.5t10.5 13.5 t10 12.5q10 13 23 23.5t23.5 17t28 12.5t27 9t30 8.5t28.5 7.5q8 3 32 6.5t46.5 5.5t29.5 2q8 0 43.5 -8t54.5 -8q107 0 117 -2q26 -5 66 -25q18 -10 27.5 -17t16.5 -16.5t13 -25.5q4 -10 11 -25.5t12 -26t8.5 -23.5t3.5 -24t-3 -38.5t-3 -55.5q0 -17 -9.5 -26t-21.5 -10 t-21.5 -4t-9.5 -9q0 -5 8.5 -6.5t18 -1t18 -4t8.5 -15.5q0 -22 -13 -68.5t-13 -66.5q0 -74 -8 -108q-9 -29 -16 -64.5t-10 -60.5t-7 -69t-6 -65q-2 -20 -7.5 -49t-9.5 -55t-4 -51q0 -18 -2.5 -39t-5.5 -35.5t-8.5 -39t-7.5 -36.5q-14 -69 -49 -151q-8 -22 -27 -46.5 t-41 -35.5q-6 -3 -22 -9.5t-23.5 -10t-20 -11.5t-18.5 -15.5t-11 -19.5t-5 -26q0 -49 32 -49q29 0 42 -17t8 -43q-5 -30 -11.5 -48t-13 -29t-23 -15.5t-28 -5t-42.5 -0.5h-20q-71 2 -103.5 9t-66.5 36q-37 32 -37 67q0 5 -7 29t-7 55q0 19 -15 38.5t-34 23.5q-60 13 -95 34 t-63 68q-6 9 -13 30.5t-7 33.5zM254 70q0 -12 7 -19.5t18 -7.5q5 0 11 7.5t3 10.5q-6 4 -11 10t-9 9.5t-7 3.5q-5 0 -8.5 -4t-3.5 -10zM309 305q7 -31 53 -31q41 0 66 41q2 2 3.5 9.5t2.5 19l2 23t2 27.5t2 26q3 36 15 107t14 110q2 35 14 101.5t13 97.5q1 24 9.5 73.5 t10.5 69.5q10 65 10 115q0 7 -10 17t-10 17q0 20 -8.5 28.5t-30.5 8.5q-31 0 -49 -35q-11 -28 -16 -96t-15 -98q-5 -15 -7 -32t-3 -39t-2 -34q-2 -18 -11 -52.5t-10 -55.5q-3 -96 -20 -172q-3 -14 -5 -41.5t-5 -36.5q-2 -10 -5 -34.5t-5 -48.5t-5 -32q-7 -23 0 -53z" />
<glyph unicode="R" horiz-adv-x="800" d="M-18 51q0 7 3 20.5t3 20.5v7q1 7 1.5 16.5t0.5 17.5q0 16 2.5 29.5t8 34.5t7.5 30q6 25 6 84q0 30 13 74q9 27 11.5 56.5t5 71.5t7.5 81q13 86 19 117q12 81 12 116q0 14 8 38.5t10 47.5q2 16 4 30.5t3.5 22t1.5 9.5q0 75 19 166t19 153q0 44 13 82q5 19 18 30.5t34 16.5 t38.5 6.5t48 2.5t45.5 2q21 1 58 -1.5t51 -2.5q147 0 225 -15q40 -7 94 -31q36 -15 57 -102q8 -34 8.5 -71.5t-3 -64.5t-10 -70t-9.5 -70q-3 -35 -31 -123q-8 -28 -30 -47q-7 -5 -15.5 -7.5t-11 -6.5t-4.5 -15q0 -2 0.5 -13t-4.5 -24q0 -2 -16 -23.5t-11 -35.5q2 -5 12 -28 t17.5 -42t14.5 -47t7 -51q0 -6 0.5 -30.5t-0.5 -34.5t-1.5 -28.5t-4 -32t-8.5 -26.5q-5 -11 -7 -41.5t-3 -34.5q-6 -23 -8 -60t-4 -52q-11 -94 -5 -133q1 -14 2.5 -28.5t-10 -26t-35.5 -11.5q-4 0 -39.5 4t-37.5 -2q-15 -5 -32.5 -5.5t-48 2.5t-36.5 3q-28 1 -47 19t-19 41 q0 12 2 38t2 43q0 23 2.5 39.5t5.5 24t3 8.5q10 102 14 121q1 3 4 11.5t5.5 19t2.5 20.5q0 7 4.5 46.5t4.5 60.5q0 31 -12 58.5t-34 27.5q-38 0 -51 -21q-24 -41 -24 -98q0 -13 -6.5 -48t-8.5 -48q-8 -53 -16 -172q-2 -25 -21 -95q-1 -6 -3.5 -22.5t-6 -26t-10.5 -21.5 t-20.5 -18t-34.5 -6q-18 0 -54 -4t-55 -4q-23 0 -39 1.5t-34 6t-27.5 15.5t-9.5 28zM26 98q0 -11 7.5 -16.5t17.5 4.5l7 2q8 3 8 10t-7 14t-12 7q-8 0 -14.5 -7t-6.5 -14zM387 897q-2 -13 5.5 -19.5t17.5 -8t30 -1.5q28 0 48 15.5t26 44.5q3 17 3.5 31.5t1.5 22.5t5 17 q4 6 13 8.5t15.5 6.5t6.5 16q0 7 -12 14t-12 15q0 7 -2.5 21.5t-2.5 15.5q-5 18 -22.5 34.5t-38.5 16.5q-9 0 -16.5 -1.5t-12.5 -3t-9 -6t-6 -6.5t-4 -9.5t-3 -10t-2.5 -12.5t-1.5 -13q0 -6 -3.5 -34t-7.5 -41q-3 -10 -5 -21t-3.5 -22.5t-2.5 -22t-2 -23.5t-3 -24zM403 715 q0 -7 3 -8.5t12 -1.5q5 0 9.5 6.5t4.5 13.5q0 3 -3.5 3t-8.5 -1.5t-6 -1.5q-11 0 -11 -10zM578 1030q0 -10 24 -10q6 0 6 10q0 3 -3.5 6.5t-6.5 3.5q-8 0 -14 -3.5t-6 -6.5z" />
<glyph unicode="S" horiz-adv-x="757" d="M-10 190q0 31 5 71.5t5 55.5q0 40 6 76q1 4 7 13.5t7 13.5q4 12 8 36t9.5 38t17.5 22q6 4 17 6t18.5 2h25h23.5q4 0 14.5 1t20 1.5t20.5 0.5t17 -1q39 -8 63 -6q11 1 19 -10.5t8 -24.5q0 -19 -6 -41.5t-6 -33.5q0 -9 -5 -33t-5 -33q0 -25 16 -45t41 -20q44 0 55 34l17 52 q1 7 0 25t0 28q3 53 -7 88q-1 2 -4 12.5t-4.5 14t-5 12t-7 12t-9 8t-11.5 6.5q-11 4 -25 19.5t-16 17.5q-43 36 -106 111l-11 11t-11 12t-9 12t-8 14q-6 15 -23 39t-24 39q-23 49 -23 160q0 17 2 30.5t4.5 19.5t2.5 7q0 109 34 192q11 27 17 41t19.5 33.5t29.5 32.5 q2 1 20.5 16.5t27.5 22.5t25 14.5t29 7.5q12 0 23 2t12 2q35 7 43 7q33 0 80 2t80 2q58 0 113 -25q14 -6 29 -9.5t27.5 -7.5t25.5 -14q27 -19 32 -36q2 -5 12.5 -32t12.5 -42q9 -47 2 -66q-2 -6 -3 -12t-1 -9.5v-14.5v-17q0 -21 -10.5 -63.5t-10.5 -71.5q0 -28 -18 -51 q-25 -29 -37 -29q-82 -7 -125 0q0 3 -30 2l-29 -2q-13 0 -24 14t-11 29q0 19 5 52t5 50q0 28 -15.5 48t-41.5 20q-19 0 -25 -6q-30 -22 -35 -45q-10 -57 -10 -103q0 -3 -3 -12t-3 -16q0 -8 10.5 -15t12.5 -12q15 -35 41 -61q15 -14 52.5 -48t63 -60.5t49.5 -57.5 q21 -28 29.5 -49t13 -33.5t17.5 -24.5q10 -9 13.5 -25.5t6 -43t6.5 -43.5q10 -46 0 -93q-3 -13 -6 -41.5t-6 -42.5q-2 -12 -4.5 -34t-4.5 -33.5t-8 -27.5t-16 -29q-6 -8 -25 -9.5t-32 -0.5t-16 -3q0 -12 12 -16.5t24 -4t17.5 -8.5t-6.5 -30q-26 -52 -56 -70 q-73 -41 -125.5 -50t-158.5 -9q-39 0 -70.5 10t-50.5 4q-14 -5 -27 1.5t-18 6.5q-8 0 -15.5 2.5t-22 8.5t-28.5 10q-32 11 -49.5 55.5t-17.5 97.5zM309 858q4 0 13.5 5t9.5 7q0 4 -5.5 7.5t-11.5 3.5q-2 0 -4 -2t-2 -5q0 -2 -1.5 -6.5t-1.5 -7t3 -2.5zM395 1364 q0 -7 11.5 -9t22.5 1.5t11 9.5q0 5 -5 9.5t-13 4.5q-27 0 -27 -16z" />
<glyph unicode="T" horiz-adv-x="604" d="M84 63q0 15 3.5 32.5t8 38t6.5 36.5q4 43 19 131q1 6 2.5 19t3.5 24t6 16q12 14 6 35q-4 18 -4 27.5t1.5 13.5t4.5 17.5t6 33.5q4 43 9.5 71t8.5 38t3 14q0 12 2 36.5t2 25.5q0 12 3.5 26t6 27.5t0.5 26.5q-2 16 4.5 54.5t15.5 85t11 58.5t7.5 49t9 62.5t3.5 36.5 q0 24 -22.5 41.5t-46.5 11.5q-11 -2 -19.5 -2t-13 1t-10 6.5t-7.5 8t-8 11.5q-4 5 -5 12t0 18t1 13q0 42 2 51q2 10 0 28t0 31q7 34 24 62t44 32q56 8 76 4q17 -4 37 -4t44 2t36 2q7 0 25.5 3.5t25.5 3.5q20 0 58 -3.5t58 -3.5q14 0 41 1t47 1t33 -2q25 -3 41.5 -23.5 t16.5 -41.5q0 -11 -5.5 -25t-5.5 -20q0 -1 -3 -18t-3 -31q0 -7 -4 -20.5t-4 -20.5q0 -29 -16 -45q-18 -18 -49 -29q-11 -4 -54 -4q-11 0 -28 -15.5t-17 -25.5q0 -22 -2.5 -45t-7 -54.5l-6.5 -45.5q-3 -20 -9.5 -55t-9.5 -50q-3 -19 -10 -93t-15 -110q-10 -40 -11 -96 q0 -37 -10.5 -74.5t-10.5 -85.5q0 -15 -8 -39q-6 -20 -9 -39.5t-4.5 -50.5t-2.5 -41q-2 -21 -5 -37.5t-8 -36t-8 -32.5q-2 -9 -4.5 -28.5t-4.5 -29t-10 -23.5t-22 -26q-12 -10 -53 -10q-10 0 -38 -2t-52 -3t-49.5 0.5t-40.5 9.5t-15 22q0 6 -6 15t-6 15zM369 854 q5 -5 8.5 -11t5 -9.5t4 -5.5t6.5 -1q17 7 17 21q0 5 -10 8t-13 6q-9 11 -18 1q-5 -6 0 -9zM453 1098q4 -5 0 -19t6 -16q4 -2 8.5 4t8 14t3.5 13q0 18 -12 18q-5 0 -9 -2.5t-5.5 -6t0.5 -5.5z" />
<glyph unicode="U" horiz-adv-x="790" d="M2 233q0 5 2 13l2 8q0 14 5.5 57t8.5 47q5 5 9.5 5t10.5 -2.5t11 -2.5q17 0 17 21q0 9 -4.5 11.5t-15.5 4.5h-3q-3 0 -6.5 2t-6.5 5.5t-3 7.5q0 28 11 74.5t11 70.5q0 67 25 182q3 13 4.5 29t3.5 37.5t4 40.5q1 10 3.5 41t4.5 50.5t6 31.5q21 66 21 145q0 24 4 64 q1 8 5.5 26t4.5 31q0 34 13 119q4 19 23 47t36 28q5 0 15.5 1t19.5 1t16 -2q8 -2 29 0.5t24 2.5q10 0 24.5 1t23.5 1.5t22 -1t25 -4.5q15 -5 28 -17t13 -24q0 -16 -5.5 -58t-5.5 -52q0 -15 -3 -31t-6.5 -30t-4.5 -21q-1 -18 -12 -78q-17 -74 -17 -123q0 -11 -8 -64t-8 -67 q0 -29 -9.5 -62t-11.5 -73q-5 -73 -12 -121q-1 -10 -8.5 -41.5t-7.5 -50.5q-1 -15 -9 -64t-8 -79v-16.5v-17t1 -14t3 -14.5l5.5 -11t9 -9.5t14 -5t19.5 -2.5q25 0 41 12.5t21.5 36t7 37t1.5 34.5q0 16 2 28t4.5 21t3.5 13q3 23 9 88t12 98q1 5 5.5 17.5t4.5 19.5q0 9 5 20 t5 21q0 46 7.5 85.5t7.5 47.5q0 28 13 83t13 83q0 50 4 66t14 23.5t24 10.5t20 7q10 5 -6 8q-2 0 -6 1q-34 5 -35 15q0 3 3 31.5t3 30.5q7 91 26 167q2 8 16.5 22.5t29.5 18.5q18 4 38 4t44 -2t38 -2l39 7q27 0 48.5 -11.5t21.5 -36.5q0 -62 -8 -86q0 -12 -7.5 -33.5 t-7.5 -31.5q0 -4 -2.5 -19.5t-6.5 -41t-7 -48.5q-6 -49 -11.5 -88t-8 -54t-4 -34.5t-1.5 -46.5q0 -24 -12 -72q-5 -23 -7.5 -49t-4.5 -41q-2 -14 -8.5 -45t-8.5 -47q-9 -99 -14 -135q-3 -24 -11 -66.5t-11 -64.5q-3 -16 0 -37q1 -8 -4.5 -21t-4.5 -14q-15 -131 -65 -205 q-5 -8 -12.5 -17t-22 -22.5t-16.5 -15.5q-33 -19 -90 -39q-37 -14 -115 -14q-4 0 -15.5 0.5t-18 0.5t-16 -2t-16.5 -5q-6 -2 -19 -0.5t-30.5 4t-19.5 2.5q-74 5 -78 6q-39 8 -59 16t-50 27q-10 6 -18 18t-11.5 22t-8.5 27t-7 23q-16 50 -10 96zM164 1020q0 -6 0.5 -8.5 t3.5 -4t10 -1.5q3 0 6.5 5.5t3.5 8.5q0 6 -2 12.5t-5.5 11.5t-8.5 5q-3 0 -5.5 -11.5t-2.5 -17.5z" />
<glyph unicode="V" horiz-adv-x="761" d="M113 549q0 10 4 63.5t4 63.5q0 20 -3 69t-3 74q0 39 3 106.5t3 106.5q0 12 -1.5 35t-1.5 41.5t3 34.5q1 8 -0.5 31t-1.5 26q0 100 2 121q1 8 1.5 24.5t2 25.5t7 19.5t15.5 16.5q25 14 46 14q19 0 47 4.5t53 4.5q16 0 43.5 -4t38.5 -5q41 -2 41 -69q1 -31 -1.5 -84 t1.5 -84q3 -39 -1.5 -107.5t-4.5 -93.5q0 -9 -5.5 -25.5t-5.5 -25.5q0 -7 4.5 -21t4.5 -20q2 -12 2 -39q0 -22 9.5 -28.5t21 2.5t16.5 26q8 29 22.5 92t18.5 78q3 9 9.5 27t10.5 33t4 30q0 4 4 14.5t10.5 23.5l8.5 17q2 5 9 43t9 43l10 31q11 37 11 51q9 68 51 82l29 10 q3 1 16 4t20 3q16 0 47 -3.5t46 -3.5q34 0 44.5 -15t10.5 -46q0 -17 -3 -36t-5.5 -29t-9.5 -32t-9 -28l-16 -65q-3 -10 -6 -29.5t-6 -30.5q-2 -7 -11.5 -26l-11.5 -23q-1 -2 -6 -43q-3 -38 -23.5 -98t-25.5 -82q-2 -10 -12 -40.5t-11 -43.5q-2 -23 -14.5 -66t-15.5 -63 q-4 -28 -24 -87t-24 -91q-2 -10 -13 -34t-13 -28q-3 -7 -2 -20.5t-2 -30.5q-2 -11 -10 -32t-11 -32l-35 -147q-1 -2 -5.5 -18t-6 -21t-6.5 -18.5t-9.5 -20t-11 -16t-14.5 -15t-18 -8.5q-21 -8 -74 -8q-5 0 -11.5 9.5t-11.5 9.5t-18.5 -8.5t-22.5 -10.5q-6 -4 -43.5 -1 t-42.5 3q-15 0 -41 3t-38 3t-25 17q-6 9 -9 20t-3 19t1 21.5t1 19.5q0 1 -0.5 7.5t0 9.5t2.5 7t6 6q2 2 8.5 4t7.5 4q2 5 -1 7t-9 3t-8 3q-6 7 -7.5 17t0 26.5t1.5 21.5q0 8 6 30.5t6 29.5q0 4 -6 14.5t-6 19.5zM170 154q0 -3 3.5 -3t9.5 1.5t10 1.5q3 0 5 2.5t2 5.5l1 2 q0 10 -8 10q-3 0 -13 -8.5t-10 -11.5zM643 1067q0 -12 14 -12q2 0 7.5 -1.5t8.5 -1.5t3 3q0 5 -9.5 14.5t-13.5 9.5q-10 0 -10 -12zM752 1329q0 -8 16 -8q8 0 8 10q0 4 -4 4q-20 0 -20 -6z" />
<glyph unicode="W" horiz-adv-x="1181" d="M96 133q0 10 8.5 84t8.5 121q0 28 -3.5 83t-3.5 83q0 33 7 84q10 70 10 266q0 18 -2 50.5t-2 47.5q0 12 2 34t2 32q0 30 -2 76.5t-2 62.5q0 43 7 108.5t7 96.5q0 14 3 24t13.5 22.5t38 19t70.5 6.5q25 0 46.5 -6.5t37.5 -6.5q24 0 39 -5.5t23.5 -12.5t12.5 -26t4.5 -33 t0.5 -47v-13q0 -17 -2 -35t-2 -22q0 -8 3 -28.5t3 -33.5q0 -29 -11.5 -110t-11.5 -185q0 -34 25 -34q17 0 32 33t15 57q0 57 21 125q22 69 55 211q1 4 7.5 35.5t12.5 53t21 42t35 20.5q7 0 40 9.5t40 9.5q106 0 134.5 -24t28.5 -118q0 -77 -12 -197.5t-12 -191.5 q0 -14 6 -29.5t16 -15.5t18 8t13 22t8.5 27.5t7.5 31t7 26.5q7 26 14.5 71t13.5 66q4 16 10 52.5t12.5 63t14.5 38.5q3 5 11 8.5t12 10t4 22.5q0 9 -2 24t-2 21q0 25 28.5 52t55.5 27q7 0 18.5 -4t17.5 -4q2 0 21.5 4t44.5 4q17 0 29 -1t26.5 -5.5t22.5 -15t8 -27.5 q0 -15 -7 -49t-7 -39q0 -15 -11 -39t-14 -39l-55 -233q-8 -33 -33 -112.5t-39 -133.5q-4 -16 -6 -52t-4 -50q-3 -13 -13.5 -32t-13.5 -32q-27 -106 -47 -151q-7 -17 -11 -55.5t-5 -45.5q-8 -32 -28 -96.5t-28 -99.5q-3 -11 -15 -29.5t-15 -32.5q-12 -53 -84 -53q-26 0 -78 2 t-78 2q-6 0 -18 -1t-17 -1q-63 0 -63 88q0 23 1.5 41t4.5 39.5t4 34.5q4 40 4 137q0 12 -10.5 24.5t-18.5 12.5q-10 0 -15.5 -1.5t-9.5 -9.5t-5 -11t-4 -19l-15 -63q-16 -63 -22 -107q-12 -80 -38 -122t-58 -42q-6 0 -17.5 1t-17.5 1q-8 0 -38 -5t-46 -5q-4 0 -30 -0.5 t-36 0t-33.5 2.5t-34.5 7t-25 12.5t-20 21t-6 31.5q0 10 -4 29.5t-4 29.5zM575 1008q0 -21 15 -21q12 0 12 14q0 1 0.5 8t0 10t-1.5 8t-4.5 7t-8.5 2q-4 0 -8.5 -12t-4.5 -16zM815 473q0 -7 10.5 -19t20.5 -12q3 0 5 1.5t3 5t1 6t-0.5 6t-0.5 4.5q0 20 -25 20q-14 0 -14 -12 zM936 592q11 0 9.5 12t-9.5 12q-12 0 -9 -12t9 -12z" />
<glyph unicode="X" horiz-adv-x="774" d="M-53 61q0 9 8.5 35.5t19.5 56t13 35.5q3 11 10.5 30t9.5 26q29 102 78 205q24 49 29 90q3 14 9 29t15 32.5t13 28.5q4 6 24 76q10 36 4 133q-1 12 -4 37t-4 43q-2 22 -7 53.5t-3 54.5q3 27 -3 69.5t-7 55.5q2 37 -11 100q-6 35 -6 107v13t1.5 9.5t2 7t3 6t3.5 5t6 6 t7 6.5q10 10 13.5 11.5t25.5 4.5q15 3 30 3q50 0 77 -5.5t42 -5.5q31 0 51 -7.5t21 -31.5q5 -81 10 -114q10 -57 10 -72q0 -11 1 -32.5t1 -33.5q0 -10 1 -16.5t4 -12.5t9.5 -9t16.5 -3q21 0 39 68q3 10 6.5 19.5t6.5 16t6 14t5 16t3 18.5q1 14 11.5 35t12.5 29 q5 27 11.5 46.5t18 39.5t30.5 30.5t45 10.5q14 0 42 2t42 2q9 0 27.5 -2t27.5 -2q5 0 16 -8t17 -15q13 -15 0 -47q-28 -69 -33 -94q-5 -17 -6 -19.5t-11 -21.5q-7 -10 -10 -17t-4.5 -11.5t-3.5 -20.5q-4 -26 -22 -72q-1 -2 -13 -29t-16 -41q-2 -8 -3.5 -19t-4 -19t-6.5 -17 q-8 -19 -12 -24t-17 -9q-6 -2 -9.5 -5t-5.5 -5.5t-3 -9t-1 -9v-12v-12.5q0 -27 -14 -65.5t-14 -92.5q0 -13 1 -43t1 -43q0 -6 -1 -19.5t-1 -19.5q0 -14 5 -41t5 -41q0 -52 14 -120q4 -21 4 -89q0 -25 7.5 -114.5t7.5 -112.5q0 -2 1 -7.5t1 -11t-2 -12.5q-5 -20 -19 -31.5 t-25.5 -14.5t-36.5 -5t-34 -4q-16 -3 -42 -3t-53 1.5t-30 1.5q-15 0 -28.5 12t-18.5 27q-5 17 -3 23t7.5 11t5.5 9q0 9 -6.5 22.5t-7.5 20.5q-4 13 -2.5 64.5t0.5 64.5q0 11 -4 25t-4 16q0 3 -1.5 16.5t-2.5 18.5t-4 15t-7 14t-11 8t-17 4q-9 0 -14.5 -10t-9.5 -27.5 t-5 -20.5q-2 -4 -11 -14.5t-12 -19.5q-1 -4 -2 -16.5t-2 -18.5q-5 -30 -30 -96q-6 -16 -14.5 -49t-16.5 -48q-9 -15 -14 -22t-17.5 -16.5t-27.5 -12.5q-57 -8 -89 -6q-13 1 -39 6.5t-44 5.5q-33 0 -33 49zM164 397q0 -12 20 -12q12 0 22.5 4t10.5 12q0 4 -6 4.5t-17 -1 t-14 -1.5q-1 0 -4 0.5t-5.5 0.5t-4.5 -2t-2 -5zM485 119q0 -10 2 -13.5t9 -3.5q4 0 4 17q0 2 -2.5 5t-5.5 5t-5 2q-4 0 -4.5 -2t1 -5.5t1.5 -4.5zM500 1049q0 -19 20 -19q11 0 17 11.5t6 25.5q0 5 -12 -2q-9 -6 -13 -6q-12 0 -15 -1.5t-3 -8.5z" />
<glyph unicode="Y" horiz-adv-x="753" d="M147 1182q0 23 -7.5 75t-6.5 89.5t19 62.5q13 23 36 23q9 0 33.5 -2.5t36.5 0.5q2 0 10.5 1t17 1.5t19 -1t17.5 -4.5q3 -1 9 -1.5t11 0t10.5 1t7.5 0.5q14 0 29.5 -13.5t22.5 -27.5q4 -7 5.5 -12t1.5 -9v-13.5t1 -18.5q1 -12 5 -40.5t5 -39.5t3 -40t-1 -42 q-1 -21 1.5 -58t2.5 -52q0 -27 18.5 -29.5t30.5 27.5q19 48 23 67q1 4 5.5 19t7.5 27.5t3 21.5q0 16 9.5 35t9.5 20q4 17 16 48t14 44q7 44 34.5 67.5t72.5 23.5q9 0 28 -2.5t29 -2.5q1 0 15.5 2.5t35.5 2.5q8 0 22 -3.5t21 -3.5q8 0 12.5 -10t4.5 -18q0 -22 -17 -60 q-7 -15 -16.5 -51.5t-17.5 -54.5q-26 -59 -33 -84q-4 -14 -9 -30t-7 -24t-6.5 -20.5t-9.5 -26.5t-13 -34q-3 -8 -13 -23t-10 -28q0 -9 -9 -25.5t-11 -22.5q-5 -13 -29 -86t-41 -110q-9 -20 -41 -25t-33 -10q-3 -12 5.5 -16t20 -2t18.5 -2.5t2 -18.5q-30 -78 -33 -88 q-3 -11 -18.5 -48t-18.5 -61q-4 -22 -9.5 -64.5t-9.5 -66.5q-3 -15 -6 -26.5t-4.5 -17t-1.5 -7.5q0 -56 -12 -122.5t-12 -84.5q0 -14 -19.5 -31.5t-38.5 -17.5q-28 0 -77.5 -4t-69.5 -4q-36 0 -60 12q-15 7 -19.5 16t-4.5 29q0 33 2 52.5t7.5 49t8.5 52.5q17 115 17 125v158 q0 18 -4.5 68t-4.5 91q0 22 -2.5 40t-7 38.5t-6.5 34.5q-3 22 -3.5 73t-2.5 72q0 6 -1 20.5t-1.5 22.5t-3 20t-6.5 23q-9 11 -6 52.5t2 52.5q-5 34 -5 80zM438 1004q0 -5 2.5 -13t5.5 -8q5 0 9 4t6 8.5t2 5.5q0 3 -4 6t-10 3q-11 0 -11 -6zM461 690q0 -3 -0.5 -8.5t0 -7.5 t1.5 -5t3.5 -4t7.5 -1q6 0 16.5 6.5t10.5 13.5t-3 10t-6 3.5t-10 0.5q-13 0 -16.5 -1t-3.5 -7z" />
<glyph unicode="Z" horiz-adv-x="647" d="M-51 63q0 126 61 269q12 27 22.5 36.5t17.5 11.5t11 9q1 3 -2 6t-6 7.5t2 17.5q6 15 39 84q28 52 64 143q5 11 20.5 42t26.5 56q3 8 15.5 27.5t15.5 32.5q8 34 14 47q5 12 15 31.5t17 34t9 20.5q7 23 27 63t26 56q3 7 6 13t5 9t3.5 8.5t1.5 14.5v6.5v6.5v6t-0.5 5.5 l-1.5 4.5t-2 4.5t-2.5 3.5t-4 3.5t-5.5 2.5q-16 3 -26 2.5t-27 -3.5t-27 -3q-9 0 -26.5 5t-26.5 5q-4 0 -14.5 -0.5t-15.5 0t-13.5 1.5t-14.5 3.5t-12 7.5q-18 12 -10 41q2 6 0.5 23.5t-0.5 25.5q0 3 4 18.5t4 22.5q3 30 6 54q6 27 20.5 49t37.5 22q8 0 14.5 2.5t13.5 5 t13 3.5q20 2 45 3t44.5 0t46 -2t44.5 -1q9 0 19.5 -9.5t19.5 -9.5q10 0 40.5 9.5t47.5 9.5q118 0 141 -3q12 -5 35 -28q2 -2 3 -4t1 -5.5v-6v-9v-10.5q0 -12 -4 -34t-4 -34q0 -16 -3.5 -33t-10 -38.5t-9.5 -32.5q-7 -29 -31 -75t-32 -75q-8 -30 -36 -83t-36 -72 q-14 -36 -26.5 -64t-30 -63l-25.5 -51q-8 -15 -16.5 -54.5t-11.5 -44.5q-5 -6 -13 -12t-12 -14q-9 -19 -28 -65t-29 -66q-13 -21 -33 -80q-5 -13 -13 -27t-8 -22q0 -35 23 -35q3 0 26.5 -4t42 -5.5t38.5 3.5q5 5 28.5 2t30.5 -2q22 2 40.5 -9t18.5 -32q0 -13 3 -41.5 t1 -48.5q0 -2 -7.5 -30.5t-8.5 -43.5q-3 -30 -22 -52t-46 -22q-1 0 -64 -2t-63 2q-1 4 -57 2t-57 -2q-8 0 -46 2t-46 2q-15 0 -31 -1t-36 -2.5t-32 -2.5q-48 0 -71 6q-5 1 -15 11t-14 16q-6 7 -6 28zM483 1147q0 -4 4 -7t9 -1q6 3 13.5 3.5t13 0.5t9 1.5t3.5 6.5q0 4 -6 7.5 t-14 6t-13 2.5q-19 0 -19 -20z" />
<glyph unicode="[" horiz-adv-x="466" d="M-35 -98q0 24 2 46t6.5 52t6.5 45q7 60 28.5 214.5t28.5 232.5q5 82 24 124q3 15 9.5 83t9.5 81q8 32 15 87.5t11 74.5q6 32 11.5 92.5t9.5 87.5q2 12 13.5 61.5t11.5 73.5q0 49 4 66q2 8 5 25.5t5 25.5t7 20t13.5 22t22.5 20q9 6 27 -1.5t26 -4.5q2 1 16 6.5t23 5.5 q22 0 56 3t65 3q5 0 35 -2t35 -2q21 0 49 -35q6 -8 6 -25l-6 -41v-13v-14.5t-0.5 -13.5t-2 -14.5t-4 -12.5t-6.5 -13q-15 -21 -53 -27t-49 -18q-2 -2 -9.5 -10.5t-11.5 -13t-8.5 -14t-5.5 -18.5q-2 -8 0.5 -31.5t-2.5 -31.5q-12 -33 -20 -162q-3 -36 -17 -103t-18 -98 q0 -47 -12.5 -85.5t-12.5 -39.5q-1 -17 -3 -48t-3 -48q-1 -8 -7 -51.5t-7 -71.5q-1 -17 -15 -96t-16 -92q-11 -66 4 -97q17 -32 72 -32q7 0 22 -25v-24q0 -3 0.5 -28.5t-0.5 -35.5t-4 -29.5t-11.5 -30.5t-21.5 -18q-17 -10 -53 -10q-30 0 -105.5 -3t-115.5 -3q-4 0 -19.5 -1 t-23 0t-18 3.5t-15 11t-4.5 21.5zM162 784q0 -8 24 -8h4q13 0 13 8q0 11 -17 11q-24 0 -24 -11zM303 -49q0 -6 10 -6q6 0 6 10t-4 10t-8 -5.5t-4 -8.5z" />
<glyph unicode="\" d="M123 1442q0 13 10.5 22t24.5 9q27 0 84.5 -5.5t87.5 -5.5q15 0 26.5 -9.5t18.5 -22t12.5 -32.5t7.5 -33.5t4.5 -33.5t3.5 -24q3 -19 12.5 -67t12.5 -77q2 -21 12.5 -61.5t10.5 -59.5q0 -24 16 -80.5t18 -70.5q3 -18 12 -56.5t14 -67.5t5 -48q0 -4 17.5 -71t17.5 -87 q0 -45 24 -139t27 -133q1 -10 6 -41t10 -59t5 -35q0 -4 17 -60t17 -82q0 -17 -9.5 -31.5t-33.5 -13.5q-33 2 -59 0t-58.5 -1t-56.5 7q-21 6 -32 19.5t-13.5 28t-6 45t-9.5 53.5q-9 36 -22.5 112.5t-18.5 100.5q-42 186 -59 319q-3 23 -20.5 94t-20.5 101q-2 14 -12.5 43 t-10.5 43q0 25 -7 50t-7 30q0 21 -9.5 58t-11.5 48q-8 50 -23 123t-24.5 124t-9.5 77zM410 524q6 -8 21 9q6 8 7 12q0 6 -5.5 10t-10.5 4q-8 0 -8 -8q0 -3 -5 -13t1 -14z" />
<glyph unicode="]" horiz-adv-x="466" d="M-68 -92q0 13 1.5 26t5 29.5t4.5 24.5q1 9 1.5 20t1 17.5t3 15t8.5 18.5q8 15 26.5 17t38.5 3.5t31 14.5q4 5 13.5 15.5t13 15.5t7 16t3.5 25q0 4 4 58t4 59q0 13 8.5 41.5t8.5 44.5q0 19 10 58.5t10 61.5q0 42 17 91q10 31 10 118q0 16 7 52t7 55q0 9 8 42t9 44 q4 47 8.5 86t7 58t4.5 32.5t2 19.5q0 15 4.5 47.5t1.5 59.5q-2 13 -13 19t-24.5 8.5t-27 7t-22.5 19.5t-9 42q0 17 2 32.5t6.5 40.5t5.5 34q3 19 22.5 32t35.5 15q15 1 44 0t46 0q12 1 24.5 -1t31.5 -7t24 -6q11 -7 56 -3t56 3q18 -1 28.5 -16t10.5 -32q0 -24 -2 -49t-6 -52 t-7.5 -47.5t-9 -51.5t-8.5 -47q-3 -21 -8.5 -73.5t-11.5 -80.5q-2 -10 -11.5 -45t-9.5 -55q0 -25 -2.5 -47t-5.5 -34l-2 -12q0 -15 -20 -55q-5 -11 -5 -25t2.5 -35t2.5 -36q0 -26 -12.5 -84.5t-12.5 -83.5q0 -33 -9 -99t-11 -98q0 -15 -8.5 -47.5t-8.5 -50.5 q-1 -13 -9.5 -49.5t-8.5 -56.5q0 -22 -5 -45.5t-5 -28.5q0 -23 -1 -36.5t-6 -32t-16.5 -30.5t-30.5 -18q-30 -3 -58.5 -3.5t-69 0.5t-58.5 1q-14 0 -39.5 1t-40.5 1q-72 0 -72 31zM231 471q0 -8 7 -15t12 -7q6 0 6 22q0 23 -6 23q-5 0 -12 -7.5t-7 -15.5z" />
<glyph unicode="^" d="M131 940q5 8 24.5 33t22.5 43q2 10 16 30t19 31l18 41q6 15 13.5 28t19 32.5t19.5 33.5q27 48 30 58q5 20 15.5 39t25 39.5t21.5 33.5q20 35 47.5 44.5t75.5 9.5q9 0 20.5 -12t16.5 -13q4 -2 22.5 -2.5t26.5 -9.5q9 -12 13.5 -26.5t7 -36.5t3.5 -29q4 -28 20 -80.5 t21 -81.5q3 -17 14.5 -48t16.5 -55q1 -5 5 -11.5t5 -12.5q10 -64 15 -76q16 -40 16 -61q0 -15 -13 -28t-28 -13q-11 0 -46 -2.5t-56 -1.5q-17 1 -30 10.5t-16 9.5q-4 0 -12 8t-8 13t-7 27.5t-7 27.5q0 4 -6.5 12.5t-6.5 18.5q0 29 -22 79q-11 24 -23.5 21.5t-21.5 -25.5 q-7 -16 -24.5 -34t-20.5 -23q-41 -65 -54 -90q-21 -35 -43.5 -45t-74.5 -10q-7 0 -20.5 -1t-20.5 -1q-33 -2 -43.5 17t-5 42.5t19.5 46.5z" />
<glyph unicode="_" horiz-adv-x="1024" d="M-100 -125q0 32 18 57q5 13 8 17.5t9 13t15.5 11.5t22.5 3q4 0 61.5 2t112 2t82.5 -4t334 7q38 1 94 0.5t137.5 -1.5t98.5 -1q47 0 47 -66q0 -40 -19.5 -67t-58.5 -27q-9 0 -77 -3t-85 -3l-26 -4q-26 -5 -37 -5q-6 0 -42.5 2.5t-41.5 2.5q-11 0 -29 3t-26 3q-4 0 -45 -3 t-95 -3q-29 0 -142.5 -1t-207.5 -1q-57 0 -82.5 14t-25.5 51z" />
<glyph unicode="`" horiz-adv-x="374" d="M154 1411q0 27 22 27q18 0 35 4t22 4q56 0 97 -21q11 -6 19.5 -17t14 -27.5t8 -28t6.5 -34t5 -30.5q2 -9 9 -26t9 -23q3 -16 -3 -27.5t-19 -11.5q-10 0 -26.5 -4t-24.5 -4q-44 0 -66 27q-24 24 -37 57q-4 9 -10 18.5t-14.5 21.5t-12.5 17q-3 5 -11.5 18.5t-12 19.5 t-7 17.5t-3.5 22.5z" />
<glyph unicode="a" horiz-adv-x="714" d="M-6 76q-15 29 -16 76.5t3 72.5t15 84q1 4 8.5 28.5t7.5 39.5q0 31 4 51q14 69 60.5 129.5t111.5 87.5q23 10 48 16t30 9q10 6 32.5 11.5t33.5 18.5q7 8 35 18t34 19q35 42 27 123q-5 31 -55 31q-14 0 -23.5 -8t-9.5 -21q0 -9 -13.5 -34t-15.5 -52q-2 -31 -51 -39 q-8 -3 -55 -0.5t-58 2.5q-9 0 -24.5 3t-18.5 3q-11 0 -18.5 10t-7.5 23q0 15 6 45t6 47q0 33 14 54q6 7 9 28t4 23q16 57 55 96q1 1 10.5 11t13.5 13.5t12 9t15 7.5q16 4 36 10.5t30 9.5t25 5t32 2q32 0 71 3t64 3q58 0 76 -8q7 -4 36.5 -14t31.5 -11q28 -11 43.5 -32 t27.5 -56q11 -34 11 -61q0 -54 -10.5 -106t-10.5 -56q-2 -14 -1.5 -50t-8.5 -44q-4 -10 -6.5 -23.5t-4.5 -32t-3 -26.5q-1 -9 -1 -38.5t-6 -56.5q-8 -34 -24 -157q-2 -17 -32 -20.5t-30 -4.5q-3 -10 10 -15.5t27.5 -10t14.5 -11.5t-17 -118q-4 -24 -2.5 -71t-5.5 -77 q-3 -13 -17.5 -27t-27.5 -14q-16 0 -49.5 -1.5t-59 -1t-49.5 4.5q-13 2 -39.5 19.5t-48.5 17.5q-10 0 -25 -6.5t-34 -17.5t-23 -13q-8 -4 -17.5 -6t-14.5 -2.5t-17.5 0t-17.5 0.5q-10 0 -28 -3t-28 -3q-23 0 -61 20q-10 5 -17 12.5t-10 14t-9 19t-9 18.5zM133 182 q0 -6 19 -6q14 0 14 14q0 4 -5 11.5t-7 7.5q-7 0 -14 -10t-7 -17zM260 305q-1 -6 7.5 -17.5t6.5 -17.5q-7 -13 -2.5 -19t9.5 -7.5t14 -1.5q18 0 31.5 8.5t20 18t11.5 29t6 28.5t3 30q2 17 6 37.5t4 28.5q0 21 -10.5 34t-30.5 13q-21 0 -32.5 -14.5t-20.5 -42.5 q-12 -32 -23 -107z" />
<glyph unicode="b" horiz-adv-x="724" d="M-23 59q4 21 8 45.5t8 54.5t7 48q1 12 2 46t6 54q3 16 14 60t13 65q1 6 2 24t3 39.5t5 43.5q25 184 31 243q1 19 12 52.5t14 44.5q2 7 0.5 25.5t-0.5 25.5q1 4 5 12.5t6 22.5q4 25 6.5 53t4 58.5t3.5 51.5q7 54 13 99t10 68t6.5 40.5l3.5 24.5t0 12q-2 16 14 37t33 21 q10 0 32.5 3t41.5 3q8 0 28.5 -4.5t28.5 -4.5q2 0 23.5 4.5t29.5 -1.5q31 -12 31 -48q0 -26 -10.5 -75t-10.5 -74q0 -15 -3 -37.5t-2 -34.5q0 -53 40 -53q17 0 45 14.5t43 18.5q0 3 20 1l21 -1q104 0 144 -47q11 -14 18.5 -34.5t7.5 -37.5q0 -14 -1.5 -32t-3 -36.5 t-1.5 -33.5q0 -5 -4 -28.5t-4 -53.5q0 -42 -20.5 -136.5t-20.5 -142.5q0 -25 -7 -57t-7 -33q-1 -4 -1.5 -29t-2.5 -34q-21 -95 -21 -136q0 -17 -14 -71q-1 -3 -9 -40.5t-12 -45.5q-15 -48 -71 -93q-31 -26 -62 -26q-19 0 -54 3t-54 3q-34 0 -62 14q-6 3 -23.5 17t-29.5 14 q-15 0 -40.5 -19t-41.5 -22q-41 -6 -53 -5.5t-26 4.5t-23 5q-14 1 -29.5 -1.5t-26.5 -2.5q-17 0 -26 18.5t-7 36.5zM127 715q0 -2 -0.5 -5.5t-0.5 -6v-5.5t0.5 -5t3 -3.5t5.5 -1.5q6 0 17.5 7t11.5 14q0 20 -17 20q-6 0 -13 -5t-7 -9zM283 330q0 -10 -0.5 -21t-0.5 -15.5 t0.5 -9.5t2 -8t4.5 -6q1 -1 4 -4.5t6 -6.5t7.5 -6t10.5 -5t13 -2q12 0 21 5.5t14 12.5t9 20t5 21l3 24t3 21q2 16 14.5 66.5t12.5 81.5q0 4 4 33t4 44q0 23 8 68t10 66q1 20 3.5 43.5t3.5 43.5t1 50q0 25 -6 31q-10 12 -39 12q-9 0 -16.5 -2.5t-13 -5t-9.5 -9t-6.5 -10.5 t-4.5 -14t-2.5 -14t-2 -15.5t-2.5 -15.5q-3 -22 -14 -115q-16 -122 -17 -139q-1 -6 3 -29.5t-1 -44.5q-2 -9 -12 -25t-10 -32q0 -18 -5 -43t-5 -45zM598 1034q0 -17 31 4q6 3 6 4q0 9 -21 9q-16 0 -16 -17z" />
<glyph unicode="c" horiz-adv-x="700" d="M-12 211q2 31 17 97t15 108q0 15 3 42.5t4 37.5q2 19 8 53.5t8 48.5q18 99 20 117q1 6 1.5 35t7.5 47q10 29 10 71q0 31 20 93q6 19 26 48t22 33q17 36 64 63t97 38q14 3 28.5 3t33 -1.5t28.5 -1.5q14 0 37.5 2.5t36.5 1.5q13 -2 38.5 -2t41.5 -2q13 -2 35 -13 q38 -25 51.5 -35t34 -31.5t27 -45t6.5 -57.5q0 -29 -8 -78.5t-9 -63.5q-1 -7 -1.5 -28t-2.5 -31q-16 -80 -88 -86q-2 0 -12 -1.5t-18.5 -2t-20.5 1.5q-16 3 -26 2.5t-22 -2.5t-14 -2q-26 0 -40.5 13.5t-8.5 41.5q2 10 2 53q0 32 6 62q3 18 -14.5 33.5t-38.5 15.5 q-25 0 -41 -21q-9 -13 -11.5 -27t-1 -25.5t-1.5 -29.5q-1 -4 -6.5 -25t-5.5 -28q0 -53 -25 -172q-10 -45 -10 -78q0 -13 -5 -42.5t-5 -45.5q0 -6 -5.5 -21t-5.5 -20q0 -60 4 -69q4 -16 17 -29.5t33 -13.5q18 0 31.5 13t13.5 28q0 8 8 53t8 53q0 32 19.5 63t41.5 31 q2 0 17.5 2.5t23.5 -0.5q14 -2 43.5 1t38.5 3q40 0 54 -15t14 -58q0 -24 -2 -41.5t-5 -31.5t-3 -17q0 -1 -1 -24.5t-5 -39.5q-11 -65 -25 -92q-1 -3 -7.5 -18t-8.5 -19q-16 -42 -31 -55q-43 -38 -109 -68q-59 -20 -137 -20q-7 0 -31 3t-36 3h-93q-46 4 -88 29 q-14 8 -23.5 20.5t-20 36.5t-11.5 27q-17 34 -12 102zM158 231q0 -3 -1 -9.5t-0.5 -9.5t5.5 -3q8 0 15 7.5t7 14.5q0 15 -12 15q-14 0 -14 -15z" />
<glyph unicode="d" horiz-adv-x="724" d="M-10 117q0 116 6 157q1 5 5.5 23.5t4.5 26.5q1 23 19 100q6 26 10 53t7.5 68.5t4.5 52.5q3 30 12.5 90t12.5 90q1 9 3 40t5 53t8 40q2 8 12 44.5t14.5 51t16.5 39.5t27 44q39 47 135 47q20 0 50 -6.5t46 -6.5q11 0 36 -12t40 -12q12 0 19.5 5t10 18.5t3 21.5t0.5 29 q0 16 5 40.5t5 49.5q0 15 6.5 46.5t7.5 37.5q6 43 17.5 60t48.5 17q5 0 17.5 4.5t23.5 4.5q39 0 55 -4q6 -1 11 -6t10 -5q6 0 15 5.5t15 5.5q22 0 31 -7q10 -6 18.5 -18t8.5 -21q0 -11 -5 -29.5t-6 -27.5q-1 -11 -7.5 -51t-9.5 -72.5t-5 -79.5q-1 -22 -11 -72.5t-10 -80.5 q0 -17 -8 -40t-8 -38q0 -26 -6 -53q-1 -2 -1.5 -24t-2.5 -30q-6 -16 -17 -16q-5 0 -14.5 4t-15.5 4q-8 0 -15.5 -4t-7.5 -10q0 -7 10 -13t17 -6q4 0 12 1.5t12 1.5q12 0 6 -27q-7 -27 -16 -115q-1 -12 -4.5 -34.5t-5.5 -41t-2 -34.5q0 -28 -11.5 -81.5t-13.5 -76.5 q-2 -22 -3.5 -34t-4 -27.5t-4.5 -32.5q-2 -25 1 -70t3 -63q0 -53 -14 -79t-54 -26q-11 0 -48.5 -4.5t-61.5 -3.5q-49 4 -84 22q-2 1 -12.5 8t-14 7.5t-14.5 -0.5q-4 -1 -13 -3t-17.5 -6.5t-20.5 -15.5q-20 -18 -78 -18q-8 0 -38.5 1t-39.5 1h-18h-18t-15.5 0.5t-16 2.5 t-13.5 5t-14 7.5t-11.5 11.5t-12.5 16q-7 11 -13.5 40t-6.5 40zM111 365q0 -23 14 -23q12 0 16.5 5t-0.5 11q-4 5 -6 12.5t-2.5 12.5t-2.5 8.5t-5 3.5q-14 0 -14 -30zM272 309q0 -3 -0.5 -10t-0.5 -11.5t1 -10.5t3.5 -11t7.5 -8q16 -16 36 -16q10 0 17.5 2.5t13 8t9.5 11.5 t7.5 14.5t5.5 15.5t4.5 16.5t4.5 15.5q2 5 3 19t3 35t4 38q2 18 17.5 109t17.5 135q1 23 8 43t8 26q3 21 6 37l4.5 24t2.5 17q0 31 -6 41q-32 37 -54 37t-38.5 -27t-16.5 -51q0 -44 -6 -68q-8 -35 -16 -113t-11 -100q-1 -7 -6.5 -23.5t-5.5 -31.5q0 -6 -11.5 -68.5 t-11.5 -95.5z" />
<glyph unicode="e" horiz-adv-x="700" d="M-16 188q0 25 8 73t8 71q0 14 3 30t8 35.5t7 30.5q2 13 11 111q5 49 19 122t13 101q0 83 25 156q9 22 37 81q4 7 11 22.5t12.5 26.5t7.5 13q28 28 74.5 53t74.5 25q16 0 46.5 2t55 2t46.5 -4q13 -3 18 -14.5t5.5 -22t4.5 -10.5q5 0 8.5 11.5t9 23t15.5 12.5q5 1 12 -0.5 t14.5 -3.5t12.5 -2q12 0 31.5 -4t27.5 -9q5 -4 24 -14.5t33 -21t21 -21.5q4 -7 5.5 -17t6.5 -22q16 -36 13 -82q-8 -83 -15 -121q-2 -16 -6.5 -39.5t-7.5 -41t-6 -39t-4 -39.5q0 -3 -3 -30t-3 -30q0 -6 -5.5 -21t-5.5 -22q0 -32 -22.5 -58t-59.5 -26q-10 0 -23 -1.5 t-23.5 -1.5t-24.5 3q-12 2 -47 -2t-41 -4q-7 0 -30 1t-35 0.5t-29 -3.5t-26.5 -11.5t-12.5 -21.5q-2 -9 -3.5 -23t-3.5 -24.5t-6 -15.5q-6 -7 -7 -14.5t0.5 -19t0.5 -20.5q-2 -9 8 -38q11 -41 47 -41q21 0 29.5 11.5t13.5 35.5q2 9 7.5 29.5t7.5 29.5q1 9 10.5 17t32.5 22 q12 6 57 6q14 0 38.5 -1t39.5 -1q3 0 12 0.5t14 0.5t11.5 -1.5t11.5 -5.5q11 -11 17 -23q4 -9 4.5 -19t-1.5 -18.5t-4 -20t-2 -19.5q0 -80 -28 -137.5t-80 -106.5q-5 -5 -14.5 -10t-17 -8t-18 -6.5t-11.5 -4.5q-47 -16 -87 -16q-14 0 -23.5 9t-12.5 9q-9 0 -23 -8t-22 -8 l-48 -4q-64 0 -96.5 5.5t-75.5 22.5q-77 29 -77 170zM297 1006q0 -9 22 -9q2 0 8 -1.5t9.5 -1t3.5 4.5q0 3 -3 6.5t-7 6t-6 2.5q-5 0 -11.5 -1t-11 -3t-4.5 -4zM330 768q0 -7 -0.5 -15.5t-1 -13.5t0.5 -10.5t5 -9.5q15 -17 51 -17q13 0 24 3.5t19 12t8 21.5q0 14 7.5 46.5 t7.5 43.5q0 5 -1 9.5t-2.5 8.5t-4.5 8t-4.5 6.5t-5.5 6.5t-5.5 5t-6 5.5t-5.5 4.5q-6 4 -27 4q-18 0 -27.5 -9t-11.5 -20.5t-4.5 -29.5t-7.5 -29q-8 -16 -8 -31z" />
<glyph unicode="f" horiz-adv-x="434" d="M-6 47q0 12 2 25t6 32.5t6 30.5q1 9 7.5 17t7.5 15t-3 36v21t4 22.5t5 21.5q3 20 8 82t12 96q28 142 45 295q1 8 6.5 36.5t5.5 45.5q0 72 -16 78q-29 13 -29 62q0 17 6 49.5t7 42.5q0 6 0.5 9t1 7.5t0.5 5.5t1 5t1 4.5t2 4.5t2.5 5.5t3.5 7t4 8.5q13 21 29 21q13 0 24 14 q14 15 18.5 51.5t6.5 42.5q25 71 60 111.5t102 62.5q1 0 8 3.5t15.5 6t17.5 2.5q3 0 8.5 -7t13.5 -7q6 0 8 9.5t9 9.5q6 0 16.5 1t15.5 1t19.5 1t19.5 1q20 0 39 -16.5t19 -30.5q0 -13 -5 -28t-4 -20q2 -13 1.5 -23t-2 -22.5t-1.5 -13.5q-6 -38 -20.5 -51.5t-46.5 -16.5 q-35 -3 -41 -34q-5 -37 14 -37q11 0 20.5 -7t14.5 -8q21 -6 25 -14.5t4 -38.5q0 -12 -6 -35t-7 -36q-2 -22 -5.5 -36t-7.5 -23.5t-5 -12.5q-8 -35 -57 -35q-16 0 -26.5 -14.5t-10.5 -32.5q0 -9 -5.5 -42.5t-2.5 -53.5q4 -16 -6 -45.5t-11 -34.5q-6 -37 -13 -102.5 t-13 -102.5q-5 -22 -5 -51q0 -16 -9 -42t-19 -32q-8 -5 -10 -8.5t0.5 -7.5t6 -8t6.5 -11.5t3 -15.5q0 -35 -14.5 -110.5t-14.5 -110.5q0 -22 -14.5 -42t-38.5 -20q-15 0 -50 -5t-54 -5q-10 0 -26.5 -2.5t-28.5 -2t-25 6.5q-9 5 -22 21.5t-13 23.5zM150 1028q0 -7 2 -10 t4.5 -3.5t7.5 -0.5q9 0 19 5t10 9q0 2 -0.5 4t-2 3l-3 2t-4 1h-4h-5h-4.5h-6q-9 0 -11.5 -1.5t-2.5 -8.5z" />
<glyph unicode="g" horiz-adv-x="724" d="M-59 -123v12.5v13t0.5 11.5t1 13l1.5 12t3 13t4.5 11t5.5 12q5 9 21.5 27.5t23.5 32.5t0 26q-8 16 -8 43q0 4 4 30t4 50q0 7 1.5 14t5.5 15l7 14t9 15l9 13.5t10 14t9 11.5q21 23 21 59q0 6 -2 13t-4.5 12.5t-6.5 11.5t-8 11.5t-8.5 12.5t-7.5 13q-6 11 -9 26t-3 30 t1.5 35.5t3.5 38.5t5 44.5t4 48.5q1 20 6.5 50t10.5 54t5 31q0 9 1 26t1 25q0 53 33 135q4 10 14 15.5t19.5 5.5t16.5 1t6 5q-1 6 -13.5 16.5t-11.5 16.5q6 37 39 64t80.5 39.5t90.5 18t85 5.5q14 0 45 -7t49 -5q65 8 88 -27q22 -32 35 -21q11 10 29 22t22 15q18 15 53 15 q54 0 54 -62q0 -14 -6.5 -36t-6.5 -31q0 -17 -10 -46.5t-10 -31.5q-1 -10 -5 -18t-7.5 -13t-9.5 -9.5t-9 -6t-9 -3.5l-5 -3q-22 -10 -30.5 -25t-8.5 -41q0 -8 -9 -22t-9 -23q0 -6 5.5 -21t4.5 -26q-1 -7 -5.5 -22.5t-4.5 -18.5q-7 -75 -17 -127q-12 -78 -65 -160 q-17 -27 -56 -47t-73 -20q-18 0 -56 -6t-59 -5l-14 1q-15 1 -29.5 1t-32.5 -1.5t-33 -6.5t-22 -14q-9 -12 0.5 -32t27.5 -23q0 -3 34 -2l34 2q36 0 107 -10.5t108 -10.5q23 0 43.5 -11.5t29.5 -20.5t32 -35q24 -30 24 -113q0 -74 -30.5 -150.5t-86.5 -107.5 q-73 -41 -143 -41q-43 0 -136 -2t-145 -2q-19 0 -40 7t-29 7q-19 0 -44 15.5t-34 35.5q-1 2 -3.5 8t-3.5 7.5t-2.5 6.5t-2 8t-2 8.5t-1.5 11t-0.5 12.5t-0.5 16zM117 -57q0 -13 12.5 -27.5t26.5 -17.5q10 -2 16 -1t15.5 3t15.5 2q23 0 56.5 -2t54.5 -3t59 1q20 0 33 20 q20 25 0 45q-6 6 -20 13.5t-17 7.5q-40 0 -71.5 -5t-37.5 -4q-15 2 -24 6.5t-21 4.5q-41 0 -59 -2q-13 -1 -26 -15t-13 -26zM272 23q0 -2 4.5 -3.5t10.5 -2.5t10 -1t9 5t5 8q0 4 -5.5 9t-9 5t-14 -8t-10.5 -12zM289 608q0 -16 3 -28t6 -15l3 -4l7.5 -7.5t7.5 -8t6.5 -6t8 -5 t8 -3t9.5 -1.5q20 0 36.5 39t23 79t6.5 63q0 10 6 51t6 82q0 78 -53 78q-18 0 -29.5 -10t-15.5 -29t-5 -30.5t-1 -29.5q0 -12 -5.5 -38t-5.5 -40q0 -24 -11 -69.5t-11 -67.5zM637 819q0 -20 8 -20q6 0 6 20q0 15 -2 15q-3 0 -7.5 -5.5t-4.5 -9.5z" />
<glyph unicode="h" horiz-adv-x="729" d="M-29 55q0 7 6.5 21t6.5 20q0 51 7.5 104t20.5 115.5t17 87.5q3 17 8 109q1 12 8.5 41t7.5 53q0 11 5 45.5t8 69.5q3 34 13 88t17 123q1 8 6.5 29t6.5 30q4 25 7.5 74t4.5 57q0 5 6 29.5t6 44.5q1 18 7 51t7 51q1 11 2 27.5t1.5 25t2 19t4 17t5.5 10.5q8 9 23 20.5 t24 14.5q4 1 10 1t14.5 -0.5t14.5 -0.5q12 -1 25 0t28.5 3t24.5 3q10 1 21.5 0t25.5 -3t22 -3q13 -1 21 -16.5t8 -29.5q0 -1 -2 -15.5t-2 -20.5q0 -20 -10 -127q-1 -9 -6 -22t-5 -19q0 -5 -0.5 -15t-0.5 -16t1 -14.5t4 -14.5q4 -10 23 -11.5t31 3.5q9 3 19 9t21 10t27 4 q8 0 20 6t21 6q122 0 168 -82q20 -32 10 -88q-1 -5 -18 -180q-4 -31 -13.5 -89.5t-11.5 -70.5q-3 -22 -12.5 -74t-11.5 -80q-8 -62 -8 -94q0 -18 -7.5 -46t-7.5 -44q0 -23 -6.5 -46t-7.5 -44q0 -57 -12 -131q-2 -15 -21 -43.5t-33 -28.5l-27 2q-26 1 -26 -2q-54 -9 -61 -8 q-15 1 -34.5 4t-35.5 4q-14 1 -25.5 15t-11.5 26q0 16 5 42.5t5 39.5q0 20 2 35t5 25.5t4 15.5q2 27 10.5 78.5t11.5 76.5q3 23 7 69t8.5 83t9.5 70q1 7 5.5 19.5t4.5 14.5q6 27 9 74t5 62q1 7 7 17t6 24q0 61 -11 80q-12 18 -36 18t-39 -17t-20 -34t-9 -43q0 -3 -5 -39 t-5 -43q0 -29 -15 -35q-3 -2 -10.5 -3t-11.5 -3.5t-4 -9.5q0 -5 14 -9t14 -22q0 -17 -6 -46.5t-6 -35.5v-66q0 -9 -5 -29t-5 -30q0 -5 -1 -17.5t-1 -17.5q0 -3 -3.5 -15.5t-4.5 -19.5q-5 -40 -15.5 -109t-15.5 -104q-1 -10 -3.5 -34t-3.5 -31.5t-5 -23.5t-10 -22 t-16.5 -14.5t-26 -12t-37.5 -5.5h-48q-18 0 -49 3t-49 3q-11 0 -24 17t-13 30zM264 987q0 -14 17 -14q5 0 11.5 6.5t6.5 11.5q0 4 -4 5t-12 0t-9 -1q-10 0 -10 -8zM545 852q0 -9 5 -18t11 -9q5 0 6.5 3.5t0.5 12.5t-1 11q0 14 -8 14q-14 0 -14 -14z" />
<glyph unicode="i" horiz-adv-x="360" d="M-27 51q0 4 3.5 14.5t6.5 31.5t3 53q0 17 13 86t21 143q2 12 11 39q4 10 5 20.5t0 27.5t-1 21q0 5 3 22.5t7 36t6 25.5q7 24 10.5 70t6.5 64q1 7 4 28.5t6 40t6 31.5q8 42 13.5 83t11 92t8.5 77q4 21 19.5 44t35.5 23q8 0 28.5 4.5t28.5 4.5t23.5 2t23.5 2q38 0 70 -11 q24 -9 32.5 -23t8.5 -44q0 -18 -2.5 -35.5t-9.5 -46.5t-8 -35q-6 -23 -10 -67.5t-7 -63.5l-26 -172q-1 -8 1.5 -28t2.5 -25q0 -11 -9 -34t-10 -32q-3 -35 -8 -69t-14.5 -85.5t-14.5 -82.5q-4 -23 -14 -154q-1 -14 -6.5 -38t-5.5 -36q0 -18 -21.5 -36.5t-40.5 -18.5 q-11 0 -19.5 6t-14.5 6q-7 0 -33 -6t-76 -6q-68 0 -68 51zM143 1266q0 9 6.5 27.5t6.5 27.5q0 3 1 29t1 28q2 11 7 18.5t10.5 11.5t14.5 9q38 23 93 23q7 0 27 -2t24 -2t13.5 1t18 1t15.5 -2q45 -11 45 -47q0 -6 -2 -17.5t-2 -17.5q0 -62 -4 -74t-11 -23.5t-16 -21 t-21.5 -15.5t-25.5 -6q-17 0 -46.5 -1t-43.5 -1h-27.5t-24 1.5t-24.5 4.5t-17 9t-14 15.5t-4 23.5zM256 1276q0 -6 12 -6q21 0 21 8q0 10 -21 10q-3 0 -7.5 -4t-4.5 -8zM260 582q0 -7 3 -13t9 -6q12 0 21.5 11.5t9.5 23.5q0 4 -1.5 5t-4.5 1t-13 -3t-14 -3q-10 0 -10 -16z " />
<glyph unicode="j" horiz-adv-x="360" d="M-129 -225q0 13 6 37q1 4 -2 20t-2 23q1 8 5 23.5t5 23.5q2 13 14.5 23.5t27.5 17.5t16 8q16 16 24 53q8 40 31 221q1 13 10 27t10 20q2 8 -4 21.5t-6 19.5q0 24 6.5 68.5t7.5 54.5q1 6 12 61.5t11 90.5q0 19 9 58.5t9 60.5q0 16 9 33.5t12 33.5q1 7 -1 24t-1 25 q17 118 26 166q2 11 2.5 36.5t2.5 35.5q2 7 6.5 16t11.5 19.5t8 11.5q18 25 62 25q26 0 26 -7q0 -9 -3 -17.5t-3 -12.5q0 -9 8 -18t17 -9q10 0 10 14q0 5 -4 19.5t-4 25.5q0 3 6 7t14 4q6 0 21.5 -1t21.5 -1h11.5h10.5t8.5 -0.5t7.5 -1.5t6.5 -2.5t7.5 -4.5l7 -7l9 -9 q6 -6 6 -35q0 -3 -6 -84q-3 -20 -14.5 -71t-14.5 -80q-13 -139 -22 -197q-3 -16 -10.5 -48.5t-10.5 -53.5q-6 -35 -13 -107t-13 -108q-1 -7 -12 -13t-13 -12q-1 -3 7.5 -9t8.5 -11q0 -7 -5 -16t-5 -15q0 -46 -2 -55q-10 -62 -14 -131q-1 -12 -4 -29t-6 -29.5t-3 -13.5 q-24 -108 -55 -154q-7 -10 -41.5 -33t-38.5 -28q-17 -18 -44.5 -27t-47 -10.5t-55.5 -1.5q-7 0 -19 3t-20 3q-39 0 -39 29zM41 276q0 -6 8 -8t12 -6q3 -3 8 3t5 11q0 4 -4 8.5t-9 4.5t-12.5 -4.5t-7.5 -8.5zM145 1270q0 58 5.5 92t25.5 61q4 7 18 12t23 5q5 0 35.5 -2.5 t38.5 0.5q22 3 38 2t35 -3.5t23 -2.5q19 0 31.5 -18t9.5 -36q-8 -50 -8 -59q0 -16 -2.5 -26.5t-10 -26.5t-10.5 -25q-3 -7 -18.5 -15.5t-26.5 -10.5q-22 -4 -40.5 -4t-39.5 2t-36 2q-8 0 -17 2t-15.5 2t-15.5 -4q-16 -7 -29.5 12t-13.5 41z" />
<glyph unicode="k" horiz-adv-x="727" d="M-31 51q0 14 6.5 42t6.5 46q0 65 22.5 166t22.5 158q0 32 9 70t9 67q0 32 19.5 108t19.5 119v23q0 8 4 32.5t4 32.5q0 49 19.5 143t19.5 140q0 13 9.5 18t21.5 4t21.5 1.5t9.5 11.5q0 7 -8.5 9.5t-18.5 3t-18.5 6.5t-8.5 18q0 7 3 21.5t8.5 40.5t9.5 50q8 58 135 58 q13 0 36 -3t36 -3q2 0 7 1t7 1q15 0 28 -16t13 -23q1 -14 -0.5 -31t-3.5 -29t-5.5 -32.5t-4.5 -30.5l-8 -64t-7.5 -65.5t-5.5 -50.5q-2 -18 -6 -35.5t-7 -28t-3 -12.5q-11 -64 -11 -135q0 -35 27 -35q29 0 51 72q6 20 30 64.5t32 70.5q11 41 46 62.5t79 21.5q8 0 24.5 -2 t28.5 -2l35 2q57 0 57 -37q0 -29 -11.5 -56t-29.5 -52.5t-22 -35.5q-4 -8 -14 -24.5t-11 -18.5q-6 -10 -12.5 -16.5t-10 -9t-6 -6t-2.5 -9.5q0 -28 -35 -86q-59 -99 -75 -147q-19 -54 -19 -104q0 -19 8 -27q8 -9 13 -26t9.5 -44.5t6.5 -36.5q5 -29 7 -38t4 -14t13 -55 t31 -142q1 -3 12 -40.5t11 -70.5q0 -8 -11.5 -22.5t-21.5 -14.5h-26q-21 0 -60.5 -2t-52.5 -2q-33 0 -53 6t-31.5 23t-16.5 31.5t-12.5 49t-13.5 56.5q-5 16 -8.5 34t-6 29t-5.5 21.5t-7.5 15t-11.5 4.5q-14 0 -23.5 -8.5t-11.5 -19.5q-14 -150 -37.5 -196t-101.5 -46h-41 q-8 0 -24.5 -1t-24.5 -1q-66 0 -66 53zM246 743q0 -4 8 -9t14 -5q11 0 22 12.5t11 30.5q0 4 -10 4q-7 0 -16.5 -8t-14.5 -10q-14 -5 -14 -15zM264 434q0 -8 10 -8q21 0 21 16q0 4 -16 4q-15 0 -15 -12z" />
<glyph unicode="l" horiz-adv-x="360" d="M-29 45q0 41 2 61q3 18 10 40.5t7 43.5q0 20 6.5 49t7.5 40q2 12 1.5 29t2.5 26q0 4 10 61q8 37 21 158q1 6 10.5 16.5t9.5 24.5q0 10 -3 25t-3 22q0 49 10 80q3 10 10.5 13.5t15.5 3t14 2.5t6 12q0 3 -4 5t-8.5 3.5t-6.5 3.5t-5 4.5t-4.5 3.5t-3 2.5t-2 3t-1 4t-0.5 6.5 q0 3 2.5 14.5t3.5 18.5q1 8 0 23t0 24q3 22 12 70.5t14.5 88.5t6.5 79q1 32 1.5 35.5t8.5 32.5l10 45q4 19 9 62.5t10 70.5q1 4 3 18t3.5 19.5t5.5 14.5t11 13t18 6q1 0 18.5 3.5t32.5 3.5q9 0 21 2t22 2q12 0 25 -3t24 -4q9 -1 22.5 2.5t24.5 0.5q41 -11 41 -54 q0 -17 -2 -35t-4.5 -28.5t-7.5 -33.5t-7 -32t-4 -31.5t-4 -33.5q-2 -10 0 -23.5t0 -23.5q-14 -54 -14 -58q-15 -126 -21 -151q-5 -22 -10 -64.5t-8 -60.5q-22 -119 -27 -168q-1 -19 -7.5 -69.5t-6.5 -76.5q0 -16 -6.5 -45.5t-7.5 -42.5t-3 -30t-4.5 -34.5t-3.5 -21.5 q-1 -6 -5 -12.5t-8 -10t-11.5 -9t-9.5 -7.5t-7 -6.5t-8 -7.5t-5.5 -7.5t-2.5 -8.5q0 -13 12 -13q3 0 9.5 4.5t11.5 4.5q6 0 6 -23q0 -15 -8.5 -82t-13.5 -84q-11 -35 -37 -47q-10 -4 -22 -4.5t-24 1t-14 1.5q-1 0 -18.5 -2t-34.5 -2q-6 0 -41.5 5t-38.5 5q-15 0 -25 11 t-10 26zM125 750q0 -4 7.5 -7.5t14.5 -1.5t7 11q0 8 -17 8q-12 0 -12 -10z" />
<glyph unicode="m" horiz-adv-x="1093" d="M-35 39q0 24 5 48t5 38q0 17 8.5 64.5t8.5 72.5q0 14 2.5 31.5t4.5 27.5t7 32.5t6 27.5q3 11 8 65q4 46 17 119t18 117q2 20 9 53.5t8.5 50t-0.5 52.5q-3 23 6.5 49.5t9.5 34.5q0 11 4 29.5t4 23.5q0 12 2 24t6.5 29.5t6.5 24.5q5 31 15.5 49t31.5 24q43 13 86 13 q7 0 32.5 -4.5t42.5 -4.5q19 0 25 -2t25 -14q9 -5 16.5 -7.5t11.5 -3t13.5 -1t15.5 -0.5q11 -1 34.5 17t41.5 20q60 6 76 6q60 0 90 -10q11 -4 36.5 -26t45.5 -22q9 0 18 3t15 6.5t14 9t14 8.5q2 1 11.5 7t15 9t14 6t14.5 3q14 0 38 5t40 5q55 0 109 -21q51 -20 51 -67 q0 -6 8 -21.5t8 -29.5q0 -4 -1.5 -10.5t-3.5 -13.5t-4 -19t-3 -27q-3 -54 -21 -155t-22 -138q-1 -11 -4 -49t-6 -59q-2 -13 -6.5 -33.5t-8 -40.5t-6.5 -35q-2 -11 -6 -56t-10 -65q-6 -19 -11 -74.5t-10 -66.5q-3 -19 -5 -43.5t-3.5 -39.5t-6.5 -31t-16 -26.5t-30 -17.5 q-18 -6 -62 -6q-25 1 -37 8.5t-26 7.5q-7 0 -20.5 2.5t-20.5 2.5q-19 0 -30.5 9t-16.5 21.5t-5.5 32t1 34t4.5 34.5t4 26q5 41 21 115q8 32 8 51q0 27 6 39q6 10 6 43q0 23 7.5 70t8.5 69q2 46 19.5 132t17.5 141q0 46 -26 51h-25q-2 0 -6.5 0.5t-7 0.5t-8 -2.5t-11.5 -8.5 q-8 -8 -14 -37q-6 -33 -14 -96q-27 -186 -29 -205q-4 -39 -19 -128.5t-18 -140.5q-2 -27 -8 -65.5t-6 -63.5q0 -10 -8.5 -27.5t-8.5 -27.5q0 -3 1.5 -14.5t1 -21.5t-4.5 -17q-10 -24 -43 -35q-19 -5 -29.5 -4.5t-26.5 3.5t-22 3q-15 0 -36 -1t-35 -1q-8 0 -23.5 3t-23.5 3 q-13 0 -21 14t-8 27q0 38 10 96q1 9 9.5 30t9.5 30t-2.5 23.5t-1.5 37.5q5 42 18 105.5t16 99.5q1 15 6 57.5t5 65.5q0 15 11 51t11 53q0 12 2 34t2 32q0 7 4 46.5t4 53.5t-14.5 20.5t-32.5 6.5q-9 0 -16 -4.5t-9.5 -8.5t-8.5 -14q-11 -16 -21 -65q-6 -36 -6 -47 q0 -27 -16 -107q-3 -24 -20.5 -122.5t-20.5 -149.5q0 -14 -13 -64q-4 -13 -5 -24t-1 -26v-25q-2 -13 -9 -48t-9 -57q-2 -14 -11.5 -16t-17 1.5t-8.5 -3.5q0 -7 13 -22t13 -25q0 -68 -104 -68q-7 0 -58.5 3t-58.5 3q-16 0 -31.5 10.5t-15.5 24.5zM264 907q0 -3 0.5 -4t3 -2.5 t8.5 -1.5q1 0 4.5 -0.5t5 -0.5t4.5 1.5t3 6v12.5q0 3 -2.5 3.5t-7.5 -0.5t-7 -1q-12 0 -12 -13zM993 961q0 -4 3 -4t8.5 2t7.5 2t4 1t3 2.5t1 2.5q0 3 -2.5 5.5t-5.5 2.5q-5 0 -12 -5t-7 -9z" />
<glyph unicode="n" horiz-adv-x="729" d="M-23 25q-6 7 -7.5 14.5t0 16t3.5 16t5 17t4 17.5q0 2 5 48.5t5 72.5q0 36 18 142q1 9 8 25.5t7 33.5q0 15 1.5 41.5t5.5 63t13 61t21 22.5q20 -4 24 5q3 7 -1.5 11.5t-11.5 6.5t-12 12t-2 27q2 14 3.5 48.5t3.5 49.5q1 10 5.5 28.5t4.5 29.5q0 36 8 69q3 1 0.5 23.5 t-2.5 25.5q0 15 6 30.5t8 25.5q4 32 4 41q6 49 33 63t86 14q8 0 27.5 5.5t28.5 5.5l49 -4q11 0 32.5 -14.5t40.5 -14.5q12 0 62 20.5t100 20.5q99 0 111 -8q30 -15 54 -53.5t24 -71.5q0 -8 -5 -26t-6 -25q-24 -233 -34 -293q-1 -4 -5.5 -43t-11.5 -60q-4 -9 -4 -33v-28 q-1 -6 -6.5 -16t-5.5 -17q0 -12 -4 -36.5t-4 -31.5q0 -12 -7 -47.5t-6 -42.5q0 -25 -14 -125q-2 -20 -41 -20q-10 0 -10 -21q0 -10 6.5 -14t14 -3.5t14 -4t6.5 -16.5q0 -49 -51 -95q-15 -10 -33 -10q-13 2 -27.5 2t-32.5 -1t-28 -1q-6 0 -19 -0.5t-20 -0.5t-17.5 1.5 t-19.5 5.5q-15 6 -22 16.5t-8 20t-1 29.5q0 7 1 21t1 22q0 46 8 78q1 5 6 18.5t7 26.5t2 32q0 44 6 74q1 5 6 18.5t6 22.5q13 104 27 174q18 106 18 142q0 31 11 81q2 11 -2 32t-3 30q3 47 -43 47q-14 0 -27 -12.5t-18 -28.5q-20 -74 -20 -123q0 -21 -10 -84 q-1 -9 -10.5 -29.5t-8.5 -31.5q1 -32 -12 -133q-3 -20 -8.5 -87.5t-12.5 -99.5q-6 -26 -12 -69t-8 -52q-2 -12 -5 -34t-7 -38t-13 -34q-8 -16 -22 -24t-26 -9t-31.5 -1.5t-28.5 -2.5q-58 -4 -94 -4q-23 0 -50 27zM158 291q0 -10 10 -10q5 0 18 4.5t13 7.5q0 12 -31 12 q-8 0 -9 -2t-1 -12z" />
<glyph unicode="o" horiz-adv-x="716" d="M2 172q0 13 4 38.5t4 39.5q0 49 8 69q6 17 15 78q2 11 2 39t2 45q10 73 10 86q0 14 11.5 45t11.5 47q0 68 8 107q3 18 27 24t24 9q0 7 -19.5 10.5t-19.5 17.5q0 27 12.5 80.5t12.5 65.5q0 14 16.5 43t18.5 35q18 48 108 82q33 14 70 14q7 0 46.5 -2.5t65.5 -1.5 q4 0 33 4.5t33 -0.5q15 -4 34.5 -3.5t34.5 -0.5q45 -6 72 -21q20 -9 35.5 -31.5t20.5 -35.5t16 -45q6 -17 6 -103q0 -21 -11.5 -63t-11.5 -62q0 -8 -6 -69.5t-6 -69.5q0 -10 -5.5 -19t-6.5 -16q-2 -15 -3 -48t-3 -48q-2 -18 -15.5 -84.5t-15.5 -110.5q0 -7 -18 -98 q-30 -156 -134 -196q-13 -5 -44.5 -9t-49.5 -10q-28 -10 -59.5 -12.5t-79.5 0t-63 2.5q-12 0 -38 7t-36 7q-6 0 -13.5 2.5t-16.5 7l-11 5.5q-35 16 -55.5 61t-20.5 88zM279 352q0 -5 2 -35.5t2 -35.5q0 -10 11 -22t21 -15q29 -10 62 30q4 4 4 37q0 8 5 21t5 20q0 22 7.5 64 t7.5 63q0 7 6 18t6 19q0 5 2 43.5t2 44.5q0 17 15.5 21.5t17.5 11.5q1 3 -3 4.5t-8.5 2t-8.5 6t-3 16.5q0 26 10.5 83t10.5 82q0 26 -16.5 45t-41.5 19q-18 0 -28.5 -12.5t-13 -27t-5 -37t-4.5 -30.5q-10 -45 -10 -47q0 -19 -7.5 -57t-7.5 -59q0 -15 -11 -83.5t-11 -101.5 q0 -4 -2 -11t-2 -11q0 -8 -7 -30.5t-7 -35.5zM514 295q-2 -5 2.5 -9.5t11.5 -4.5q21 0 34 8q4 3 1 6q-4 4 -8.5 5t-10.5 0l-7 -1q-1 0 -4.5 1.5t-7 2t-7 -1t-4.5 -6.5z" />
<glyph unicode="p" horiz-adv-x="724" d="M-53 -199q0 42 12 101q7 32 9 78t9 71q6 19 11 51q1 4 1 27.5t2 49t7 42.5q1 1 2 7.5t3 10t6.5 7.5t13 3t20.5 -7q10 -4 16.5 1.5t6.5 12.5q0 16 -5.5 23t-17.5 4q-15 -5 -22 -1t-7 21q0 47 15 96q4 12 6.5 26.5t5 32.5t4.5 29q10 50 10 80q0 10 -1 37t-1 31q0 7 8 32.5 t9 41.5q3 39 13 111t13 104q0 7 0.5 18.5t1 15.5t2 10t4.5 13q11 22 11 70q0 24 18 49q11 16 25.5 21t38.5 5q14 0 47.5 4.5t42.5 4.5q32 0 49.5 -3.5t25.5 -15.5q4 -7 18 -11.5t28 -4.5q12 0 24 4.5t25.5 12t17.5 9.5q40 15 78 15q13 0 40 -3t42 -3q33 0 55.5 -34t22.5 -77 q0 -21 5.5 -56t2.5 -73q-2 -41 -7.5 -79t-15 -94t-12.5 -75q-3 -22 -8 -49t-7 -40t-3.5 -30t-1.5 -34q0 -31 -8.5 -66.5t-8.5 -44.5q0 -14 -1.5 -30.5t-3.5 -28.5t-5.5 -36.5t-5.5 -37.5q-1 -7 -3.5 -17t-5 -19t-4.5 -18.5t-2 -15.5q0 -33 -14 -61q-52 -102 -135 -123 q-34 -7 -53.5 -5t-42 7.5t-27.5 5.5q-13 0 -35.5 8t-40.5 8q-11 0 -19.5 -5t-13 -11.5t-7.5 -18t-3.5 -19.5t-1.5 -20.5t-2 -17.5t-5 -24t-3 -29q13 -76 -43 -123q-11 -9 -23.5 -11t-35.5 0.5t-35 2.5q-5 0 -16 -2t-20 -2t-15 4q-13 7 -30 3.5t-30 4.5q-4 3 -7.5 5.5 t-5.5 4.5t-3.5 5.5t-2 5.5t-1 6.5t-0.5 6v7.5v8zM233 905q0 -11 10 -17.5t19 -6.5q5 0 11 4.5t6 11.5q0 3 -12 10.5t-17 7.5q-6 0 -9 -0.5t-5.5 -2.5t-2.5 -7zM281 299q0 -21 14 -36t37 -15q14 0 24 7t15 21.5t7 25t3.5 29.5t1.5 23q1 7 5.5 16t4.5 15q0 18 7.5 54.5 t7.5 58.5q0 7 5 23t5 28q0 64 12 82q5 9 15.5 13.5t17 10.5t6.5 19q0 7 -4 10t-9 4t-10 2.5t-8 7t-2 15.5q2 25 11.5 58.5t9.5 45.5q0 37 -13 54.5t-47 17.5q-17 0 -29 -10.5t-18.5 -30.5t-8.5 -33t-5 -35v-4q-4 -34 -9 -69t-7.5 -54.5t-2.5 -38.5q0 -20 -2.5 -43.5t-5 -40 t-5.5 -33.5t-3 -20q-3 -37 -11.5 -91t-8.5 -87z" />
<glyph unicode="q" horiz-adv-x="724" d="M-12 195q0 14 6 30.5t6 34.5v20.5v13.5v9.5t1 13l3 19.5q3 30 12 84q1 8 4.5 25.5t4.5 30t0 26.5q0 11 6.5 31t7.5 24q4 16 6.5 36.5t5 45t4.5 39.5q0 2 3.5 16t4.5 27q0 11 9.5 94t13.5 105q3 11 13 10t19 -4.5t13 8.5q1 2 -5 5t-13.5 7t-12.5 10.5t-4 14.5q1 10 5 21.5 t7 19t9 20t8 17.5q13 30 53 61q4 3 10.5 6.5t13.5 6t13 5t10 4.5l4 1q22 2 59.5 1.5t59.5 0.5q35 0 72 -21q4 -3 11 -8.5t12 -9t12.5 -6.5t15.5 -3q17 0 27 17q5 7 13 12.5t17.5 8.5t18.5 3q10 0 30.5 3.5t30.5 3.5q15 0 41.5 -3.5t40.5 -3.5q13 0 29.5 -11.5t17.5 -22.5 q3 -19 -3.5 -67t-6.5 -66q0 -8 -5 -28.5t-5 -49.5q0 -12 -5 -28.5t-5 -23.5q0 -13 -1.5 -24t-4 -26t-3.5 -27q-2 -11 -7 -31.5t-5.5 -28t0.5 -30.5q3 -16 -5 -44.5t-9 -41.5q-4 -47 -23 -179l-3.5 -14t-4.5 -21.5t-2 -25.5q0 -15 -2 -33.5t-4.5 -39t-3.5 -36.5t-14.5 -103.5 t-18.5 -131.5q-5 -30 -12.5 -90t-12.5 -94q-7 -46 -51 -46q-9 0 -26 -11t-33 -11q-5 0 -30 -1t-41.5 -1t-36 3t-27.5 9q-33 22 -15 103q3 13 3.5 34.5t7.5 38.5q4 12 4 58q0 17 -8 23.5t-27 6.5q-28 0 -72.5 -11t-71.5 -11q-65 0 -122 45q-18 18 -26.5 46.5t-9.5 48.5t-1 61 zM270 322q0 -80 45 -80q17 0 33.5 9t20.5 25q7 27 6.5 56t1.5 47q2 10 10 47t10 55q2 16 23 156q18 137 18 188q0 8 -1.5 16.5t-5.5 20.5t-14 19.5t-24 7.5q-19 0 -28.5 -6.5t-16 -19t-12.5 -17.5q-2 -2 -12.5 -2t-16.5 -6q-4 -4 2 -12.5t14.5 -20t8.5 -19.5q0 -9 -5 -28 t-5 -35q0 -21 -5.5 -45t-5.5 -31t-5 -36t-5 -38q0 -18 -2.5 -37t-6.5 -40t-5 -29q-17 -93 -17 -145zM455 311q0 -18 10 -18q7 0 13.5 7t6.5 11q0 8 -9.5 17.5t-16.5 9.5q-5 0 -6 -4t0.5 -12t1.5 -11z" />
<glyph unicode="r" horiz-adv-x="468" d="M-23 53q0 9 6.5 26.5t6.5 26.5l14 107q3 23 1.5 53.5t0.5 38.5q2 17 10.5 30t8.5 21q0 27 6 50q3 9 2 34t2 52q4 24 16 59q1 5 2 48t8 65q11 38 11 43q0 14 10 20.5t19.5 9t9.5 6.5t-8.5 5t-16.5 6.5t-8 19.5q0 6 35 266q4 32 22.5 62.5t46.5 30.5q7 0 43 4q5 1 21 -1.5 t18 -2.5q5 0 17.5 0.5t20.5 0.5t17.5 -1t16 -5t8.5 -10q5 -14 22.5 -17t39.5 13q36 31 94 31q12 0 24.5 -11t12.5 -22q0 -50 -5 -72q-1 -3 -5 -13t-5 -17t-3 -42t-3 -44q-2 -18 -14.5 -35.5t-26.5 -18.5q-95 -9 -121 -98q-2 -7 -7 -32.5t-13 -45.5q-9 -23 -16.5 -87 t-12.5 -91q-2 -7 -3 -16.5t-2 -25t-3 -28.5q-1 -11 -10 -38.5t-6 -45.5q5 -22 -3 -55.5t-8 -46.5q0 -25 -4.5 -40t-11 -19t-13.5 -5t-12.5 -2t-7.5 -6q-1 -2 3 -3.5t10 -3t12 -3.5t10 -6t4 -10q0 -12 -5 -25t-7 -24q0 -5 -0.5 -17l-1 -24t-6 -25t-15.5 -22q-11 -11 -20 -11 q-16 0 -31 -6t-27 -6q-11 0 -35 -1t-39 -1.5t-35 1.5t-32 7.5t-20.5 16.5t-8.5 28zM168 193q0 -9 4 -15t10 -2q4 3 9.5 5t9 3t6 3.5t2.5 5.5t-10.5 6.5t-16.5 3.5q-14 0 -14 -10z" />
<glyph unicode="s" horiz-adv-x="690" d="M-8 219q1 5 3.5 20.5t2.5 22.5q0 72 2 84q5 24 23 45t38 21q8 0 24 3t24 3q9 0 32.5 2t40.5 2q13 0 41.5 -14t28.5 -27q0 -11 -1 -32t-0.5 -36.5t3.5 -33.5q3 -12 16 -24.5t25 -12.5q28 0 49 30q5 7 5.5 16.5t-0.5 28.5t-1 29q0 15 -2 26.5t-9 23t-10 18t-17.5 17.5 t-17.5 14t-23.5 16.5t-24.5 15.5q-6 4 -23 11.5t-24 15.5q-7 9 -35 23.5t-37 27.5q-64 73 -64 164q0 196 43 260q10 14 46 86q18 32 62 50t87 22q74 8 137 8q16 0 25.5 -2.5t11.5 -7t2.5 -9t-1 -9t0 -7t6.5 -2.5q7 0 11.5 5t8 11.5t17.5 11.5t39 5q5 0 12 -5t13 -6 q7 -1 24.5 -6.5t24.5 -7.5q32 -10 53 -52t21 -89q0 -17 -5 -54t-4 -59q1 -11 -3.5 -30.5t-4.5 -30.5q0 -23 -12 -33q-5 -3 -7 -5t-5 -5.5t-7 -7.5q-5 -4 -14 -6t-16.5 -2t-18.5 0.5t-14 0.5q-18 0 -42 -3t-42 -3q-30 0 -47 13q-28 19 -25 49q10 63 -20 82q-15 10 -27 10 q-10 0 -24.5 -11.5t-16.5 -19.5q-2 -10 -9 -28t-7 -31q0 -51 47 -92q6 -4 50 -26.5t52 -29.5q51 -40 68 -57q8 -6 15.5 -16t15 -22.5t10.5 -16.5q45 -68 45 -123q0 -14 -6 -46t-5 -36q-1 -7 0 -21.5t0 -21.5q-16 -96 -57 -170q-18 -45 -37 -64q-14 -14 -39.5 -32.5 t-39.5 -22.5q-24 -4 -34.5 -1.5t-23 9.5t-18.5 8q-14 1 -41.5 -14.5t-40.5 -15.5q-8 0 -39.5 -0.5t-46.5 0t-44.5 2t-47 6.5t-39 12.5t-37 20.5t-25.5 30q-6 9 -8.5 20t-3.5 13q-23 38 -12 125zM190 756q0 -17 11 -17q7 0 11.5 10t4.5 19q0 5 -1.5 5t-6 -1.5t-8.5 -1.5 q-11 0 -11 -14zM295 547q0 -4 6 -4q10 0 10 12q0 10 -2 10q-6 0 -10 -6t-4 -12z" />
<glyph unicode="t" horiz-adv-x="432" d="M4 150q3 17 9.5 20t10.5 -1t5 3q0 4 -6.5 18t-6.5 23q0 13 6.5 38.5t6.5 39.5q0 63 6 86q6 24 9.5 47.5t7.5 58t7 58.5q4 27 9.5 69t9.5 72t10.5 69t13.5 72q3 12 4 24.5t-0.5 26t-9 23t-20.5 10.5q-3 0 -5.5 2t-4 4.5t-2.5 5t-1 6.5v6v6v5q0 21 8.5 64.5t8.5 68.5 q0 23 11 37t22 14q31 0 37 68q1 6 3.5 11.5t4.5 10t2 9.5q0 17 10 65q7 30 27 50.5t49 25.5q34 7 51 -2q2 -1 5 -3t5 -3.5t5.5 -2.5t6.5 -1q4 0 19 10.5t24 13.5q4 2 9.5 2t12 -1t9.5 -1q23 0 45 -18q7 -6 0 -43q-1 -9 -3 -50t-7 -59q-6 -24 -6 -30q0 -18 7.5 -30.5 t19.5 -12.5q20 0 35.5 -11.5t15.5 -29.5q0 -23 -10 -66t-11 -67q-1 -44 -16 -61t-45 -17q-11 0 -25.5 -15.5t-17.5 -36.5q-26 -172 -27 -182q-4 -33 -5 -71t-4 -60.5t-13 -48.5q-13 -30 -15 -33q-19 -19 -10 -33q4 -7 4.5 -10.5t0 -14.5t-0.5 -18t0.5 -13.5t0.5 -9t-1 -7 t-4 -11.5q-5 -11 -6 -26.5t-2 -20.5q-14 -58 -8 -215q0 -4 1 -11.5t1.5 -12t-2.5 -10.5t-9 -11q-4 -3 -8 -5.5t-6.5 -4.5t-7.5 -3t-7 -1.5t-8 -1t-7.5 -0.5h-8.5h-8q-8 0 -23.5 1t-23.5 1q-19 0 -33 2t-21.5 4t-9.5 2q-1 0 -23 -6t-36 2q-20 6 -31 21.5t-13 41t-1 41t4 44.5 z" />
<glyph unicode="u" horiz-adv-x="729" d="M-12 92q-3 8 -3 15t1.5 14t1.5 12q0 89 18 160q3 13 17 16.5t26 3.5t12 4q0 3 -2.5 5t-6.5 3.5t-9 2.5t-9.5 3t-8.5 5t-6.5 8.5t-2.5 13.5q0 74 17 129q1 5 4 11.5t4.5 12.5t1.5 13q0 64 4 82q6 24 11.5 73.5t9.5 70.5q9 41 20 120q3 18 5 38.5t4.5 43.5t6.5 45 q2 9 4.5 32.5t5 34t10.5 27t21 29.5q6 6 17.5 10.5t17.5 4.5q53 0 70 2q7 1 20 -2.5t19 -4.5h51q7 0 14.5 -4t13.5 -10t9.5 -13t3.5 -13q0 -62 -6 -93q-1 -4 -10 -34.5t-9 -51.5q0 -7 -1.5 -25.5t-3 -35.5t-1.5 -19q0 -7 -4.5 -19t-5.5 -17q-5 -28 -21 -181q-2 -18 -10 -59 t-10 -63q0 -2 -1 -18.5t-2 -33.5t-1 -20q-2 -15 -8 -38.5t-10.5 -44.5t-4.5 -40q0 -23 15 -37t37 -14q33 0 41 16q6 12 10 26.5t5 25.5t2.5 29t2.5 26q0 4 7.5 36t8.5 46q1 5 3 28t4 39q1 9 5 22.5t5 18.5q1 10 8.5 76.5t9.5 77.5q10 49 15 139q2 30 11 83.5t11 72.5 q1 5 3 9.5t4 6.5t3.5 5.5t1.5 8.5q0 1 -0.5 7l-1 12t1 14t4.5 14q7 13 35 35q3 3 10.5 3.5t14.5 -0.5l14 -2t8 -1q10 0 28.5 7.5t27.5 7.5q13 0 40 -2.5t42 -2.5q41 -7 41 -71q0 -7 -4 -27t-5 -31q-4 -37 -13 -111.5t-13 -115.5q0 -2 -10 -41q-4 -15 -5.5 -30t-3 -34.5 t-2.5 -31.5q0 -10 -13 -40t-13 -40q0 -16 4 -55.5t-2 -65.5q-2 -16 -11.5 -67.5t-11.5 -65.5q-3 -33 -6 -86t-4 -72q-1 -6 2.5 -34t1.5 -33q-7 -18 -12 -29t-17 -23.5t-26 -15.5q-35 -6 -113 -6h-10.5h-10h-8.5t-8.5 0.5t-7.5 1t-8 1.5t-8 3q-8 3 -32 19t-46 16 q-24 0 -69.5 -25.5t-78.5 -25.5q-21 0 -39 -2t-27 -2t-22 4q-86 28 -110 98zM131 125q0 -5 6 -10.5t13 -5.5q12 0 12 14q0 5 -2 5.5t-7 -0.5t-6 -1q-2 0 -6.5 1.5t-7 1t-2.5 -4.5zM442 307q0 -4 6 -7t11 -3q4 0 16 3.5t12 6.5q0 10 -28 10q-7 0 -10 -0.5t-5 -2.5t-2 -7z" />
<glyph unicode="v" horiz-adv-x="684" d="M76 1057v30q4 12 13.5 23t18.5 16.5t15 6.5q22 4 55 0.5t49 -0.5h39q27 0 39.5 -4t30.5 -19q9 -6 13 -14.5t4.5 -14t-0.5 -17.5t-1 -17q0 -36 -1 -82.5t-1 -83.5q0 -3 -3 -36.5t-1 -47.5q2 -8 2 -21t-2 -23.5t-3 -21t-1 -12.5q0 -3 1 -16t1 -21q1 -32 20 -32q19 -1 31 30 l4 16q1 6 9 26t6 28q-3 10 0 21t9 24t7 22q3 28 8 45q1 4 6.5 13t6.5 18q3 34 19.5 71.5t21.5 59.5q1 3 5 24t8.5 38t16 32t27.5 15q6 0 28.5 3t37.5 4t24 -1q9 -6 33 0q25 5 48 -6t23 -35q0 -33 -20 -107q-6 -21 -24 -78t-27 -90q-5 -18 -10.5 -52t-10.5 -52 q-3 -9 -43 -121q-8 -21 -15 -45t-14 -53.5t-12 -46.5q-3 -10 -61 -187q-8 -24 -8 -43q0 -7 -3.5 -18t-9.5 -25t-8 -20q-3 -8 -6 -30.5t-6 -31.5q-18 -43 -19 -45q-7 -29 -40 -43q-11 -5 -22 -6.5t-28.5 -0.5t-21.5 1q-68 0 -103 -4q-28 -3 -44 5.5t-23 8.5q-5 0 -14.5 -1.5 t-15 -2t-13.5 4t-15 14.5q-5 7 -8 15.5t-3.5 13.5t-1.5 16t-1 14q-3 21 -3.5 48.5t0.5 68.5t1 57q0 26 -2.5 93.5t-1.5 119.5q0 13 5 27t5 20q0 14 -5 27t-5 20q0 10 1 28t1 32.5t-2 27.5q-4 42 6 60q9 13 0 31q-3 7 -5 14t-3.5 12.5t-2.5 14t-2 12.5t-1 15v15v18v19 q0 8 2 25t2 25q0 26 -3 71t-3 68zM281 106q0 -14 18 -14h3q15 -1 15 8q0 8 -6.5 15.5t-13.5 7.5q-5 0 -8.5 -3.5t-5.5 -7.5t-2 -6zM575 829q0 -3 3.5 -10.5t7.5 -7.5q3 0 6.5 6.5t3.5 11.5q0 29 -4 29q-5 0 -11 -10t-6 -19z" />
<glyph unicode="w" horiz-adv-x="1075" d="M61 150q0 18 6 56.5t5 84.5q0 10 -1.5 36.5t-0.5 45t6 35.5q2 6 9 15t7 17t-7 19t-7 18q0 25 -5 78t-5 82q0 18 1.5 42.5t3.5 43.5t2 42.5t-3 43.5q-6 29 -2 113.5t2 119.5q-1 30 16 54t39 24q5 0 15.5 -1t19.5 -1t16 2q40 10 55 10h21.5h22t18.5 -1t19.5 -3.5t14.5 -7 t13 -10.5q11 -11 12.5 -29t-2.5 -39q-2 -17 -2 -90q0 -4 2.5 -27.5t-0.5 -27.5q-2 -10 -1 -32t-1 -32q-3 -17 -3.5 -37.5t5 -41.5t19.5 -21q10 0 17 6.5t8 11l3 13.5q4 13 11.5 36t12 40t7.5 34q8 57 33 125q5 15 8.5 43t11.5 47.5t29 32.5q30 17 57 17t47.5 -0.5t34 -1.5 t22.5 -2t15 -3t8 -2.5t5 -3t4 -2.5q5 -3 19 -2t24 -6q7 -4 10 -12t3.5 -14t-0.5 -16.5t-1 -14.5q0 -21 2 -65t2 -66q0 -12 -1 -27l-2 -30t-1 -27q0 -11 8 -26.5t8 -29.5q0 -20 6 -24q20 -14 32.5 11t20.5 68t11 50q6 12 10 25t6 23t4.5 27t5.5 31q2 10 11 32t10 34 q7 33 19.5 51t43.5 23q10 2 22 -7.5t17 -9.5q6 0 9.5 2.5t5.5 6t10.5 6t23.5 2.5q4 0 25 -3.5t31 -3.5q19 0 30 -12.5t11 -32.5q0 -21 -12.5 -51.5t-14.5 -36.5q-11 -38 -26.5 -107t-24.5 -102q-3 -12 -12.5 -38.5t-12.5 -40.5q-12 -51 -53.5 -201t-50.5 -191 q-2 -6 -16.5 -42t-14.5 -58q0 -41 -35 -129q-2 -5 -7.5 -23.5t-9 -25.5t-13 -16t-23.5 -13q-17 -4 -46.5 -5.5t-39.5 1.5q-35 10 -43 10q-6 0 -28 -5t-42 -5q-9 0 -26 2t-21 2q-13 0 -29 9t-16 22v49q3 15 3 32.5t-1.5 38t-1.5 29.5q0 11 -8 23t-18 12q-32 0 -41 -61 q-1 -5 -9 -35.5t-8 -34.5q-3 -29 -24 -58.5t-47 -29.5q-6 0 -21 1.5t-22 0.5q-36 -8 -54 -8q-21 0 -76 3t-79 3q-11 0 -20 10t-18 28l-11 22q-7 10 -9 23t0 34t2 27zM473 410q0 -6 6.5 -10.5t12.5 -4.5q5 0 11 4t10.5 9t4.5 8q-2 8 -12 8t-21.5 -5t-11.5 -9zM586 926 q0 -5 3 -9t7 -4q6 0 9 0.5t5 3.5t2 9q0 10 -12 10q-6 0 -8.5 -0.5t-4 -2.5t-1.5 -7zM760 702q0 -7 3 -8.5t11 -1.5q2 0 5 1.5t5.5 3.5t4.5 5t2 7q0 2 -3 7.5t-9 10t-11 4.5q-2 0 -3.5 -1t-2.5 -3t-1.5 -4t-0.5 -5.5v-5.5v-5.5v-4.5z" />
<glyph unicode="x" horiz-adv-x="677" d="M-61 37q0 3 12 39q9 27 21.5 59.5t17.5 46.5q21 50 22 51q15 22 19 56q6 39 24 73q26 46 29 66q10 68 45 143q5 11 5.5 24t-2.5 32.5t-3 25.5q-1 13 -5 36t-5 34q-2 18 -1.5 47.5t-2.5 73.5q-1 9 -5 29t-6 45q-1 17 2 40t3 37q0 15 -5.5 44t-5.5 42q0 10 12.5 30.5 t24.5 21.5q65 5 80 4q5 0 41.5 -2.5t46.5 -1.5q33 4 50.5 -37t17.5 -86q0 -13 2 -38t2 -30q0 -15 8.5 -28t22.5 -13q7 0 13.5 11.5t8.5 21.5q3 8 4 23.5t4 23.5q1 2 5.5 6.5t4.5 9.5q0 6 9.5 16.5t11.5 14.5q3 7 6.5 26.5t7.5 28.5q23 44 58 50q1 0 22 3t33 3q5 0 21.5 -1.5 t25.5 -0.5q82 13 82 -41q0 -22 -16 -72q-6 -19 -22 -53t-23 -58q-21 -76 -25 -84q-5 -12 -16.5 -16.5t-20 -5.5t-8.5 -4q0 -7 9.5 -12t8.5 -13t-9 -24t-9 -25q-2 -12 -11 -31t-14 -34q-2 -6 -7 -20.5t-8 -28.5t-3 -31q0 -28 2.5 -57.5t7 -69t6.5 -56.5q0 -1 1 -13t2 -29.5 t1 -32.5q0 -24 2.5 -46t3.5 -32q0 -8 1 -31l1.5 -34.5t3.5 -29.5t9 -32q8 -27 7 -37t-6.5 -25.5t-6.5 -25.5q0 -8 -9 -16.5t-20 -8.5t-32.5 -3.5t-33 -4.5t-22.5 2q-6 4 -14 4t-17 -2t-14 -2h-13.5h-12.5h-11t-11 1t-9 2t-9.5 3t-8 4.5t-8 6t-7.5 8t-8 10.5q-5 7 -7.5 18 t-3.5 26t-1 26.5t0.5 31t0.5 27.5q0 4 -2 22t-2 29q0 32 -24.5 40t-34.5 -26q-3 -10 -16 -33.5t-13 -41.5q0 -10 -15.5 -55.5t-15.5 -47.5q-5 -17 -21.5 -34t-33.5 -17q-4 0 -31.5 -2.5t-33.5 0.5q-23 5 -52 0.5t-54 3t-25 33.5zM340 313q0 -14 14 -14q4 0 8.5 8.5t4.5 16.5 q0 5 -2 8.5t-4 5.5t-3 2q-3 0 -10.5 -10t-7.5 -17z" />
<glyph unicode="y" horiz-adv-x="684" d="M-74 -154q2 14 2 56q0 21 14.5 34t30.5 17q9 3 38 5t42 11q8 6 13.5 15t8 17t4 22t2 21t0 22.5t-0.5 19.5v141q1 23 -4 65.5t-4 61.5q1 10 5 54t3.5 54t-0.5 56q-3 50 -4 143.5t-4 155.5q0 6 -5 46.5t-6 66.5q-1 18 5 43.5t2 38.5q-3 2 -0.5 17.5t2.5 17.5q0 22 2.5 29.5 t13.5 27.5q23 31 39 31q8 0 22 -1t26 -1t22 2q30 5 36 4q70 -9 80 -15q1 -1 6 -4.5t6 -4.5t5.5 -4.5t5.5 -5t4 -4.5t4.5 -5.5l3 -5t2 -5.5t0.5 -6q0 -14 1 -52t1 -50q0 -8 -1 -52.5t-1 -52.5q0 -12 1 -33.5t1 -39t-2 -33.5q-6 -48 -6 -61v-8.5v-11.5t1 -11t3 -11t6 -7t10 -3 q15 0 28 30t13 52q2 14 12 35.5t11 36.5q0 32 31 123q5 15 9.5 33.5t4.5 19.5q5 17 17.5 54t17.5 53q15 36 37 40q61 12 106 5q8 -1 23.5 0t23.5 0q52 -7 52 -37q0 -10 -3 -21.5t-5.5 -19t-8.5 -21t-8 -18.5q-3 -8 -14 -45.5t-13 -42.5q-2 -6 -4 -15.5t-4.5 -16t-7.5 -11.5 q-12 -12 -10 -41t-8 -45q0 -1 -11 -17q-7 -12 -11 -27t-6.5 -37t-4.5 -30q-2 -11 -9.5 -30.5t-9.5 -26.5q-4 -10 -9 -32t-9 -32q-10 -25 -19 -55.5t-19 -69.5t-17 -63q-23 -69 -31 -105q-5 -23 -41 -139q-14 -48 -39 -121q-5 -14 -11.5 -44.5t-11.5 -43.5q0 -10 -24.5 -49 t-36.5 -53q-30 -36 -86 -59t-109 -23q-21 0 -57.5 -2t-65.5 -2t-53 4q-9 2 -25 17t-16 24q0 8 -2.5 29t-1.5 32zM172 -88q0 -2 1.5 -3t5 -1h6.5h7.5h6.5q20 0 20 10q0 3 -8 6.5t-12 3.5q-5 0 -16 -6.5t-11 -9.5zM373 334q0 -4 1.5 -8.5t4.5 -8.5t6.5 -7t7.5 -3q8 0 13.5 6.5 t5.5 10.5q0 7 -10.5 13.5t-18.5 6.5q-10 0 -10 -10z" />
<glyph unicode="z" horiz-adv-x="608" d="M-55 72q0 3 3 12t3 12t3 25.5t3 25.5q0 13 6.5 30.5t16.5 37.5t12 25q1 2 17.5 31.5t30 55.5t13.5 31q0 10 13 32.5t14 23.5q6 18 29 37q3 2 5 8t3 13t2 9q10 36 35 88q9 20 31 53.5t28 43.5q21 35 51 98t39 80q12 21 12 28q0 12 -12.5 26.5t-23.5 14.5q-6 0 -34 -2.5 t-34 0.5q-16 2 -39.5 1.5t-36.5 0.5q-12 2 -24.5 13.5t-12.5 23.5q0 7 2.5 26.5t1.5 33.5q-1 11 5.5 32t7.5 25q0 1 2 13.5t3.5 17.5t5.5 13.5t10 12.5t14 4q6 0 23 3.5t20 2.5q28 2 96 -1t94 1q22 3 46.5 3.5t54.5 -1t46 -2.5q15 0 21 -13t10 -13q8 0 10.5 5t1.5 10.5t3 9 t14 1.5q5 -1 18.5 1t18.5 -1q15 -5 22.5 -25t7.5 -36q0 -60 -30 -135q-2 -8 -13 -26l-12 -19q-7 -12 -14.5 -32.5t-9.5 -24.5q-5 -10 -45 -81t-54 -112q-3 -8 -20 -37q-14 -24 -51 -101.5t-41 -84.5q-10 -15 -18.5 -27.5t-13 -21t-5.5 -9.5q-1 -3 -12 -22.5t-20 -39 t-9 -26.5l-1 -10q-1 -9 0 -14.5t5 -9.5q15 -15 37 -15q14 0 44 2t44 2q12 0 30 -2t29 -2q18 0 35.5 -14t17.5 -29q0 -3 -3 -20t-3 -21q0 -18 -6 -45.5t-6 -42.5q0 -32 -49 -49q-6 -4 -28.5 -1t-31.5 3t-36.5 -3t-40.5 -3q-8 0 -51 2t-77 2.5t-85 -2.5q-34 -2 -54.5 -1.5 t-44 2t-28.5 1.5q-7 0 -14.5 7t-14.5 7q-12 0 -12 54zM205 236q0 -3 1.5 -4t4 -0.5t5.5 1.5t6.5 2t6.5 1q13 0 13 16q0 12 -13 12q-7 0 -15.5 -11.5t-8.5 -16.5zM567 1079q0 -18 15 -18q10 0 10 12q0 6 -4.5 11.5t-12.5 5.5t-8 -11z" />
<glyph unicode="{" horiz-adv-x="507" d="M-2 586q0 9 5 26.5t5 26.5q0 12 1 35.5t1 30.5q0 17 15 35.5t30 21.5q47 8 64 53q16 40 16 127q0 12 8.5 40.5t8.5 43.5q0 22 12 91.5t14 88.5q0 16 10 49q11 45 21.5 74t33.5 62t56 49q85 43 186 43q60 0 86 -6q21 -5 28 -21t7 -43v-19v-18t-0.5 -14.5t-1 -14.5l-2 -12 t-3.5 -13t-5 -11.5t-7.5 -13t-9.5 -12.5t-12 -15q-12 -13 -45 -17.5t-45 -13.5q-18 -14 -17 -40.5t-9 -43.5q-9 -13 -12 -30t-5.5 -60.5t-7.5 -83.5q-7 -58 -22 -104t-13 -62q2 -17 -49 -98q-6 -10 -20 -21t-22.5 -22.5t-8.5 -30.5q0 -24 14 -47q6 -11 13.5 -24.5 t10.5 -19.5t7 -15t5 -17.5t2 -20.5t1 -30q0 -50 -15.5 -141t-17.5 -103q-1 -7 4.5 -23.5t3.5 -27.5q-1 -4 -9.5 -25t-8.5 -30q0 -17 3.5 -28.5t7 -17.5t14.5 -10.5t16.5 -5.5t23 -3t25.5 -3q11 -1 17 -14t6 -25q0 -16 -13 -114q-3 -28 -21 -44t-46 -16q-185 0 -203 6 q-27 8 -52.5 28t-35.5 46q0 1 -13.5 32t-13.5 48q0 20 2 41.5t6.5 51.5t6.5 44q23 172 26 227q0 8 13.5 13.5t13.5 13.5q0 2 -1.5 7t-2.5 10q-1 9 -3.5 26t-4 26.5t-5.5 22.5t-10 25q-5 9 -31 34t-26 46zM223 838q-6 -7 -1.5 -10t6.5 -3h10h4q12 0 12 17q0 7 -7 11.5 t-14 4.5q-3 0 -4.5 -3t-3 -8.5t-2.5 -8.5z" />
<glyph unicode="|" d="M135 -178q2 7 5 39t5 39q10 35 16 103.5t11 92.5q6 32 15 103t18 110q11 51 21.5 133t15.5 111q1 6 2.5 55.5t7.5 83.5q24 153 31 185q9 45 24 152t29 163q2 9 10.5 18.5t9.5 12.5q2 8 -9.5 18.5t-10.5 18.5q1 17 8.5 57.5t7.5 62.5q9 56 47 80q3 2 18.5 4.5t45.5 4.5 t63 1q51 0 71.5 -12t18.5 -39q-2 -46 -20 -209q-2 -19 -9.5 -47.5t-18.5 -59.5t-11 -32q-6 -13 -0.5 -42t2.5 -54q-9 -72 -19.5 -117t-13.5 -92q-6 -93 -20 -182q-3 -25 -15.5 -84t-15.5 -90q-4 -33 -11 -97.5t-11 -97.5q-6 -63 -27 -135q-1 -5 -2 -42t-2 -42 q-5 -41 -23 -111q-4 -14 -5 -30.5t-1.5 -36t-1.5 -27.5q-2 -30 -18.5 -50.5t-40.5 -21.5q-70 -4 -111 0q-14 1 -23 0t-20 2t-22 11q-36 28 -21 90z" />
<glyph unicode="}" horiz-adv-x="507" d="M-86 -127q0 11 10 23t10 18q0 8 -5 19.5t-5 19.5q0 9 2 21.5t6 25t9 20.5q0 3 5.5 9t11 11t9.5 7q10 8 39 8t39 8q12 8 22.5 25.5t10.5 32.5q0 41 18.5 128.5t18.5 104.5q0 12 8 70t8 68q0 33 10.5 58t25 39t29 24t25 19t10.5 19q0 15 -5 28.5t-14 29.5t-13 28l-15 54 q0 101 13 141q5 17 7.5 36.5t4 45t2.5 37.5q1 13 7.5 55.5t6.5 67.5q0 32 -11 47t-25.5 16.5t-33.5 11t-30 29.5q-4 7 -4 33q0 11 6 31t8 32q8 62 27 84.5t74 22.5q83 0 146 -18t103 -72q8 -11 17.5 -50.5t9.5 -56.5q0 -41 -10 -96q-10 -50 -10 -58q0 -20 -6.5 -59.5 t-6.5 -62.5q0 -33 -14 -101q-8 -43 -9 -60.5t3 -45.5q3 -18 18.5 -32.5t29.5 -31t15 -39.5q1 -25 -7.5 -47t-8.5 -28q0 -4 3.5 -19t2.5 -22q-3 -17 -17.5 -28.5t-36.5 -21t-30 -14.5q-33 -26 -33 -67q0 -12 -5 -33t-5 -31q0 -105 -33 -244q-3 -13 -2 -32.5t-2 -26.5 q-4 -14 -18 -57.5t-19 -59.5q-17 -46 -62.5 -82t-96.5 -45q-51 -10 -170 -10q-38 0 -53 9t-15 34zM416 1024q0 -7 3.5 -15t8.5 -8q3 0 6.5 3.5t5.5 7.5t2 6q0 20 -4 20q-22 0 -22 -14z" />
<glyph unicode="~" d="M33 596q0 9 5 25.5t5 25.5q13 100 33 135q8 15 19 27t28.5 22t28 15.5t33 14.5t28.5 11q19 11 49 11q46 0 68 -9q28 -8 81 -28t95.5 -31.5t83.5 -11.5q54 0 94 16q24 9 38.5 10.5t21 -5.5t8.5 -15t2 -23q0 -2 -3 -28.5t-3 -28.5q-3 -32 -41 -90q-19 -25 -39 -37.5 t-58 -26.5q-6 -2 -17 -11t-20 -9q-12 0 -31.5 -2t-36 -2t-32.5 4q-18 4 -22 24.5t-13 20.5q-11 0 -24 -11t-37 -3q-82 31 -107 37q-20 6 -73 6q-5 0 -16 2t-19 2t-12 -4q-3 -3 -22 -11.5t-22 -11.5q-30 -26 -57 -26q-16 0 -16 16zM133 717q0 -4 6 -4q5 0 13 4t8 8 q0 12 -13 12q-14 0 -14 -20z" />
<glyph unicode="&#xa1;" horiz-adv-x="385" d="M-53 -205q0 10 5 33t5 33q0 8 6 67.5t6 67.5q0 9 9 70l6 43q0 24 5.5 55t13 56.5t17.5 61.5t15 62q22 94 37 191q2 13 7 36.5t10 44t10 43t7 29.5q1 3 3.5 7.5t4.5 9t3 8.5q0 1 1.5 11.5t2.5 14t4 11.5t7 11.5t10.5 7.5t15.5 5q24 2 36.5 1t33.5 -3t36 -2q24 0 36.5 -20 t12.5 -82q0 -19 -6 -59t-6 -60q0 -31 -5 -89t-5 -89q0 -15 -2 -46t-2 -46q0 -44 -13.5 -119t-13.5 -99q0 -14 -1 -34.5t-2 -36t-1 -17.5q-2 -16 -11 -58t-9 -65q0 -6 -3.5 -25t-3.5 -30q0 -19 -18.5 -29t-40.5 -10q-46 0 -82.5 -5t-47.5 -7t-56 4q-21 4 -29 15t-8 32z M96 887q-3 19 2.5 46.5t5.5 43.5q0 20 8 55.5t9 46.5q0 2 3 19.5t3 19.5q8 31 37 49q5 3 12.5 5.5t17.5 3t17 0.5h17.5h11.5q19 0 21 -8t-6.5 -18t-12 -18.5t5.5 -9.5t17.5 6.5t17 16.5t32 16.5t58.5 7.5q7 0 16.5 -8.5t13.5 -15.5q7 -12 7 -31q0 -20 -7 -58t-8 -50 q-1 -9 -2 -32.5t-3 -38.5t-7.5 -33t-17.5 -29.5t-31 -16.5q-13 -3 -35 -5.5t-56.5 -2.5t-58.5 6q-16 4 -47 0q-10 -1 -18.5 3.5t-14.5 12.5t-8 17zM113 -92q0 -8 6.5 -12.5t11.5 -4.5q10 0 18.5 5t8.5 12q0 4 -8 9t-13 5q-1 0 -4.5 -1t-8 -3t-8 -4.5t-3.5 -5.5z" />
<glyph unicode="&#xa2;" d="M39 260q-2 20 -2.5 24.5t2 24.5t2.5 25q1 14 -0.5 38.5t-1.5 33.5q0 18 2.5 41t5.5 39t8.5 45.5t7.5 41.5q1 16 11 59t10 73q0 7 2 18.5t6.5 43.5t7.5 81q0 6 0.5 27.5t1.5 36.5t5.5 35t13.5 34q5 8 11 11.5t10 4t7 2.5t3 7q0 9 -10.5 19t-10.5 24q0 12 10.5 39t10.5 42 q0 6 5.5 17t12.5 22t8 13q12 24 31.5 41.5t35.5 25.5t46.5 20t44.5 19q21 9 24 37q1 8 5.5 18.5t5.5 24.5q2 15 7.5 26.5t16 18.5t20 11t26 5.5t26.5 2t29 0.5q18 0 31.5 -5.5t15.5 -5.5q20 0 27.5 -12.5t7.5 -38.5q0 -4 -2.5 -13t-2.5 -11q0 -29 16.5 -45.5t45 -28.5 t39.5 -21q67 -60 67 -133q0 -27 -2.5 -57t-6.5 -63t-5 -54q-1 -12 -2 -30t-1.5 -25.5t-3.5 -17t-9 -15.5q-11 -14 -20 -21.5t-20.5 -12.5t-25.5 -5q-9 0 -28.5 3t-28.5 3t-25 -0.5t-23.5 -0.5t-19.5 1t-17.5 3.5t-13 7t-10.5 11.5t-5.5 17.5t-2.5 24.5q0 13 4 40.5t4 43.5 q0 38 -4 47q-3 8 -10 13.5t-15.5 8t-15.5 2.5q-9 0 -17 -3t-13 -6.5t-9.5 -12t-6.5 -12.5t-5 -16t-3.5 -15t-2.5 -16q0 -17 -8.5 -52t-8.5 -53q-2 -45 -14 -121q0 -3 -5 -18.5t-5 -18.5q-1 -9 -2.5 -24t-3.5 -27.5t-6 -28.5q-1 -2 -4.5 -9.5t-4 -12t1.5 -12.5q3 -6 4 -12 t-0.5 -9.5t-3 -10.5t-2.5 -13q-1 -13 0 -22.5t0.5 -21t-4.5 -20.5q-6 -20 -6 -35q0 -49 53 -49q16 0 39 25q5 6 8.5 15.5t4.5 14.5t3.5 18.5t2.5 16.5q1 11 4 24.5t4.5 25.5t1.5 28q0 9 1 22l1 13q0 12 24.5 29.5t39.5 17.5q10 0 30.5 2t30.5 2q8 0 22.5 -3.5t23 -4 t24.5 3.5q12 4 30.5 -12t18.5 -29q0 -14 2 -38t2 -38q0 -25 -10 -57.5t-13 -46.5q-5 -35 -9.5 -56.5t-14.5 -55t-22.5 -55.5t-34.5 -44t-50 -35q-2 -1 -36 -11.5t-55 -25.5t-25 -39q-3 -20 -5 -30t-7.5 -24.5t-12.5 -21.5t-19.5 -12.5t-29.5 -5.5q-12 0 -31.5 3t-26.5 3 t-17 -3t-17 -3q-29 0 -40.5 16.5t-11.5 38.5v43q-2 10 -8 18.5t-10.5 12t-15 9.5t-13.5 8q-28 16 -39.5 23t-26.5 20.5t-22.5 29t-13.5 37.5zM233 184q0 -7 9 -13.5t18 -6.5q21 0 21 14q0 6 -21 6q-4 0 -11.5 1.5t-11.5 1.5t-4 -3zM358 281q0 -2 3.5 -4.5t9.5 -4.5t12 -2 q10 0 10 15q0 8 -26 8q-9 0 -9 -12z" />
<glyph unicode="&#xa3;" d="M-35 66q0 8 3 26.5t3 24.5q0 27 0.5 36t3 27t10.5 28.5t21 20.5q15 12 45 32t51 37.5t37 37.5q4 4 9.5 16t5.5 17q0 38 -33 43q-10 1 -27.5 10t-25.5 12q-27 7 -27 72q0 15 11.5 44t13.5 40q6 28 43 28q16 0 28.5 2t22.5 11t6 24q-14 55 -47 160q-5 17 -7.5 39t-3 34 t0 44t0.5 37v73q3 20 11 55.5t9 61.5q1 32 14.5 72t28.5 57q8 10 23.5 44t31.5 50q29 32 79.5 47t80.5 16t102 1q20 0 62 -7t72 -7q90 0 143 -107q25 -43 10 -113q-4 -16 -4 -41.5v-31.5q-2 -27 -11.5 -79.5t-12.5 -74.5q-2 -21 -13 -82q-6 -48 -20 -57q-23 -23 -31 -27 q-9 -4 -86 -4q-4 0 -16 4t-21 4q-26 0 -41 2.5t-28 15.5t-13 38q0 24 3.5 52t11 69.5t10.5 60.5q0 1 6 19t6 40q0 24 -15.5 40t-41.5 16q-30 0 -53 -31q-9 -11 -9 -62q0 -23 -8 -53.5t-8 -50.5q0 -13 2 -79t2 -75q0 -6 4 -19t4 -20q0 -59 19 -94q4 -8 9.5 -23t9.5 -22 t14 -13.5t26 -6.5q5 0 50.5 -4.5t53.5 -4.5q25 -1 36 -2.5t22 -7.5t16 -18q8 -19 4 -68q-10 -92 -78 -92q-19 0 -61 -6t-61 -6q-11 0 -20.5 -3.5t-15 -6.5t-11.5 -12.5t-8 -14t-7.5 -18t-7.5 -17.5q-3 -7 -10 -17t-11 -16.5t-6 -16.5t6 -17q15 -19 35 -19q7 0 20.5 2t20.5 2 t22.5 -4t22.5 -4q15 0 46 2t46 2q16 0 35 -17t19 -34q0 -18 -7.5 -55.5t-9.5 -49.5q0 -2 -2 -19t-3 -21t-4 -17.5t-7 -18t-10.5 -12t-15.5 -10t-21 -2.5q-1 0 -166 -6q-18 -1 -88 3t-88 -3q-23 -4 -92 0q-48 6 -113 6q-37 0 -37 62zM221 389q0 -8 4.5 -14t10.5 -6q8 0 10 3 t2 13q0 3 -8.5 9.5t-12.5 6.5q-6 0 -6 -12zM340 1196q0 -10 18 -10q7 0 13 11t6 20q0 3 -6.5 9.5t-10.5 6.5q-7 0 -13.5 -14t-6.5 -23zM475 180q0 -16 14 -16q11 0 21 5.5t10 14.5q0 7 -8 13t-16 6q-9 0 -15 -7.5t-6 -15.5z" />
<glyph unicode="&#xa4;" d="M51 467q3 14 11 25.5t13.5 15.5t22.5 18q18 13 22.5 25t4.5 39q0 2 -1 7.5t-2 12t-2 21t-1 33.5q0 15 7 40t7 41q0 9 6.5 25.5t13.5 38.5t7 43q0 20 -2.5 28t-12.5 23q-6 8 -16.5 20t-15 20t-4.5 18q0 17 14.5 34.5t30.5 26.5q9 5 15 5t8.5 -2.5t6.5 -5.5t9 -3 q8 0 16 -5.5t15 -13t15 -14.5t21 -12.5t29 -5.5q12 0 31.5 9t29.5 9q16 0 44 4t44 4q39 0 68 -10t57 -10q34 0 58 18q4 3 11 9t13 11t14.5 10.5t16 8t16.5 2t17 -5.5q1 0 9.5 -2t15 -7.5t11.5 -17.5q1 -2 3.5 -6.5t3.5 -6.5t2 -7.5t-2 -9.5q-6 -15 -19.5 -29.5t-26.5 -24 t-24 -27t-14 -38.5q-1 -12 0 -25t3.5 -22t4.5 -25.5t2 -34.5q0 -17 -3.5 -31.5t-10.5 -32t-9 -26.5q-3 -12 -12.5 -35.5t-9.5 -40.5q0 -15 3.5 -25.5t8 -16t14 -16t15.5 -17.5q10 -13 10 -29q0 -6 -5 -14t-16 -20.5t-14 -16.5q-14 -19 -41 -19q-16 0 -28 8.5t-23.5 23 t-21.5 20.5q-13 10 -46 10q-15 0 -40 -10.5t-41 -10.5l-24 -2q-24 -2 -24 2q-11 4 -51 4q-9 0 -18 3t-20.5 7.5t-18.5 6.5q-10 3 -20 3.5t-23.5 -0.5t-18.5 -1t-12.5 6t-11.5 6q-2 0 -5 -2.5t-3 -3.5q0 -3 4 -8t4 -8q0 -11 -26.5 -30t-41.5 -19q-12 0 -30.5 25t-16.5 36z M252 698q0 -44 20 -84t60 -59q8 -4 24 5t17 9q6 1 28 -2.5t37 2.5q29 10 60 37q47 47 47 88q0 49 -1.5 72t-4.5 32t-11 17q-29 29 -51.5 41t-54.5 12q-56 0 -94 -20t-57 -57.5t-19 -92.5zM557 524q0 -16 14 -16q9 0 9 16q0 8 -3.5 13.5t-8 5.5t-8 -6t-3.5 -13z" />
<glyph unicode="&#xa5;" d="M-2 295q-1 16 10.5 26.5t26.5 10.5q7 0 51 3t51 3q20 0 34 12.5t15 38.5q1 36 -9 46.5t-42 10.5q-5 0 -32.5 1.5t-43.5 1.5t-26 10t-10 28q0 27 14 27q2 0 11 8t24 8t39.5 2.5t29.5 2.5q52 0 52 28q0 6 -3.5 23t-3.5 28q0 7 4 25t3 27q-2 19 -7.5 116t-5.5 111 q0 11 -1 32t-1 27q0 3 -2 10t-4.5 15t-3.5 12q-5 22 0 74q2 27 -7 67.5t-11 90.5q-1 20 -7 65t-6 68q0 27 10 37q5 5 13 15.5t13.5 15.5t16.5 8.5t25 1.5q8 -1 16 -1t14.5 1t14.5 2t16 0q5 0 17.5 -11.5t17.5 -11.5q5 1 9.5 4.5t7.5 7t12 6.5t22 3q8 0 17 -6t16.5 -15 t13 -17.5t7.5 -15.5q4 -12 4 -164q0 -10 -1.5 -39.5t-0.5 -46.5q0 -5 3 -22t3 -23q0 -19 12.5 -23.5t24.5 5.5q4 3 7.5 7.5t5.5 9t4 10t3.5 9.5t2.5 8t1 5q6 24 19 53t14 47q1 15 7.5 37.5t17 50t14.5 41.5q2 6 5 16.5t4.5 15.5t4.5 13t5.5 12t7.5 10t10.5 9t13 6.5 t17.5 6.5q8 2 47 2q5 0 18.5 3t18.5 3q9 0 30 -2t35 -2q19 0 32 -11t13 -26q0 -29 -20 -78q-29 -69 -35 -104q-2 -11 -3.5 -19t-4 -16t-4 -11.5t-5.5 -13t-6 -14.5q-35 -92 -43 -111q-5 -12 -10 -31.5t-10 -36t-14 -28.5q-6 -8 -11.5 -21t-9 -25t-8.5 -29t-8 -27t-17.5 -48 t-17.5 -61q-3 -18 -26 -69.5t-23 -86.5q0 -11 4 -18t9 -11t17.5 -5.5t22 -2t31.5 -0.5q59 0 59 -34q0 -19 -14 -34t-31 -13q-10 2 -22 2t-26 -1t-20 -1h-12h-12t-10.5 -0.5t-10 -1.5t-7 -3.5t-5.5 -5.5q-2 -4 -7.5 -11.5t-9 -14t-5.5 -15.5q-1 -9 2.5 -21.5t3.5 -19.5 q0 -16 32 -16q10 0 26 1t26 1q14 0 32 -6t25 -6q11 0 18 -9t7 -22q0 -8 -5 -15t-15.5 -16t-14.5 -14q-5 -5 -11.5 -6.5t-20.5 -0.5t-19 1q-28 0 -53.5 -3t-28.5 -3q-8 0 -16.5 -5t-14.5 -13t-6 -17q0 -8 -10.5 -59.5t-10.5 -69.5q0 -22 -9.5 -37t-31.5 -31q-8 -6 -14 -8 t-17 -1t-14 1q-8 0 -25.5 -2t-25.5 -2q-10 0 -26.5 3t-26 3.5t-25.5 -2.5q-22 -6 -43 4q-24 15 -24 47q0 44 14 127q12 68 -31 68q-9 0 -26 1t-25 1q-9 0 -22 -1t-21 -2t-17.5 0.5t-15 6t-10 14.5t-6.5 25zM416 1024q0 -29 10 -29q5 0 11.5 5t11 12t4.5 12q0 7 -7 11.5 t-14 4.5t-9.5 -0.5t-4.5 -4t-2 -11.5zM430 543q0 -4 -3 -11t-2.5 -10.5t7.5 -3.5q8 0 18.5 9t10.5 16q0 8 -5 14t-12 6q-10 0 -12 -4t-2 -16z" />
<glyph unicode="&#xa6;" d="M129 -238q0 22 10 82q5 22 9.5 68t11.5 84q26 124 26 201q0 49 16.5 136t18.5 130q0 3 2.5 8t7 11.5t5.5 9.5q19 42 51 45q41 4 135 4q19 0 37 -17t18 -37q0 -38 -14 -107t-17 -101q-2 -18 -4 -56.5t-4 -56.5q-3 -35 -18.5 -112.5t-18.5 -112.5q-6 -74 -10 -88 q-5 -19 -4.5 -42.5t-1.5 -33.5q-5 -23 -22.5 -44.5t-36.5 -21.5q-14 0 -46.5 -3t-56.5 -3.5t-49.5 2.5t-37 17t-7.5 38zM256 688q0 20 11.5 65t11.5 58q0 19 6.5 51.5t7.5 42.5q10 75 16 92q2 4 2.5 22t1.5 42t4 39q1 10 12 55t11 74q0 26 5 49.5t5 26.5q0 60 25 125 q14 36 71 36q8 0 52 3t77 -1q18 -1 30 -20.5t7 -38.5q-9 -30 -13 -90.5t-7 -79.5q-3 -22 -16.5 -106t-16.5 -129q-3 -47 -14.5 -104.5t-14.5 -76.5q-1 -12 -3.5 -36.5t-4 -37.5t-5 -32.5t-9 -30t-13.5 -22t-20.5 -16.5t-28.5 -5q-19 0 -38.5 -0.5t-32.5 -1t-15 -0.5l-59 8 q-15 0 -30 11t-15 28zM473 1331q0 -10 10 -19t21 -9q3 0 4.5 2t2 5t0.5 5.5t-0.5 5.5t-0.5 4q0 7 -4.5 18t-11.5 11q-10 0 -15.5 -7.5t-5.5 -15.5z" />
<glyph unicode="&#xa7;" horiz-adv-x="714" d="M-55 -25l6 37q1 18 1 39t0.5 28.5t4.5 16.5t12 17q27 27 42.5 34t60.5 7q18 0 52 8t52 8q13 0 26 -8t13 -23v-7q0 -23 1 -36t5.5 -33t17.5 -30t33 -10q18 0 26.5 4.5t20.5 19.5q11 11 11 66q0 37 -8.5 57.5t-38.5 40.5q-23 13 -61 30.5t-63.5 30.5t-54.5 32.5t-48 45 t-29 58.5q-11 37 -11 61q0 26 8 67.5t9 55.5q5 51 8 96q7 75 47 115q41 41 41 86q0 17 -12.5 44.5t-14.5 43.5q-23 208 88 383q18 29 62 37q7 1 24 13t19 13q21 6 45 10t40 5t45 2t44 2q29 4 74 3.5t71 -13.5q13 -8 39 -19q4 -1 15.5 -3t21 -5t15.5 -8q24 -18 31.5 -30 t15.5 -40q14 -51 14 -104q0 -6 -6 -66q-8 -58 -19 -76t-43 -12q-24 4 -60 -3.5t-73 -6.5q-57 0 -71 31q-3 6 0 42.5t-5 55.5q-5 9 -21.5 17.5t-31.5 8.5q-23 0 -39 -32q-6 -10 -6 -86q0 -32 17 -51t51 -37q17 -9 48 -22.5t54 -24.5t48 -27t42.5 -37t26.5 -47q24 -69 24 -80 q0 -6 -8 -86q-1 -6 -5.5 -23t-4.5 -22q0 -125 -51 -207q-6 -11 -22 -28t-24.5 -32.5t-8.5 -35.5t24 -68q14 -31 14 -102q0 -36 -14 -129q-11 -75 -70 -156q-26 -39 -86 -65q-23 -13 -65 -13q-20 0 -66.5 -8t-76.5 -8q-97 0 -132.5 9t-93.5 48q-67 46 -67 131zM160 365 q0 -10 3.5 -12.5t12.5 -2.5q8 0 19 9.5t10 17.5q-1 5 -6 6t-13 -0.5t-10 -1.5q-7 0 -11.5 -5.5t-4.5 -10.5zM297 539q0 -22 14 -43t35 -21q26 0 37.5 16.5t17.5 45.5q15 73 15 116q0 5 1.5 16.5t1.5 19t-3 11.5q-1 2 -7 11t-9 13t-8.5 10t-12 8.5t-14.5 2.5 q-19 0 -34.5 -15.5t-15.5 -35.5q0 -6 -3 -22.5t-3 -22.5q0 -19 -6 -55t-6 -55zM340 967q0 -4 4.5 -9.5t9.5 -5.5q1 0 5 -0.5t8 -0.5h8.5t7 1.5t2.5 3.5q0 6 -13.5 13.5t-21.5 7.5q-3 0 -6.5 -3.5t-3.5 -6.5z" />
<glyph unicode="&#xa8;" horiz-adv-x="374" d="M27 1243q0 16 5 44.5t5 47.5q0 27 13.5 54.5t39.5 27.5q10 0 37.5 5.5t42.5 0.5q3 -3 18.5 -0.5t18.5 2.5q19 0 38 -10t19 -29q0 -7 -2 -18.5t-2 -17.5q0 -15 -4 -39q-1 -5 -11.5 -15t-11.5 -14q-1 -5 7.5 -12t3.5 -27q-5 -19 -23 -31.5t-37 -9.5q-29 -2 -86 -2 q-13 0 -30.5 5t-20.5 5q-20 0 -20 33zM315 1249q0 12 6 17t12.5 5.5t12.5 5.5t6 17q0 7 -13 9t-17 8q-5 9 8 51q2 8 4.5 13.5t7.5 14t10 19.5q9 18 39 18q24 0 62.5 -4t54.5 -4q19 0 29 -9t10 -19v-37q0 -2 2 -11t2 -16l-4 -24q0 -3 -2 -27.5t-2 -26.5q0 -13 -12.5 -25 t-24.5 -12t-35.5 -3.5t-32.5 -2.5t-38.5 -1.5t-47.5 1.5q-13 2 -25 15.5t-12 27.5z" />
<glyph unicode="&#xa9;" horiz-adv-x="1198" d="M33 289q-2 14 -2 30t1 47.5t1 61.5q0 36 4 79t9 72.5t13.5 81t12.5 74.5q3 20 10.5 47t7.5 39q0 18 5 55.5t5 57.5q0 11 8.5 35.5t8.5 38.5q0 8 11 41t13 41q8 30 13 46.5t17 38.5t28 37q3 2 10 19t30.5 48t65.5 67q96 82 232 88q15 0 29 -10.5t18 -10.5q12 0 16 16.5 t14 16.5q112 0 226 -8t143 -19q139 -55 195 -196q26 -69 26 -117q0 -19 -4 -60t-4 -63q0 -28 -10 -80.5t-12 -75.5q-11 -141 -31 -252q0 -1 -7.5 -34t-7.5 -47q0 -102 -55 -205q-33 -63 -60.5 -103.5t-39 -52t-27.5 -24.5q-8 -7 -49.5 -30.5t-46.5 -27.5q-50 -31 -135 -45 t-146 -14q-27 0 -49 -4t-24 -4q-16 0 -52 5t-57 5q-3 0 -72 12q-119 21 -192 93t-90 190zM168 864q0 -26 25 -26q10 0 10 16q0 4 1 10t2 10t1.5 8.5t-1.5 6.5t-7 2q-8 0 -19.5 -10t-11.5 -17zM197 406q0 -9 3 -28t3 -28q0 -87 30 -125q41 -55 144 -82h47q2 0 8.5 -1t17.5 -2 t25 -1q130 0 189.5 6t99.5 21q20 8 38 18.5t31 20.5t26 26.5t20.5 27.5t18.5 33t16 33.5t16 38t16 37.5q9 22 13 45.5t7.5 56t6.5 52.5q19 113 37 184q0 21 2 52.5t2 35.5q0 11 6 41.5t6 51.5l4 38q4 37 4 91v25q1 24 0.5 36t-4 31t-10.5 30q-4 6 -20 32.5t-28.5 40.5 t-29.5 20q-70 30 -86 30q-5 0 -30.5 1.5t-81.5 3t-136 1.5q-14 0 -45.5 -5t-42.5 -5q-33 0 -81 -24.5t-66 -53.5q-2 -2 -11.5 -20.5t-21.5 -40.5t-18 -31q-28 -45 -46 -107.5t-18 -117.5q0 -28 -8.5 -82.5t-9.5 -81.5q-1 -18 -11 -53t-10 -51q0 -24 -6 -81t-6 -97 q0 -6 -5 -22t-5 -21zM346 401q0 11 1.5 22t4.5 25.5t4 24.5q14 117 15 119q5 13 13.5 93.5t14.5 96.5q2 5 0 17.5t0 17.5q9 23 9 33q0 6 11 65t11 68q0 53 28.5 101.5t78.5 66.5q81 27 118 27q22 -1 41 -7q13 -4 53 -7.5t46 -6.5q33 -13 60.5 -44t27.5 -64q0 -13 -6.5 -41 t-6.5 -43q0 -3 -7 -32.5t-7 -37.5q0 -30 -22 -52t-54 -22q-6 0 -19 -0.5t-19 0t-15 2t-16.5 7t-14.5 14.5q-5 6 -6 20v15q-4 1 -2 35.5t2 35.5q2 21 0 27q-3 9 -15.5 16.5t-23.5 7.5q-20 0 -32 -16.5t-14.5 -36t-5 -48t-5.5 -40.5q-7 -26 -12.5 -63t-10.5 -86.5t-8 -73.5 q-2 -13 -7.5 -42.5t-9 -53.5t-3.5 -41q0 -26 12.5 -44t38.5 -18q9 0 15 3.5t9.5 11t5 12.5t3.5 16t2 13t2.5 10t5 23.5t2.5 33.5q0 4 4 16t8 15q2 2 9.5 20t9.5 21q3 7 18.5 5t18.5 -1q9 0 29 7t22 7q30 0 43.5 -17t13.5 -42q0 -156 -63 -254q-11 -16 -35 -25 q-3 -1 -13 -9.5t-14 -10.5q-20 -11 -52 -21t-54 -10q-55 0 -83 3.5t-54.5 14.5t-34.5 13q-30 9 -48 38t-18 70z" />
<glyph unicode="&#xaa;" horiz-adv-x="555" d="M6 451q0 41 18 74.5t50 41.5q21 4 52.5 3.5t53.5 2.5q16 3 34.5 3t42 -1.5t34.5 -1.5q23 0 67.5 3.5t63.5 3.5q24 0 53 -14.5t29 -37.5q0 -27 -1.5 -44.5t-6.5 -42t-18.5 -38.5t-35.5 -16q-47 -6 -145 -2q-14 1 -42.5 -2.5t-37.5 -3.5t-26 3t-27 3q-15 0 -37.5 6.5 t-36 8.5t-41.5 -7q-10 -4 -33 10q-10 7 -10 48zM47 729q0 9 3 26t1 27q-2 27 -2.5 33.5t5 25.5t5.5 21q10 69 15 82q14 38 30.5 61.5t45.5 45.5q3 3 19 12.5t33 19.5t19 11q39 39 123 39q22 0 34.5 30.5t12.5 57.5q0 30 -41 30q-30 0 -51 -65q-2 -6 -11.5 -14.5t-15.5 -8.5 q-15 0 -23 -2t-17 -6t-19 -6q-11 -2 -21 -0.5t-20.5 4t-11.5 2.5q-16 0 -25.5 13t-9.5 26q0 73 31 133q2 4 7 16t10.5 22t12.5 19q22 27 61 41t66 15.5t75 1.5h15q3 0 36.5 4t43.5 0q111 -22 125 -148q1 -10 -6.5 -30.5t-7.5 -28.5q0 -52 -19 -141q-5 -25 -7.5 -77.5 t-8.5 -82.5q0 -3 -4 -15.5t-4 -15.5q-16 -88 -16 -100q0 -8 -8 -27t-9 -28q-4 -36 -1 -70t-1 -41q-4 -12 -32.5 -17.5t-51.5 -5.5q-18 0 -53 18.5t-53 18.5q-14 0 -50 -20.5t-55 -20.5q-3 0 -25 -0.5t-32 0t-26 3t-25 8.5q-21 12 -31 19.5t-22.5 30.5t-12.5 54zM180 494 q0 -7 19 -7q26 0 26 11q0 3 -9.5 5.5t-14.5 2.5q-6 0 -13.5 -4t-7.5 -8zM254 846q0 -33 35 -33q23 0 38.5 12t20.5 31q0 1 5.5 14.5t6.5 22.5q6 36 2 51t-32 10q-31 -6 -46.5 -20t-21.5 -41q-8 -40 -8 -47zM463 1243q0 -2 -0.5 -7t0 -7.5t1 -5.5t3 -4.5t6.5 -1.5q5 0 13 9 t8 17q0 6 -5.5 10t-11.5 4q-5 0 -9.5 -4t-4.5 -10z" />
<glyph unicode="&#xab;" horiz-adv-x="776" d="M10 557q0 24 15 47.5t40 50.5t33 39q2 2 9.5 18.5t9.5 18.5q57 91 78 119q13 18 29.5 44t25 37.5t25 25t38.5 22.5q4 2 13.5 2t23 -1t19.5 -1h51q19 0 40 -7.5t21 -23.5q0 -20 -10 -37q-17 -30 -53 -80.5t-49 -72.5q-35 -68 -45 -82q-3 -3 -21.5 -32t-21.5 -32 q-15 -21 -15 -65q0 -39 37 -136t41 -112q2 -8 3.5 -16t2.5 -13t2 -9t2 -7q3 -5 7.5 -11.5t7 -10.5t4.5 -11.5t2 -17.5q0 -16 -7 -31.5t-20 -15.5q-25 0 -62.5 4t-62.5 4q-5 0 -30 1t-27 1q-9 0 -15 9.5t-8 10.5q-12 6 -37 88q-6 20 -20 53t-18 52q-2 11 -12 30.5t-13 28.5 q-21 60 -25 78q-8 40 -8 41zM188 412q0 -15 17 -15q8 0 8 15q0 12 -8 12q-7 0 -10 -0.5t-5 -3t-2 -8.5zM342 551q0 42 66 119q10 11 18.5 24.5t13 21t14.5 28t13 26.5t30 39.5t38 54.5q34 62 53 62q6 0 17 -2t20 -2q16 0 27 28.5t24 28.5q12 0 32 2t37 2t33 -4q41 -9 41 -31 q0 -16 -8.5 -31t-22.5 -30.5t-18 -22.5q-19 -28 -38.5 -59.5t-45.5 -75.5t-37 -63q-3 -6 -14.5 -23.5t-16 -26t-11.5 -23t-10 -28t-3 -28.5t5.5 -32t13.5 -38.5t12 -42.5q2 -8 12 -30.5t12 -37.5q4 -24 22.5 -75.5t18.5 -77.5q0 -47 -26 -47q-13 0 -39.5 -2t-49 -2t-43.5 4 q-37 8 -53.5 28t-27.5 54q-3 10 -20 49t-19 59q-2 21 -18.5 58.5t-20.5 50.5q-3 10 -12 29t-14 35t-5 32zM649 823q0 -3 0.5 -5t2 -3t3 -1.5t5 -1t6 0t7.5 0.5h9q13 0 23 18t10 31q0 6 -13 -1q-15 -9 -24 -9q-29 0 -29 -29z" />
<glyph unicode="&#xac;" d="M51 657q0 17 5 54.5t5 58.5q0 16 16.5 36.5t31.5 20.5q17 0 47 5.5t49 5.5q13 0 47 -4.5t51 -4.5q38 0 108.5 3.5t108.5 3.5q6 0 23.5 -2.5t23.5 -2.5q8 0 22 -1t26 -1t22 2q45 9 69.5 -13t24.5 -68q0 -43 -12 -113q0 -2 -5 -22t-5 -44q0 -9 -2 -21.5t-2 -14.5 q0 -4 -2.5 -15.5t-2.5 -15.5q0 -10 -6 -25t-6 -22q0 -41 -4 -51q-4 -13 -21 -35.5t-30 -22.5q-4 0 -26 3t-25 -1q-21 -7 -88 -2q-37 2 -37 53q0 7 2 29t2 31q0 13 3 33.5t3.5 31t-4.5 33.5q-6 17 -41 37q-10 5 -22 5t-29.5 -2.5t-30.5 -2.5l-48 2q-47 2 -50 -2 q-14 -2 -60 -2q-18 0 -44 1t-44 1q-12 0 -20 8q-9 9 -14.5 16.5t-7 13t-2 9t0 8.5t0.5 6z" />
<glyph unicode="&#xad;" horiz-adv-x="497" d="M18 506q5 66 11 90q4 23 28 37t52 14q11 0 31 1.5t36 1t33 -4.5q10 -2 37 3.5t35 4.5q27 -3 79 -3t76 -3q11 -1 19 -10t8 -16q-3 -18 -1.5 -54t-0.5 -53q-1 -16 -20 -35.5t-31 -21.5q-32 -5 -63.5 -6t-73.5 0.5t-60 1.5q-6 0 -67 -1t-72 -1q-26 0 -42.5 17t-13.5 38z M285 483q0 -6 12 -6q18 0 18 6q0 9 -8 9q-6 0 -14 -3t-8 -6z" />
<glyph unicode="&#xae;" horiz-adv-x="1198" d="M31 449q0 25 1.5 50.5t5 56t6 49t9.5 56t9.5 50t11 56.5t10.5 52q5 27 14 92t17 99q2 9 9.5 22t10.5 25q2 8 4 27.5t4 27.5q2 9 24 48.5t23 41.5q76 139 210.5 193.5t314.5 54.5q5 0 39 -1t53 -1q21 0 56 -8t57 -8q19 0 38.5 -7.5t46 -21.5t44.5 -21q90 -39 118 -133 q2 -7 14 -29t13 -32q12 -95 -6 -287q-2 -15 -12.5 -69t-8.5 -84q2 -34 -24 -208.5t-49 -203.5q-10 -13 -20.5 -41t-14.5 -35q-4 -6 -16.5 -28.5t-17 -29.5t-16 -24.5t-19.5 -26.5t-20.5 -22t-26.5 -22.5t-30 -18.5q-137 -92 -282 -92q-10 0 -31 -6t-33 -6q-87 0 -248 22 q-132 18 -221 121q-8 9 -18 34.5t-12 28.5q-3 7 -12.5 23t-15 29t-7.5 26q-4 26 -4.5 56t1 69t1.5 56zM170 381q0 -6 9 -6t17.5 -4t8.5 -19q0 -92 33 -131q21 -27 51 -40.5t79.5 -23.5t63.5 -14q47 -12 70 -10q99 6 114 6q107 0 201 51q37 33 51 43q51 35 76 150 q22 73 23 78q17 68 20 147q2 46 20.5 151t18.5 163q0 23 6 71t5.5 87.5t-13.5 72.5q-5 12 -11 29t-8 21.5t-7.5 13.5t-13 15.5t-21.5 16.5q-49 35 -119 39q-10 1 -47 6.5t-52 5.5q-145 0 -221 -12q-54 -8 -95 -31.5t-69 -62.5t-46 -78.5t-35 -95.5q-4 -16 -10 -63.5 t-15 -79.5q-8 -28 -10 -80.5t-6 -75.5q-33 -184 -33 -277q0 -21 -17.5 -36.5t-17.5 -26.5zM344 332q0 12 5 31.5t5 29.5q7 24 10 83t11 87q11 39 17.5 112t8.5 89q1 8 11 59t10 92q0 13 7 43t7 46q0 37 13 104q3 21 24.5 36t44.5 15q22 0 60.5 1t65 2t62.5 -0.5t60 -5.5 t50.5 -13t42 -23.5t26 -37t10.5 -52.5q0 -9 -6 -24t-6 -23q0 -5 1 -28.5t1 -39.5t-4 -36.5t-13 -32.5q-3 -6 -12 -32t-12 -32q-4 -8 -15.5 -28t-16.5 -33.5t-5 -30.5q0 -20 10 -58t10 -59q0 -37 -14 -170q-1 -11 -6 -30.5t-6 -26.5t2.5 -27.5t3.5 -23.5q0 -9 -13.5 -15 t-23.5 -6h-18q-57 0 -76 1.5t-39 9.5q-21 8 -21 41q0 9 5.5 36.5t5.5 36.5q0 17 8 49.5t8 47.5q0 2 3 22t3 25v8q0 20 -19 41.5t-38 21.5q-32 0 -37 -47q-2 -19 -7 -62.5t-7 -66.5q0 -2 -5.5 -19.5t-5.5 -19.5q0 -3 -3 -29t-3 -28q-12 -51 -45 -51q-6 0 -16.5 -6t-16.5 -6 q-9 0 -28 -3.5t-33 -1.5q-24 3 -32.5 14.5t-8.5 43.5zM600 856q-1 -5 4.5 -16.5t5.5 -20.5q0 -31 27 -31q21 0 30 9.5t14 35t7 31.5q19 46 6 88q-4 12 -17 21.5t-24 9.5q-14 0 -21.5 -2.5t-12.5 -6.5t-7.5 -16t-3.5 -22.5t-3 -34.5t-5 -45z" />
<glyph unicode="&#xaf;" horiz-adv-x="374" d="M53 1278q0 37 31 82q3 3 18 7.5t25 4.5q17 0 47 -4t47 -4q23 0 75 5t107 5q62 0 93 -2q6 0 15.5 -5.5t10.5 -14.5q2 -21 -10.5 -41.5t-11.5 -32.5q1 -26 -10 -37.5t-25 -11.5q-18 0 -77 -4.5t-79 -7.5q-6 -3 -58 -0.5t-58 2.5q-9 0 -51 2t-52 2q-37 0 -37 55z" />
<glyph unicode="&#xb0;" horiz-adv-x="555" d="M96 1137q0 9 8 34t13 33q4 7 14 29t18.5 41t12.5 24q12 17 57 47.5t49 34.5q19 19 37 19q12 1 42 9.5t46 8.5q54 0 116.5 -37.5t82.5 -97.5q2 -7 8 -18.5t10 -21.5t4 -17q0 -4 5.5 -16.5t5.5 -22.5q0 -12 -10.5 -46t-16.5 -48q-2 -6 -11.5 -25t-20.5 -38.5t-13 -24.5 q-5 -11 -15.5 -18.5t-22 -12.5t-15.5 -8q-11 -8 -31 -25t-31 -23.5t-38.5 -13t-67.5 -6.5q-45 0 -73.5 7.5t-74.5 29.5q-50 23 -69 72t-19 131zM268 1135q0 -19 11.5 -35.5t27.5 -16.5q7 0 18.5 -11t26.5 -11q32 0 52 12t28 33t8 53q0 39 -21 60.5t-63 21.5 q-39 0 -63.5 -32.5t-24.5 -73.5z" />
<glyph unicode="&#xb1;" d="M-14 291q7 90 43 153q13 27 30 27t50 2t49 2q12 0 35 -2t34 -2q14 0 68 2t103 2t81 -4q11 -1 33.5 1.5t30.5 2.5q11 0 32 -2t33 -2t19.5 -6t21.5 -6q17 0 23.5 -14t1.5 -31q-2 -6 -2 -20.5t-2 -16.5q-3 -6 -6.5 -39t-10.5 -57q-2 -9 -21 -28.5t-30 -19.5q-72 4 -108 0 q-17 -1 -48 3t-45 4q-17 0 -53 -3.5t-53 -3.5q-12 0 -15 8t-1 15t-3 8q-3 0 -15.5 -15t-29.5 -16q-93 -7 -153 -4q-97 0 -92 62zM57 805q0 15 6.5 30.5t6.5 26.5q0 60 14 82q14 21 41 21q23 0 59 5t47 5q40 0 58.5 14.5t25.5 52.5q0 2 2 14.5t4.5 26t6.5 23.5q3 8 4 24t5 28 t15 18q10 6 21 24q3 5 19.5 7.5t31.5 -1.5q4 -2 10.5 -2t14 1t10.5 1q8 0 26.5 -3t30.5 -3q18 0 31.5 -18t13.5 -39q0 -19 -8 -60t-8 -61q0 -17 14 -31q3 -3 6 -5.5t5.5 -4.5t6.5 -3l6 -1.5t6.5 -1t6 -0.5h7.5h7q12 0 34 1t34 1q27 0 47 -14.5t20 -38.5q0 -12 -5 -34t-5 -34 q0 -36 -4 -72q-1 -17 -24.5 -30t-47.5 -17q-25 -4 -61 0q-6 1 -30 -1.5t-27 -2.5q-54 0 -54 -92q0 -7 -4 -19t-4 -22q0 -6 -3 -22t-3 -25q0 -14 -11.5 -24t-23.5 -7q-11 3 -33.5 -6t-35.5 -6q-27 8 -70 8q-23 0 -38 17t-15 30q0 37 6 70t6 47q0 36 -14 43q-20 8 -70 8 q-4 0 -29 2t-30 2q-22 0 -41 15q-17 11 -17 53zM516 915q-5 -10 -5 -21t7 -11q9 0 12 7t5 9q9 6 6 18.5t-11 12.5q-6 0 -8.5 -1.5t-3.5 -6.5t-2 -7z" />
<glyph unicode="&#xb2;" horiz-adv-x="561" d="M37 582q0 7 2 26.5t1.5 23t-1.5 25.5q-3 30 14 88t37 78q13 13 27 45q8 19 18.5 30.5t28 23.5t24.5 18q16 13 38.5 26.5t47 27.5t39.5 24q23 16 38.5 30t27 29t18 31t9.5 35q2 14 7.5 26t9 20.5t3.5 18.5q0 18 -13 28.5t-32 10.5q-18 0 -28.5 -9.5t-16.5 -33.5 q-1 -6 -4.5 -17.5t-5.5 -21t-2 -18.5q0 -27 -17.5 -46t-40.5 -24q-18 -4 -35 -4t-36 2t-31 2q-15 0 -26 13.5t-11 29.5q0 27 6 45q3 11 12.5 57.5t19 86t15.5 47.5q42 49 66 61q56 27 92 27q6 0 17.5 -1t20.5 -1t17 2q27 6 58 6q40 0 118 -29q24 -6 42 -26t18 -43 q0 -8 -4 -28t-4 -28q0 -5 3 -6.5l6 -3t4.5 -10.5t-1.5 -29q-20 -163 -51 -211q-37 -55 -76 -94q-19 -18 -75.5 -46t-76.5 -50q-9 -10 -47 -43q-35 -35 -33 -60q3 -30 41 -30q15 0 43 2t43 2q6 0 27 -2t41 -2q30 0 45 -15q21 -14 25.5 -35.5t-0.5 -50.5q-10 -88 -72 -88 q-12 0 -44.5 -2.5t-49.5 -1.5q-60 6 -84 6q-5 0 -15.5 -1.5t-21.5 -1.5t-23 3q-11 2 -11 18.5t-7 16.5q-8 0 -20.5 -18.5t-20.5 -18.5q-22 0 -48 3t-42 3q-19 0 -32 16t-11 36z" />
<glyph unicode="&#xb3;" horiz-adv-x="561" d="M45 700q1 5 2 20.5t6 24.5q6 10 37 41q6 6 12 8.5t9.5 3t12.5 0t13 -0.5q8 0 26.5 2t30 2t25 -4.5t21.5 -16.5q10 -15 10 -30q0 -5 1 -9t1.5 -7t3.5 -5t4.5 -3.5t6 -2.5t7 -1.5t8.5 -0.5h9.5h11.5h12q13 0 21.5 10t11.5 28.5t3.5 31t0.5 31.5v5q0 13 -5.5 24.5t-16 19.5 t-23.5 8q-8 0 -44.5 3t-43.5 3q-35 0 -35 61q0 4 5.5 22.5t5.5 35.5q0 25 24 49q1 1 7 6.5t13 9.5t15 4t24 1t29 1q4 0 22.5 -2t30 0t19.5 10q12 12 17.5 31t6 30t0.5 34q0 5 -2 15t-2 15q0 14 -14 22.5t-27 8.5q-38 0 -53 -47q-5 -18 -14 -24.5t-25 -10.5q-55 -11 -67 -6 q-4 2 -20 2.5t-21 3.5q-20 10 -25.5 21t-5.5 36q0 60 25 109q8 17 26 49q21 33 45 43q50 20 105 29q10 1 21.5 1.5t20.5 0t20 -1t18 -0.5q6 0 18.5 3t19.5 3q8 0 18 -1.5t19 -3t15 -1.5q28 0 61.5 -26.5t44.5 -55.5q4 -9 4.5 -17.5t-1 -22t-1.5 -22.5q0 -6 6 -23t6 -24 q0 -64 -24 -136t-57 -105q-18 -18 -20.5 -34t5 -26.5t16.5 -26.5t9 -32q0 -13 3 -40t3 -36q0 -141 -61 -225q-15 -21 -41 -35t-50 -14q-5 0 -15.5 -11t-20.5 -12q-97 -10 -138 -10q-21 0 -51 9t-43 11q-41 7 -67 52q-16 33 -14 44.5t10.5 21t7.5 14.5q-2 13 -15 19t-10 19z M96 662q0 -21 17 -21q8 0 8 8q0 6 -6 13.5t-11 7.5q-8 0 -8 -8z" />
<glyph unicode="&#xb4;" horiz-adv-x="374" d="M176 1200q-45 0 29 121l14 22q6 10 16 35t20.5 38.5t29.5 21.5q12 5 24.5 6.5t37 0.5t32.5 -1q12 0 27.5 -3t25.5 -3q23 0 23 -17q0 -16 -11 -31.5t-30.5 -33.5t-24.5 -25q-3 -3 -16.5 -24t-18.5 -27q-22 -27 -65 -70q-14 -14 -53 -18q-14 -1 -34 3.5t-26 4.5z" />
<glyph unicode="&#xb5;" horiz-adv-x="729" d="M-51 -186q7 67 15.5 125.5t12 87t3.5 55.5q0 51 12 76q0 1 7 13t7 19q0 6 -2 22.5t-2 27.5q0 28 8 77.5t8 65.5q0 10 4 29.5t11.5 63.5t13.5 102q6 45 14 124q1 15 7.5 41t7.5 35q9 93 14 117q2 13 7 36t8.5 42t3.5 35q0 6 -0.5 17.5t-0.5 17.5t1.5 16.5t5.5 21.5 q5 18 20 35.5t35 20.5q16 2 37 0.5t24 -0.5q39 9 88 -7q9 -3 19 -9t16 -9q9 -3 9 -9.5t-4.5 -18.5t-4.5 -19t9 -17t8 -24q-10 -92 -31 -219q-4 -24 -4 -62q0 -8 -8 -23t-9 -20q-2 -5 -2 -10.5t1 -13t1 -14.5q0 -66 -22.5 -178t-22.5 -177q0 -23 13.5 -35t25.5 -12 q49 0 58 51q7 41 15.5 82.5t13 67.5t6.5 59q5 79 16 111q5 17 8 46t8 46q4 11 0.5 45t-0.5 51q2 20 11.5 48.5t13.5 70.5q1 8 7.5 46t6.5 60q0 8 10 48q2 11 14.5 24t22.5 14q21 4 30 4t20.5 -2t29.5 -2q7 0 26 -9.5t32 -6.5q21 5 29.5 7t22.5 2t19.5 -7t5.5 -22 q0 -44 -14 -172q-2 -18 -10 -50.5t-8 -58.5q0 -21 -7.5 -61t-7.5 -60q0 -14 -7 -43t-7 -45q0 -27 -7.5 -75t-8.5 -64q-3 -31 -17 -106.5t-14 -129.5q0 -45 -2 -65q-2 -16 -10.5 -48t-8.5 -61q0 -13 -12.5 -24t-22.5 -11q-21 0 -56 -7t-56 -7q-11 0 -51 10q-18 4 -37 21.5 t-35 17.5q-24 0 -72 -24q-1 -1 -4 -2q-21 -14 -25 -26q-1 -1 -1 -3q-12 -36 -23 -94q-2 -10 -4.5 -37.5t-5 -42t-12 -34.5t-25.5 -34q-9 -9 -30.5 -11t-33.5 5q-13 10 -2 39q10 27 6 30q-1 1 -4 1q-9 0 -20 -9.5t-12 -21.5q-5 -37 -13 -39q-9 -3 -18.5 -3t-20.5 1.5t-16 1.5 q-12 0 -23 2.5t-23 17.5t-9 42zM477 47q0 -7 4 -7.5t19 -0.5q14 0 14 16q0 3 -5 5.5t-9 2.5q-7 0 -15 -6.5t-8 -9.5z" />
<glyph unicode="&#xb6;" horiz-adv-x="942" d="M45 678q1 21 8 60.5t8 62.5q3 79 15 147q1 7 6.5 30t9 43.5t4.5 43.5q3 100 58 221q9 20 17 33.5t22 25t19.5 16t28.5 17t31 17.5q13 8 30 15t32.5 11t28.5 6.5t20 2.5q31 0 86.5 -2.5t101 -2.5t86.5 5q14 5 117.5 1t159.5 -1q16 1 26.5 -4t15.5 -12.5t7 -22t2 -25 t-1 -28.5t-1 -27q0 -37 -10.5 -104.5t-11.5 -100.5q-1 -24 -14.5 -90.5t-14.5 -97.5q-1 -34 -12 -95.5t-13 -87.5q-8 -106 -30 -229q-7 -37 -19 -122t-22 -132q-7 -34 -11.5 -70.5t-9 -81.5l-6.5 -65q-10 -74 -21 -185q-1 -10 -12 -19t-20 -9q-6 0 -29 1t-29 1 q-16 -2 -37 -7t-43 -5q-9 0 -15.5 3t-9.5 9.5t-4.5 13t-0.5 17t2 17t3 17.5t3 15q5 33 9 66.5t9 81l9 85.5q2 20 13.5 39t14.5 29q1 3 -5.5 13.5t-6.5 23.5q0 20 1 40t3.5 41.5t4.5 36.5t6.5 39t6.5 34.5t7.5 37.5t7.5 35q14 91 14 112q0 30 4.5 64.5t11 76t9.5 64.5 q2 16 5.5 48t5.5 51.5t6.5 47t10.5 50.5q6 24 10 69t9 64q3 16 4 27t-1 25t-12.5 19.5t-29.5 0.5q-45 -11 -51 -103q-3 -22 -22 -130t-19 -167q0 -23 -4 -46.5t-12 -55t-11 -45.5q-5 -24 -7.5 -77t-8.5 -77q-7 -27 -21 -135q-2 -13 -6.5 -38t-7 -45t-2.5 -40q0 -53 -19 -127 l-4.5 -27t-7 -39t-6.5 -22q-2 -3 -18.5 -13t-16.5 -20t12 -22.5t13 -22.5q0 -37 -8 -65q-1 -2 -1.5 -9t-1.5 -23.5t-4 -35.5q-4 -35 -90 -35q-6 0 -26.5 2.5t-36.5 2.5q-29 0 -37 11t-6 29q0 9 5 37.5t5 30.5q1 12 3 40t4.5 49.5t6.5 39.5q13 49 19 111q2 24 10 69.5 t10 89.5q1 9 5.5 25.5t3.5 27.5t-11 21q-8 9 -18.5 12t-28.5 3h-22q-85 6 -138 27t-88 85q-10 18 -14.5 40.5t-4.5 37t2.5 43.5t2.5 39zM348 1116q0 -6 6 -10t11 -4q8 0 8 14q0 3 -2.5 6.5t-6.5 5.5t-8 2q-8 0 -8 -14zM455 999q0 -9 6.5 -14.5t15.5 -5.5q5 0 11.5 5t11 12.5 t4.5 13.5q0 7 -5.5 12.5t-13.5 5.5q-9 0 -19.5 -10.5t-10.5 -18.5z" />
<glyph unicode="&#xb7;" horiz-adv-x="374" d="M43 594q0 33 7.5 92.5t6.5 69.5q-1 9 1 19t5.5 24t4.5 24q5 32 42.5 47t79.5 7q16 -3 49 0.5t57.5 5.5t44 -10.5t19.5 -43.5q0 -17 -7 -52t-7 -52q0 -25 -8 -68.5t-10 -58.5q-3 -20 -23.5 -32.5t-38.5 -12.5q-16 0 -51 2t-51 2q-5 0 -28.5 -1t-34.5 0t-27 4t-23.5 11.5 t-7.5 22.5z" />
<glyph unicode="&#xb8;" horiz-adv-x="374" d="M-98 -166q1 2 2.5 6t3 6.5t4.5 6t6.5 5.5t10 3.5t14.5 1.5t22.5 -3t22.5 -3q30 0 47 -21q6 -8 39 -8q9 0 18.5 4t9.5 12q0 25 -18 35q-47 31 -47 66q0 32 26 61q4 5 23.5 7t38 -3t20.5 -16q1 -4 -1 -16t-0.5 -20.5t8.5 -12.5q11 -5 30.5 -11t35 -11.5t31 -13.5t24 -22 t8.5 -34q0 -50 -33.5 -78t-93.5 -31q-11 -1 -26.5 -7t-21.5 -7q-5 -1 -13.5 -1t-17 0.5t-9.5 0.5q-18 0 -37 3t-31 3q-8 0 -23 2t-16 2q-41 7 -58.5 30t1.5 64z" />
<glyph unicode="&#xb9;" horiz-adv-x="313" d="M55 573q0 4 11 78q2 13 3.5 35t4 37t8.5 27q8 16 9 49.5t5 58.5q8 55 18.5 147t18.5 138q2 19 11.5 60.5t9.5 60.5q0 10 1.5 20t5 17.5t6.5 13.5t8 12l7.5 9t7 7t5.5 5q3 3 33.5 21.5t33.5 21.5q5 4 16.5 15t22.5 17.5t23 6.5q36 0 45 -27q3 -18 2.5 -25.5t-5.5 -25.5 t-6 -25q-3 -20 -6.5 -53.5t-5.5 -44.5q0 -15 -6.5 -38.5t-7.5 -27.5q-1 -5 -10 -65t-13 -94q-1 -12 -6.5 -43.5t-5.5 -47.5q0 -55 -27 -63q-11 -3 -18.5 -9.5t-7.5 -11.5t9.5 -5t18 -5.5t5.5 -25.5q-9 -59 -9 -115q0 -35 -20 -109q-6 -20 -27 -30.5t-47 -10.5q-7 0 -30.5 -1 t-34.5 -0.5t-26.5 4.5t-22.5 14.5t-7 27.5zM109 616q0 -20 14 -20q7 0 8 9t-3.5 18.5t-10.5 9.5q-8 0 -8 -17z" />
<glyph unicode="&#xba;" horiz-adv-x="550" d="M16 430q0 143 78 143h86q5 0 39.5 4.5t40.5 4.5q5 0 23.5 1.5t27.5 0.5q66 -11 99 -11q6 0 35 -3t32 -3q14 0 23.5 -16.5t9.5 -32.5q-12 -47 -12 -74q0 -19 -20 -37t-32 -18q-14 0 -41 1.5t-46.5 1.5t-32.5 -3q-9 -6 -52 -2l-43 4h-84q-9 0 -26.5 3.5t-27.5 4t-32 -5.5 q-17 -6 -31 6t-14 31zM68 764q0 25 20 127q3 15 9.5 69.5t6.5 73.5q0 25 7.5 67.5t7.5 65.5q0 13 37 150q12 43 41.5 78t64.5 35q10 0 31 7t31 7h51q1 4 54 2t54 -2q8 0 22 -9t19 -10q16 -2 27 -9.5t23 -19.5t22 -18q28 -17 8 -149q-2 -10 -1.5 -39t-2.5 -39 q-4 -10 -5 -19.5t-0.5 -24t-0.5 -24.5q-2 -50 -13.5 -98.5t-15.5 -73.5q-16 -140 -61 -219q-13 -25 -58 -41q-62 -20 -139 -20q-19 0 -51 3t-51 3q-67 0 -102 33.5t-35 93.5zM279 852q0 -27 40 -27q16 0 24.5 6t10.5 12.5t5 22t6 25.5q2 6 6.5 15.5t7 17t2.5 14.5v35 q0 39 13.5 115t13.5 114q0 19 -13.5 33t-34.5 14q-18 0 -27 -13.5t-9 -33.5q0 -14 -7.5 -46t-7.5 -50q0 -10 -4 -52.5t-4 -52.5q0 -6 -6 -26t-6 -25q0 -13 -5 -48.5t-5 -49.5zM391 545q0 -15 23 -15q8 0 20 3t12 6q0 4 -10.5 8t-21.5 4q-23 0 -23 -6z" />
<glyph unicode="&#xbb;" horiz-adv-x="776" d="M-33 184q0 15 4 25q37 73 78 123q2 2 9.5 17.5t15.5 31t10 18.5q3 5 17.5 26t21.5 34q7 12 17 26t16 23.5t12 21.5t9 26t3 32q0 42 -28 108q-7 15 -19 64t-16 63q-4 11 -15.5 34t-19.5 43t-8 36q0 9 16 25q11 11 20 13.5t25 2.5q13 0 40 -2t40 -2q3 0 14 0.5t16 0 t13 -2.5t14 -6q32 -19 50 -64q8 -16 8 -37q0 -5 -2.5 -14t-1.5 -16q2 -11 17 -21.5t17 -15.5q5 -17 11.5 -35t13.5 -36t12 -34q3 -9 12 -32.5t13.5 -41.5t3.5 -34q0 -10 -2 -21t-5 -20t-9 -21t-9.5 -18.5t-12.5 -19.5t-12.5 -17.5t-13.5 -18t-12 -16.5q-12 -16 -21.5 -32 t-23 -39.5t-24.5 -41.5q-65 -103 -78 -116q-2 -2 -11.5 -12.5t-15.5 -16t-15 -11t-16 -5.5t-24.5 -2t-24.5 -2q-18 0 -54 2t-54 2q-21 0 -21 26zM303 184q0 14 12 34t29 42.5t21 30.5q9 15 22 41q3 4 6.5 11.5t8 14t10.5 11.5q10 9 18 23t15.5 32t13.5 27q2 3 10 14.5 t10.5 14.5t8.5 12.5t7.5 13.5t6 12.5t6 14.5t3.5 14.5t2.5 17.5t0.5 19v26q0 19 -6.5 39t-17 44.5t-15.5 41.5q-32 106 -65 174q-12 23 2 45q3 4 5.5 7t6 5t5.5 3t7.5 1.5t8 0.5h10h10.5q5 0 31 3t34 3q2 0 19 0.5t24.5 0t20.5 -4t22 -10.5q26 -26 35 -52q9 -29 22 -56 t17 -42q15 -45 19 -55q9 -21 16.5 -52.5t13.5 -39.5q23 -33 27 -88q0 -14 -5 -27t-16 -31t-16 -28q-8 -18 -23.5 -44t-27 -43.5t-32 -47.5t-23.5 -35q-5 -6 -44 -65.5t-69 -82.5q-20 -10 -37 -10q-18 0 -63.5 -3.5t-69.5 -2.5q-12 0 -24.5 7.5t-12.5 18.5z" />
<glyph unicode="&#xbc;" horiz-adv-x="964" d="M55 573q0 4 11 78q2 13 3.5 35t4 37t8.5 27q8 16 9 49.5t5 58.5q8 55 18.5 147t18.5 138q2 19 11.5 60.5t9.5 60.5q0 10 1.5 20t5 17.5t6.5 13.5t8 12l7.5 9t7 7t5.5 5q3 3 33.5 21.5t33.5 21.5q5 4 16.5 15t22.5 17.5t23 6.5q36 0 45 -27q3 -18 2.5 -25.5t-5.5 -25.5 t-6 -25q-3 -20 -6.5 -53.5t-5.5 -44.5q0 -15 -6.5 -38.5t-7.5 -27.5q-1 -5 -10 -65t-13 -94q-1 -12 -6.5 -43.5t-5.5 -47.5q0 -55 -27 -63q-11 -3 -18.5 -9.5t-7.5 -11.5t9.5 -5t18 -5.5t5.5 -25.5q-9 -59 -9 -115q0 -35 -20 -109q-6 -20 -27 -30.5t-47 -10.5q-7 0 -30.5 -1 t-34.5 -0.5t-26.5 4.5t-22.5 14.5t-7 27.5zM74 43q0 8 10.5 30t27.5 52t19 33q4 8 19 53q2 9 11.5 21t12.5 18q31 62 57 127q3 7 20 34.5t25 45.5q12 24 46 100t57 121q17 34 52.5 101.5t51.5 101.5q3 7 16.5 33t18.5 42q2 8 34 69t34 65q3 8 5.5 21t4.5 17q1 3 6.5 10.5 t19 33t33.5 67.5t27 53q13 19 25 51q0 1 3.5 8.5t5 11t5 11t6.5 12t7.5 11.5t8.5 10.5t9 7.5t10.5 6t11.5 2q21 0 21 -20q0 -18 -4 -25q-43 -96 -48 -104q-18 -28 -35 -60t-39.5 -81t-29.5 -64q-14 -27 -28 -58.5t-30.5 -68.5t-25.5 -57q-4 -7 -20 -39.5t-30 -61t-18 -39.5 q-9 -22 -40.5 -76.5t-40.5 -90.5q-4 -15 -10.5 -26.5t-17.5 -27.5t-18 -28q-2 -3 -15 -36.5t-15 -35.5q-5 -9 -16.5 -27.5t-16.5 -27.5q-19 -39 -48.5 -104t-57 -121.5t-62.5 -118.5q-11 -17 -31 -17q-24 0 -24 35zM109 616q0 -20 14 -20q7 0 8 9t-3.5 18.5t-10.5 9.5 q-8 0 -8 -17zM371 221q0 30 2.5 43.5t13.5 36.5q6 11 27.5 24t23.5 17q5 10 0.5 18.5t-7 16.5t10.5 33q6 10 27.5 52t34.5 62q32 52 43 74q8 17 26.5 42.5t28.5 51.5q6 15 20 33t19 33q5 17 13.5 33t24 39.5t19.5 29.5q22 35 45 35q11 0 32.5 8t35.5 8t28 -10t21 -10 q5 0 18 1.5t18.5 0.5t11 -8.5t5.5 -24.5q0 -76 -18 -149q-5 -22 -7.5 -64.5t-6.5 -60.5q-18 -103 -25 -133q-4 -16 -5 -37t-1 -23q-4 -14 -4 -33q0 -10 5.5 -18.5t14.5 -9.5q21 -3 21 -33q0 -17 -6 -47t-7 -41q-3 -23 -9 -32t-19 -9q-12 0 -20.5 -10.5t-10.5 -24.5l-12 -84 q-3 -25 -12 -37t-31 -12q-4 0 -14 -1.5t-15 -0.5q-29 8 -52 3t-43.5 1t-31.5 31q-5 7 -2 27.5t2 25.5q-1 8 0 18t-0.5 22.5t-5.5 18.5q-9 13 -33 13l-52 -2q-52 -1 -52 2q-8 1 -24 0t-28 0.5t-22 7.5q-16 16 -16 53zM459 334q0 -15 20 -15q6 0 6 9q0 4 -3 8t-5 4 q-18 0 -18 -6zM604 381q-16 -29 -12 -38t24 -9q31 0 31 20q0 8 4 26t4 26q0 3 2 13t2 16.5t-4 6.5q-13 0 -22 -9t-18 -29t-11 -23zM815 856q0 -12 27 -12q6 0 7 2t1 10q0 14 -21 14q-14 0 -14 -14z" />
<glyph unicode="&#xbd;" horiz-adv-x="1040" d="M55 573q0 4 11 78q2 13 3.5 35t4 37t8.5 27q8 16 9 49.5t5 58.5q8 55 18.5 147t18.5 138q2 19 11.5 60.5t9.5 60.5q0 10 1.5 20t5 17.5t6.5 13.5t8 12l7.5 9t7 7t5.5 5q3 3 33.5 21.5t33.5 21.5q5 4 16.5 15t22.5 17.5t23 6.5q36 0 45 -27q3 -18 2.5 -25.5t-5.5 -25.5 t-6 -25q-3 -20 -6.5 -53.5t-5.5 -44.5q0 -15 -6.5 -38.5t-7.5 -27.5q-1 -5 -10 -65t-13 -94q-1 -12 -6.5 -43.5t-5.5 -47.5q0 -55 -27 -63q-11 -3 -18.5 -9.5t-7.5 -11.5t9.5 -5t18 -5.5t5.5 -25.5q-9 -59 -9 -115q0 -35 -20 -109q-6 -20 -27 -30.5t-47 -10.5q-7 0 -30.5 -1 t-34.5 -0.5t-26.5 4.5t-22.5 14.5t-7 27.5zM74 43q0 8 10.5 30t27.5 52t19 33q4 8 19 53q2 9 11.5 21t12.5 18q31 62 57 127q3 7 20 34.5t25 45.5q12 24 46 100t57 121q17 34 52.5 101.5t51.5 101.5q3 7 16.5 33t18.5 42q2 8 34 69t34 65q3 8 5.5 21t4.5 17q1 3 6.5 10.5 t19 33t33.5 67.5t27 53q13 19 25 51q0 1 3.5 8.5t5 11t5 11t6.5 12t7.5 11.5t8.5 10.5t9 7.5t10.5 6t11.5 2q21 0 21 -20q0 -18 -4 -25q-43 -96 -48 -104q-18 -28 -35 -60t-39.5 -81t-29.5 -64q-14 -27 -28 -58.5t-30.5 -68.5t-25.5 -57q-4 -7 -20 -39.5t-30 -61t-18 -39.5 q-9 -22 -40.5 -76.5t-40.5 -90.5q-4 -15 -10.5 -26.5t-17.5 -27.5t-18 -28q-2 -3 -15 -36.5t-15 -35.5q-5 -9 -16.5 -27.5t-16.5 -27.5q-19 -39 -48.5 -104t-57 -121.5t-62.5 -118.5q-11 -17 -31 -17q-24 0 -24 35zM109 616q0 -20 14 -20q7 0 8 9t-3.5 18.5t-10.5 9.5 q-8 0 -8 -17zM442 55q0 7 2 27t1.5 23.5t-1.5 25.5q-2 19 5.5 53.5t20.5 67t26 45.5q12 12 26 45q8 19 18.5 31t28.5 23.5t25 17.5q21 17 65.5 42.5t59.5 35.5q45 31 65.5 58.5t26.5 65.5q3 18 9.5 29.5t6.5 22.5q0 12 -6 21t-16 13.5t-23 4.5q-12 0 -20 -4t-14.5 -13.5 t-10.5 -25.5q-1 -6 -3.5 -14t-3.5 -14t-1 -15q0 -29 -10 -39q-3 -2 -7.5 -6.5t-7.5 -7t-7 -5.5t-7.5 -5t-8 -4t-9.5 -3q-18 -4 -35 -4t-36.5 2t-31.5 2q-15 0 -26 13.5t-11 29.5q0 22 3 31q2 6 4 18t5.5 32t6.5 36q17 87 31 104q3 4 11.5 13.5t12.5 14.5t11.5 12.5 t14.5 12.5t15 9q54 26 92 26q5 0 11 -0.5t11.5 -1t11 -0.5t11.5 0.5t11 1.5q27 6 57 6q44 0 119 -28q15 -4 28.5 -14.5t22 -25.5t8.5 -30q0 -8 -4 -27.5t-4 -27.5q0 -5 3 -6.5l6 -3t4.5 -10.5t-1.5 -29q-19 -153 -47 -197q-37 -55 -76 -94q-19 -18 -75 -46.5t-76 -50.5 q-9 -10 -47 -43q-35 -35 -33 -59q3 -31 41 -31q15 0 43 2t43 2q6 0 26.5 -2t40.5 -2q32 0 46 -14q21 -14 25 -35.5t-1 -50.5q-10 -88 -72 -88q-12 0 -44.5 -2.5t-49.5 -1.5q-60 6 -84 6q-5 0 -15.5 -1.5t-21 -1.5t-22.5 3q-10 2 -10.5 18.5t-8.5 16.5t-20.5 -18.5 t-20.5 -18.5q-21 0 -48 3t-42 3q-19 0 -32 15.5t-11 35.5z" />
<glyph unicode="&#xbe;" horiz-adv-x="1175" d="M45 700q1 5 2 20.5t6 24.5q6 10 37 41q6 6 12 8.5t9.5 3t12.5 0t13 -0.5q8 0 26.5 2t30 2t25 -4.5t21.5 -16.5q10 -15 10 -30q0 -5 1 -9t1.5 -7t3.5 -5t4.5 -3.5t6 -2.5t7 -1.5t8.5 -0.5h9.5h11.5h12q13 0 21.5 10t11.5 28.5t3.5 31t0.5 31.5v5q0 13 -5.5 24.5t-16 19.5 t-23.5 8q-8 0 -44.5 3t-43.5 3q-35 0 -35 61q0 4 5.5 22.5t5.5 35.5q0 25 24 49q1 1 7 6.5t13 9.5t15 4t24 1t29 1q4 0 22.5 -2t30 0t19.5 10q12 12 17.5 31t6 30t0.5 34q0 5 -2 15t-2 15q0 14 -14 22.5t-27 8.5q-38 0 -53 -47q-5 -18 -14 -24.5t-25 -10.5q-55 -11 -67 -6 q-4 2 -20 2.5t-21 3.5q-20 10 -25.5 21t-5.5 36q0 60 25 109q8 17 26 49q21 33 45 43q50 20 105 29q10 1 21.5 1.5t20.5 0t20 -1t18 -0.5q6 0 18.5 3t19.5 3q8 0 18 -1.5t19 -3t15 -1.5q28 0 61.5 -26.5t44.5 -55.5q4 -9 4.5 -17.5t-1 -22t-1.5 -22.5q0 -6 6 -23t6 -24 q0 -64 -24 -136t-57 -105q-18 -18 -20.5 -34t5 -26.5t16.5 -26.5t9 -32q0 -13 3 -40t3 -36q0 -141 -61 -225q-15 -21 -41 -35t-50 -14q-5 0 -15.5 -11t-20.5 -12q-97 -10 -138 -10q-21 0 -51 9t-43 11q-41 7 -67 52q-16 33 -14 44.5t10.5 21t7.5 14.5q-2 13 -15 19t-10 19z M96 662q0 -21 17 -21q8 0 8 8q0 6 -6 13.5t-11 7.5q-8 0 -8 -8zM283 43q0 8 10.5 30t27.5 52t19 33q1 2 18 53q2 9 12 21t13 18q31 62 57 127q3 7 20 34.5t25 45.5q12 23 29.5 62t36.5 81.5t37 77.5q16 34 52 101.5t52 101.5q3 7 16.5 33t18.5 42q2 8 34 69t34 65 q3 8 6 20.5t4 17.5q1 3 6.5 10.5t19 33t33.5 67.5t27 53q4 6 6.5 10t5 9.5t3.5 7.5t4 11t5 13q0 1 3.5 8.5t5 11t5.5 11.5t6.5 12.5t7 11t8.5 10t9.5 7.5t11 6t11.5 2q21 0 21 -20q0 -17 -5 -25q-45 -101 -47 -104q-14 -22 -29 -50t-25.5 -49.5t-25.5 -54.5t-24 -51 q-14 -27 -28 -58.5t-30.5 -68.5t-25.5 -57q-4 -7 -20 -39.5t-30 -61t-18 -39.5q-7 -17 -19 -37.5t-23.5 -41t-18.5 -37.5q-1 -3 -6.5 -15t-9.5 -22t-5 -14q-4 -15 -10 -26.5t-17 -27.5t-18 -28q-2 -3 -15 -36.5t-15 -35.5q-5 -9 -16.5 -27.5t-16.5 -27.5q-19 -39 -48.5 -104 t-57 -121.5t-62.5 -118.5q-11 -17 -31 -17q-24 0 -24 35zM584 221q0 22 0.5 31t4 21t11.5 28q3 7 11 13.5t16 11t15 9t9 7.5q5 10 0.5 18.5t-7 16.5t10.5 33q6 10 27.5 52t34.5 62q32 52 43 74q7 16 17.5 30t20 29t17.5 35q6 15 20 33t19 33q5 17 13.5 33t24 39.5t19.5 29.5 q22 35 45 35q11 0 32.5 8t35.5 8t28 -10t21 -10q5 0 14.5 1.5t15 1.5t11.5 -2.5t9 -10.5t3 -21q0 -76 -18 -149q-5 -22 -7.5 -64.5t-6.5 -60.5q-18 -103 -25 -133q-4 -16 -5 -37t-1 -23q-4 -14 -4 -33q0 -10 5.5 -18.5t14.5 -9.5q21 -3 21 -33q0 -17 -6 -47t-7 -41 q-2 -15 -5 -23.5t-8.5 -13t-14.5 -4.5q-12 0 -20.5 -10.5t-10.5 -24.5l-12 -84q-3 -25 -12 -37t-31 -12q-4 0 -14 -1.5t-15 -0.5q-20 4 -40 3.5t-35.5 -2t-29 6t-22.5 27.5q-5 7 -2 27.5t2 25.5v25q0 26 -6 34q-9 13 -33 13l-52 -1.5t-52 1.5q-8 1 -24 0t-28 0.5t-22 7.5 q-16 16 -16 53zM672 334q0 -7 6.5 -11t13.5 -4q6 0 6 9q0 4 -3 8t-5 4q-6 0 -12 -2t-6 -4zM817 381q-16 -29 -12 -38t24 -9q31 0 31 20q0 8 4 26t4 26q0 3 2 13t2 16.5t-4 6.5q-13 0 -22 -9t-18 -29t-11 -23zM1028 856q0 -3 1 -5t3 -3.5t4 -2t5 -1t5 -0.5h5.5h3.5 q3 0 4.5 0.5t2.5 2t1 3v6.5q0 7 -7 10.5t-14 3.5q-14 0 -14 -14z" />
<glyph unicode="&#xbf;" horiz-adv-x="698" d="M-68 -92q0 72 33 180q3 14 4 43t4 43q7 45 31 82q7 12 30.5 58t41.5 69q3 6 41 45t41 43q5 6 14 19t12 16q18 20 32 39t21.5 31.5t13.5 28.5t8 22.5t4.5 19.5t2.5 15t2 19.5t2 20.5q3 25 30.5 40.5t57.5 15.5q14 0 48.5 -3t52.5 -3q17 0 34 -17.5t17 -32.5t-2.5 -32 t-4.5 -28t-8.5 -32.5t-8.5 -28t-11 -32t-10 -27.5q-4 -12 -20 -39t-21 -39q-6 -16 -50 -60t-52 -67q-9 -25 -29.5 -53.5t-22.5 -32.5q-13 -20 -30 -86.5t-17 -93.5q0 -32 9.5 -43.5t39.5 -11.5q16 0 26.5 3.5t16.5 12.5t9 15.5t6.5 22t5.5 22.5q1 5 7.5 16.5t8.5 24.5 q2 11 0.5 37t3.5 38q5 19 7.5 26t10 17t20.5 15.5t36 9.5q18 5 63.5 1.5t63.5 -1.5q23 2 36 -15.5t9 -45.5q-5 -24 -0.5 -52.5t2.5 -46.5q-3 -28 -16 -123q-9 -51 -51 -137q-20 -38 -62.5 -61t-87.5 -23q-22 0 -77 -12t-91 -12q-95 0 -137 7.5t-105 43.5q-5 3 -9.5 10.5 t-7 14.5t-6.5 18t-5 14q-17 40 -17 72zM176 -115q0 -8 8 -8t19.5 9t11.5 16q0 12 -12 12q-7 0 -17 -12t-10 -17zM274 952q0 27 13.5 84t13.5 86q0 11 19.5 28t31.5 17q7 0 20 1t24 1t20 -2q47 -8 127 -8q16 0 35.5 -14.5t19.5 -28.5q0 -13 -5 -41.5t-5 -44.5 q0 -4 -8.5 -32.5t-8.5 -63.5q0 -40 -18 -69t-57 -29q-56 0 -106 3t-68 3t-29.5 11.5t-11.5 29.5q0 16 -3.5 36t-3.5 33z" />
<glyph unicode="&#xc0;" horiz-adv-x="776" d="M-51 41q0 16 3.5 35t9 38.5t10.5 33.5t11 30t7 19q2 6 5.5 41t10.5 59q18 55 19 68q5 38 30.5 118.5t30.5 98.5q1 3 21 68t24 104q1 16 12 50t13 48q2 21 19.5 58t17.5 48q0 16 3 31t11 39t10 31q26 75 29 110q2 22 22 78t23 68q14 56 30 77t50 21q7 0 16.5 5.5t41 11.5 t89.5 6q13 0 17.5 -10.5t7.5 -10.5t13.5 10.5t23.5 10.5q61 0 83.5 -12.5t28.5 -53.5q15 -98 15 -135q0 -14 -3.5 -44t-3.5 -46q0 -6 2 -19t2 -25.5t-4 -25.5q-4 -1 -1 -29.5t3 -31.5q0 -13 4.5 -83t-1.5 -83q-7 -45 -8 -86.5t1.5 -85t1.5 -68.5q0 -11 -4.5 -28.5 t-6.5 -27.5t3 -26q7 -16 8 -30t-1.5 -31t-2.5 -25q-2 -39 -2 -102q0 -34 -15 -51.5t-29.5 -22t-14.5 -8.5q0 -13 9.5 -17.5t21 -5.5t21 -17.5t9.5 -51.5q0 -10 -1 -26t-1 -19v-35q0 -24 -12 -51t-39 -27q-23 0 -63 -3t-56 -3q-72 0 -88 16q-35 30 -35 66q0 7 1 25t0.5 25 t-4 19.5t-11 17t-22 9t-35.5 4.5q-13 0 -31 -3t-23 -3q-20 0 -33.5 -23t-13.5 -47q0 -53 -37.5 -79.5t-91.5 -26.5q-8 0 -23 5t-22 5q-4 0 -27 -3t-34 -3q-15 0 -30 10.5t-15 26.5zM324 506q0 -41 16 -51h20q21 0 33.5 12.5t16.5 28t6 41.5q10 108 10 120q2 33 5.5 60 t5.5 43q3 19 3 25t-6 6q-9 0 -19.5 -18.5t-13.5 -18.5q-18 0 -29.5 -26t-11.5 -46q0 -25 -18 -81.5t-18 -94.5zM356 1702q0 27 23 27q18 0 35 4t22 4q55 0 96 -21q11 -7 19.5 -17t14 -27.5t8.5 -27.5t7 -34t5 -31q2 -9 9 -26t9 -23q3 -16 -3 -27.5t-19 -11.5q-10 0 -27 -4 t-25 -4q-44 0 -65 26q-23 23 -37 58q-4 9 -10 18.5t-14.5 21.5t-12.5 17q-3 6 -11.5 18.5t-12.5 19.5t-7.5 18t-3.5 22zM412 866q-4 -6 -4.5 -10t4 -4.5t16.5 4.5q3 1 7 2t5.5 2t1.5 6q0 11 -14 11q-8 0 -16 -11zM535 252q0 -12 16 -12q5 0 17 4.5t12 7.5q0 5 -12 8.5 t-27 3.5q-6 0 -6 -12z" />
<glyph unicode="&#xc1;" horiz-adv-x="776" d="M-51 41q0 16 3.5 35t9 38.5t10.5 33.5t11 30t7 19q2 6 5.5 41t10.5 59q18 55 19 68q5 38 30.5 118.5t30.5 98.5q1 3 21 68t24 104q1 16 12 50t13 48q2 21 19.5 58t17.5 48q0 16 3 31t11 39t10 31q26 75 29 110q2 22 22 78t23 68q14 56 30 77t50 21q7 0 16.5 5.5t41 11.5 t89.5 6q13 0 17.5 -10.5t7.5 -10.5t13.5 10.5t23.5 10.5q61 0 83.5 -12.5t28.5 -53.5q15 -98 15 -135q0 -14 -3.5 -44t-3.5 -46q0 -6 2 -19t2 -25.5t-4 -25.5q-4 -1 -1 -29.5t3 -31.5q0 -13 4.5 -83t-1.5 -83q-7 -45 -8 -86.5t1.5 -85t1.5 -68.5q0 -11 -4.5 -28.5 t-6.5 -27.5t3 -26q7 -16 8 -30t-1.5 -31t-2.5 -25q-2 -39 -2 -102q0 -34 -15 -51.5t-29.5 -22t-14.5 -8.5q0 -13 9.5 -17.5t21 -5.5t21 -17.5t9.5 -51.5q0 -10 -1 -26t-1 -19v-35q0 -24 -12 -51t-39 -27q-23 0 -63 -3t-56 -3q-72 0 -88 16q-35 30 -35 66q0 7 1 25t0.5 25 t-4 19.5t-11 17t-22 9t-35.5 4.5q-13 0 -31 -3t-23 -3q-20 0 -33.5 -23t-13.5 -47q0 -53 -37.5 -79.5t-91.5 -26.5q-8 0 -23 5t-22 5q-4 0 -27 -3t-34 -3q-15 0 -30 10.5t-15 26.5zM324 506q0 -41 16 -51h20q21 0 33.5 12.5t16.5 28t6 41.5q10 108 10 120q2 33 5.5 60 t5.5 43q3 19 3 25t-6 6q-9 0 -19.5 -18.5t-13.5 -18.5q-18 0 -29.5 -26t-11.5 -46q0 -25 -18 -81.5t-18 -94.5zM412 866q-4 -6 -4.5 -10t4 -4.5t16.5 4.5q3 1 7 2t5.5 2t1.5 6q0 11 -14 11q-8 0 -16 -11zM453 1491q-46 0 28 120l15 23q6 11 16 35.5t20 38t29 21.5 q12 5 24.5 6.5t37 0.5t32.5 -1q12 0 28 -3t26 -3q22 0 22 -17q0 -16 -11 -31.5t-30 -33.5t-24 -25q-3 -3 -16.5 -24t-18.5 -27q-18 -22 -66 -70q-14 -14 -53 -18q-14 -1 -33.5 3.5t-25.5 4.5zM535 252q0 -5 5.5 -8.5t10.5 -3.5t17 4.5t12 7.5q0 5 -12 8.5t-27 3.5 q-6 0 -6 -12z" />
<glyph unicode="&#xc2;" horiz-adv-x="776" d="M-51 41q0 16 3.5 35t9 38.5t10.5 33.5t11 30t7 19q2 6 5.5 41t10.5 59q18 55 19 68q5 38 30.5 118.5t30.5 98.5q1 3 21 68t24 104q1 16 12 50t13 48q2 21 19.5 58t17.5 48q0 16 3 31t11 39t10 31q26 75 29 110q2 22 22 78t23 68q14 56 30 77t50 21q7 0 16.5 5.5t41 11.5 t89.5 6q13 0 17.5 -10.5t7.5 -10.5t13.5 10.5t23.5 10.5q61 0 83.5 -12.5t28.5 -53.5q15 -98 15 -135q0 -14 -3.5 -44t-3.5 -46q0 -6 2 -19t2 -25.5t-4 -25.5q-4 -1 -1 -29.5t3 -31.5q0 -13 4.5 -83t-1.5 -83q-7 -45 -8 -86.5t1.5 -85t1.5 -68.5q0 -11 -4.5 -28.5 t-6.5 -27.5t3 -26q7 -16 8 -30t-1.5 -31t-2.5 -25q-2 -39 -2 -102q0 -34 -15 -51.5t-29.5 -22t-14.5 -8.5q0 -13 9.5 -17.5t21 -5.5t21 -17.5t9.5 -51.5q0 -10 -1 -26t-1 -19v-35q0 -24 -12 -51t-39 -27q-23 0 -63 -3t-56 -3q-72 0 -88 16q-35 30 -35 66q0 7 1 25t0.5 25 t-4 19.5t-11 17t-22 9t-35.5 4.5q-13 0 -31 -3t-23 -3q-20 0 -33.5 -23t-13.5 -47q0 -53 -37.5 -79.5t-91.5 -26.5q-8 0 -23 5t-22 5q-4 0 -27 -3t-34 -3q-15 0 -30 10.5t-15 26.5zM322 1526q0 16 10 30q3 4 10 17.5t14.5 27t10.5 17.5q23 29 46.5 55t28.5 33q4 6 9 10.5 t9.5 7.5t13 5.5t13 3.5t15.5 1.5t15 0.5h17.5h16.5q36 0 57 -9q11 -5 21 -12.5t19 -19t15.5 -20.5t14.5 -25l11.5 -23t11 -24.5t9 -20.5t8.5 -15.5t10 -20.5t3 -15q0 -12 -6.5 -19.5t-15.5 -7.5q-7 0 -31 -6t-27 -6q-21 0 -38 8.5t-26.5 19t-23.5 29.5q-1 1 -3.5 4.5 t-3.5 4.5l-4 4t-4.5 4t-5 3t-6 3t-6.5 1.5t-8 0.5q-15 0 -27.5 -22t-25.5 -33l-10 -7.5t-8.5 -6.5t-7 -5t-7.5 -4t-7.5 -2t-10 -1.5t-12.5 -0.5q-20 0 -36.5 5t-23.5 5q-9 0 -16.5 7.5t-7.5 17.5zM324 506q0 -41 16 -51h20q30 0 41 21t15 61q10 108 10 120q2 23 4 45.5 t3.5 33l3.5 24.5q5 31 -3 31q-9 0 -19.5 -18.5t-13.5 -18.5q-18 0 -29.5 -26t-11.5 -46q0 -25 -18 -81.5t-18 -94.5zM412 866q-4 -6 -4.5 -10t4 -4.5t16.5 4.5q3 1 7 2t5.5 2t1.5 6q0 11 -14 11q-8 0 -16 -11zM535 252q0 -5 5.5 -8.5t10.5 -3.5q3 0 10 2t13 5t6 5 q0 5 -12 8.5t-27 3.5q-6 0 -6 -12z" />
<glyph unicode="&#xc3;" horiz-adv-x="776" d="M-51 41q0 16 3.5 35t9 38.5t10.5 33.5t11 30t7 19q2 6 5.5 41t10.5 59q18 55 19 68q5 38 30.5 118.5t30.5 98.5q1 3 21 68t24 104q1 16 12 50t13 48q2 21 19.5 58t17.5 48q0 16 3 31t11 39t10 31q26 75 29 110q2 22 22 78t23 68q14 56 30 77t50 21q7 0 16.5 5.5t41 11.5 t89.5 6q13 0 17.5 -10.5t7.5 -10.5t13.5 10.5t23.5 10.5q61 0 83.5 -12.5t28.5 -53.5q15 -98 15 -135q0 -14 -3.5 -44t-3.5 -46q0 -6 2 -19t2 -25.5t-4 -25.5q-4 -1 -1 -29.5t3 -31.5q0 -13 4.5 -83t-1.5 -83q-7 -45 -8 -86.5t1.5 -85t1.5 -68.5q0 -11 -4.5 -28.5 t-6.5 -27.5t3 -26q7 -16 8 -30t-1.5 -31t-2.5 -25q-2 -39 -2 -102q0 -34 -15 -51.5t-29.5 -22t-14.5 -8.5q0 -13 9.5 -17.5t21 -5.5t21 -17.5t9.5 -51.5q0 -10 -1 -26t-1 -19v-35q0 -24 -12 -51t-39 -27q-23 0 -63 -3t-56 -3q-72 0 -88 16q-35 30 -35 66q0 7 1 25t0.5 25 t-4 19.5t-11 17t-22 9t-35.5 4.5q-13 0 -31 -3t-23 -3q-20 0 -33.5 -23t-13.5 -47q0 -53 -37.5 -79.5t-91.5 -26.5q-8 0 -23 5t-22 5q-4 0 -27 -3t-34 -3q-15 0 -30 10.5t-15 26.5zM287 1540q0 18 15 44t17 32q30 88 140 88q9 0 23 -4t22 -4q14 0 33.5 -11t27.5 -14 q31 -14 49 -14q20 0 53 25.5t56 25.5q15 0 33 -16.5t18 -28.5q0 -8 -5 -24t-5 -17q-8 -50 -48.5 -84.5t-94.5 -34.5q-27 0 -62 6q-18 3 -49 20t-53 17q-21 0 -57 -21.5t-56 -21.5t-38.5 12t-18.5 25zM324 506q0 -41 16 -51h20q21 0 33.5 12.5t16.5 28t6 41.5q10 108 10 120 q2 33 5.5 60t5.5 43q3 19 3 25t-6 6q-9 0 -19.5 -18.5t-13.5 -18.5q-18 0 -29.5 -26t-11.5 -46q0 -25 -18 -81.5t-18 -94.5zM412 866q-4 -6 -4.5 -10t4 -4.5t16.5 4.5q3 1 7 2t5.5 2t1.5 6q0 11 -14 11q-8 0 -16 -11zM535 252q0 -12 16 -12q5 0 17 4.5t12 7.5q0 5 -12 8.5 t-27 3.5q-6 0 -6 -12z" />
<glyph unicode="&#xc4;" horiz-adv-x="776" d="M-51 41q0 16 3.5 35t9 38.5t10.5 33.5t11 30t7 19q2 6 5.5 41t10.5 59q18 55 19 68q5 38 30.5 118.5t30.5 98.5q1 3 21 68t24 104q1 16 12 50t13 48q2 21 19.5 58t17.5 48q0 16 3 31t11 39t10 31q26 75 29 110q2 22 22 78t23 68q14 56 30 77t50 21q7 0 16.5 5.5t41 11.5 t89.5 6q13 0 17.5 -10.5t7.5 -10.5t13.5 10.5t23.5 10.5q61 0 83.5 -12.5t28.5 -53.5q15 -98 15 -135q0 -14 -3.5 -44t-3.5 -46q0 -6 2 -19t2 -25.5t-4 -25.5q-4 -1 -1 -29.5t3 -31.5q0 -13 4.5 -83t-1.5 -83q-7 -45 -8 -86.5t1.5 -85t1.5 -68.5q0 -11 -4.5 -28.5 t-6.5 -27.5t3 -26q7 -16 8 -30t-1.5 -31t-2.5 -25q-2 -39 -2 -102q0 -34 -15 -51.5t-29.5 -22t-14.5 -8.5q0 -13 9.5 -17.5t21 -5.5t21 -17.5t9.5 -51.5q0 -10 -1 -26t-1 -19v-35q0 -24 -12 -51t-39 -27q-23 0 -63 -3t-56 -3q-72 0 -88 16q-35 30 -35 66q0 7 1 25t0.5 25 t-4 19.5t-11 17t-22 9t-35.5 4.5q-13 0 -31 -3t-23 -3q-20 0 -33.5 -23t-13.5 -47q0 -53 -37.5 -79.5t-91.5 -26.5q-8 0 -23 5t-22 5q-4 0 -27 -3t-34 -3q-15 0 -30 10.5t-15 26.5zM266 1534q0 16 5 44.5t5 47.5q0 26 14.5 54t39.5 28q10 0 37.5 5.5t42.5 0.5q3 -3 18 -0.5 t18 2.5q20 0 39 -10t19 -29q0 -7 -2 -19t-2 -18q0 -14 -4 -38q-1 -5 -11.5 -15t-11.5 -14q-1 -5 7 -12t3 -27q-5 -19 -22.5 -31.5t-36.5 -9.5q-29 -2 -86 -2q-13 0 -30.5 5t-20.5 5q-21 0 -21 33zM324 506q0 -41 16 -51h20q21 0 33.5 12.5t16.5 28t6 41.5q10 108 10 120 q2 33 5.5 60t5.5 43q3 19 3 25t-6 6q-9 0 -19.5 -18.5t-13.5 -18.5q-18 0 -29.5 -26t-11.5 -46q0 -25 -18 -81.5t-18 -94.5zM412 866q-4 -6 -4.5 -10t4 -4.5t16.5 4.5q3 1 7 2t5.5 2t1.5 6q0 11 -14 11q-8 0 -16 -11zM535 252q0 -12 16 -12q5 0 17 4.5t12 7.5q0 5 -12 8.5 t-27 3.5q-6 0 -6 -12zM555 1540q0 12 6 17t12.5 5.5t12.5 5.5t6 17q0 7 -13.5 9t-17.5 8q-5 9 8 51q2 10 10 22.5t13 24.5q9 18 39 18q24 0 62.5 -4t54.5 -4q18 0 28 -9t10 -20q1 -8 1 -16t-1 -14v-6q0 -2 2.5 -11t2.5 -16l-5 -25q0 -3 -2 -27t-2 -26q0 -13 -12.5 -25 t-24.5 -12t-35 -3.5t-32 -2.5t-38.5 -1.5t-47.5 1.5q-13 2 -25 15.5t-12 27.5z" />
<glyph unicode="&#xc5;" horiz-adv-x="776" d="M-51 41q0 16 3.5 35t9 38.5t10.5 33.5t11 30t7 19q2 6 5.5 41t10.5 59q18 55 19 68q5 38 30.5 118.5t30.5 98.5q1 3 21 68t24 104q1 16 12 50t13 48q2 21 19.5 58t17.5 48q0 16 3 31t11 39t10 31q26 75 29 110q2 22 22 78t23 68q14 56 30 77t50 21q7 0 16.5 5.5t41 11.5 t89.5 6q13 0 17.5 -10.5t7.5 -10.5t13.5 10.5t23.5 10.5q61 0 83.5 -12.5t28.5 -53.5q15 -98 15 -135q0 -14 -3.5 -44t-3.5 -46q0 -6 2 -19t2 -25.5t-4 -25.5q-4 -1 -1 -29.5t3 -31.5q0 -13 4.5 -83t-1.5 -83q-7 -45 -8 -86.5t1.5 -85t1.5 -68.5q0 -11 -4.5 -28.5 t-6.5 -27.5t3 -26q7 -16 8 -30t-1.5 -31t-2.5 -25q-2 -39 -2 -102q0 -34 -15 -51.5t-29.5 -22t-14.5 -8.5q0 -13 9.5 -17.5t21 -5.5t21 -17.5t9.5 -51.5q0 -10 -1 -26t-1 -19v-35q0 -24 -12 -51t-39 -27q-23 0 -63 -3t-56 -3q-72 0 -88 16q-35 30 -35 66q0 7 1 25t0.5 25 t-4 19.5t-11 17t-22 9t-35.5 4.5q-13 0 -31 -3t-23 -3q-20 0 -33.5 -23t-13.5 -47q0 -53 -37.5 -79.5t-91.5 -26.5q-8 0 -23 5t-22 5q-4 0 -27 -3t-34 -3q-15 0 -30 10.5t-15 26.5zM324 506q0 -41 16 -51h20q21 0 33.5 12.5t16.5 28t6 41.5q10 108 10 120q2 33 5.5 60 t5.5 43q3 19 3 25t-6 6q-9 0 -19.5 -18.5t-13.5 -18.5q-18 0 -29.5 -26t-11.5 -46q0 -25 -18 -81.5t-18 -94.5zM377 1616q0 33 19.5 69t41.5 52q11 8 19.5 12t18 6t13.5 4q8 3 21.5 8.5t24 9t22.5 3.5q53 0 111 -62q6 -6 10 -16t7 -24t5 -19q4 -17 -7.5 -48t-29.5 -55 q-15 -23 -60 -45t-73 -22q-24 0 -40 6t-30 16t-20 13q-24 10 -38.5 36.5t-14.5 55.5zM412 866q-4 -6 -4.5 -10t4 -4.5t16.5 4.5q3 1 7 2t5.5 2t1.5 6q0 11 -14 11q-8 0 -16 -11zM481 1634q0 -27 11.5 -41t37.5 -4q5 2 13.5 5t12.5 5t9.5 5.5t7.5 9.5t2 14q0 18 -12 33.5 t-33 15.5q-49 0 -49 -43zM535 252q0 -12 16 -12q5 0 17 4.5t12 7.5q0 5 -12 8.5t-27 3.5q-6 0 -6 -12z" />
<glyph unicode="&#xc6;" horiz-adv-x="1034" d="M-68 45q0 16 5 34t9.5 28.5t16 34t14.5 30.5q17 35 33 88q6 20 14.5 32t17.5 16t17 5t14.5 2.5t8.5 6.5q3 8 -2.5 12t-14 6t-12.5 12t2 31q13 43 35.5 89.5t32.5 82.5q1 4 17.5 46.5t17.5 51.5q3 22 17.5 54t29.5 55q21 30 38.5 96t30.5 92q9 18 21.5 59.5t21.5 59.5 q19 37 41.5 111.5t38.5 109.5q6 12 16.5 36t17 37t18.5 29.5t26 28.5q24 24 90 13q40 -4 54 -3.5t54 3t77 2.5q88 0 133 -4q69 -8 104 0q12 3 98 -7q38 -6 29 -63q-4 -40 -4 -57q0 -24 -4 -47.5t-12.5 -47.5t-25.5 -38.5t-40 -14.5q-6 0 -23.5 -2t-34.5 -3.5t-37 -2t-32 1.5 q-22 4 -41 -4q-37 -14 -37 -78q0 -14 -7 -45t-7 -47q0 -7 -2 -19t-2 -22.5t4 -20.5q0 -7 8 -14t17.5 -10.5t15.5 -3.5q15 -1 34 -1h38t34 -1q8 0 14.5 -4t12.5 -17t0 -37q-2 -11 0 -33.5t0 -39.5q-2 -20 -8 -44t-14 -43.5t-15 -31.5q-4 -7 -18 -14t-23 -7q-7 0 -48 -3 t-48 -3q-21 0 -37.5 -11t-19.5 -30q-2 -11 -8 -47.5t-8.5 -56.5t-5.5 -56.5t-3 -72.5q0 -53 57 -53q15 0 41.5 1t47 1t38.5 -2q15 -2 28 -12.5t13 -22.5v-33q-1 -7 -19 -14.5t-20 -14.5q-1 -5 4.5 -7t13 -2.5t12.5 -3.5t3 -9q-1 -4 0.5 -34.5t-4.5 -55.5q-5 -19 -16.5 -35 t-28.5 -26.5t-37 -10.5q-32 0 -89 2t-88.5 2.5t-88.5 -2.5q-30 -2 -82 1.5t-78 2.5q-20 0 -37.5 15t-17.5 30q0 25 6 66q4 25 -4 43t-29 18q-80 0 -96 -16q-18 -11 -27 -35q-2 -3 -11 -31t-13 -37q-28 -61 -78 -61h-78q-24 0 -46 3t-44 3q-27 0 -27 41zM346 485q0 -8 3 -13 t6 -7.5t11 -4t12 -1.5h15q31 0 42.5 17t13.5 61q0 7 6 54t6 58q0 40 -13.5 40.5t-27.5 -34.5q-8 -18 -17 -36t-13.5 -26.5t-7.5 -17.5t-3 -16q0 -15 -16.5 -38.5t-16.5 -35.5zM440 1221q20 0 31 12q5 5 0 8q-4 4 -3 9t1 9.5t-4 4.5q-8 0 -16.5 -7t-8.5 -14q0 -3 -0.5 -6.5 t-1 -6t-1 -4.5t0 -3.5t2.5 -1.5zM547 465q0 -14 22 -14q2 0 2 8q0 16 -12 16q-4 0 -8 -3.5t-4 -6.5zM608 727q0 -6 2 -13t6.5 -12.5t10.5 -5.5q12 0 12 11q0 5 -7.5 17.5t-10.5 12.5q-13 0 -13 -10z" />
<glyph unicode="&#xc7;" horiz-adv-x="780" d="M0 289q1 6 4.5 36t5.5 41t5.5 33.5t7 37.5t8.5 28q2 6 4 15l3 13.5t4 11t7 8t11.5 3.5t17.5 -2q25 -5 31 1.5t-17 21.5q-6 4 -13.5 8t-11 6t-7.5 6t-5.5 10.5t-2.5 17t-1 27.5q0 16 1 33.5t2 30.5t3.5 35.5t4 32t6 37t5.5 34t6.5 39.5t6.5 37q1 8 4 21t4.5 21.5t3.5 20.5 t3 21.5t2 21t1 21.5q0 12 4 31.5t8 43t5 44.5q2 31 26 106q7 22 18.5 48t28.5 51.5t33 37.5q3 3 16 9.5t29 13.5t17 8q48 27 86 27q2 0 69 2t88 2q29 0 50.5 -1t53 -5t55 -11t48 -21t41.5 -34q9 -11 12.5 -29.5t4.5 -21.5q0 -1 12 -13t12 -22q0 -97 -10 -154 q-3 -16 -4.5 -46t-5.5 -54q0 -3 -1.5 -8.5t-2.5 -11.5t-2 -15t-1.5 -23t-0.5 -32q0 -15 -19 -33t-33 -18q-2 0 -33 -7.5t-67 -7.5q-5 1 -12 2t-26 3.5t-25 -0.5q-9 -2 -28.5 1t-21.5 3q-6 0 -13 11t-7 26q0 27 8.5 74.5t11.5 76.5q4 40 -6 63t-45 23q-21 0 -31 -6l-3 -3 q-31 -27 -37 -52q-3 -11 -2 -38.5t-3 -33.5q-9 -18 -10.5 -34.5t-3.5 -51.5t-10 -78q-2 -15 -33 -229q-1 -9 -5.5 -19t-8.5 -18t-7.5 -18t-3.5 -19q0 -8 2.5 -29t2.5 -36q0 -22 -7.5 -79t-7.5 -73q0 -20 4 -32.5t14 -20.5t27 -8q16 0 26.5 4t16.5 13t9 17.5t7.5 23t8.5 23.5 q15 37 24 111q1 9 3.5 29t4 30.5t5.5 26.5t10 25t15 18.5t23 13.5t32 4q17 0 58 3.5t69 3.5q17 0 41 -13.5t24 -27.5q0 -20 -2.5 -45.5t-5.5 -53t-4 -49.5q0 -14 -5.5 -59.5t-8.5 -61.5q-14 -78 -56 -163q-3 -7 -8 -13t-9 -11.5t-7 -14.5q0 -5 -5.5 -18.5t-11.5 -22.5 q-4 -8 -16.5 -15t-28 -13t-20.5 -9q-53 -35 -121 -35h-45q-17 0 -28 -12t-10 -25.5t15 -17.5q4 -1 13.5 -5.5t13.5 -5.5q16 -4 27.5 -7t27 -10t24.5 -15t16 -20.5t7 -28.5q0 -33 -15.5 -57t-44 -37t-67.5 -15q-11 -1 -26 -7t-21 -7h-41q-14 0 -25.5 1.5t-21.5 3t-20 1.5 q-8 0 -23 2t-16 2q-26 5 -43.5 16.5t-24 31.5t9.5 46q1 2 3 7.5t4 8t6 6.5t11 5.5t17 1.5q8 0 22.5 -3t22.5 -3q11 0 27.5 -11.5t24.5 -13.5q21 -8 37 -8q7 0 16.5 6t9.5 14q0 25 -18 35q-47 31 -47 66q0 24 -10 34.5t-46 16.5q-29 4 -92 29q-19 8 -31 17.5t-17 16t-14 22 t-16 25.5q-8 11 -13 23.5t-7 27t-3.5 24.5t0 28.5t2 25.5t3.5 28t4 26zM135 508q0 -7 12 -15t23 -8q10 0 17.5 4t7.5 11q0 3 -4 5.5t-9.5 3.5t-11.5 1q-4 0 -14.5 1t-15.5 0.5t-5 -3.5zM741 1303q0 -5 6.5 -10t14.5 -5q4 0 11 7t7 12q0 3 -2 5t-4.5 2t-6.5 -0.5t-5 -0.5 q-8 0 -11.5 -0.5t-6.5 -2.5t-3 -7z" />
<glyph unicode="&#xc8;" horiz-adv-x="626" d="M-10 53q0 31 2.5 55.5t7.5 55t6 41.5l12 84q6 23 10 48t5.5 38.5t3 42.5t2.5 39q3 35 8.5 72.5t14 84t12.5 72.5q3 19 10.5 79t15.5 93q3 12 2.5 37.5t8.5 34.5q2 3 16 147q11 94 35 228q2 11 3.5 29t3.5 26t9 21t21 26q20 16 43 16q7 0 44.5 2.5t67.5 2.5t78 -3 q44 -3 67 -2.5t52.5 2.5t40.5 2q70 0 82 -4q12 -3 26.5 -19t14.5 -28q0 -25 -9.5 -72.5t-11.5 -64.5q-1 -5 -1.5 -21t-2.5 -24t-18 -23.5t-23 -15.5q-12 0 -47.5 -4.5t-54.5 -1.5q-22 2 -31.5 1.5t-27 -3.5t-27.5 -4q-10 0 -22.5 -15.5t-12.5 -25.5q0 -14 -7.5 -47.5 t-8.5 -46.5q-2 -22 -5.5 -46.5t-3.5 -41.5q0 -11 9.5 -26t19.5 -15q89 0 127 -11q9 -2 18 -14t9 -31q0 -20 -7 -52.5t-8 -49.5q0 -2 -3 -24.5t-3 -24.5q-6 -23 -33 -31q-5 -2 -16.5 -13.5t-17.5 -11.5q-15 1 -47 -0.5t-48 -1.5q-24 0 -35 -14t-22 -51q-20 -66 -20 -100 q0 -6 3.5 -18.5t2.5 -22.5q0 -3 -5.5 -21t-5.5 -20q-4 -29 -0.5 -39t25.5 -33q2 -4 49 -4q19 0 57 -3t48 -3q13 0 32 -20t19 -32q0 -18 -6 -49t-6 -45q0 -7 1 -19.5t1 -22.5t-2 -19q-10 -45 -70 -74q-9 -4 -35.5 -5.5t-52.5 -1t-55.5 1.5t-34.5 1q-13 0 -37 -2t-43.5 -2 t-36.5 4t-37 4t-44.5 -2t-37.5 -2q-21 0 -42 14t-21 39zM225 791q0 -6 9.5 -11.5t17.5 -5.5t8 6q0 21 -16 21q-19 0 -19 -10zM279 150q0 -13 4 -13q11 0 25 7t14 16q0 4 -8 10t-13 6q-6 0 -14 -8.5t-8 -17.5zM297 1702q0 27 22 27q18 0 35.5 4t22.5 4q55 0 96 -21 q12 -7 20 -17.5t13.5 -27t8 -28t6 -33.5t5.5 -31t9.5 -26t9.5 -23q3 -15 -3.5 -27t-19.5 -12q-10 0 -27 -4t-24 -4q-44 0 -65 26q-23 23 -37 58q-4 9 -10 18.5t-14.5 21.5t-12.5 17q-3 6 -11.5 18.5t-12.5 19.5t-7.5 18t-3.5 22z" />
<glyph unicode="&#xc9;" horiz-adv-x="626" d="M-10 53q0 31 2.5 55.5t7.5 55t6 41.5l12 84q6 23 10 48t5.5 38.5t3 42.5t2.5 39q3 35 8.5 72.5t14 84t12.5 72.5q3 19 10.5 79t15.5 93q3 12 2.5 37.5t8.5 34.5q2 3 16 147q11 94 35 228q2 11 3.5 29t3.5 26t9 21t21 26q20 16 43 16q7 0 44.5 2.5t67.5 2.5t78 -3 q44 -3 67 -2.5t52.5 2.5t40.5 2q70 0 82 -4q12 -3 26.5 -19t14.5 -28q0 -25 -9.5 -72.5t-11.5 -64.5q-1 -5 -1.5 -21t-2.5 -24t-18 -23.5t-23 -15.5q-12 0 -47.5 -4.5t-54.5 -1.5q-22 2 -31.5 1.5t-27 -3.5t-27.5 -4q-10 0 -22.5 -15.5t-12.5 -25.5q0 -14 -7.5 -47.5 t-8.5 -46.5q-2 -22 -5.5 -46.5t-3.5 -41.5q0 -11 9.5 -26t19.5 -15q89 0 127 -11q9 -2 18 -14t9 -31q0 -20 -7 -52.5t-8 -49.5q0 -2 -3 -24.5t-3 -24.5q-6 -23 -33 -31q-5 -2 -16.5 -13.5t-17.5 -11.5q-15 1 -47 -0.5t-48 -1.5q-24 0 -35 -14t-22 -51q-20 -66 -20 -100 q0 -6 3.5 -18.5t2.5 -22.5q0 -3 -5.5 -21t-5.5 -20q-4 -29 -0.5 -39t25.5 -33q2 -4 49 -4q19 0 57 -3t48 -3q13 0 32 -20t19 -32q0 -18 -6 -49t-6 -45q0 -7 1 -19.5t1 -22.5t-2 -19q-10 -45 -70 -74q-9 -4 -35.5 -5.5t-52.5 -1t-55.5 1.5t-34.5 1q-13 0 -37 -2t-43.5 -2 t-36.5 4t-37 4t-44.5 -2t-37.5 -2q-21 0 -42 14t-21 39zM225 791q0 -6 9.5 -11.5t17.5 -5.5t8 6q0 21 -16 21q-19 0 -19 -10zM279 150q0 -13 4 -13q11 0 25 7t14 16q0 4 -8 10t-13 6q-6 0 -14 -8.5t-8 -17.5zM393 1491q-45 0 29 121l14 22q6 10 16 35t20.5 38.5t29.5 21.5 q12 5 24.5 6.5t37 0.5t32.5 -1q12 0 27.5 -3t25.5 -3q23 0 23 -17q0 -16 -11 -31.5t-30.5 -33.5t-24.5 -25q-3 -3 -16.5 -24t-18.5 -27q-23 -28 -65 -70q-14 -14 -53 -18q-14 -1 -34 3.5t-26 4.5z" />
<glyph unicode="&#xca;" horiz-adv-x="626" d="M-10 53q0 31 2.5 55.5t7.5 55t6 41.5l12 84q6 23 10 48t5.5 38.5t3 42.5t2.5 39q3 35 8.5 72.5t14 84t12.5 72.5q3 19 10.5 79t15.5 93q3 12 2.5 37.5t8.5 34.5q2 3 16 147q11 94 35 228q2 11 3.5 29t3.5 26t9 21t21 26q20 16 43 16q7 0 44.5 2.5t67.5 2.5t78 -3 q44 -3 67 -2.5t52.5 2.5t40.5 2q70 0 82 -4q12 -3 26.5 -19t14.5 -28q0 -25 -9.5 -72.5t-11.5 -64.5q-1 -5 -1.5 -21t-2.5 -24t-18 -23.5t-23 -15.5q-12 0 -47.5 -4.5t-54.5 -1.5q-22 2 -31.5 1.5t-27 -3.5t-27.5 -4q-10 0 -22.5 -15.5t-12.5 -25.5q0 -14 -7.5 -47.5 t-8.5 -46.5q-2 -22 -5.5 -46.5t-3.5 -41.5q0 -11 9.5 -26t19.5 -15q89 0 127 -11q9 -2 18 -14t9 -31q0 -20 -7 -52.5t-8 -49.5q0 -2 -3 -24.5t-3 -24.5q-6 -23 -33 -31q-5 -2 -16.5 -13.5t-17.5 -11.5q-15 1 -47 -0.5t-48 -1.5q-24 0 -35 -14t-22 -51q-20 -66 -20 -100 q0 -6 3.5 -18.5t2.5 -22.5q0 -3 -5.5 -21t-5.5 -20q-4 -29 -0.5 -39t25.5 -33q2 -4 49 -4q19 0 57 -3t48 -3q13 0 32 -20t19 -32q0 -18 -6 -49t-6 -45q0 -7 1 -19.5t1 -22.5t-2 -19q-10 -45 -70 -74q-9 -4 -35.5 -5.5t-52.5 -1t-55.5 1.5t-34.5 1q-13 0 -37 -2t-43.5 -2 t-36.5 4t-37 4t-44.5 -2t-37.5 -2q-21 0 -42 14t-21 39zM225 791q0 -6 9.5 -11.5t17.5 -5.5t8 6q0 21 -16 21q-19 0 -19 -10zM260 1526q0 16 10 30q3 4 10 17.5t14.5 27t10.5 17.5q23 29 47 55t29 33q4 6 9 10.5t9.5 7.5t13 5.5t13 3.5t15.5 1.5t14.5 0.5h17h16.5 q37 0 58 -9q13 -6 25 -16.5t20 -20.5t18 -28t14 -26.5t13 -29.5t10 -24q2 -4 9 -15.5t10.5 -20t3.5 -15.5q0 -12 -7 -19.5t-16 -7.5q-7 0 -30.5 -6t-26.5 -6q-31 0 -49.5 14t-38.5 43q-1 1 -3.5 4.5t-3.5 4.5l-4 4t-4.5 4t-5 3t-6 3t-6.5 1.5t-8 0.5q-15 0 -27.5 -22 t-25.5 -33q-3 -2 -11.5 -8.5t-10 -7.5t-7.5 -4.5t-10 -4t-10.5 -1.5t-14.5 -1q-20 0 -36 5t-23 5q-9 0 -17 7.5t-8 17.5zM279 150q0 -13 4 -13q11 0 25 7t14 16q0 3 -4 7t-9 6.5t-8 2.5q-6 0 -14 -8.5t-8 -17.5z" />
<glyph unicode="&#xcb;" horiz-adv-x="626" d="M-10 53q0 31 2.5 55.5t7.5 55t6 41.5l12 84q6 23 10 48t5.5 38.5t3 42.5t2.5 39q3 35 8.5 72.5t14 84t12.5 72.5q3 19 10.5 79t15.5 93q3 12 2.5 37.5t8.5 34.5q2 3 16 147q11 94 35 228q2 11 3.5 29t3.5 26t9 21t21 26q20 16 43 16q7 0 44.5 2.5t67.5 2.5t78 -3 q44 -3 67 -2.5t52.5 2.5t40.5 2q70 0 82 -4q12 -3 26.5 -19t14.5 -28q0 -25 -9.5 -72.5t-11.5 -64.5q-1 -5 -1.5 -21t-2.5 -24t-18 -23.5t-23 -15.5q-12 0 -47.5 -4.5t-54.5 -1.5q-22 2 -31.5 1.5t-27 -3.5t-27.5 -4q-10 0 -22.5 -15.5t-12.5 -25.5q0 -14 -7.5 -47.5 t-8.5 -46.5q-2 -22 -5.5 -46.5t-3.5 -41.5q0 -11 9.5 -26t19.5 -15q89 0 127 -11q9 -2 18 -14t9 -31q0 -20 -7 -52.5t-8 -49.5q0 -2 -3 -24.5t-3 -24.5q-6 -23 -33 -31q-5 -2 -16.5 -13.5t-17.5 -11.5q-15 1 -47 -0.5t-48 -1.5q-24 0 -35 -14t-22 -51q-20 -66 -20 -100 q0 -6 3.5 -18.5t2.5 -22.5q0 -3 -5.5 -21t-5.5 -20q-4 -29 -0.5 -39t25.5 -33q2 -4 49 -4q19 0 57 -3t48 -3q13 0 32 -20t19 -32q0 -18 -6 -49t-6 -45q0 -7 1 -19.5t1 -22.5t-2 -19q-10 -45 -70 -74q-9 -4 -35.5 -5.5t-52.5 -1t-55.5 1.5t-34.5 1q-13 0 -37 -2t-43.5 -2 t-36.5 4t-37 4t-44.5 -2t-37.5 -2q-21 0 -42 14t-21 39zM205 1534q0 16 5 44.5t5 47.5q0 26 14 54t39 28q10 0 37.5 5.5t42.5 0.5q3 -3 18.5 -0.5t18.5 2.5q19 0 38 -10t19 -29q0 -7 -2 -19t-2 -18q0 -14 -4 -38q-1 -5 -11 -15t-11 -14q-1 -5 7 -12t3 -27q-5 -19 -23 -31.5 t-37 -9.5q-29 -2 -86 -2q-13 0 -30.5 5t-20.5 5q-20 0 -20 33zM225 791q0 -6 9.5 -11.5t17.5 -5.5t8 6q0 21 -16 21q-19 0 -19 -10zM279 150q0 -13 4 -13q11 0 25 7t14 16q0 4 -8 10t-13 6q-6 0 -14 -8.5t-8 -17.5zM494 1540q0 12 5.5 17t12.5 5.5t12.5 5.5t5.5 17 q0 7 -13 9t-17 8q-5 9 8 51q2 8 4.5 13.5t7.5 14t10 19.5q9 18 39 18q24 0 62.5 -4t54.5 -4q19 0 29 -9t10 -20q1 -8 1 -16v-14l-1 -6q0 -2 2 -11t2 -16l-4 -25q0 -3 -2 -27t-2 -26q0 -13 -12.5 -25t-24.5 -12t-35.5 -3.5t-32.5 -2.5t-38.5 -1.5t-47.5 1.5q-12 2 -24 15 t-12 28z" />
<glyph unicode="&#xcc;" horiz-adv-x="401" d="M-12 72q0 39 16 137q4 23 6.5 69t7.5 72q16 83 17 92q1 10 7.5 38.5t6.5 47.5q0 31 12.5 85.5t12.5 82.5q0 57 32 213q3 17 3 72q0 8 6.5 42.5t7.5 41.5q1 6 10.5 54.5t9.5 72.5q0 14 4.5 33.5t4.5 31.5v16.5v14.5t0.5 11.5t1 11.5t2 9t3.5 10t5 9t4 21t4 22 q6 11 14 18.5t9 8.5q12 18 24 18q11 0 38 3.5t48 3.5t60 -3t53 -4q16 -2 30.5 -14.5t14.5 -30.5q0 -6 -14 -106q-5 -40 -23 -152q-2 -12 -11.5 -52.5t-11.5 -61.5q-8 -74 -8 -121q0 -8 -7 -34.5t-11 -57.5q-2 -14 -24 -172t-36 -248q0 -1 2 -26.5t-6 -35.5q-12 -24 -12 -41 q0 -10 -4 -30.5t-4 -30.5q0 -20 -2.5 -41.5t-7.5 -48t-7 -41.5q-7 -50 -33 -66t-81 -16q-8 0 -31 -0.5t-36 -0.5t-32 1.5t-34 5.5q-41 10 -41 66zM168 1702q0 27 22 27q18 0 35.5 4t22.5 4q55 0 96 -21q12 -7 20 -17.5t13.5 -27t8 -28t6 -33.5t5.5 -31t9.5 -26t9.5 -23 q3 -15 -3.5 -27t-19.5 -12q-11 0 -27 -4t-24 -4q-45 0 -66 26q-21 21 -36 58q-4 9 -10 18.5t-14.5 21.5t-12.5 17q-3 6 -11.5 18.5t-12.5 19.5t-7.5 18t-3.5 22zM285 664q0 -4 3.5 -11.5t6.5 -7.5t8.5 7.5t5.5 13.5q0 10 -12 10t-12 -12zM295 1102q0 -3 1 -4.5t3 -2 t4.5 -0.5t6 0.5t5.5 0.5q17 0 17 10t-17 10q-20 0 -20 -14z" />
<glyph unicode="&#xcd;" horiz-adv-x="401" d="M-12 72q0 39 16 137q4 23 6.5 69t7.5 72q16 83 17 92q1 10 7.5 38.5t6.5 47.5q0 31 12.5 85.5t12.5 82.5q0 57 32 213q3 17 3 72q0 8 6.5 42.5t7.5 41.5q1 6 10.5 54.5t9.5 72.5q0 14 4.5 33.5t4.5 31.5v16.5v14.5t0.5 11.5t1 11.5t2 9t3.5 10t5 9t4 21t4 22 q6 11 14 18.5t9 8.5q12 18 24 18q11 0 38 3.5t48 3.5t60 -3t53 -4q16 -2 30.5 -14.5t14.5 -30.5q0 -6 -14 -106q-5 -40 -23 -152q-2 -12 -11.5 -52.5t-11.5 -61.5q-8 -74 -8 -121q0 -8 -7 -34.5t-11 -57.5q-2 -14 -24 -172t-36 -248q0 -1 2 -26.5t-6 -35.5q-12 -24 -12 -41 q0 -10 -4 -30.5t-4 -30.5q0 -20 -2.5 -41.5t-7.5 -48t-7 -41.5q-7 -50 -33 -66t-81 -16q-8 0 -31 -0.5t-36 -0.5t-32 1.5t-34 5.5q-41 10 -41 66zM264 1491q-45 0 29 121l14 22q6 10 16 35t20.5 38.5t29.5 21.5q12 5 24.5 6.5t37 0.5t32.5 -1q12 0 27.5 -3t25.5 -3 q23 0 23 -17q0 -16 -11 -31.5t-30.5 -33.5t-24.5 -25q-3 -3 -16.5 -24t-18.5 -27q-23 -28 -65 -70q-14 -14 -53 -18q-14 -1 -34 3.5t-26 4.5zM285 664q0 -4 3.5 -11.5t6.5 -7.5t8.5 7.5t5.5 13.5q0 10 -12 10t-12 -12zM295 1102q0 -3 1 -4.5t3 -2t4.5 -0.5t6 0.5t5.5 0.5 q17 0 17 10t-17 10q-20 0 -20 -14z" />
<glyph unicode="&#xce;" horiz-adv-x="401" d="M-12 72q0 39 16 137q4 23 6.5 69t7.5 72q16 83 17 92q1 10 7.5 38.5t6.5 47.5q0 31 12.5 85.5t12.5 82.5q0 57 32 213q3 17 3 72q0 8 6.5 42.5t7.5 41.5q1 6 10.5 54.5t9.5 72.5q0 14 4.5 33.5t4.5 31.5v16.5v14.5t0.5 11.5t1 11.5t2 9t3.5 10t5 9t4 21t4 22 q6 11 14 18.5t9 8.5q12 18 24 18q11 0 38 3.5t48 3.5t60 -3t53 -4q16 -2 30.5 -14.5t14.5 -30.5q0 -6 -14 -106q-5 -40 -23 -152q-2 -12 -11.5 -52.5t-11.5 -61.5q-8 -74 -8 -121q0 -8 -7 -34.5t-11 -57.5q-2 -14 -24 -172t-36 -248q0 -1 2 -26.5t-6 -35.5q-12 -24 -12 -41 q0 -10 -4 -30.5t-4 -30.5q0 -20 -2.5 -41.5t-7.5 -48t-7 -41.5q-7 -50 -33 -66t-81 -16q-8 0 -31 -0.5t-36 -0.5t-32 1.5t-34 5.5q-41 10 -41 66zM133 1526q0 16 10 30q4 5 17.5 31t17.5 31q18 23 34.5 41.5t26.5 29t15 17.5q4 6 9 10.5t9.5 7.5t13 5.5t13 3.5t15.5 1.5 t14.5 0.5h17h16.5q37 0 58 -9q13 -6 25 -16.5t20 -20.5t18 -28t14 -26.5t13 -29.5t10 -24q2 -4 9 -15.5t10.5 -20t3.5 -15.5q0 -12 -7 -19.5t-16 -7.5q-7 0 -30.5 -6t-26.5 -6q-31 0 -49.5 14t-38.5 43q-1 1 -3.5 4.5t-3.5 4.5l-4 4t-4.5 4t-5 3t-6 3t-6.5 1.5t-8 0.5 q-15 0 -27.5 -22t-25.5 -33q-3 -2 -11.5 -8.5t-10 -7.5t-7.5 -4.5t-10 -4t-10.5 -1.5t-14.5 -1q-20 0 -36 5t-23 5q-9 0 -17 7.5t-8 17.5zM285 664q0 -4 3.5 -11.5t6.5 -7.5t8.5 7.5t5.5 13.5q0 10 -12 10t-12 -12zM295 1102q0 -2 1 -3.5t2 -2.5t3 -1t4 0.5t5 0.5h5 q6 0 9 0.5t5.5 2.5t2.5 7t-2.5 7t-5.5 2.5t-9 0.5q-20 0 -20 -14z" />
<glyph unicode="&#xcf;" horiz-adv-x="401" d="M-12 72q0 39 16 137q4 23 6.5 69t7.5 72q16 83 17 92q1 10 7.5 38.5t6.5 47.5q0 31 12.5 85.5t12.5 82.5q0 57 32 213q3 17 3 72q0 8 6.5 42.5t7.5 41.5q1 6 10.5 54.5t9.5 72.5q0 14 4.5 33.5t4.5 31.5v16.5v14.5t0.5 11.5t1 11.5t2 9t3.5 10t5 9t4 21t4 22 q6 11 14 18.5t9 8.5q12 18 24 18q11 0 38 3.5t48 3.5t60 -3t53 -4q16 -2 30.5 -14.5t14.5 -30.5q0 -6 -14 -106q-5 -40 -23 -152q-2 -12 -11.5 -52.5t-11.5 -61.5q-8 -74 -8 -121q0 -8 -7 -34.5t-11 -57.5q-2 -14 -24 -172t-36 -248q0 -1 2 -26.5t-6 -35.5q-12 -24 -12 -41 q0 -10 -4 -30.5t-4 -30.5q0 -20 -2.5 -41.5t-7.5 -48t-7 -41.5q-7 -50 -33 -66t-81 -16q-8 0 -31 -0.5t-36 -0.5t-32 1.5t-34 5.5q-41 10 -41 66zM78 1534q0 16 5 44.5t5 47.5q0 26 14 54t39 28q10 0 37.5 5.5t42.5 0.5q3 -3 18.5 -0.5t18.5 2.5q19 0 38 -10t19 -29 q0 -7 -2 -19t-2 -18q0 -14 -4 -38q-1 -5 -11 -15t-11 -14q-1 -5 7 -12t3 -27q-5 -19 -22.5 -31.5t-36.5 -9.5q-29 -2 -86 -2q-13 0 -31 5t-21 5q-20 0 -20 33zM285 664q0 -4 3.5 -11.5t6.5 -7.5t8.5 7.5t5.5 13.5q0 10 -12 10t-12 -12zM295 1102q0 -3 1 -4.5t3 -2t4.5 -0.5 t6 0.5t5.5 0.5q17 0 17 10t-17 10q-20 0 -20 -14zM367 1540q0 12 5.5 17t12.5 5.5t12.5 5.5t5.5 17q0 7 -13 9t-17 8q-5 9 8 51q2 8 4.5 13.5t7.5 14t10 19.5q9 18 39 18q24 0 62.5 -4t54.5 -4q19 0 29 -9t10 -20q1 -8 1 -16t-1 -14v-6q0 -2 2 -11t2 -16l-4 -25q0 -3 -2 -27 t-2 -26q0 -13 -12.5 -25t-24.5 -12t-35.5 -3.5t-32.5 -2.5t-38.5 -1.5t-47.5 1.5q-12 2 -24 15t-12 28z" />
<glyph unicode="&#xd0;" horiz-adv-x="808" d="M-12 84q0 42 13 119.5t15 93.5q0 3 1.5 14t3 26l2.5 25q5 66 20 158q1 7 7 14t7 9q1 3 -2.5 18.5t-3.5 24.5l1 14q1 15 0 23t-5 12l-8 5q-8 6 -11 13.5t-3 22.5v41q1 9 1 30.5t3 39t12 32.5q5 8 8.5 21.5t8 19.5t14.5 6q26 0 26 47q0 20 3.5 39.5t11 54t12.5 68.5 q7 47 15.5 128.5t13.5 109.5q1 6 5.5 14.5t4.5 11.5q0 9 6 39q4 15 21.5 31t41.5 16q11 0 46 2t60.5 2.5t70.5 -2.5q25 -2 68 3t71 4q81 0 133 -15q10 -3 32 -9t31 -8.5t25.5 -10.5t25.5 -17t20.5 -24.5t19.5 -36.5q18 -37 14 -76l-10 -100l-4 -74q-2 -25 -15 -77.5 t-16 -92.5q-9 -106 -27 -209q-2 -9 0.5 -39.5t-2.5 -52.5q-4 -26 -19.5 -92.5t-23.5 -108.5q-1 -7 -10 -71.5t-21 -104.5q-7 -21 -26.5 -54.5t-22.5 -45.5q-2 -8 -6 -15t-7 -11.5t-8.5 -9.5t-8 -7.5t-9 -7t-8.5 -5.5q-71 -55 -166 -55q-31 0 -74 1.5t-60.5 2t-45.5 -1.5 q-1 0 -29.5 -3.5t-37 -4t-29.5 1.5q-11 3 -25.5 3.5t-36.5 -0.5t-30 -1t-24 7t-23 7q-14 0 -25.5 15.5t-11.5 52.5zM317 307q-1 -12 8.5 -21.5t20.5 -9.5q8 0 53 15q13 4 22 13t13 24t5.5 25.5t2.5 30.5t2 26q4 60 25 161q6 27 10.5 79t9.5 75q0 6 11 35q2 5 2 12.5t-1 14.5 t-1 8q0 44 13 101t13 132q0 9 4.5 21t4.5 26q0 28 -16 49t-44 21q-35 0 -43.5 -13t-17.5 -67q-1 -6 -2 -10q-2 -12 -4.5 -31.5t-5.5 -34.5t-7 -31q-12 -26 -9.5 -61t32.5 -39q18 -3 14 -39q-5 -35 -10 -84.5t-6 -56.5q-3 -25 -13.5 -37t-35.5 -18q-13 -3 -17 -35 q-2 -31 -13.5 -81t-12.5 -73q-1 -20 -0.5 -33t-1 -38.5t-5.5 -55.5zM518 760q0 -11 4 -20t8 -9q11 0 11 23q0 28 -13 28q-3 0 -6.5 -7.5t-3.5 -14.5zM623 688q0 -31 39 -31q7 0 5 12q-4 12 -16 13q-4 0 -21 10q-6 0 -7 -4z" />
<glyph unicode="&#xd1;" horiz-adv-x="829" d="M-12 35q-2 8 -2 14t1 17.5t1 15.5q0 37 9.5 106.5t10.5 85.5q5 54 10 78q5 20 12.5 30.5t8.5 14.5q2 11 -1 24t-3 23q0 25 2.5 48t5.5 33l2 10q1 10 7.5 59.5t6.5 77.5q0 15 8.5 33t8.5 22q0 15 1 29.5t3 30t4 27t5 29.5t5 27q2 16 10 90t17 113q4 17 11 83t9 79 q2 9 3 23.5t2 26.5t4 20t6.5 24t6.5 26.5t8.5 24t12 21.5t17 14t24.5 6q5 0 27.5 4.5t40.5 6t45 -4.5q7 -3 19.5 -2.5t21 2t26 3.5t35.5 2q27 0 45.5 -9.5t36.5 -31.5q10 -13 10 -62q0 -33 3 -86q0 -3 3 -31t3 -41q0 -71 30 -71q18 0 26.5 21t8.5 42q0 14 6 29t6 43 q0 31 13 94q2 10 3.5 24.5t3.5 25t5 14.5q21 27 39 33t57 6q9 0 39 -5q23 -2 74 -2q14 0 24.5 -14.5t10.5 -30.5q0 -48 -15 -125q-2 -10 -3 -30t-3 -29q-2 -12 -12.5 -75.5t-17.5 -98.5q-1 -7 -2.5 -26t-5.5 -53t-13 -79q-14 -79 -14 -137q0 -66 -15 -102q-11 -27 -14.5 -59 t-5 -74t-6.5 -74q-3 -16 -6.5 -35t-8 -38.5t-6.5 -33.5q-1 -5 -2 -29.5t-7.5 -79t-20.5 -132.5q-11 -66 -105 -66q-12 0 -35.5 -2t-36.5 -2q-10 0 -33.5 2.5t-37.5 1.5q-33 -2 -57.5 10t-28.5 41q-2 17 -10.5 54t-10.5 57q-1 29 -10 166q-5 113 -6 117q-2 14 -11.5 22 t-20 2.5t-15.5 -24.5q-8 -27 -16.5 -95t-12.5 -88q-8 -38 -12.5 -82.5t-7.5 -60.5q-2 -10 -4.5 -37t-4.5 -35q-4 -15 -21.5 -28.5t-35.5 -18.5q-16 -5 -59 4q-8 2 -19.5 1t-21.5 -3l-10 -2q-63 0 -78 31zM307 522q0 -6 0.5 -8.5t2 -4t5.5 -1.5q5 0 9 3t4 7q0 5 -3.5 17 t-7.5 12q-2 0 -4 -3t-3.5 -7t-2 -8.5t-0.5 -6.5zM315 1540q0 13 6 25.5t14.5 26.5t12.5 24q15 43 51 65.5t88 22.5q9 0 23 -4t22 -4q11 0 20 -4t20.5 -10.5t21.5 -10.5q32 -14 49 -14q20 0 53 25.5t56 25.5q15 0 33 -16.5t18 -28.5q0 -8 -5 -24t-5 -17q-8 -50 -49 -84.5 t-95 -34.5q-26 0 -61 6q-18 3 -49.5 20t-53.5 17q-20 0 -55.5 -21.5t-56 -21.5t-39.5 12t-19 25zM379 1094q0 -15 18 -15q8 0 15.5 4.5t7.5 8.5q0 12 -21 12q-14 0 -17 -2t-3 -8zM504 854q0 -8 14.5 -19.5t24.5 -11.5q5 0 8.5 3t-0.5 8q-6 9 -17.5 16.5t-21.5 7.5 q-8 0 -8 -4z" />
<glyph unicode="&#xd2;" horiz-adv-x="798" d="M4 201q1 18 5.5 46.5t4.5 45.5q0 47 12.5 167t28.5 163q2 7 8 51q15 128 15 151q0 14 5.5 31t6.5 31q7 119 29 213q1 10 3 32.5t4.5 40.5t6.5 35q1 4 3 9t4 9t3.5 7.5t2.5 6t1 3.5q6 12 19 45.5t25 53.5t30 34q84 70 178 70q24 0 66 1t75.5 1t63.5 -2q23 -2 62 -14 q8 -2 37.5 -6.5t46.5 -12.5q27 -15 36 -27q41 -59 41 -126q0 -89 -18 -222q-2 -14 -7 -43t-8 -50.5t-3 -37.5q0 -44 -12 -125t-13 -92q-3 -25 -12.5 -73.5t-12.5 -71.5q-3 -26 -8 -78t-10.5 -91t-15.5 -71q-4 -17 -10.5 -62t-12.5 -59q-38 -88 -72.5 -126t-113.5 -60 q-30 -10 -49 -10t-70.5 -1.5t-86.5 -2t-78.5 4t-70.5 15.5l-19.5 6.5t-20 6.5t-16.5 6.5t-18 9.5t-13.5 10.5t-14.5 15t-12 19.5q-2 3 -7.5 12.5t-7.5 14t-6.5 20t-3.5 30.5t0 46zM270 1198q0 -16 15 -16q17 0 22 7q4 4 -12 9q-1 0 -2.5 6t-7.5 4q-15 -6 -15 -10zM305 324 q3 -50 55 -50q56 0 68 45q3 4 0.5 17t-2.5 14q0 8 5.5 23.5t6.5 23.5q9 79 15 152q2 26 11 79t11 85q2 46 15 126t16 109q1 16 9.5 67t8.5 81v9.5v7v4.5t-1.5 4.5t-2.5 3.5t-4 5q-7 11 -20 20t-25 9q-26 0 -42 -17t-19 -42q-12 -61 -13 -64q-1 -4 -7 -11.5t-7 -16.5 q-1 -7 0.5 -14t3.5 -15t2 -14q0 -9 -6 -24t-6 -23q-14 -102 -19 -181q-1 -12 -6 -34t-6 -35q-11 -100 -31 -226q-2 -15 0.5 -36t1.5 -31q-1 -7 -7 -20t-5 -31zM367 1702q0 27 22 27q18 0 35 4t22 4q56 0 97 -21q11 -6 19.5 -17t13.5 -28t8 -28t7 -34t5 -30q2 -7 5.5 -16 l7 -18t5.5 -15q2 -10 0 -19t-7.5 -14.5t-14.5 -5.5q-10 0 -26.5 -4t-24.5 -4q-45 0 -66 26q-7 7 -18.5 24.5t-18.5 33.5q-4 9 -10 18.5t-14.5 21.5t-12.5 17q-3 5 -11.5 18.5t-12 19.5t-7 17.5t-3.5 22.5z" />
<glyph unicode="&#xd3;" horiz-adv-x="798" d="M4 201q1 18 5.5 46.5t4.5 45.5q0 47 12.5 167t28.5 163q2 7 8 51q15 128 15 151q0 14 5.5 31t6.5 31q7 119 29 213q1 10 3 32.5t4.5 40.5t6.5 35q1 4 3 9t4 9t3.5 7.5t2.5 6t1 3.5q6 12 19 45.5t25 53.5t30 34q84 70 178 70q24 0 66 1t75.5 1t63.5 -2q23 -2 62 -14 q8 -2 37.5 -6.5t46.5 -12.5q27 -15 36 -27q41 -59 41 -126q0 -89 -18 -222q-2 -14 -7 -43t-8 -50.5t-3 -37.5q0 -44 -12 -125t-13 -92q-3 -25 -12.5 -73.5t-12.5 -71.5q-3 -26 -8 -78t-10.5 -91t-15.5 -71q-4 -17 -10.5 -62t-12.5 -59q-38 -88 -72.5 -126t-113.5 -60 q-30 -10 -49 -10t-70.5 -1.5t-86.5 -2t-78.5 4t-70.5 15.5l-19.5 6.5t-20 6.5t-16.5 6.5t-18 9.5t-13.5 10.5t-14.5 15t-12 19.5q-2 3 -7.5 12.5t-7.5 14t-6.5 20t-3.5 30.5t0 46zM270 1198q0 -16 15 -16q17 0 22 7q4 4 -12 9q-1 0 -2.5 6t-7.5 4q-15 -6 -15 -10zM305 324 q3 -50 55 -50q56 0 68 45q3 4 0.5 17t-2.5 14q0 8 5.5 23.5t6.5 23.5q9 79 15 152q2 26 11 79t11 85q2 46 15 126t16 109q1 16 9.5 67t8.5 81v9.5v7v4.5t-1.5 4.5t-2.5 3.5t-4 5q-7 11 -20 20t-25 9q-26 0 -42 -17t-19 -42q-12 -61 -13 -64q-1 -4 -7 -11.5t-7 -16.5 q-1 -7 0.5 -14t3.5 -15t2 -14q0 -9 -6 -24t-6 -23q-14 -102 -19 -181q-1 -12 -6 -34t-6 -35q-11 -100 -31 -226q-2 -15 0.5 -36t1.5 -31q-1 -7 -7 -20t-5 -31zM463 1491q-45 0 29 121l14 22q6 10 16 35t20.5 38.5t28.5 21.5q12 5 25 6.5t37.5 0.5t32.5 -1q12 0 27.5 -3 t25.5 -3q22 0 22 -17q0 -16 -11 -31.5t-30 -33.5t-24 -25q-2 -2 -9 -12.5t-14.5 -22t-11.5 -16.5q-18 -22 -66 -70q-14 -14 -53 -18q-14 -1 -33.5 3.5t-25.5 4.5z" />
<glyph unicode="&#xd4;" horiz-adv-x="798" d="M4 201q1 18 5.5 46.5t4.5 45.5q0 47 12.5 167t28.5 163q2 7 8 51q15 128 15 151q0 14 5.5 31t6.5 31q7 119 29 213q1 10 3 32.5t4.5 40.5t6.5 35q1 4 3 9t4 9t3.5 7.5t2.5 6t1 3.5q6 12 19 45.5t25 53.5t30 34q84 70 178 70q24 0 66 1t75.5 1t63.5 -2q23 -2 62 -14 q8 -2 37.5 -6.5t46.5 -12.5q27 -15 36 -27q41 -59 41 -126q0 -89 -18 -222q-2 -14 -7 -43t-8 -50.5t-3 -37.5q0 -44 -12 -125t-13 -92q-3 -25 -12.5 -73.5t-12.5 -71.5q-3 -26 -8 -78t-10.5 -91t-15.5 -71q-4 -17 -10.5 -62t-12.5 -59q-38 -88 -72.5 -126t-113.5 -60 q-30 -10 -49 -10t-70.5 -1.5t-86.5 -2t-78.5 4t-70.5 15.5l-19.5 6.5t-20 6.5t-16.5 6.5t-18 9.5t-13.5 10.5t-14.5 15t-12 19.5q-2 3 -7.5 12.5t-7.5 14t-6.5 20t-3.5 30.5t0 46zM270 1198q0 -16 15 -16q17 0 22 7q4 4 -12 9q-1 0 -2.5 6t-7.5 4q-15 -6 -15 -10zM305 324 q3 -50 55 -50q56 0 68 45q3 4 0.5 17t-2.5 14q0 8 5.5 23.5t6.5 23.5q9 79 15 152q2 26 11 79t11 85q2 46 15 126t16 109q1 16 9.5 67t8.5 81v9.5v7v4.5t-1.5 4.5t-2.5 3.5t-4 5q-7 11 -20 20t-25 9q-26 0 -42 -17t-19 -42q-12 -61 -13 -64q-1 -4 -7 -11.5t-7 -16.5 q-1 -7 0.5 -14t3.5 -15t2 -14q0 -9 -6 -24t-6 -23q-14 -102 -19 -181q-1 -12 -6 -34t-6 -35q-11 -100 -31 -226q-2 -15 0.5 -36t1.5 -31q-1 -7 -7 -20t-5 -31zM332 1526q0 16 10 30q4 5 17.5 31t17.5 31q23 29 47 55t29 33q4 6 9 10.5t9.5 8t13 5.5t13 3t15.5 1.5t14.5 0.5 h17h16.5q36 0 57 -9q11 -5 21 -12.5t19 -19t15.5 -20.5t14.5 -25l11.5 -23t11 -24.5t9 -20.5t8.5 -15.5t10 -20.5t3 -15q0 -12 -6.5 -19.5t-15.5 -7.5q-6 0 -29.5 -6t-27.5 -6q-17 0 -30 4t-23.5 12.5t-18 17.5t-17.5 23q-1 1 -3.5 4.5t-3.5 4.5l-4 4t-4.5 4t-5 3t-6 3 t-6.5 1.5t-8 0.5q-12 0 -18 -8t-14.5 -22.5t-20.5 -24.5q-4 -3 -11.5 -8.5t-10 -7.5t-7.5 -5t-9 -3.5t-10.5 -1.5t-14.5 -1q-20 0 -36.5 5t-23.5 5q-9 0 -16.5 7.5t-7.5 17.5z" />
<glyph unicode="&#xd5;" horiz-adv-x="798" d="M4 201q1 18 5.5 46.5t4.5 45.5q0 47 12.5 167t28.5 163q2 7 8 51q15 128 15 151q0 14 5.5 31t6.5 31q7 119 29 213q1 10 3 32.5t4.5 40.5t6.5 35q1 4 3 9t4 9t3.5 7.5t2.5 6t1 3.5q6 12 19 45.5t25 53.5t30 34q84 70 178 70q24 0 66 1t75.5 1t63.5 -2q23 -2 62 -14 q8 -2 37.5 -6.5t46.5 -12.5q27 -15 36 -27q41 -59 41 -126q0 -89 -18 -222q-2 -14 -7 -43t-8 -50.5t-3 -37.5q0 -44 -12 -125t-13 -92q-3 -25 -12.5 -73.5t-12.5 -71.5q-3 -26 -8 -78t-10.5 -91t-15.5 -71q-4 -17 -10.5 -62t-12.5 -59q-38 -88 -72.5 -126t-113.5 -60 q-30 -10 -49 -10t-70.5 -1.5t-86.5 -2t-78.5 4t-70.5 15.5l-19.5 6.5t-20 6.5t-16.5 6.5t-18 9.5t-13.5 10.5t-14.5 15t-12 19.5q-2 3 -7.5 12.5t-7.5 14t-6.5 20t-3.5 30.5t0 46zM270 1198q0 -16 15 -16q17 0 22 7q4 4 -12 9q-1 0 -2.5 6t-7.5 4q-15 -6 -15 -10zM297 1540 q0 14 6 26.5t14.5 26t12.5 23.5q15 43 51 65.5t88 22.5q9 0 23 -4t22 -4q11 0 20 -4t20 -10.5t21 -10.5q32 -14 50 -14q17 0 34.5 13t36 25.5t37.5 12.5q15 0 33 -16.5t18 -28.5q0 -8 -5 -24t-5 -17q-3 -20 -11.5 -38t-22 -32.5t-30.5 -25.5t-37.5 -17t-41.5 -6q-27 0 -62 6 q-18 3 -49 20t-53 17q-20 0 -56 -21.5t-56.5 -21.5t-39 12t-18.5 25zM305 324q3 -50 55 -50q56 0 68 45q3 4 0.5 17t-2.5 14q0 8 5.5 23.5t6.5 23.5q9 79 15 152q2 26 11 79t11 85q2 46 15 126t16 109q1 16 9.5 67t8.5 81v9.5v7v4.5t-1.5 4.5t-2.5 3.5t-4 5q-7 11 -20 20 t-25 9q-26 0 -42 -17t-19 -42q-12 -61 -13 -64q-1 -4 -7 -11.5t-7 -16.5q-1 -7 0.5 -14t3.5 -15t2 -14q0 -9 -6 -24t-6 -23q-14 -102 -19 -181q-1 -12 -6 -34t-6 -35q-11 -100 -31 -226q-2 -15 0.5 -36t1.5 -31q-1 -7 -7 -20t-5 -31z" />
<glyph unicode="&#xd6;" horiz-adv-x="798" d="M4 201q1 18 5.5 46.5t4.5 45.5q0 47 12.5 167t28.5 163q2 7 8 51q15 128 15 151q0 14 5.5 31t6.5 31q7 119 29 213q1 10 3 32.5t4.5 40.5t6.5 35q1 4 3 9t4 9t3.5 7.5t2.5 6t1 3.5q6 12 19 45.5t25 53.5t30 34q84 70 178 70q24 0 66 1t75.5 1t63.5 -2q23 -2 62 -14 q8 -2 37.5 -6.5t46.5 -12.5q27 -15 36 -27q41 -59 41 -126q0 -89 -18 -222q-2 -14 -7 -43t-8 -50.5t-3 -37.5q0 -44 -12 -125t-13 -92q-3 -25 -12.5 -73.5t-12.5 -71.5q-3 -26 -8 -78t-10.5 -91t-15.5 -71q-4 -17 -10.5 -62t-12.5 -59q-38 -88 -72.5 -126t-113.5 -60 q-30 -10 -49 -10t-70.5 -1.5t-86.5 -2t-78.5 4t-70.5 15.5l-19.5 6.5t-20 6.5t-16.5 6.5t-18 9.5t-13.5 10.5t-14.5 15t-12 19.5q-2 3 -7.5 12.5t-7.5 14t-6.5 20t-3.5 30.5t0 46zM270 1198q0 -16 15 -16q17 0 22 7q4 4 -12 9q-1 0 -2.5 6t-7.5 4q-15 -6 -15 -10zM276 1534 q0 14 3 29t5.5 31t2.5 32t5 34t17.5 33t30.5 15q11 0 27.5 3.5t26 4.5t26.5 -2q3 -3 18.5 -0.5t18.5 2.5q19 0 38 -10t19 -29q0 -7 -2 -19t-2 -18q0 -14 -4 -38q-1 -5 -11.5 -15t-11.5 -14t1.5 -7t5.5 -5t5 -8.5t-1 -18.5q-5 -19 -23 -31.5t-37 -9.5q-29 -2 -86 -2 q-13 0 -30.5 5t-20.5 5q-9 0 -15 9t-6 24zM305 324q3 -50 55 -50q56 0 68 45q3 4 0.5 17t-2.5 14q0 8 5.5 23.5t6.5 23.5q9 79 15 152q2 26 11 79t11 85q2 46 15 126t16 109q1 16 9.5 67t8.5 81v9.5v7v4.5t-1.5 4.5t-2.5 3.5t-4 5q-7 11 -20 20t-25 9q-26 0 -42 -17t-19 -42 q-12 -61 -13 -64q-1 -4 -7 -11.5t-7 -16.5q-1 -7 0.5 -14t3.5 -15t2 -14q0 -9 -6 -24t-6 -23q-14 -102 -19 -181q-1 -12 -6 -34t-6 -35q-11 -100 -31 -226q-2 -15 0.5 -36t1.5 -31q-1 -7 -7 -20t-5 -31zM565 1540q0 12 6 17t12.5 5.5t12.5 5.5t6 17q0 6 -6 7.5t-14 3 t-11 6.5q-4 8 9 51q2 8 4.5 13.5t7.5 14t10 19.5q4 8 16.5 13t22.5 5q24 0 62.5 -4t54.5 -4q19 0 29 -9t10 -20v-36q0 -2 2 -11t2 -16l-4 -25q0 -3 -2 -27t-2 -26q0 -9 -6 -17.5t-14.5 -14t-16.5 -5.5q-12 0 -35.5 -3.5t-32.5 -2.5t-38.5 -1.5t-47.5 1.5q-13 2 -25 15.5 t-12 27.5z" />
<glyph unicode="&#xd7;" d="M43 522q0 14 5 21.5t17.5 15.5t18.5 14q10 9 30.5 35.5t35.5 36.5q5 3 10.5 6.5t9 5.5t6.5 5q1 1 11 9.5t18.5 17t11.5 13.5q6 7 4 18t-6 18t-11 22t-11 28q-2 5 -22.5 20.5t-31.5 31.5q-1 2 -17 24.5t-28 34.5q-6 6 -6 23q0 8 8 20q8 9 23.5 17t25.5 22q38 53 88 53 q19 0 27 -5.5t19 -24.5q3 -6 33 -40t32 -36q1 -2 5.5 -8t6 -7.5t5 -5.5t7.5 -6t9 -4q18 -5 25.5 -6.5t19.5 1t24 11.5q10 9 35 36.5t41 37.5q8 5 24.5 21t28.5 24q51 31 89 -12q2 -2 9.5 -11.5t11 -14t10 -13.5t10.5 -15.5t8 -15t6 -16.5t2 -15q0 -24 -19 -43 q-9 -8 -18.5 -8t-13.5 2.5t-8 -2.5q-2 -7 4 -13.5t0 -10.5q-74 -74 -101 -97q-10 -8 -10 -35q0 -26 10 -40q7 -8 20.5 -24t20.5 -24q6 -6 22.5 -33t30.5 -34q7 -4 9 -28.5t-9 -35.5q-11 -9 -31.5 -33.5t-41.5 -37.5t-51 -13q-18 0 -35 15.5t-36.5 45.5t-21.5 32 q-27 35 -47 47q-14 6 -24.5 7t-25.5 -7t-24.5 -15.5t-21 -18t-16.5 -13.5q-34 -23 -74 -66q-17 -17 -45 -21.5t-39 5.5q-20 17 -37 41q-5 7 -19 20t-20 23.5t-6 27.5zM508 836q0 -13 14 -13q8 0 8 6q0 7 -0.5 10t-3 5t-8.5 2q-10 0 -10 -10z" />
<glyph unicode="&#xd8;" horiz-adv-x="798" d="M-27 -33q0 16 24.5 58.5t22.5 58.5t-7.5 40t-6 34t1.5 41q10 65 10 92q0 88 29 262q5 37 10 63t7.5 38.5l3.5 17.5q7 61 14 153q2 23 7 36.5t9.5 17t9.5 7.5t7 9q1 3 -3.5 14t-8.5 30t1 58q0 3 19 103q2 12 5 49t9 59q11 47 34 95.5t54 72.5q84 70 178 70q22 0 75.5 1.5 t88.5 0.5q17 0 41 17t33 20q42 16 139 -2q10 -2 28.5 -3t30.5 -3.5t17 -10.5q3 -4 4 -8.5t1.5 -7.5t-1 -9t-2.5 -8.5l-4 -10t-4 -9.5q-14 -35 -14 -55q0 -27 -2.5 -56.5t-2.5 -41.5q0 -89 -18 -222q-2 -14 -7 -43t-8 -50.5t-3 -37.5q0 -33 -4.5 -77.5t-12.5 -99t-10 -77.5 q-3 -23 -22 -55t-19 -57q0 -9 5 -44.5t3 -62.5q-2 -42 -24 -131q-6 -22 -12 -65t-11 -56q-36 -83 -70.5 -117.5t-115.5 -56.5q-91 -30 -264 -10q-13 1 -33 -22t-41 -27q-48 -6 -62 -6q-16 0 -50 -2t-50 -2q-9 0 -19 9t-10 19zM209 809q0 -21 20 -21q25 0 25 15q0 6 -12 15 t-23 9q-10 0 -10 -18zM348 307q0 -22 19 -22q22 0 35 5.5t18.5 17t6.5 20t1 24.5q0 15 8 35.5t8 36.5q0 5 3.5 28.5t2.5 39t-10 16.5q-5 0 -9 -1t-8 -5l-6.5 -6.5t-5.5 -9.5t-4 -9.5t-4.5 -10.5t-3.5 -9q-1 -3 -12.5 -31t-18 -46t-13.5 -40.5t-7 -32.5zM399 983 q-11 -39 7 -39q8 0 15 10.5t21 44.5q6 13 9 21q11 26 18.5 58t7.5 42q0 20 -5.5 25.5t-27.5 5.5q-9 0 -14.5 -4t-9.5 -16.5t-5.5 -23t-5 -35.5t-6.5 -44q-1 -4 -1.5 -20t-2.5 -25zM436 541q0 -15 19 -15q7 0 7.5 2.5t0.5 12.5q0 3 -2.5 7.5t-5.5 4.5q-7 0 -13 -4.5t-6 -7.5z M567 1290q0 -1 -1 -7t-0.5 -9.5t3.5 -3.5q8 0 18.5 8.5t10.5 17.5q0 3 -5.5 6t-8.5 3q-17 0 -17 -15z" />
</font>
</defs>
</svg>
