<?xml version="1.0" standalone="no"?>
<!DOCTYPE svg PUBLIC "-//W3C//DTD SVG 1.1//EN" "http://www.w3.org/Graphics/SVG/1.1/DTD/svg11.dtd" >
<svg xmlns="http://www.w3.org/2000/svg">
<metadata></metadata>
<defs>
<font id="DharmaGothicPBold" horiz-adv-x="741" >
<font-face units-per-em="2048" ascent="1638" descent="-410" />
<missing-glyph horiz-adv-x="280" />
<glyph unicode="&#xfb01;" horiz-adv-x="794" d="M6 971q0 19 3 58t3 61q0 24 31 32q11 3 15 10t5 19.5t3 17.5q8 25 8 99q0 38 16 73t43 50q20 12 29.5 17t24.5 9t34 4q5 0 10.5 -4t14.5 -4q5 0 20 9t23 10q83 12 112 -17q8 -6 13 -13t7.5 -12.5t3.5 -15t1.5 -14.5t0 -17.5t-0.5 -17.5t1 -16t1 -20.5t-2 -16.5 q-15 -49 -55 -55q-23 -4 -29 -12t-6 -25q0 -29 16 -37q22 -13 37 -13q11 0 17.5 -1.5t13 -11t6.5 -27.5q0 -7 3 -23.5t3 -24.5q0 -7 -6 -37.5t-6 -37.5q0 -51 -25 -58q-6 -2 -15.5 -4t-13.5 -3.5t-9 -3.5t-7 -5t-2 -8q0 -7 -6.5 -25t-5.5 -29q9 -93 2 -141q-2 -13 3 -46 t-1 -44q-6 -27 -5 -34.5t5 -40t4 -68.5q0 -29 -2 -85t-2 -81q0 -9 2 -55.5t2 -55.5t-2 -46.5t-2 -61.5q0 -25 -12 -33q-7 -4 -15 -13.5t-17 -15.5t-24 -6q-7 0 -19.5 3t-19.5 3q-3 0 -11 -1.5t-24 -3t-38 -1.5q-4 0 -14 -0.5t-16 -0.5t-13.5 2t-12.5 7q-23 21 -32 39.5 t-9 48.5q0 12 2.5 30t2.5 28q0 11 19 31.5t22 29.5q1 3 -3.5 3t-11.5 -0.5t-14 1t-10.5 9t-1.5 20.5q4 22 0 67q-3 60 -0.5 141.5t0.5 106.5q0 47 -2 89l-3 42q0 20 2.5 65t2.5 73q0 60 -25 67q-16 4 -26.5 25t-10.5 43zM207 508q0 -8 2 -11t12 -3q15 0 15 18q0 16 -7 16 q-10 0 -16 -6t-6 -14zM322 1364q0 -14 14 -14q10 0 10 14q0 2 1 4t1.5 4t0.5 4t-1 3t-4 1q-22 0 -22 -16zM467 518q0 3 1.5 25t3 58.5t1.5 74.5q0 12 -1 92.5t-1 138.5q0 21 2 64t2 65q0 55 21 72q23 20 47 20q5 0 20.5 3.5t20.5 3.5q3 0 14.5 -4.5t15.5 -4.5q10 0 31 3.5 t31 3.5h6h9t8.5 -0.5t8 -2t5.5 -4.5q12 -18 24 -30q6 -6 6.5 -23.5t1.5 -21.5q14 -51 5 -125q-1 -10 -10.5 -15.5t-20 -6.5t-19 -3.5t-8.5 -7.5q0 -10 22 -13t25 -8q5 -7 5.5 -19t-1 -29.5t-0.5 -28.5q2 -49 9 -340q5 -79 0 -119q0 -23 -2 -146.5t-2 -148.5q0 -10 -20 -23.5 t-36 -15.5q-19 -4 -48.5 0t-33.5 4q-10 0 -30.5 -1.5t-33 -1.5t-27 2.5t-24 10.5t-14.5 23q-4 9 -5.5 20t-1.5 18t0.5 20t0.5 18q0 18 -1 50.5t-1 59.5t2 51q2 45 2.5 54t-1.5 38.5t-3 55.5q-6 75 -6 94zM471 1362q2 29 19.5 51.5t46.5 22.5q10 0 40 4t41 0q3 -1 10 -3 t12.5 -3.5t8.5 -1.5q2 0 12.5 3t24.5 1q10 -1 17.5 -5t11 -7.5t11 -12t11.5 -12.5q6 -6 6 -25q0 -8 -10 -8q-3 0 -8.5 2t-9.5 2q-6 0 -14.5 -5t-8.5 -9q0 -10 8.5 -10t18 3t16.5 -3q8 -4 8 -74q0 -19 -23 -34t-44 -17q-24 -3 -73.5 -0.5t-70.5 0.5q-16 -1 -33 11t-24 25 q-3 7 -4 16.5t0 18t2.5 20t1.5 19.5q0 7 -2 16t-2 15zM662 158q0 -5 8 -12.5t12 -6.5q8 2 8 25q0 20 -8 20q-10 0 -15 -8.5t-5 -17.5z" />
<glyph unicode="&#xfb02;" horiz-adv-x="794" d="M6 971q0 19 3 58t3 61q0 24 31 32q11 3 15 10t5 19.5t3 17.5q8 25 8 99q0 38 16 73t43 50q20 12 29.5 17t24.5 9t34 4q5 0 10.5 -4t14.5 -4q5 0 20 9t23 10q83 12 112 -17q8 -6 13 -13t7.5 -12.5t3.5 -15t1.5 -14.5t0 -17.5t-0.5 -17.5t1 -16t1 -20.5t-2 -16.5 q-15 -49 -55 -55q-23 -4 -29 -12t-6 -25q0 -29 16 -37q22 -13 37 -13q11 0 17.5 -1.5t13 -11t6.5 -27.5q0 -7 3 -23.5t3 -24.5q0 -7 -6 -37.5t-6 -37.5q0 -51 -25 -58q-6 -2 -15.5 -4t-13.5 -3.5t-9 -3.5t-7 -5t-2 -8q0 -7 -6.5 -25t-5.5 -29q9 -93 2 -141q-2 -13 3 -46 t-1 -44q-6 -27 -5 -34.5t5 -40t4 -68.5q0 -29 -2 -85t-2 -81q0 -9 2 -55.5t2 -55.5t-2 -46.5t-2 -61.5q0 -25 -12 -33q-7 -4 -15 -13.5t-17 -15.5t-24 -6q-7 0 -19.5 3t-19.5 3q-3 0 -11 -1.5t-24 -3t-38 -1.5q-4 0 -14 -0.5t-16 -0.5t-13.5 2t-12.5 7q-23 21 -32 39.5 t-9 48.5q0 12 2.5 30t2.5 28q0 11 19 31.5t22 29.5q1 3 -3.5 3t-11.5 -0.5t-14 1t-10.5 9t-1.5 20.5q4 22 0 67q-3 60 -0.5 141.5t0.5 106.5q0 47 -2 89l-3 42q0 20 2.5 65t2.5 73q0 60 -25 67q-16 4 -26.5 25t-10.5 43zM207 508q0 -8 2 -11t12 -3q15 0 15 18q0 16 -7 16 q-10 0 -16 -6t-6 -14zM322 1364q0 -14 14 -14q10 0 10 14q0 2 1 4t1.5 4t0.5 4t-1 3t-4 1q-22 0 -22 -16zM465 981q0 16 3 51t3 55q0 3 -3 27.5t-4 50.5t1 70q2 27 2 129q0 23 8 31q4 5 9.5 14t8.5 12.5t10.5 7t18.5 3.5q12 0 27 -2.5t26 -2.5q7 0 32 4.5t32 4.5 q10 0 26.5 -2t26.5 -2t21 -11q18 -18 22 -29.5t4 -37.5q0 -78 4 -234q0 -7 5.5 -43.5t-0.5 -44.5q-4 -18 -3 -37t0 -24q-5 -21 -2 -60q2 -14 2 -77q0 -67 1.5 -205.5t1.5 -206.5q0 -54 -3 -66q-6 -7 -1.5 -45t4.5 -45v-55q0 -18 2 -51.5t2 -61.5t-4 -53q-3 -15 -24 -30 t-36 -15h-160q-12 0 -29.5 14.5t-17.5 24.5q0 4 -4 11t-4 11l4 27q0 4 4 14t4 17q0 4 -3.5 11.5t-4.5 12.5q-2 15 -2 28.5t1 29t1 24.5q0 21 12 31.5t27 12t27 7.5t12 19q-3 8 -21 2t-39.5 -6t-21.5 16q0 22 -0.5 49.5t-1 47t-0.5 22.5q0 14 -2.5 86t0.5 86q4 23 2.5 128 t-0.5 134q1 22 -2.5 62.5t-3.5 58.5zM614 948q0 -4 5 -10t12 -6q5 0 14.5 3.5t9.5 6.5q0 4 -4.5 7.5t-11 6.5t-8.5 5q-6 5 -11.5 0t-5.5 -13z" />
<glyph horiz-adv-x="0" />
<glyph horiz-adv-x="2048" />
<glyph unicode=" "  horiz-adv-x="280" />
<glyph unicode="&#x09;" horiz-adv-x="280" />
<glyph unicode="&#xa0;" horiz-adv-x="280" />
<glyph unicode="!" horiz-adv-x="385" d="M45 1192q0 2 1.5 18.5t1.5 32.5t-3 27q-2 6 -2 22.5t1 29.5l1 13q0 31 10 50t35 36q8 6 51 6q11 0 20 -24.5t21 -24.5q2 0 7.5 20.5t13.5 22.5q20 4 31 2.5t22.5 -6t15.5 -4.5q12 0 32.5 -14t25.5 -23q4 -9 6 -25t1.5 -41t-1.5 -43.5t-3 -51.5t-3 -46q0 -8 -2 -27t-2 -20 q0 -10 4 -48t4 -50q0 -216 -15 -268q-10 -33 -10 -92q0 -7 2 -23t2 -18q0 -7 -4 -14t-4 -11q0 -1 -0.5 -5t-1.5 -13.5t-2 -25t-1.5 -46t-0.5 -70.5q0 -10 -14.5 -21t-26.5 -11q-14 0 -50.5 -4.5t-70.5 -2.5q-14 2 -27.5 11t-13.5 20q0 34 -10 102t-10 111q0 27 -7.5 84 t-7.5 84q0 79 -3 160t-3 82q0 17 -5 67t-5 72zM47 78q0 16 4 31t4 30.5t-2 55.5t-2 61t12.5 39t32.5 22q4 1 16 -0.5t19 0.5l5.5 2t9.5 3.5t13.5 2.5t20.5 1q82 0 103 -2q17 -2 35 -23.5t18 -38.5v-67q-1 -14 -2 -59.5t-6 -74.5q-1 -10 -12.5 -26.5t-20.5 -22.5 q-8 -5 -21.5 -6t-36.5 0.5t-32 1.5q-14 0 -36 -1t-38 -1t-31 2t-30 13.5t-15 27.5q0 4 -4 14.5t-4 14.5zM127 457q0 -23 20 -23q4 0 6 3t2 6.5t-0.5 8.5l-0.5 5q0 22 -15 22q-12 0 -12 -22z" />
<glyph unicode="&#x22;" horiz-adv-x="667" d="M25 1333q0 13 4.5 25t9.5 18.5t15 17.5t14 17q11 14 28 14q10 0 30.5 3.5t45.5 3.5q3 0 20.5 -3.5t20.5 -3.5q4 0 10.5 0.5t10 1t9 -0.5t11.5 -5q51 -26 51 -102q0 -14 -6 -41q-14 -129 -14 -158q0 -23 -9 -102q-3 -33 -20.5 -55.5t-44.5 -22.5l-25 -2q-3 0 -25 6t-38 6 q-30 0 -45 6t-23 27q-4 11 -3.5 32.5t-2.5 24.5q-10 20 -10 60q0 22 -4 69.5t-4 69.5q0 6 -3 34t-3 60zM231 1366q0 -8 6.5 -14t16.5 -6q3 0 5.5 4t2.5 8q0 6 -8 12t-16 6q-4 0 -5.5 -2t-1.5 -8zM344 1298q0 18 8 44.5t10 35.5q0 2 1.5 6t2 6.5t2 6.5t2.5 6.5t2.5 6t3.5 5.5 t4 3.5t5 2.5q33 11 96 11q13 0 50 -5.5t51 -5.5q13 0 23.5 -4.5t17 -14.5t6.5 -24q0 -10 3 -53.5t3 -52.5q0 -8 -5 -24.5t-5 -24.5q0 -64 -4 -88q-1 -8 -5 -30.5t-4 -27.5q0 -11 -6 -59q-1 -6 -5 -16t-9.5 -20t-13 -17t-13.5 -7q-42 1 -75.5 -2.5t-53.5 -1.5 q-22 1 -38.5 22.5t-16.5 41.5q0 38 -10.5 90.5t-10.5 79.5q0 17 -8 53t-8 57z" />
<glyph unicode="#" d="M16 403q0 9 5.5 25.5t5.5 24.5q0 67 24 67q17 0 27 35q0 7 7 43.5t7 75.5q0 25 5 101.5t5 115.5v8v8.5t-0.5 8t-1 8t-2 6.5t-3.5 6t-5.5 4t-7.5 2q-21 3 -21 35q0 13 -5 41t-5 41q0 77 15 100q4 6 17.5 11t18.5 16q2 4 10.5 18.5t11.5 25.5t3 30q0 18 3 56t3 56 q0 12 17.5 27t33.5 24q12 6 30.5 6t39 -2.5t29.5 -1.5q31 3 48 -5t21 -19t4 -27q0 -26 3 -72t3 -71q0 -14 10 -24.5t25 -10.5q18 0 33.5 17.5t15.5 37.5q0 13 4.5 43t4.5 43q0 43 9 65.5t40 27.5q62 10 121 -3q16 -3 33.5 -22.5t17.5 -36.5q0 -22 -9 -31t-18 -10.5t-10 -7.5 q0 -3 16.5 -12t16.5 -25q0 -54 4 -70q1 -5 1.5 -13t1.5 -11t5 -5.5t12 -2.5q11 0 19 -14.5t8 -26.5q0 -4 -2 -28.5t-2 -29.5q0 -1 0.5 -20.5t0 -29.5t-3 -26.5t-9.5 -27t-17 -16.5q-28 -13 -28 -39q-21 -105 -21 -158q0 -24 -5 -65t-5 -64q0 -4 -1 -16.5t-2 -24.5 t-0.5 -24.5t4 -20.5t9.5 -8q19 0 30 -20t11 -42q0 -7 -5 -43.5t-5 -44.5q0 -5 0.5 -18.5t0.5 -20t-2 -16.5t-7 -16t-13 -9q-30 -13 -37.5 -29.5t-7.5 -52.5q0 -28 -4 -110q0 -10 -0.5 -21.5t-1 -21.5t-4.5 -20.5t-12 -18.5q-3 -2 -10.5 -9.5t-10.5 -9.5l-9 -6t-11.5 -5 t-12.5 -1q-9 0 -27.5 -3t-27.5 -3t-28.5 3t-28.5 3t-25 10t-16 21q0 10 -1 26.5t-1 32t2 31.5q4 40 0 53q-5 16 0 64q1 18 -12 27.5t-33 9.5q-16 0 -27.5 -14.5t-11.5 -30.5q0 -28 -4 -91t-4 -90q0 -14 -19.5 -31.5t-32.5 -17.5q-3 0 -14.5 -2.5t-21.5 -1.5q-33 4 -101 4 q-11 0 -25 12t-14 23q0 43 2 86t2 57q0 107 -16 107q-13 0 -20.5 7.5t-9.5 21.5t-2 26.5t1.5 30.5t1.5 26zM158 147v-5.5v-5v-4.5t0.5 -5l1 -4t1.5 -3.5t2 -2.5t3 -1.5t4 -0.5q4 0 16.5 10t12.5 18q0 7 -6.5 13t-14.5 6q-20 0 -20 -15zM182 877q0 -11 4 -16.5t13 -0.5 q5 3 12 5t9.5 4.5t2.5 7.5q0 14 -24 14q-11 0 -14 -3.5t-3 -10.5zM309 596q0 -30 12 -49t35 -19q13 0 31 21q14 16 14 82q0 6 -1.5 22.5t-1 30t4.5 25.5q13 39 11 59q-3 30 -1 54t0 53t-12 51q-4 10 -30 10q-17 0 -31 -19t-14 -36q0 -48 -8.5 -142.5t-8.5 -142.5z" />
<glyph unicode="$" d="M45 989q-12 42 0 129q1 3 5.5 40.5t8 54t14.5 45t27 47.5q28 35 86 55q23 7 40.5 23.5t17.5 39.5q0 12 9 19.5t21 7.5t30 9t34 9q78 0 104 -2q23 -2 37 -37t27 -43q14 -8 42 -18.5t40 -17.5q15 -8 37 -31t24 -25q9 -9 17 -37q24 -84 24 -202q0 -8 -2 -43.5t-2 -42.5 q0 -23 -51 -51q-10 -5 -20.5 -7.5t-16.5 -2.5t-19.5 0.5t-19.5 0.5q-16 0 -40.5 4.5t-43.5 4.5q-10 0 -16 4.5t-10.5 12t-6.5 9.5q-9 9 -12.5 18.5t-4 17.5t1 32t1.5 45v8.5v8.5t-1 7t-3.5 8.5t-6.5 8t-11 8.5q-14 14 -31 14q-14 0 -28 -11.5t-17 -23.5q-5 -18 -6.5 -36 t-0.5 -48.5t1 -37.5q0 -63 96 -119q11 -7 21.5 -19.5t15.5 -15.5q42 -28 66.5 -46t57.5 -47.5t54 -62.5t31 -71q3 -11 11 -33.5t9 -28.5q13 -70 15 -112.5t-11 -147.5q-3 -16 -14.5 -23.5t-24.5 -11t-16 -8.5q-3 -6 10.5 -15t13.5 -22q0 -29 -16 -45q-34 -39 -49 -51 q-18 -16 -37.5 -24.5t-31.5 -10.5t-21.5 -7.5t-11.5 -16.5q-8 -39 -26.5 -54.5t-59.5 -15.5q-18 0 -37 1t-31 1q-70 0 -70 43q0 21 -24 43q-9 9 -30 11.5t-28 6.5q-8 4 -24.5 10.5t-28 13.5t-18.5 19q-58 89 -66 177q-2 17 -2 34.5t1 36t1 27.5t-0.5 32t-0.5 35.5t2.5 29 t8.5 28.5q16 27 31 31q20 4 39.5 4t42 -2t35.5 -2h45q26 -4 41.5 -28.5t13.5 -47.5q-1 -10 1.5 -31.5t2.5 -28.5q0 -9 -2 -20.5t-3 -16t1 -10.5q19 -33 32 -40q9 -5 21 -5q25 0 45.5 14.5t20.5 36.5q0 6 -4 27t-2 31q2 22 -8 53q-2 5 -6.5 19t-9 23t-11.5 15 q-5 5 -29.5 32.5t-44 44.5t-37.5 24q-16 6 -46.5 31t-41.5 36q-8 7 -35.5 28t-43.5 38t-25 37q-10 20 -23 72.5t-10 74.5q4 18 -4 45zM563 1171q0 -3 -0.5 -8t-1 -8.5t0 -7t2.5 -5t5 -1.5q6 0 13.5 7.5t7.5 14.5q0 25 -10 25q-8 0 -12.5 -6t-4.5 -11z" />
<glyph unicode="%" horiz-adv-x="1251" d="M31 1014q0 240 14 305q7 48 37 74t80 45q13 5 28 5.5t34.5 -1.5t29.5 -2q56 0 89 -2.5t68 -12.5t54.5 -29.5t35.5 -53.5t23 -85q2 -14 2 -32.5t-1 -40.5t-1 -31q0 -3 3 -26.5t5.5 -55t2.5 -53.5q0 -18 -2 -50t-2 -58t4 -50q3 -19 3.5 -39t-3 -44.5t-6 -38.5t-9 -45 t-8.5 -40q-6 -28 -12.5 -46t-23.5 -37t-42 -25q-14 -3 -45.5 -15t-52.5 -14q-11 -4 -72 -1t-76 3q-22 0 -53 21.5t-39 23.5q-27 8 -45 53q-5 10 -6.5 29.5t-7.5 32.5q-17 35 -4 180q3 40 2.5 64t-2.5 54.5t-2 37.5zM70 674q4 -3 6 -10t4 -12t6 -5q5 0 12.5 5.5t7.5 9.5 q0 24 -24 24q-9 0 -13.5 -3t1.5 -9zM231 1130q0 -7 2.5 -57t2.5 -88q0 -11 1.5 -23.5t3 -22.5t2.5 -22t-0.5 -27t-6.5 -32q-3 -10 -3.5 -22.5t0 -21t2 -24t1.5 -22.5q2 -20 16.5 -37.5t32.5 -17.5q25 0 34 23.5t7 47.5q-6 70 -2.5 151.5t2.5 88.5q-11 81 -2 172 q2 23 -16.5 38.5t-40 12.5t-29.5 -26q-7 -21 -7 -91zM350 35q3 8 5 21.5t5 21.5q26 75 58 147q2 5 4.5 15.5t5 20.5t4 19t2.5 11q3 15 13.5 33.5t11.5 21.5q2 5 14 45.5t16 52.5q9 23 41.5 108t55.5 150q2 5 36 99.5t40 116.5q44 139 71 206q2 5 12 31t13.5 36t10.5 30.5 t11.5 37t7.5 33.5q3 14 39 103q9 20 43 20q21 0 21 -31q0 -9 -4 -20.5t-9.5 -25.5t-7.5 -21q-10 -42 -41 -117q-4 -10 -7.5 -23.5t-6.5 -28t-6 -24.5l-35 -96q-5 -15 -13 -34.5t-13 -36t-9 -37.5q-4 -20 -16 -48.5t-12 -29.5q-2 -5 -4.5 -8t-5 -4t-4.5 -1.5t-4.5 0l-2.5 0.5 q-6 0 -8.5 -0.5t-4 -2.5t-1.5 -7q0 -6 1.5 -9t4.5 -4t8 -1q5 -1 2.5 -14.5t-8 -28.5t-8.5 -19q-19 -26 -25 -45q-6 -27 -25.5 -78.5t-25.5 -74.5q-1 -7 -15.5 -42.5t-19.5 -43.5q-3 -4 -11 -31t-16.5 -56t-9.5 -32q-7 -23 -23 -63t-22 -58q-3 -9 -9 -15.5t-7 -8.5 q-3 -6 -4 -17.5t-1.5 -23.5t-6.5 -31t-17 -39q-3 -6 -9.5 -24.5t-13.5 -28.5t-18 -15q-1 -1 -7 -3.5t-9 -2.5q-16 0 -25.5 7.5t-5.5 17.5zM717 416q-3 43 -2 65t4.5 60t3.5 65q0 10 -1.5 43.5t0 56t7.5 42.5q3 9 6 25.5t5.5 28.5t8 23.5t13.5 16.5q6 4 23 19.5t36 23.5 q41 18 133 18q65 0 102 -7t40 -7q36 0 63.5 -27t40 -64.5t12.5 -76.5q0 -24 -3 -79t-3 -83q0 -15 2 -47.5t2 -50.5q0 -12 -1.5 -30.5t-1 -32.5t4.5 -31q7 -24 7 -54q0 -24 -3.5 -75.5t-3.5 -83.5t-36 -93q-4 -8 -18.5 -11t-30.5 -3t-32 -4t-22 -14q-1 -2 -4.5 -8.5t-7 -10.5 t-9.5 -9.5t-15.5 -8t-22.5 -2.5q-8 0 -39 2.5t-54 4t-42 -0.5q-64 -10 -125 74q-8 11 -14.5 29t-6.5 28q0 5 -5 20t-5 23q-1 8 -0.5 37.5t-1.5 46.5q-4 30 -2 43q6 40 -2 119zM874 212.5q0 -5.5 6 -9.5t11 -4q4 0 4.5 4t-1 11t-1.5 9q0 10 -8 10q-4 0 -7.5 -7.5t-3.5 -13z M915 467q0 -3 5.5 -14t5.5 -21q0 -18 2 -54t2 -54q0 -14 1 -42t1 -42q0 -19 15.5 -35.5t35.5 -16.5q13 0 23 15t10 30v238q0 10 1.5 28.5t1.5 33t-3 28.5q-3 11 -3 28.5t1.5 41t1.5 35.5q0 20 -17.5 30.5t-37.5 10.5q-25 0 -29 -25q-4 -14 -1.5 -81t1.5 -87q0 -8 -8.5 -21.5 t-8.5 -25.5zM981 96q0 -9 7 -14.5t16 -5.5q5 0 8 7.5t10 12.5q3 3 1.5 7t-7 7t-10.5 3q-6 0 -11.5 -2t-9.5 -6t-4 -9z" />
<glyph unicode="&#x26;" horiz-adv-x="804" d="M31 471q0 24 8 55t8 47q0 35 29 93q4 9 28.5 31.5t24.5 43.5q0 10 -5 16t-13.5 11.5t-18 13.5t-20 25t-17.5 41q-24 92 -24 205q0 31 1.5 74.5t9 102t19.5 70.5q5 5 13 26.5t12 25.5q40 50 141 61q7 1 24 8.5t34 8.5q22 1 143 -3q15 0 40.5 -20.5t25.5 -36.5q0 -4 3 -19 t3 -20q0 -21 6 -42t6 -40q0 -32 -14.5 -64t-34.5 -32q-10 0 -32.5 1.5t-37.5 1.5t-20 -3q-26 -11 -36.5 -23t-10.5 -34q0 -12 3 -36t3 -34q0 -30 1 -47.5t5.5 -43.5t17 -39t31.5 -13q24 0 47 30q3 4 1.5 27t0.5 35q4 23 23 38t43 15q15 0 62.5 4t70.5 2q17 -2 33 -18l15 -7 q15 -7 19 -14q6 -12 7 -45.5t8 -46.5q4 -6 8 -10.5t6.5 -7t8 -5.5t7.5 -3.5t10.5 -3t10.5 -3.5q7 -2 12 -5t8.5 -9t5.5 -10t3.5 -14t2.5 -14.5t2 -17.5t1 -18q5 -24 0.5 -63.5t-4.5 -59.5q0 -17 -16.5 -32t-28.5 -15q-31 0 -31 -34q0 -8 -6 -17.5t-6 -17.5q0 -5 2 -25 t2 -51.5t-4 -75.5q-2 -30 2 -135t4 -145q0 -19 5 -35t5 -21q0 -21 -11.5 -34t-29.5 -13t-49 -2t-58.5 -2t-54.5 4q-12 1 -46 24t-44 23q-25 0 -57.5 -22t-40.5 -25q-39 -14 -137 -14q-12 0 -36.5 6.5t-31.5 7.5q-49 10 -71.5 56.5t-22.5 101.5q0 22 -3 151.5t-3 153.5z M131 162q0 -10 10.5 -18.5t18.5 -8.5q3 0 4 1.5t1 4t-0.5 5.5t-1.5 7.5t-1 8.5t-4 8t-11 4t-11.5 -4t-4.5 -8zM174 1081q0 -9 10 -19t21 -3q4 4 3.5 6t-4 7t-3.5 9t-4.5 7.5t-8.5 3.5t-9 -3.5t-5 -7.5zM305 424q0 -4 10.5 -9t10.5 -20q0 -72 4 -82q9 -34 61 -34q17 0 37 20 q3 2 5 5.5t3 5.5v3q0 7 3 59t-1 58q-6 35 -2 129q2 14 -18.5 29.5t-36.5 15.5q-39 0 -49 -17t-10 -55q0 -5 2 -14t2 -14q0 -2 -1 -15.5t-1 -31.5q0 -17 -9.5 -23.5t-9.5 -9.5z" />
<glyph unicode="'" horiz-adv-x="374" d="M37 1296q0 16 2 47t2 37q0 13 17 28t32 15t41 6.5t37 6.5q16 0 49.5 -3t52.5 -3q11 0 31.5 -20t20.5 -30q0 -42 -7 -100q-1 -6 -2.5 -35.5t-3.5 -48.5q-1 -15 -5.5 -40t-4.5 -42q0 -32 -1.5 -52.5t-6 -47t-16.5 -42.5t-31 -22q-25 -5 -39 -3.5t-39 5.5t-39 4 q-16 0 -21.5 1t-16.5 6.5t-15.5 21.5t-5.5 43q-3 45 -6.5 79t-7 55.5t-3.5 23.5q-1 7 2.5 17t3.5 16q0 4 -10 30.5t-10 46.5zM111 1001q0 -7 2 -8.5t8.5 0.5t11.5 2q19 0 19 21q0 7 -5 11.5t-10 4.5q-11 0 -18.5 -11t-7.5 -20z" />
<glyph unicode="(" horiz-adv-x="458" d="M41 217q-13 51 -10.5 61t8.5 49t2 95q-8 108 0 541q0 5 -1 33t0.5 45t6.5 32q1 2 4 10l4.5 12t3 11t0 12t-5.5 10q-6 8 -6 70q0 123 45 164q2 2 17 16t23 21t20.5 14.5t21.5 7.5q20 0 53 9.5t43 9.5q14 0 37 2.5t38.5 2t27.5 -6.5q11 -6 19 -14t12 -13.5t6 -17.5t2.5 -17 t0 -22.5t-0.5 -22.5q0 -10 2.5 -25.5t2.5 -27t-5 -21.5q-15 -24 -47 -30q-14 -3 -46 -27q-9 -8 -13.5 -17t-4.5 -13v-21q-1 -19 3 -95.5t-3 -92.5q-9 -26 -4.5 -102.5t4.5 -90.5q0 -104 4 -154q5 -70 5 -149t-2.5 -175t-2.5 -149q0 -16 10.5 -35.5t24.5 -25.5q16 -6 43 -6 q22 -6 32 -16t11.5 -19t1.5 -32v-9q0 -15 -9.5 -31.5t-10.5 -23.5q-2 -28 -14.5 -52t-37.5 -24q-18 0 -48 -2.5t-52.5 -2.5t-40.5 5q-30 7 -51 18q-65 31 -78 52q-35 50 -35 92q-1 18 0.5 60.5t-0.5 73t-10 54.5zM209 1098q0 -11 14 -11q10 0 10 11q0 2 1 8.5t0.5 10 t-3.5 3.5q-6 0 -14 -8t-8 -14z" />
<glyph unicode=")" horiz-adv-x="458" d="M29 1343q0 10 3 30t3 32q0 8 15 22t34 17q15 2 34 2t44.5 -1t40.5 -1q5 0 38.5 -9.5t47.5 -15.5q39 -15 76 -61q51 -59 51 -152q0 -4 5 -120t1 -140q-2 -16 2 -121t-4 -141q-15 -47 -6 -164.5t8 -128.5q-2 -42 1 -120t3 -109q0 -103 -16 -146q-3 -9 -19 -42.5t-20 -39.5 q-20 -29 -68 -47q-47 -20 -199 -20q-57 0 -61 27q-3 18 -3.5 35t0.5 39.5t1 31.5q0 22 1.5 36t11 27t26.5 13q14 0 25 2t12 2q6 0 17 10.5t13 15.5q9 25 5 87q-5 71 -5 150.5t2.5 176.5t2.5 150q0 9 2 28.5t2 22.5q0 34 -2 100t-2 99q0 3 -1.5 21t-1.5 33t3 19q14 21 14 49 q0 38 -14 66q-5 13 -6.5 47t-4.5 39q-6 13 -32.5 21.5t-50 17t-23.5 22.5q0 11 -3 39.5t-3 48.5z" />
<glyph unicode="*" horiz-adv-x="737" d="M14 977q19 36 86 51q18 5 39.5 17.5t28.5 23.5q10 13 -1.5 23.5t-35 18t-48.5 15.5t-44 19.5t-19 25.5q0 23 11 48q10 20 22 35t20 23.5t9 10.5q16 31 33 31q11 0 17 -2.5t15 -8.5t19 -10q13 -6 28 -27.5t19 -23.5q13 -10 39 -10q5 0 8.5 1t5.5 2.5t4 5t2.5 5.5t1 6.5 t0.5 6.5v7.5v6.5q0 14 -8 50t-8 52q0 14 9.5 27.5t27.5 13.5q13 0 44 4.5t48 4.5q7 0 22.5 -2.5t22.5 -2.5q8 0 21.5 -15t13.5 -26q0 -74 -16 -106q-5 -10 -2 -23t11 -17.5t21 5.5q4 4 21 8t22 6q9 7 21 19t23 21t26 16q17 9 32.5 -9.5t22.5 -37.5q2 -5 14.5 -15.5 t16.5 -17.5q20 -35 20 -51q0 -20 -22.5 -33.5t-50 -20t-50 -18t-22.5 -27.5t18 -28q9 -6 97 -39q13 -4 20.5 -16.5t-0.5 -28.5q-6 -8 -13 -32.5t-15 -37.5q-4 -6 -11 -19.5t-11.5 -21t-14 -14t-21.5 -6.5q-16 0 -29 7t-28.5 20.5t-22.5 17.5q-2 2 -21 11.5t-22 14.5 q-13 17 -27 7t-14 -27q0 -4 3.5 -13.5t2.5 -17.5q-2 -16 9 -43.5t12 -42.5q2 -18 -7 -31.5t-24 -13.5q-14 0 -49.5 -3.5t-44.5 -4.5q-37 0 -37 18q0 5 2 12t2 9q0 14 -24 0q-9 -6 -11 -6q-10 0 -10 16q0 14 9.5 49t9.5 51q0 21 -25 33t-45 -2l-8 -8q-19 -20 -28 -28 t-22 -16.5t-28 -12.5q-12 -4 -21 1t-13 10.5t-11 18.5q-2 3 -30.5 29t-35.5 51q-5 24 -2 31zM311 788q-2 -2 -1 -4.5t4.5 -4t7.5 -1.5q7 0 12.5 7.5t5.5 15.5q0 12 -10 12q-7 0 -10 -4t-4.5 -10.5t-4.5 -10.5z" />
<glyph unicode="+" d="M43 709q0 5 -0.5 20t0 21.5t1.5 19t3.5 18.5t6.5 13.5t11 10.5t17 3q13 0 35.5 6t38.5 6q54 0 65 9q3 2 10 8.5t9 8t7.5 8t5.5 10t3 12t0 14.5q-2 12 -2 32.5t1 41t1 22.5q0 13 5 27.5t5 17.5q0 14 13 22.5t26 8.5q8 0 46.5 5t45.5 5q42 0 70 -28q10 -9 14 -17t5 -23 t3 -22q3 -13 -1 -44t4 -52q1 -2 1.5 -16.5t8.5 -20.5q5 -4 8.5 -8t4.5 -6.5t3 -4.5t6 -3.5t11 -2.5q18 -2 112 -2q19 0 35 -14t16 -31q0 -15 2 -50t2 -46q0 -36 -4 -45q-24 -39 -65 -39q-20 0 -55.5 -2t-51.5 -2q-9 0 -23 -12t-14 -23q0 -9 4.5 -60.5t-1.5 -60.5 q-1 -3 -1 -15.5t-2 -20.5q-3 -12 -19 -32t-26 -20q-8 0 -34 -3t-35 -1q-14 3 -39 2t-39 2q-7 2 -20.5 15t-16.5 22t-3 19.5t1.5 21.5t1.5 15q0 7 -2 52.5t-2 53.5q0 13 -14 27.5t-27 13.5q-25 -3 -40.5 -2t-33 3.5t-22.5 2.5q-68 0 -68 47q0 10 -4 31t-4 31zM410 752 q0 -8 10.5 -17.5t17.5 -9.5q2 0 3 1.5t0.5 3.5t-1 4.5t-1.5 5.5t-1 5q0 21 -16 21q-4 0 -8 -5t-4 -9z" />
<glyph unicode="," horiz-adv-x="374" d="M25 78q-3 19 2 43t4 29q-5 9 -1.5 68.5t3.5 68.5q0 27 26 53q4 5 14.5 7t24 2t17.5 1q13 1 27 0t29 -2.5t28 -1.5q17 0 37.5 -7.5t29.5 -8.5q69 -4 74 -49q6 -57 6 -160q0 -19 -9 -38.5t-9 -25.5q0 -25 -11 -47.5t-21.5 -34.5t-33.5 -32.5t-29 -26.5q-2 -2 -10 -11 t-15.5 -16.5t-10.5 -9.5q-16 -14 -56 -41q-19 -12 -32 -12q-5 0 -12 7t-7 11q0 5 1.5 9t3 6t8 8.5t10.5 11.5q6 9 24 27q17 23 17 41q0 30 -14.5 41t-33.5 9.5t-40 6.5t-31 31q-3 6 -10 43z" />
<glyph unicode="-" horiz-adv-x="497" d="M25 590q0 14 17 33.5t28 21.5q31 5 61 6t71.5 -0.5t59.5 -1.5q6 0 65 -3t68 -3q25 0 43.5 -16.5t18.5 -36.5q0 -9 1 -25t1 -29.5t-2 -27.5q-2 -8 -17 -27q-16 -22 -57 -22q-17 0 -55 -3t-56 -3q-160 0 -211 6q-11 1 -19.5 10t-8.5 16t-2 27t-2 27q0 8 -2 25.5t-2 25.5z " />
<glyph unicode="." horiz-adv-x="374" d="M18 109q0 20 5.5 74.5t5.5 58.5q0 1 -1 12t-1 22t2 17q9 29 34.5 45t57.5 16q5 0 30.5 -4t32.5 0q13 3 40.5 -6.5t41.5 -9.5q26 0 45 -12.5t23 -38.5q4 -6 2 -73.5t-2 -68.5q0 -20 1 -45.5t1 -35.5t-1.5 -22.5t-7.5 -16t-16 -6.5t-28 -3q-11 0 -16.5 7.5t-8.5 15t-8 6.5 q-12 -2 -16.5 -10t-4 -16.5t-5.5 -15.5t-21 -7q-9 0 -26 -2t-32 -2t-30 4q-4 1 -20 3t-21 3q-25 7 -40.5 42t-15.5 69z" />
<glyph unicode="/" d="M-2 -10q0 27 20.5 74.5t22.5 52.5q6 18 15 52.5t18 63.5q0 1 13 34t13 48t23 70.5t29 89.5q2 8 20.5 53.5t20.5 53.5q4 16 14 49t16 63q4 15 12.5 38.5t17 44.5t9.5 24q3 11 12 43t15 49q14 35 37.5 119t48.5 141q4 10 11 25t11.5 27.5t8.5 29.5q2 8 8.5 17.5t7.5 15.5 q11 56 31 112q22 55 37 70q17 16 42 16q21 0 74 3.5t90 3.5q14 0 22.5 -10t8.5 -27q0 -19 -17.5 -60.5t-19.5 -50.5q-14 -56 -31 -88q-11 -18 -38 -139q-4 -22 -21.5 -55.5t-21.5 -49.5q-24 -100 -46 -153q-16 -39 -28.5 -87.5t-26.5 -74.5q-9 -21 -22 -69.5t-25 -73.5 q-20 -51 -53.5 -159.5t-42.5 -152.5q-4 -17 -11 -29.5t-8 -29.5q-3 -23 -18 -50t-18 -36q0 -1 -3 -14.5t-4 -17.5t-4.5 -16t-6 -17t-7 -14.5t-9.5 -14t-11.5 -10t-14 -7.5t-16.5 -2q-27 0 -83 -3t-85 -3q-13 0 -25 9.5t-12 21.5zM649 1372q0 -8 5 -15t12 -7q10 0 10 16 q0 3 1.5 13t1.5 16t-3 6q-11 0 -19 -10.5t-8 -18.5z" />
<glyph unicode="0" d="M29 696q0 17 3.5 57t2.5 64q-4 70 -4 92q0 8 8.5 25.5t7.5 28.5q-1 7 -8 23.5t-8 23.5q-5 19 -1 81.5t3 84.5q0 84 14 118q2 4 8.5 12t7.5 13q4 24 21 41q34 34 70 52t88 18q21 0 44.5 2t52 5.5t44.5 4.5q19 2 52.5 -2t45.5 -4h12.5h14t14 -0.5t14.5 -1t13 -2t13 -4 t10.5 -5.5t9 -7.5t6.5 -10.5q6 -13 25.5 -26t25.5 -19q43 -52 53.5 -116t5.5 -169q-1 -17 3 -49t4 -37q1 -7 -5 -82q-3 -34 -3.5 -71t0.5 -87.5t1 -70.5q0 -10 3.5 -113.5t3.5 -113.5q0 -19 2 -58t2 -59q0 -14 -3 -57t-1 -66q4 -50 -43 -114t-87 -77q-42 -13 -51 -10.5 t-18 11.5t-23 8q-11 -1 -20.5 -9t-31 -16t-62.5 -8q-17 0 -61 -2t-62 -2q-36 0 -87 24t-71 52q-3 5 -11 18t-12 20.5t-9.5 18.5t-8.5 21t-4 20q-3 25 -2 86.5t-2 114.5q-12 147 -4 221q2 21 -2 57.5t-4 50.5zM221 700q0 -26 10 -26q6 0 10.5 8.5t4.5 17.5q0 23 -8 23 q-17 0 -17 -23zM313 459q-1 -8 -0.5 -31.5t1.5 -46.5t2 -46.5t1 -31.5q0 -24 15.5 -37.5t42.5 -13.5q19 0 34 13.5t15 31.5q0 13 3 84t3 84q0 6 -2 28.5t-3.5 44.5t-2 46.5t1.5 36.5q3 13 0.5 42t-0.5 42q5 42 5 89.5t-2.5 105.5t-2.5 89q0 3 1.5 25t2 42.5t-1 42.5t-6.5 31 q-26 52 -58 52q-22 0 -34 -13.5t-15 -38t-2.5 -47.5t2.5 -52.5t2 -43.5q0 -6 -2 -27.5t-2.5 -35t2.5 -27.5q5 -16 5 -33t-2.5 -37t-2.5 -32q0 -30 2.5 -93.5t2.5 -123t-5 -119.5zM526 1137q0 -21 17 -21q3 0 8.5 8t5.5 13q0 6 -9.5 12t-19.5 6q-7 0 -7.5 -2.5t2.5 -7.5t3 -8 z" />
<glyph unicode="1" horiz-adv-x="385" d="M43 815q0 17 2 51t2 52q0 16 -2 49t-2 49q0 22 -1.5 81t-1 96t4.5 48q9 23 37 55q3 3 25.5 14.5t25.5 14.5q26 24 49 61q29 46 72 46q28 0 35 -7q23 -8 30 -18q13 -21 13 -68v-127q-1 -13 3 -69t-3 -78q-6 -38 -6 -81.5t3 -97.5t3 -83q0 -6 -6.5 -13t-6.5 -12q0 -2 6 -12 t7 -18q3 -35 4 -76.5t1 -71.5t-0.5 -78t-0.5 -73q0 -10 2 -88t2 -87q0 -4 1 -21.5t1 -32t-2 -21.5q-3 -12 -2.5 -39t-1.5 -37q-2 -8 -11.5 -19t-9.5 -18q0 -8 8.5 -17t8.5 -14q0 -22 -37 -45q-10 -10 -55 -10q-10 0 -69 2t-69 2q-32 0 -36 55q0 5 -1.5 26.5t-1.5 37.5 q0 13 -7 44t-7 44q0 64 1 159.5t1 108.5q0 2 1 12.5t1 19.5t-2 13q-5 13 -5.5 24.5t1.5 28t2 27.5q0 35 -3 105.5t-3 105.5zM225 625q0 -6 5.5 -10.5t13.5 -4.5q10 0 10 15q0 4 -1.5 5t-5.5 1.5t-7 3.5q-6 5 -10.5 1.5t-4.5 -11.5z" />
<glyph unicode="2" horiz-adv-x="729" d="M18 156q0 24 3.5 71t3.5 70q0 34 8 61q14 58 16 70q4 19 11.5 31.5t17.5 22.5t14 18q5 11 8 26t6 19q7 10 14 32.5t13 30.5q11 19 34 38t44.5 38t32.5 39q5 10 12 20t19 23t19 20.5t24.5 24.5t23.5 23q24 24 43 67q27 53 27 121q0 3 5 24.5t5 47.5q0 2 0.5 11.5t0.5 15.5 t-2.5 14t-8.5 14q-31 31 -45 31q-21 0 -37.5 -11.5t-20.5 -29.5q-2 -10 -3 -30.5t-0.5 -38.5t1 -38.5t0.5 -23.5q0 -6 -2 -19t-2 -22q0 -18 -23 -33.5t-42 -15.5q-14 0 -35.5 -4.5t-34.5 -4.5q-10 0 -25.5 1t-21.5 1q-50 0 -62 17t-12 71q0 7 -3.5 20t-4.5 19q-2 17 2 70 q4 102 4 123q0 8 1.5 17.5t4 17.5t5.5 18t6.5 17.5t7 18t6.5 17.5q6 18 21.5 32t29 21t38 17.5t34.5 15.5q24 11 59.5 17.5t58.5 1.5q27 -8 70 -4q46 3 75.5 -1.5t50 -11t40.5 -6.5q31 0 64 -36.5t49 -75.5q26 -70 26 -144q0 -13 4 -40t4 -40q0 -11 -2 -32t-2 -33 q0 -87 -43 -178t-110 -164q-6 -7 -18 -17.5t-21 -20.5t-15 -22q-5 -11 -14 -21t-20.5 -20t-16.5 -16q-10 -11 -22 -26.5t-21 -28t-20 -27t-21 -24.5q-22 -22 -35.5 -59.5t-13.5 -78.5q0 -19 11.5 -32t28 -18t36.5 -5q8 0 90 2t96 -2q3 0 22.5 2.5t33 2.5t26.5 -3 q40 -18 53 -49q5 -11 6 -27t-1 -44.5t-2 -45.5q0 -37 -21.5 -64.5t-58.5 -27.5q-15 0 -44 -3t-44 -3q-21 0 -62 3t-61 3q-10 0 -28 2t-32.5 2t-27.5 -4q-36 -10 -146 0q-23 2 -53 2t-48.5 0.5t-23.5 3.5q-5 4 -14.5 13t-9.5 12q0 1 -2 10.5t-2 15.5q0 18 6.5 26t13 10t6.5 5 q0 7 -8.5 11.5t-17.5 14t-9 28.5zM264 63q0 -5 3 -7t8 -2.5t10 0t11 1t9 0.5t6.5 5t3.5 12q0 3 -3.5 5.5t-6.5 2.5q-10 0 -25.5 -5.5t-15.5 -11.5z" />
<glyph unicode="3" horiz-adv-x="712" d="M23 1167q-3 36 4 64q3 9 8.5 31.5t9 34t10.5 30.5t14.5 30.5t18.5 23t25 18.5q35 16 82 31q11 4 23.5 5.5t22 1.5t22.5 0.5t24 2.5q15 3 31.5 3t28.5 -1t29 -2.5t30 -1.5l33 1.5t34 -1.5q14 -3 20 -4.5t13 -4.5t16 -6l53 -20q21 -12 39.5 -37.5t29.5 -51.5t18 -52 q1 -5 3.5 -14t4 -15.5t3 -14.5t1.5 -14q0 -29 2.5 -81.5t2.5 -95.5t-5 -81q-1 -11 -3.5 -22.5t-5 -19t-5 -17t-3.5 -13.5q-5 -14 -33 -49.5t-28 -56.5q0 -18 5 -32t11.5 -23t18.5 -21q11 -11 21.5 -34.5t17 -50t6.5 -46.5q0 -40 3 -111.5t3 -113.5q0 -13 2 -37t2 -43.5 t-4 -36.5q-9 -58 -20 -82q-18 -40 -34 -61.5t-40.5 -36.5t-67.5 -29q-9 -3 -17.5 -4t-15 -0.5t-11.5 2t-11 3t-10 1.5q-13 1 -35.5 -8t-36.5 -8q-18 1 -43 3t-41.5 3.5t-38 2.5t-41.5 1q-31 0 -48.5 5.5t-32.5 17t-29 16.5q-8 3 -20.5 21t-16.5 28q-4 11 -12 31.5 t-12.5 32.5t-9 30.5t-5.5 36.5t-1 39t0.5 46.5t0.5 39.5q0 97 2 144q0 14 15.5 28.5t27.5 16.5q31 6 61 0q8 -2 16 -2t19.5 1t20.5 1q3 0 15 -1l24 -2t16 -1q10 0 24 -14.5t17 -26.5q17 -69 8 -107q-2 -9 -2.5 -23.5t0 -24.5t2.5 -30t2 -22q0 -17 25 -29q4 -3 10.5 -3.5 t15 0.5t10.5 1q5 0 10 1t12.5 3t12 7.5t4.5 13.5q0 14 2.5 37t2.5 38q0 7 -5 35t-4 39q4 30 4 131q0 10 -1 17t-4 13l-4.5 9t-7.5 7.5t-8.5 5.5t-11.5 5.5t-12 6.5q-7 7 -42.5 5t-43.5 -1q-13 2 -82 2q-15 0 -27 18.5t-14 32.5q-4 19 -5 36.5t0 43.5t1 31q0 26 11 46.5 t30 20.5q8 0 17 6t20 12.5t23 6.5q10 0 29.5 -2t31.5 -2q5 0 13.5 -2.5t15 -5t14.5 -3t12 3.5q30 21 41 48q9 34 4 55q-4 10 -2.5 49t0.5 51q0 52 -2 58q-7 25 -20.5 35t-38.5 10q-17 0 -23 -4l-2.5 -2.5l-3.5 -3.5t-4.5 -4t-4.5 -4.5t-4 -4.5t-3.5 -4t-1.5 -4q-2 -4 -2 -17 t1 -32t1 -27q0 -11 -8 -17.5t-9 -13.5q-1 -3 6 -10t5 -20q-7 -47 -95 -39q-55 3 -94 0q-18 -2 -40.5 10t-22.5 37q0 24 -1.5 46t-4.5 50.5t-4 50.5zM438 418q0 -27 13 -27q14 0 14 27q0 6 -4 10t-10 4q-5 0 -9 -4t-4 -10z" />
<glyph unicode="4" horiz-adv-x="712" d="M2 309v45q0 5 -2 14.5t-2 17.5t4 15q8 13 16 52q14 62 41 151.5t50 143.5q6 18 15 48t16.5 57t16.5 57t15 48q6 17 18.5 39.5t19 41.5t5.5 44q0 10 2 24t7 29.5t10 30t11.5 30.5t10.5 26t9 21l5 11q4 12 13 38t14 39.5t14.5 34.5t20.5 40q14 23 45 23q10 0 28.5 2t33.5 2 t30 -4q10 -4 23 -4t29 2t24 2q9 0 24.5 -5t22.5 -12q9 -8 10.5 -33.5t9.5 -36.5q3 -4 4.5 -20t1 -32t-1 -34t-0.5 -20q0 -40 -1.5 -100.5t-1.5 -109.5t3 -101q3 -60 3.5 -139.5t1 -131.5t2.5 -65q3 -15 2.5 -38.5t1.5 -39.5q3 -15 15.5 -28t31.5 -17q4 -1 8 -4t7.5 -8 t6.5 -10.5t5.5 -12.5t4.5 -11.5t4 -11t3 -8.5q5 -23 3 -36.5t-6.5 -37t-4.5 -38.5q0 -48 -27 -56q-4 -1 -14.5 -3t-15 -3.5t-10.5 -5t-8.5 -9t-2.5 -13.5q0 -9 1.5 -29t1.5 -37t-3 -33v-24q0 -24 -6 -35q-15 -24 -29 -29q-31 -12 -98 -12q-7 0 -50.5 3t-50.5 3 q-12 0 -24 12.5t-17 26.5q-6 17 -6 64q0 50 -2 77q-1 16 -4.5 26t-12 13t-14.5 3.5t-20 -0.5t-21 -1q-9 0 -23 -2t-18 -2q-10 0 -44 3t-44 3q-62 0 -104 15q-37 13 -37 65zM256 504q0 -16 3 -25.5t12 -14.5t24 -5q10 0 17.5 3.5t11.5 7t14 13.5q10 14 10 62q0 8 -3 19.5 t-3 15.5q0 10 3 30.5t3 30.5t-0.5 14t-2 12t-6.5 11.5t-13 3.5t-16.5 -5t-15 -15t-9.5 -23q-29 -110 -29 -135zM463 1270q0 -6 4.5 -10.5t11.5 -4.5q10 0 10 15q0 1 1 7.5t0.5 10.5t-3.5 4q-7 0 -15.5 -8.5t-8.5 -13.5z" />
<glyph unicode="5" horiz-adv-x="716" d="M35 891q0 14 -3.5 41.5t-3.5 49t7 38.5q5 1 2 46.5t-2 57.5q4 61 0 228q-2 33 17 53t54 10q13 -3 36 6t40 9q6 0 72 5t82 -1q13 -2 27.5 -2.5t25 0t23.5 1.5t20 1q9 0 22.5 -3.5t22.5 -3.5q8 0 14 -9t8.5 -18.5t8 -15.5t12.5 0q6 5 6.5 22.5t10.5 23.5q5 4 13 4t18.5 -2 t15.5 -2q2 0 7 0.5t8 0t7 -1.5t8 -4q2 -2 9 -8t13 -12t9 -10q8 -9 6 -40.5t0 -41.5q5 -8 0.5 -32t-4.5 -32v-7.5v-8t-0.5 -6.5t-1 -6.5t-1.5 -5.5t-3 -6.5t-4.5 -6t-5.5 -6.5q-16 -16 -41 -16q-21 0 -80.5 2t-81.5 2q-16 0 -35 -2t-39 -2q-47 0 -47 -39q0 -5 4 -20.5 t4 -20.5q0 -20 -4 -40t-4 -36q0 -20 20 -9q10 6 17 17q8 12 18 20t25 13.5t24.5 8t30 6t27.5 5.5q17 3 40.5 -1.5t35.5 -4.5q34 0 68 -30.5t57 -71.5q4 -7 6 -16t2.5 -14.5t0 -18t-0.5 -17.5q0 -6 6 -18t6 -19q0 -235 4 -356q1 -15 4.5 -50.5t3.5 -57.5q0 -20 -3 -61t-3 -60 q0 -10 -3 -30t-3 -30q-1 -4 -2 -12q-3 -30 -6 -46.5t-10.5 -41t-20 -42.5t-30.5 -30q-58 -38 -117 -49.5t-144 -11.5q-11 0 -33 6t-34 6q-6 0 -26.5 -4t-33.5 -4q-35 0 -94 25q-8 4 -23.5 18t-19.5 23q-55 113 -55 163q0 14 -2 42.5t-2 37.5q0 24 2 59.5t2 57.5 q0 9 -0.5 25.5t-0.5 23t1.5 18t5.5 17.5t11 14t18 15q5 4 22.5 4.5t47.5 -1t42 -1.5q5 0 20 2t25 2.5t25 -2.5q16 -3 26.5 -14t10.5 -25q0 -7 2 -23t2 -24q0 -17 -1 -41t-2 -41t-0.5 -37t3.5 -33.5t9 -25.5t17.5 -17.5t28.5 -5.5q26 0 39 17t15 42q1 4 6.5 16.5t5.5 18.5 q0 9 -4.5 23.5t-5.5 21.5q-5 47 -2 105q4 61 0 182q0 74 -7 102q-4 17 -19.5 28t-31.5 11q-47 0 -47 -51q0 -10 -4 -36t-4 -36q0 -41 -14 -53q-8 -9 -22 -13t-24 -4.5t-32 0.5t-31 1q-7 0 -16 -3t-15 -3q-91 0 -96 37q-10 62 -10 229zM240 1233q0 -9 5.5 -16t12.5 -7 q8 0 10 4t2 13q0 3 2 8.5t2 8.5t-4 3q-10 0 -20 -4t-10 -10zM475 195q0 -3 -1 -9.5t-0.5 -9t5.5 -2.5q4 0 12.5 7t8.5 14q0 3 -4 6.5t-7 3.5q-14 0 -14 -10z" />
<glyph unicode="6" horiz-adv-x="735" d="M37 809q0 57 2.5 183t1.5 179q0 13 -0.5 34t0 26.5t1 17t3 18.5t6 17t10.5 25q3 8 10.5 24.5t10.5 24.5q11 27 65 49q11 4 28.5 11t26 10.5t24.5 8t22.5 3.5t19.5 -2q14 -4 33 -4t43.5 2t36.5 2h25h27.5t22.5 -1t27 -3.5t25 -6.5q71 -23 98 -38q82 -52 82 -234 q0 -19 1.5 -45.5t2 -36t-1.5 -20.5q-16 -35 -31 -42q-6 -3 -14 -3q-5 0 -41.5 -3.5t-52.5 -3.5q-9 0 -23 -3t-20 -3q-9 0 -26 6t-23 7q-31 7 -31 59q0 111 -61 111q-19 0 -35 -13q-7 -5 -11 -12t-4.5 -12.5t-1 -15t-0.5 -13.5q-4 -28 -4 -54.5t2 -57t2 -48.5q0 -37 45 -37 q18 0 29.5 3t27.5 10.5t27 11.5q14 6 64 6t97.5 -22.5t70.5 -65.5q21 -43 26 -76q5 -36 5 -83t-2.5 -94.5t-2.5 -59.5q0 -11 -9.5 -16t-4.5 -17q1 -2 -1 -11.5t7 -13.5q11 -7 11 -53q0 -91 4 -119q3 -8 0.5 -48t-2.5 -44q0 -13 -9 -23t-10 -14q-2 -14 1.5 -27.5t-1.5 -27.5 q-2 -6 -12 -21t-14 -24q-23 -44 -80 -68t-113 -24q-23 0 -63.5 -1.5t-62.5 -1t-36 4.5q-31 9 -61 7.5t-43 4.5q-94 32 -111 62q-28 51 -41 116q-4 25 4 31q2 1 9 11t14 10q4 0 9.5 -3.5t8.5 -3.5q6 0 0 23q-1 5 -25 6t-26 19q-3 20 -3.5 41.5t0.5 51.5t1 42q0 28 -1 75 t-1 62q0 11 3 42t3 54q0 17 -5 70t-5 92zM319 500q0 -14 3.5 -39t3.5 -39t-2 -41t-2 -41q0 -45 10 -61q5 -8 16.5 -16.5t18.5 -8.5q26 0 43.5 16t17.5 39q0 1 -2 49t2 48t2 48t-2 50q0 121 -6 141q-9 41 -49 41q-3 0 -8.5 0.5t-7.5 0.5t-5.5 -1.5t-7.5 -5.5q-3 -3 -9.5 -11 t-8.5 -10q-2 -5 -2.5 -17t-1.5 -15q-4 -19 -4.5 -39t0.5 -48.5t1 -39.5zM322 1309q0 -6 1.5 -9t3 -3.5t6 -1t7.5 -1.5q6 -3 13 -0.5t7 9.5q0 5 -9.5 9.5t-12.5 4.5q-16 0 -16 -8zM520 635q0 -4 7.5 -7t11.5 -3q16 0 16 10q0 7 -2.5 8.5t-7.5 1.5q-25 0 -25 -10z" />
<glyph unicode="7" horiz-adv-x="673" d="M-10 1309q0 7 -1 19.5t-1 22.5t2 19q5 17 21 37t30 20q11 0 74 4t112 5q35 0 98 -2t70 -2q14 0 42.5 3t42 3t43 -1t36.5 -1q30 0 50 -10t42 -35q6 -5 6 -27.5t2 -32.5q4 -16 4.5 -29.5t-0.5 -30.5t-1 -24q0 -44 -19 -124t-22 -99q-2 -16 -19.5 -75.5t-33 -114.5 t-15.5 -66q0 -22 -15.5 -64t-15.5 -57q0 -19 -7 -42.5t-9 -35.5q-3 -23 -12 -63t-11 -51q-3 -15 -13.5 -50.5t-12.5 -52.5q-13 -91 -41 -192q-3 -10 -11 -35.5t-10 -40.5q-5 -31 -14 -49q-6 -11 -13.5 -18t-19.5 -9.5t-20 -3t-23 -0.5q-8 0 -48.5 -4.5t-51.5 -3.5 q-5 0 -34 2t-34 2q-19 0 -33 11.5t-14 31.5q0 49 21 76q15 21 19.5 55.5t6.5 40.5q3 12 12.5 33t12.5 35q12 75 33 127q8 20 13 66.5t19 72.5q10 19 15.5 44t11.5 40q11 27 21.5 92t29.5 96q4 7 5.5 14t2.5 16t2 15q16 85 25 115q29 96 29 115q0 9 1.5 19.5t2.5 16.5 t-1.5 14t-9.5 17q-4 5 -15 7t-21 1.5t-22.5 -1.5t-14.5 -1q-12 0 -52.5 3.5t-78.5 3.5q-12 0 -47 -2.5t-56 0t-41 12.5q-6 3 -10.5 9.5t-7 16t-4 17.5t-2 21.5t-0.5 20.5v21v17zM233 248q0 -12 15 -12q4 2 4 10q0 2 1.5 10t1.5 14t-3 6q-7 0 -13 -11t-6 -17zM492 1270 q5 0 21.5 8.5t16.5 13.5q0 8 -6.5 12.5t-15.5 4.5q-14 0 -14 -17q0 -2 -1 -5.5t-2.5 -6t-2 -5t0 -4t3.5 -1.5z" />
<glyph unicode="8" horiz-adv-x="729" d="M29 1094q0 140 30 229q11 34 33 43q10 5 29.5 22.5t23.5 20.5q47 31 103 31q88 0 135 6q19 2 50 -2.5t44 -3.5q33 0 70 -15q56 -21 83.5 -53.5t45.5 -93.5q7 -25 10.5 -57t4 -50t0 -62t-0.5 -54q0 -13 -10 -26t-10 -21q0 -6 10 -19t10 -33q0 -6 -5.5 -32t-8.5 -33 q-6 -18 -34 -60t-28 -71q0 -14 4.5 -24t15 -23t15.5 -21q45 -71 45 -198q0 -24 3 -71t3 -71q0 -26 -5 -75.5t-5 -73.5q0 -35 -19 -87t-46 -69q-46 -24 -99 -41q-24 -6 -118 -8q-9 0 -33.5 -1t-40.5 -1q-100 0 -148 18q-49 17 -78 46t-55 83q-4 8 -4 41q0 8 -5 21t-5 22 q0 11 -1.5 38t-1.5 51t3 46q1 5 5.5 13t4.5 12q0 9 -7 25.5t-7 25.5q0 80 2 97q2 14 4 21.5t5.5 17t6.5 20.5q1 4 -0.5 18.5t0.5 18.5q5 15 31.5 63t26.5 74q0 8 -1.5 14.5t-6 13t-6.5 9.5t-9 11t-8 9q0 1 -5.5 8t-10.5 14t-10.5 18t-8.5 22q-2 9 -3 24.5t-3 24.5 q-10 51 -10 158zM299 510q0 -12 5 -44.5t5 -45.5q0 -10 -1.5 -28t-1.5 -32.5t3 -27.5q18 -76 49 -76q24 0 39 7t21 23t7 28.5t1 37.5q0 7 -3.5 26t-2.5 30q2 15 0 44.5t0 45.5v63q0 29 -13.5 49.5t-41.5 20.5q-54 0 -54 -35q0 -16 -6 -43t-6 -43zM303 1135q0 -13 1.5 -51 t0.5 -54q-1 -29 -2 -58.5t11.5 -52t39.5 -22.5q39 0 56 25l1 2q1 1 2.5 4.5t3 9t1.5 15t-2 22.5q-4 28 -4 43q0 13 4 33q4 1 2 45t-2 45q0 14 -22 26.5t-36 12.5q-21 0 -24 -2q-10 -7 -20.5 -20t-10.5 -23zM602 979q0 -23 12 -23q8 0 16.5 17t8.5 26q0 6 -3 7.5t-10 -0.5 t-10 -2q-14 0 -14 -25z" />
<glyph unicode="9" horiz-adv-x="735" d="M31 881q0 16 1 116.5t1 178.5q0 19 4 48t4 44q0 3 1 7.5t2.5 8.5t3 9t3.5 8.5t3.5 7.5t2.5 6q3 11 22 21.5t23 17.5l5 10t5.5 10.5t5.5 9t6.5 10t7 7.5t9.5 6q65 35 115 35q2 0 24 2t48.5 4t40.5 2q39 0 90 -13.5t86 -15.5q17 0 48 -19.5t42 -47.5q4 -10 13 -30t18 -41.5 t16 -45.5q6 -21 6 -162q0 -16 3 -47.5t3 -48.5q0 -23 1 -71t1 -72q0 -10 2 -36t2 -36q0 -15 -3 -40.5t-3 -41t3 -144.5t3 -145q0 -5 -2.5 -51t0.5 -51q2 -12 2 -26.5t-1 -33.5t-1 -30q0 -38 -41 -113q-18 -33 -43 -50.5t-63 -27.5q-49 -14 -96 -14q-14 0 -68.5 -3t-83.5 -1 q-25 2 -38 7t-14.5 10.5t-5.5 11.5t-12 8t-16.5 -1t-16 -6.5t-22 0t-33.5 17.5q-64 47 -75 111q-1 9 -3.5 23t-4 25t-3.5 21q0 1 -2.5 11t-4.5 20t-3.5 34t-1.5 54q0 66 16 90q23 27 70 27q3 0 26 -1t37.5 0t28.5 5q18 5 50 -9t32 -30v-51q-2 -26 -0.5 -39t4 -24.5 t2.5 -14.5q0 -14 17 -24.5t32 -10.5q21 0 35 6.5t17.5 15t5.5 17.5t0 14q-1 7 7.5 28.5t2.5 39.5q-4 10 -7 55.5t-3 63.5q0 45 -45 45q-5 0 -31 -13.5t-57 -13.5q-9 0 -26 -7t-30 -7q-73 6 -137 51q-49 37 -61 174q-2 29 -2 156zM231 983q0 -5 3.5 -12.5t11.5 -7.5 q10 0 10 20q0 1 0.5 5.5t1 8.5t-1.5 7.5t-6 3.5q-6 0 -12.5 -8.5t-6.5 -16.5zM301 1092q0 -29 1.5 -59.5t3.5 -45.5l1 -16q0 -12 -1 -40.5t-1 -58t2 -61.5q0 -10 25 -31q3 -2 5 -3.5t5.5 -2t5 -0.5h6.5h8q11 0 22 3.5t20 11t10 16.5t-2 48.5t2 51.5q5 17 1.5 46.5t-1.5 41.5 q10 80 0 154q-1 9 -8 16t-16 11t-19 6t-19 2q-8 0 -14 -4q-22 -19 -29.5 -39t-7.5 -47zM455 1260q0 -12 9 -22.5t21 -10.5q4 0 4.5 4.5t-1 12.5t-1.5 11v5.5v5.5t-0.5 4t-1 3.5l-2 2t-3.5 2t-5 0.5q-8 0 -12.5 -1.5t-6 -5.5t-1.5 -11z" />
<glyph unicode=":" horiz-adv-x="374" d="M33 205q0 10 2 26.5t2 20.5q0 71 29 74q10 1 20 9t12 9q30 7 55.5 7t64.5 -3.5t75 -3.5q31 0 41 -61q3 -18 -1.5 -58.5t1.5 -56.5q4 -18 4 -37t-2 -43t-2 -39q0 -11 -17 -23t-30 -12q-20 0 -74.5 -6t-93.5 -6q-29 0 -41 6q-11 7 -23 23t-12 35v26q0 21 -5 61t-5 52z M37 799q0 10 3 24.5t3 26.5q0 4 -3 12.5t-3 18.5q0 121 6 159q2 12 17 26.5t28 14.5q9 0 47 5t41 -1q12 -8 52 -3t53 3q16 -1 31.5 -19t15.5 -32q0 -7 4 -59t-2 -57q-5 -12 -3 -62.5t1 -62.5q-1 -14 -19.5 -27.5t-32.5 -17.5q-35 -5 -57 -4t-63 4.5t-62 3.5 q-24 0 -40.5 12.5t-16.5 34.5zM254 911q0 -16 20 -16q7 0 7 43q0 3 -5.5 5.5t-9.5 2.5q-12 0 -12 -35z" />
<glyph unicode=";" horiz-adv-x="374" d="M31 1006q0 30 8.5 46t32.5 19q7 0 41 8t55 2q2 -6 47 -2t53 4q20 0 40.5 -14t21.5 -33q0 -4 3 -30t3 -41q0 -33 -6 -76q-1 -10 -7 -27t-6 -24q0 -4 3.5 -16t3.5 -19q0 -17 -12.5 -37.5t-28.5 -20.5q-7 0 -50.5 2.5t-50.5 2.5t-23 -4.5t-24 -4.5q-55 0 -72 11l-7 4 q-8 5 -10.5 6.5t-7 6.5t-5.5 11q-2 7 -2 20.5t1 32t1 27.5q0 24 1.5 41.5t3.5 24.5l1 8q0 15 -4 37.5t-4 34.5zM39 47q-4 30 -0.5 107t0.5 106q-4 36 14.5 64t50.5 28q16 0 50 2t51 2q14 0 36.5 -11t32.5 -13q23 -4 37 -21.5t18 -43t5.5 -56.5t-0.5 -61q-1 -19 -1 -36.5 t0.5 -31t0.5 -14.5q-6 -63 -31 -88q-11 -11 -24 -26.5t-23 -25.5t-27 -24l-43 -37l-32 -23q-36 -22 -48 -2q-5 11 7 23q2 3 5 6t5 4.5t4.5 4l3.5 3.5l25 25q10 10 10 43q0 16 -1 23t-8 13.5t-22 8.5q-13 0 -55 6q-12 1 -25.5 18t-15.5 27z" />
<glyph unicode="&#x3c;" d="M88 682q-18 19 -14 46.5t20 41.5q23 22 45.5 41.5t35.5 30.5t25 22t19 19q4 5 12.5 12.5t20.5 17t18 15.5q18 16 39.5 40t24.5 27q12 12 21 17t15.5 6t8.5 2q10 4 18.5 12.5t18 16.5t22.5 12q18 5 37 6t33 0l35 -2.5t37 -1.5q8 0 20.5 -6t20.5 -6q15 0 19.5 -10t0.5 -22 t-12 -20q-76 -80 -125 -122q-2 -2 -8.5 -5t-12 -5.5t-10.5 -6.5t-6 -8q-3 -13 -8.5 -20t-15 -13t-13.5 -10q-12 -14 -51 -49q-14 -11 -16 -35.5t10 -36.5q8 -8 35.5 -36t50.5 -54q6 -7 17 -15.5t22.5 -16.5t17.5 -15q19 -21 42.5 -43t45 -41.5t33.5 -32.5q13 -15 8 -34 t-22 -19q-16 0 -50 -4t-51 -4q-13 0 -30 2.5t-33 1.5q-57 -6 -80 20q-11 11 -39 30t-39 30q-6 6 -16 20t-17 21q-27 26 -67 67.5t-56 57.5q-7 6 -4.5 17.5t-1.5 16.5q-3 4 -24.5 12t-26.5 13z" />
<glyph unicode="=" d="M37 831v134q0 12 5.5 24t15 19.5t20.5 7.5q23 0 55 2.5t55 4.5t55.5 2.5t57.5 -3.5q23 -4 77 -1t77 1q22 -2 70 2t80 -1t48 -30q3 -4 16 -3t15 -9q3 -8 3.5 -16.5t0.5 -22t2 -27.5q5 -50 -3.5 -78.5t-43.5 -33.5q-52 -8 -90 0q-26 5 -30 5.5t-42 -3.5q-23 -5 -86 -7 t-92 -7q-21 -1 -31 -1t-41.5 2t-48.5 3q-47 2 -110 2q-11 0 -23 12t-12 22zM39 549q0 9 2 26.5t2 26.5q0 11 11.5 23t23.5 12q21 0 59.5 3.5t61 4t61.5 -3.5q12 -2 30 -2t34.5 1t38 2t36.5 1q13 0 41 0.5t42.5 0.5t37 -1.5t41.5 -5.5q8 -1 19 -10t18 -9q6 0 15 9.5t22 9.5 q20 0 39 -19q16 -10 16 -51q0 -11 -3 -34.5t-3 -36.5q0 -6 0.5 -15t0 -12.5t-1 -9.5t-2.5 -9.5t-5.5 -8.5t-9.5 -11q-8 -16 -31 -16q-17 0 -96 -3t-93 -3q-19 0 -57 3.5t-66.5 3.5t-46.5 -7q-24 -9 -53 -9t-65.5 4.5t-55.5 4.5q-35 0 -59 30q-8 5 -3 23t3 24q-4 13 -4 64z M211 451q0 -13 14 -13q4 0 13.5 3.5t9.5 7.5q0 5 -4.5 9.5t-10.5 4.5q-22 0 -22 -12z" />
<glyph unicode="&#x3e;" d="M96 1006q-21 22 -16 41.5t26 19.5q5 0 25.5 -2t30.5 -2q18 0 38 5t38 5q8 0 32 -3t31 -3q19 0 37 -14q7 -5 20.5 -19t14.5 -18q2 -3 5 -15.5t9 -17.5q3 -2 18.5 -6.5t22.5 -11.5q8 -7 24 -20t26.5 -23.5t17.5 -20.5q5 -8 28 -24t27 -21q11 -12 26 -29.5t27 -30t29 -26.5 q13 -12 17.5 -22t4.5 -29q0 -10 -0.5 -15t-2.5 -10t-3.5 -7t-7.5 -8.5t-10 -10.5q-4 -5 -22.5 -26.5t-30.5 -33.5q-9 -8 -21 -25.5t-18 -23.5q-5 -5 -26.5 -21t-25.5 -20q-13 -13 -34.5 -39.5t-42 -48t-41.5 -35.5q-2 -1 -9.5 -6.5t-12 -8.5t-13 -6t-17.5 -3q-42 0 -69 4 q-23 3 -41 2.5t-40.5 -2.5t-25.5 -2q-10 0 -19.5 3.5t-17 10.5t-4.5 20t19 29q2 2 24.5 23t30.5 30q4 4 18 19.5t20.5 22.5t17.5 17.5t20 16.5q22 19 61 60t47 49q13 12 17.5 25t-0.5 26.5t-11 24.5t-20 24t-22 20t-22.5 18.5t-16.5 12.5q-28 25 -68 70q-21 25 -35 33 q-14 7 -27 18.5t-31.5 32t-25.5 27.5z" />
<glyph unicode="?" horiz-adv-x="698" d="M16 1065q0 29 19.5 53t19.5 27q0 11 -6 12t-13.5 -3t-13.5 1t-6 23q0 66 21 112q29 66 56.5 92.5t92.5 36.5q17 3 45.5 10t57.5 11t67 4q21 0 54.5 -8.5t38.5 -8.5q23 0 51.5 -10t42.5 -10q23 0 45.5 -15.5t34.5 -39.5q3 -7 15 -29.5t17 -33.5t10 -30t5 -36q0 -7 2 -51 t2 -52q0 -84 -15 -172q-2 -10 -14 -31.5t-12 -33.5q0 -11 -10 -31q-15 -28 -33.5 -54t-51 -64t-38.5 -46q-10 -11 -31 -61q-1 -4 -7.5 -22t-7.5 -21.5l-5 -17.5t-5 -20t-3 -18.5t-2.5 -23.5t-0.5 -25q0 -11 -11.5 -28t-23.5 -17q-13 0 -35 -6t-30 -6q-11 0 -32 -1.5t-31 -1 t-24 3.5t-23.5 13t-16.5 27q-2 4 -2 57q0 11 5 32.5t5 35.5q0 19 4.5 39t9.5 33t16 39t17 40q7 18 31 47t31 43q15 30 24 54q3 11 17.5 44.5t24 63t9.5 49.5q0 7 -5 19.5t-5 19.5q0 6 -2 29.5t-2 28.5q0 14 -18 27.5t-33 13.5q-21 0 -38.5 -13.5t-18.5 -31.5 q-2 -44 -0.5 -69.5t0.5 -55t-7 -60.5q-2 -8 -17 -16t-34 -8q-20 0 -62.5 -8t-82.5 -5q-20 1 -36.5 20.5t-16.5 37.5q0 7 -4.5 47.5t-4.5 48.5zM80 1149q0 -4 2 -5.5t5 -1t6.5 1.5l7 2t5.5 1q17 0 17 4q0 8 -5 15.5t-12 7.5q-5 0 -15.5 -8t-10.5 -17zM184 197q-2 10 0.5 38 t-0.5 44q-9 45 35 63q4 2 22 1.5t39 -1t44 1.5q19 2 54.5 -3t49.5 -5q10 0 21 -14t16 -25q7 -23 6 -36.5t-5.5 -31.5t-4.5 -22q0 -27 -16.5 -40t-16.5 -24q0 -10 20.5 -12t20.5 -6q0 -7 -2 -39t-2 -39q0 -13 -12 -22t-25 -9q-21 0 -92.5 -7t-104.5 -1q-11 1 -26 12.5 t-17 18.5q-7 30 -3.5 77.5t-0.5 80.5z" />
<glyph unicode="@" horiz-adv-x="1159" d="M33 543q-2 25 -2 54t1 61.5t1 46.5q0 11 6 74.5t6 76.5q0 80 29 156q34 89 93 167.5t132 112.5q76 35 142.5 53.5t144.5 18.5q131 0 223 -31q15 -6 41 -28q2 -2 28 -11.5t29 -11.5q59 -39 74 -61q4 -5 15 -21t15 -21.5t13 -19.5t13.5 -21.5l12 -20t12 -22.5t10.5 -22.5 t11 -25.5q11 -29 11 -60q0 -5 -4.5 -16t-4.5 -15q0 -13 13 -21.5t14 -12.5q7 -41 10 -93.5t3.5 -97.5t0.5 -147q0 -7 -7 -45.5t-7 -59.5q0 -19 -10 -51t-12 -45q-2 -10 -6.5 -22t-11.5 -26t-12.5 -23t-14.5 -24t-11 -18q-5 -9 -41 -41q-2 -1 -24.5 -22.5t-40.5 -26.5 q-8 -2 -26 -9t-39.5 -12t-47.5 -5q-6 0 -22 -0.5t-24 -0.5t-20.5 2.5t-21.5 8.5q-4 2 -17 10t-19 11t-19.5 6.5t-28.5 3.5q-13 0 -26 -14t-21 -17q-36 -14 -113 -14q-13 0 -24.5 1t-23.5 5t-17 5.5t-18.5 7.5t-16.5 7q-27 11 -40 37.5t-13 56.5q0 18 5 52t5 51t6 98t6 96 q0 86 29 256l10 92q2 20 31 66q21 32 54.5 41.5t82.5 9.5q21 0 60 -13t59 -13q11 0 22 8.5t21 11.5q7 3 20.5 3.5t32 -0.5t21.5 -1q10 0 17.5 -2t12 -6.5t7 -8.5t3.5 -10t1.5 -9.5t0 -8.5t-0.5 -6q-1 -18 -3.5 -35t-5 -38.5t-4.5 -47.5q-1 -15 -2 -35.5t-1.5 -29t-1.5 -20 t-3 -19t-6 -15.5q-10 -29 -10 -129q0 -53 -7.5 -130t-7.5 -142q0 -10 12 -27t23 -20q23 -6 36 -4t32 14q16 11 26 28t20 44.5t13 34.5q6 13 12 38t11 35q1 3 5 8.5t6.5 10t2.5 8.5q0 3 -4 13t-4 13q0 32 1.5 110.5t1.5 125.5t-4.5 104t-15.5 89q-2 5 -6 33.5t-6 33.5 q-7 18 -31 40.5t-32 35.5q-25 36 -75 62t-101 34q-4 1 -14.5 3.5t-21.5 4.5t-20 2q-15 0 -46 2t-46 2q-16 0 -25.5 16.5t-15.5 16.5q-9 0 -18 -12.5t-15 -15.5q-4 -1 -19 -6.5t-21 -7.5t-19 -7t-20 -9t-17 -9.5t-18 -11.5t-15 -13q-4 -4 -20.5 -15.5t-34 -26.5t-27.5 -30 q-11 -16 -29 -60.5t-18 -72.5q0 -15 -8 -64t-8 -126q0 -29 -3 -88.5t-3 -93.5q0 -1 3 -17.5t3 -34.5q0 -157 16 -239q14 -85 53 -137.5t121 -90.5q10 -5 34.5 -18.5t42.5 -20t38 -6.5q14 0 38.5 -14t47.5 -14q14 0 53.5 -2t72.5 -2t56 4q69 10 115 10q11 0 18.5 -12.5 t4.5 -36.5q-5 -42 -12 -58t-33 -26q-22 -9 -49 -13t-45 -4t-51.5 1t-47.5 1q-27 0 -160 9q-8 0 -37.5 11t-37.5 11q-19 0 -55 14t-48 17q-24 6 -55 24.5t-47 34.5q-3 3 -21.5 19t-35 32.5t-25.5 30.5q-39 59 -72 135q-29 65 -29 90q0 16 -8 47.5t-8 55.5q0 23 -2 50.5 t-5.5 60.5t-4.5 53zM514 369q0 -6 -1.5 -18t-1.5 -20.5t1.5 -18t8 -14.5t18.5 -5q17 0 30 6t20 14t12 23t6.5 24.5t3.5 28.5q1 4 1 6t-0.5 10t-1 18t0.5 31t3 48q1 8 7 30t6 29q0 74 4 113q1 11 2.5 29.5t3.5 33t6 31.5q2 4 0.5 50t-0.5 56t-15.5 20.5t-27.5 10.5 q-14 0 -26.5 -9t-18.5 -22q-6 -12 -6 -81q0 -43 -3 -94.5t-9 -101.5t-13 -85l1.5 -34t-1.5 -34q-10 -45 -10 -75z" />
<glyph unicode="A" horiz-adv-x="776" d="M10 74q2 11 4 39t2 32q4 43 16.5 131.5t14.5 106.5q1 7 8.5 22.5t7.5 24.5q0 2 -3 26t-1 42q3 17 7.5 57t7.5 57q1 13 7.5 57.5t11.5 83t5 46.5q0 12 4 36.5t4 38.5q0 21 9 60.5t10 66.5q1 14 6 51.5t4 59.5q-1 20 2.5 43t9 50t7.5 44q1 9 1 29t1 29q1 11 9 20t9 14 q3 17 16 48q14 30 70 30q105 13 172 13q17 0 24.5 -11.5t4.5 -23.5q-3 -9 0.5 -15t9.5 -6q5 0 8.5 1.5t4.5 5t1.5 6t0 8.5t-0.5 8q0 8 8.5 14.5t19 8t19.5 -0.5q3 -1 10 -3.5t10.5 -4t9.5 -5t9.5 -7t7 -9t5.5 -12.5q7 -24 12.5 -76t7.5 -67q3 -16 6 -66.5t11 -76.5 q7 -27 14 -107q3 -21 10 -64t12 -76.5t5 -53.5q0 -62 8 -74t11 -29t4 -39t1 -30q4 -30 8 -88t6 -80q1 -6 12 -62t15 -116q1 -24 10.5 -71.5t12.5 -72.5q5 -67 8 -82t-7.5 -28t-29.5 -13q-4 0 -21.5 -6t-31.5 -6q-13 0 -37.5 3t-40.5 3q-5 0 -18.5 -2t-18.5 -2q-16 0 -30 3.5 t-23 7.5t-17 13.5t-12.5 15.5t-9 19.5t-6 19t-5 21t-4.5 19.5q-7 29 -20 44t-41 15q-10 0 -38.5 -3t-33.5 -7q-9 -7 -15 -15t-9.5 -13t-6 -17t-3 -15t-2 -19.5t-1.5 -18.5q-3 -20 -6 -32t-14.5 -25t-30.5 -13h-65q-1 0 -12 -3t-23 -3q-82 0 -92 10q-10 8 -10 29q0 5 -7.5 14 t-5.5 23zM324 555q0 -5 -0.5 -18.5t-0.5 -21t1 -19.5t4 -18.5t8 -14t13.5 -11t19.5 -3.5q41 0 41 55q0 11 -4.5 32.5t-4.5 34.5q0 10 1 24t1.5 24.5t0 24t-2.5 24.5q-1 3 -6 14t-6 27q0 1 -2 20t-2 25q0 5 -3.5 8t-7 4.5t-5.5 1.5q-15 0 -23 -10t-8 -25q0 -32 -8 -96l-3 -23 q-3 -24 -3 -59zM455 1331q0 -7 2.5 -8.5t11.5 -1.5q12 0 12 10q0 2 0.5 6t0.5 6.5t-1 5t-3 4t-5 1.5q-7 0 -12.5 -7.5t-5.5 -15.5zM606 715q0 -15 6 -15q3 0 5.5 2.5t4 7.5t1.5 11q0 10 -3.5 20.5t-7.5 10.5q-6 0 -7.5 -6t0 -18t1.5 -13z" />
<glyph unicode="B" horiz-adv-x="794" d="M31 315q0 8 5 40.5t5 78.5q0 11 -1 46t-1 48q0 40 7 67t7 28q0 10 -10 36t-10 50q0 112 6 165q1 15 -2.5 134.5t-3.5 134.5q0 18 7 24.5t15.5 9t10.5 9.5t-0.5 9.5t-8 3.5t-11 5t-9.5 18.5t-4 39.5q0 13 3 47t3 61q0 14 12.5 28.5t28.5 22.5q39 19 65 9q9 -3 79 -1 t120 -6q12 -2 75 3.5t66 5.5q103 -5 168 -42t88 -126q7 -27 10 -50.5t4 -51.5t3 -46q4 0 2 -76l-2 -77q0 -17 -6.5 -34t-6.5 -28q0 -14 -9.5 -38t-14.5 -29q-35 -35 -35 -80q0 -13 2 -22.5t4 -14t8.5 -14.5t10.5 -17q3 -5 10.5 -19l15 -28t11.5 -25q5 -13 7.5 -50.5 t6.5 -51.5q4 -16 4 -39.5t-2 -51t-2 -36.5v-43v-41.5t-0.5 -34.5t-2 -34.5t-3.5 -28.5t-6 -29t-9 -24q-20 -45 -39 -72q-5 -7 -12.5 -14t-13.5 -11t-17.5 -8.5t-16 -6.5t-19 -6.5t-15.5 -4.5q-36 -14 -59 -19q-82 -14 -293 -14q-10 0 -68.5 4t-68.5 4q-16 0 -29.5 7 t-20.5 14.5t-22 25.5q-7 9 -8 32.5t1.5 74t2.5 82.5q0 3 -6 26t-6 51zM135 569q0 -8 6 -15t13 -7q16 0 16 31q0 22 -11 29q-4 1 -7 -1q-17 -17 -17 -37zM334 465q0 -3 3 -13.5t3 -17.5v-28.5v-27t0.5 -22.5t2 -20.5t4 -16.5t7 -14.5t10.5 -9t15 -6.5t20 -2q45 0 64 47 q4 12 4 78q0 13 0.5 40t0.5 41t-1.5 36t-5.5 44q-3 18 -19.5 26.5t-35.5 8.5q-23 0 -44.5 -7.5t-21.5 -18.5q0 -20 -3 -58.5t-3 -58.5zM336 946q8 -49 70 -49q14 -4 20 0q18 13 25.5 32t8.5 33t1 52q0 19 4 31t9 15t9 5.5t4 5.5q0 5 -13 17t-13 20q0 15 -18 32t-44 17 q-15 0 -33.5 -16t-21.5 -31q-6 -41 -6 -106q0 -1 -1.5 -25.5t-0.5 -32.5zM645 834q0 -11 10 -11q4 0 9.5 7.5t5.5 11.5t-15 4q-10 0 -10 -12z" />
<glyph unicode="C" horiz-adv-x="780" d="M33 432q0 7 3 43t3 51q0 22 1 98.5t1 96.5q0 5 -5.5 112t1.5 142q3 44 2.5 76.5t-2.5 72.5t-2 45q0 70 20 129q43 115 193 142q34 4 49.5 3.5t37 -3t32.5 -2.5q2 0 10 1.5t26.5 3t45.5 1.5q51 0 86 -6q65 -13 116 -49q42 -32 62 -111q10 -40 10 -61q0 -2 6 -16.5t6 -35.5 q0 -3 -3 -13t-3 -13q0 -8 -12 -17.5t-12 -21.5q0 -4 14.5 -11.5t15.5 -17.5q6 -69 0 -139q-3 -33 -37 -33q-11 0 -23 5t-18 5q-5 0 -14.5 -5.5t-15.5 -6.5q-27 -4 -113 -4q-26 3 -40 28.5t-11 47.5q6 14 1 55.5t-5 56.5q0 46 -10 54q-15 12 -60 12q-31 0 -44 -11.5 t-13 -41.5q0 -26 3.5 -75t2.5 -75q0 -13 -4 -37t-4 -33q0 -11 3.5 -38t2.5 -43q-4 -36 -2 -145.5t2 -145.5q-1 -54 4.5 -119.5t5.5 -71.5q0 -13 15 -21.5t30 -8.5q21 0 33 5t20 21q2 4 8.5 10t10.5 14.5t4 22.5q0 50 0.5 85t1 50.5t0.5 16.5q0 7 -3 23t-3 24q0 42 24 49 q20 6 70 6q20 0 37.5 5.5t32.5 7.5q5 3 32 1.5t33 -1.5q14 0 30.5 -21.5t16.5 -36.5q0 -75 -6 -114q-2 -14 -18.5 -22t-16.5 -11q0 -16 16.5 -22t18.5 -13q2 -16 1 -40t-3 -64.5t-2 -55.5q0 -49 -22 -88q-32 -64 -50 -82q-22 -22 -69.5 -38.5t-89.5 -16.5q-21 0 -73 1 t-108 1q-33 0 -77.5 9t-57.5 24q-9 9 -31 18t-30 14q-12 9 -22 21.5t-15.5 20.5t-11.5 28.5t-7.5 26.5t-7 33.5t-6.5 31.5q-23 97 -16 144q3 8 0.5 34.5t-2.5 28.5zM201 586q0 -12 14 -8q4 2 11 3t11.5 2t4.5 3q0 16 -23 16q-18 0 -18 -16zM645 437.5q-7 -9.5 0.5 -18 t18 -9.5t14.5 4q2 11 -12 22t-21 1.5z" />
<glyph unicode="D" horiz-adv-x="808" d="M41 700q0 13 3.5 40.5t2.5 43.5q-2 42 1.5 146t-1.5 145q-4 46 -4 115t1.5 116.5t2.5 55.5q8 36 18 45q6 6 17 10q30 13 55 13q34 0 76.5 3t60.5 3q24 0 38.5 -5t18 -11.5t7 -11.5t8.5 -5q4 0 9 3t11.5 8.5t10.5 8.5q20 13 74 9q3 0 24 1t25 1q12 0 46 -6t42 -9 q11 -3 26.5 -12.5t24.5 -13.5q35 -15 45 -27q25 -30 48.5 -78t23.5 -78q0 -198 2 -331q0 -3 4 -75.5t-2 -84.5q-7 -48 -0.5 -136t-1.5 -165q-2 -19 3.5 -97.5t-1.5 -101.5q-5 -24 -22 -72t-21 -57q-12 -18 -26 -31t-33 -21t-32.5 -12.5t-39.5 -11t-39 -10.5 q-11 -3 -46.5 -3.5t-76 0.5t-86.5 -1q-127 -6 -188 0q-50 5 -62 14q-23 18 -29 32.5t-6 43.5q0 4 -1 43t0.5 64.5t6.5 44.5q3 10 34.5 13t31.5 13q0 6 -7.5 8.5t-20 4t-19.5 4.5t-15 15.5t-8 23.5q0 20 -5 44t-5 42q0 8 4 35.5t2 41.5q-3 19 -3.5 38.5t0.5 42.5t1 30 q0 19 -4 53t-4 49zM338 688q0 -2 4 -15t4 -16q0 -52 4.5 -98t6 -62t-4.5 -71q-2 -11 -0.5 -37t0.5 -37q-1 -14 1.5 -25t5.5 -17.5t3 -8.5q0 -20 48 -20q12 0 31.5 15.5t19.5 29.5q0 26 1.5 74.5t1.5 87.5t-3 73q-6 92 -3.5 144t8 99t5.5 50q0 7 -6.5 25.5t-7.5 23.5 q-4 26 -1.5 98t1.5 97q0 13 -10.5 28.5t-22.5 20.5h-21q-55 0 -55 -35l1 -132q1 -132 -1 -132q0 -8 -2 -60t-2 -59q0 -5 -3 -20t-3 -21zM508 1266q0 -13 16 -13q3 0 11 -4t12 -5t8 5q4 13 -5.5 22t-17.5 9q-24 0 -24 -14z" />
<glyph unicode="E" horiz-adv-x="626" d="M41 342q-3 6 2 39t2 59q-4 56 -3.5 88.5t3 106t2.5 119.5q0 14 -3 71.5t-1 79.5q1 13 -1 37.5t-1 36.5q6 54 6 137q0 8 12 12t13 5q12 12 -6 12q-1 0 -4 -0.5t-5.5 -0.5t-5.5 2t-4 5q-6 18 -6 29q0 1 -1 12.5t-1 25.5t2 29q3 27 0 48.5t-1 47.5t13 46q21 43 74 43 q5 0 29 1.5t46 2t60 -1.5q27 -2 71 1.5t54 0.5q13 -4 25.5 -4t25 2t17.5 2h65q23 -6 33.5 -9.5t23.5 -15.5t13 -29q0 -8 4 -49.5t4 -48.5q0 -13 -3 -40t-3 -42q0 -20 -41 -41q-13 -6 -27.5 -7t-34.5 1t-30 2q-7 0 -37 -7t-35 -7q-17 0 -27 -8t-14 -27t-5 -30.5t0 -39.5 t1 -34q0 -7 2 -44t2 -45q0 -6 11.5 -18t23.5 -12q11 0 34 -2t36 -2q9 0 26.5 -2t26.5 -2t17.5 -10.5t8.5 -22.5q0 -16 5.5 -72t-0.5 -92q-3 -39 -25 -51q-8 -5 -24 -7t-29 -2t-33.5 0.5t-26.5 0.5q-11 0 -29.5 -19.5t-21.5 -32.5q-4 -19 0 -62.5t0 -60.5q-2 -12 2 -66t4 -58 q0 -23 29 -31q4 -1 31 -0.5t51 -1.5q39 -3 78 0q16 2 36.5 -19.5t20.5 -42.5q0 -10 2 -66.5t2 -68.5q0 -17 -16 -39q-22 -26 -39 -37q-2 -2 -35.5 -6t-70.5 -6t-62 2q-23 4 -67.5 -1.5t-61.5 -2.5q-15 2 -62 2t-71 6q-3 1 -11.5 2.5t-14.5 3t-13 5t-12 8.5q-7 7 -11 15 t-4.5 13.5t-1.5 16t-2 16.5q-5 34 -5 107.5t7 95.5q4 7 2.5 17t-2 13.5t-4 10.5t-4.5 8zM88 1149q0 -8 19 1q7 3 10 3q16 0 16 12q0 11 -16 11q-6 0 -17.5 -11t-11.5 -16zM117 373q0 -5 10 -12t20 -7q11 0 11 6q0 9 -4.5 13t-12 5.5t-8.5 2.5q-7 4 -11.5 0.5t-4.5 -8.5z" />
<glyph unicode="F" horiz-adv-x="591" d="M41 1227q0 9 3 33t3 34q0 9 -0.5 17.5t-0.5 13.5v11t0.5 11t1.5 11.5t3 15.5q4 17 17 33t34 16q15 0 35 5t33 6q23 1 71.5 -0.5t71.5 -1.5q12 0 86 3t111 -1q20 -2 40.5 -14.5t20.5 -26.5q0 -10 2.5 -31t3 -34.5t-3.5 -41.5q-2 -9 4.5 -24t4.5 -27q-7 -42 -30 -65 t-48 -23q-1 0 -12 0.5t-21 1t-21 -1t-16 -4.5t-27.5 0t-35.5 0q-6 -1 -10 -4t-6.5 -5t-3.5 -8.5t-1 -8.5v-10.5v-10.5q0 -15 -4 -48.5t-4 -52.5q0 -84 4 -96q9 -28 39.5 -35.5t83.5 -7.5q11 -1 22 -10.5t13 -16.5q2 -6 11.5 -12t10.5 -16q4 -3 2 -83l-2 -81q0 -29 -17.5 -41 t-31.5 -10q-18 3 -51 0t-45 0q-10 3 -22.5 -11t-12.5 -24q0 -32 2 -126t2 -166t-4 -103q-7 -52 -6 -58t4 -15.5t2.5 -14.5t-4.5 -23q-6 -17 -26 -31t-40 -14q-130 -5 -151 10q-3 2 -24 2t-25 6q-3 4 -10 11.5t-10.5 14.5t-4.5 17q-9 102 0 240q5 29 0.5 120.5t-4.5 115.5 q0 9 4 30t4 35q0 3 -4 15.5t-4 15.5q0 52 1 129t1 133q0 44 2 86t2 55q0 7 -3 27t-6 62t-3 102zM137 772q0 -22 8 -22q5 0 14 18q10 20 -5 20q-4 0 -7 -2t-5 -4.5t-3.5 -5t-1.5 -4.5zM455 836q0 -11 14 -11q16 0 16 6q0 3 -5 7t-11 4q-14 0 -14 -6z" />
<glyph unicode="G" horiz-adv-x="782" d="M29 698q6 46 1.5 118.5t0.5 109.5q3 18 3.5 40t-0.5 58.5t-1 56.5q0 32 2.5 55.5t5 36.5t2.5 17q0 10 12.5 27t12.5 34q0 5 -5.5 16t-5.5 19q0 19 9.5 42t21.5 36q24 27 76.5 51t91.5 27q49 3 136.5 -1.5t115.5 -4.5q56 0 123 -41q6 -4 16 -7.5t18 -9t15 -18.5 q23 -39 37 -78q5 -10 5 -34t5 -31q6 -10 9 -25t3 -27.5t-1 -40.5t-1 -45q0 -22 -2 -45.5t-2 -42.5q0 -11 -17.5 -30t-27.5 -19q-7 0 -40.5 -2t-41.5 -2q-15 0 -33.5 -6t-29.5 -6q-3 0 -17.5 -0.5t-18.5 0t-15 2.5t-15.5 6.5t-9.5 12.5t-6 20q-9 63 -6 88q14 98 -60 98 q-25 0 -37 -8q-20 -16 -20 -35q0 -7 -2 -54.5t-2 -54.5q0 -21 5 -143t5 -143q0 -9 5 -30.5t5 -37.5q0 -9 -8 -26.5t-8 -26.5q0 -3 -2 -29t-2 -28q0 -3 -4 -13.5t-4 -13.5l2 -6q2 -7 4 -22t2 -36q0 -9 -1 -36.5t-1 -40.5q0 -9 3 -26.5t3 -27.5q0 -13 18.5 -28t32.5 -15 q72 0 72 107q0 23 -3 79t-3 93q0 19 -10 31t-25 14q-37 3 -37 47q0 8 3 24t3 23q0 10 -2 30.5t-2 29.5q0 41 11 60t48 19q23 0 72 7.5t100 7.5q48 0 60 -2q22 -3 41.5 -22t19.5 -38q0 -35 7 -139.5t4 -157.5q-7 -89 -7 -139q0 -134 -14 -184q-2 -8 -11 -13.5t-16.5 -16 t-7.5 -34.5q0 -21 -26 -47q-55 -55 -224 -55q-8 -1 -20 -3.5t-23 -2.5q-17 0 -62.5 6.5t-80.5 3.5q-30 -3 -74 13t-73 38q-70 57 -70 185q0 17 2.5 50t1.5 52q-1 14 -7.5 59t-4.5 70q4 40 -1.5 117.5t-0.5 113.5zM205 1073q0 -6 0.5 -9t3 -5t8.5 -2q10 0 10 16q0 1 0.5 4 t1 5.5t0.5 4.5t-1.5 3.5t-4.5 1.5q-8 0 -13 -6.5t-5 -12.5zM289 467q0 -4 6.5 -13.5t9.5 -9.5q6 0 6 23q0 27 -10 27q-12 0 -12 -27z" />
<glyph unicode="H" horiz-adv-x="817" d="M47 563q0 16 3 48.5t3 50.5l1 108q1 107 -1 107q0 14 2 26t2 15q0 7 -4 24t-4 29q0 6 -1.5 77.5t-2 126.5t1.5 111q1 12 3 29.5t3.5 34.5t1.5 32q0 17 33 41q16 11 35.5 12t48 -3.5t43.5 -4.5q6 0 31 1t39 0t18 -5q3 -4 10 -11t11.5 -12t9.5 -11.5t7.5 -11.5t2.5 -9 q0 -11 -6 -29.5t-6 -31.5q0 -3 6 -20t6 -25q0 -48 -2 -97.5t-2 -77.5t4 -59q1 -7 1.5 -15.5t0 -15.5t-1 -16.5t-0.5 -15.5q0 -39 9 -58.5t32 -19.5q5 0 12.5 3t12.5 3h5q12 0 18 0.5t14.5 2.5t12.5 7.5t5 14.5q3 33 0.5 121t-0.5 106q1 6 -3 69t-1 78q2 9 -1.5 28t-3 36.5 t12.5 29.5q1 1 12.5 14.5t20.5 19.5t20 7q4 0 26.5 5.5t39.5 5.5q19 0 57.5 -2t59.5 -2q30 0 47 -31q5 -7 5.5 -16t-0.5 -22t-1 -17q0 -10 1.5 -42t2 -45.5t1.5 -42t1 -46v-42t-1 -46t-3 -42.5q-2 -20 -2 -46t1 -54t1 -55t1 -58t1 -55q0 -20 -2 -121.5t-2 -124.5q0 -2 2 -17 t2 -36q0 -22 1.5 -53t2.5 -54t1 -52t-3 -54q-5 -17 -3 -105t1 -108q-1 -19 -12.5 -30t-28.5 -11q-27 0 -77.5 -2t-78.5 -2q-3 0 -15 -0.5t-16 0l-12 1.5t-12.5 4.5t-7.5 8.5t-17 17t-14 22q0 6 -2 30t-2 44v19t1 13t3 10t6 3q9 0 17.5 3t13.5 3t13 -2t10.5 -0.5t2.5 8.5 t-5.5 13t-16.5 6q-6 0 -15.5 -2t-15.5 -2q-12 0 -15.5 35t-3.5 78t-1 49q-6 42 -5.5 63.5t5.5 60t6 50.5q2 20 -10 43.5t-39 23.5q-21 0 -42.5 -17.5t-21.5 -35.5q0 -4 1 -59.5t-1 -59.5q-3 -50 0.5 -172.5t-2.5 -140.5q0 -3 -0.5 -9.5t-1.5 -10t-3 -9t-7.5 -10t-13.5 -8.5 q-12 -7 -9 -14t1 -19.5t-19 -22.5q-14 -9 -37 -12.5t-41 -3.5t-51 1t-49 1q-22 0 -42 25t-20 47q0 9 -2 73t-2 74q0 21 -1.5 60.5t-1.5 72t3 60.5q1 10 -2.5 78t-3.5 69zM184 1331q0 -14 21 -14q8 0 8 10q0 2 1.5 3.5l3.5 3.5q7 5 1 7t-13.5 1t-14.5 -4t-7 -7zM266 733 q0 -3 3.5 -7t6.5 -3q4 3 9.5 0.5t9 -0.5t2.5 12q0 8 -21 8q-3 0 -6.5 -3t-3.5 -7z" />
<glyph unicode="I" horiz-adv-x="401" d="M47 1219q3 16 12.5 23t18 9t8.5 6q0 3 -10.5 3.5t-20.5 6.5t-8 23q2 23 2 72q0 2 0.5 9t0.5 9t1 7t2 7t2.5 6t4 6.5l6 6t8.5 6.5q23 17 43 17q9 0 25 -2.5t25.5 -3t27.5 3.5q3 4 26.5 1t28.5 -3q15 0 28.5 -8.5t18.5 -8.5q24 -1 35.5 -16t11.5 -33q0 -5 1 -27.5t1.5 -40 t-0.5 -36.5q-4 -45 -0.5 -152t0.5 -170q0 -3 2 -24t2 -31q0 -41 -2 -117t-2 -119q0 -59 3 -179t3 -181q0 -8 1.5 -25.5t1 -31t-4.5 -25.5q-4 -13 -4 -26.5t2 -30.5t2 -27q0 -6 1.5 -17.5t1.5 -20.5t-3 -17q-7 -29 -18 -45t-33 -17q-41 -3 -57.5 -2t-31 3.5t-20.5 2.5 q-7 0 -22.5 -5t-22.5 -5q-35 0 -59 15t-27 48q-8 108 -4 162q3 63 2 100.5t-4.5 74.5t-3.5 40q0 33 -2 93.5t-2 108.5t4 89q5 36 1.5 132.5t-1.5 137.5q0 9 5 31t5 27q0 10 -5 29.5t-5 29.5q0 6 -3.5 50.5t1.5 50.5zM215 70q0 -17 18 -17q2 0 6.5 -2.5t7 -4t3.5 0.5 q0 8 -7.5 19.5t-13.5 11.5q-14 0 -14 -8z" />
<glyph unicode="J" horiz-adv-x="759" d="M14 313q0 9 3 26t3 23q0 17 -3 50.5t-3 48.5q0 89 6 123q2 17 41 30q9 4 52 5.5t45 1.5q21 3 37 4t28.5 -2t20 -5t16 -10t12.5 -12t13 -16q4 -6 6 -14.5t1.5 -15.5t-1 -16.5t-0.5 -11.5q0 -6 3 -83.5t3 -84.5q0 -38 4 -50t21 -21q14 -7 34 -7q18 0 37 20.5t19 41.5 q0 27 -1.5 83t-1 100t4.5 83q5 16 1 143.5t-3 167.5q1 34 -1.5 96.5t-2.5 86.5q0 16 6.5 61.5t3.5 63.5q-5 15 -2 66.5t2 66.5q-3 61 59 78q22 3 31 3t30.5 -3t28.5 -4q16 -1 44.5 0t41.5 0q22 -1 39 -20.5t17 -39.5q0 -4 3.5 -27t4.5 -42.5t-2 -43.5q-2 -7 -2 -16.5t1 -23 t1 -21.5q0 -1 -1.5 -32.5t1.5 -33.5q2 -19 0.5 -43.5t-4 -55.5t-2.5 -36q0 -12 -13 -17t-14 -7q-1 -6 2.5 -8t9 -1.5t10.5 -1.5t5 -8q0 -13 3 -62.5t3 -55.5q0 -25 3.5 -183.5t-1.5 -183.5q0 -16 2 -62t1.5 -83t-5.5 -62q-3 -16 -6 -42t-4 -34q-5 -26 -39 -81.5t-54 -65.5 q-7 -3 -26 -12.5t-30 -14.5t-28.5 -9.5t-33.5 -4.5q-3 0 -104.5 -4t-104.5 0q-7 1 -17.5 10.5t-17.5 9.5q-3 0 -14 -3t-27 -3q-33 0 -51 10q-2 1 -14.5 7t-23 11.5t-26 17.5t-28.5 26q-8 9 -15 20t-12 20t-9 23t-7 23t-4.5 25.5t-2.5 24t-1.5 26t-0.5 24.5v26v23zM285 43 q0 -10 10 -10q5 0 13.5 7t8.5 11q0 15 -4 17q-8 5 -13.5 1t-7.5 -7.5t-4 -10.5t-3 -8zM618 952q0 -4 4 -8t7 -4q8 0 16 10.5t8 18.5q0 2 -12 2q-23 0 -23 -19z" />
<glyph unicode="K" horiz-adv-x="829" d="M49 494q0 64 6 112q5 36 4 45q-10 58 -10 103t-2.5 127.5t-2.5 150t5 127.5q2 23 0 71.5t0 72.5q1 7 5.5 25.5t4.5 47.5q0 11 21 31t35 20q6 0 25.5 -1.5t29.5 -0.5q5 0 29 3t34 3.5t28 0.5t32 -2q13 -2 31 -16.5t18 -33.5q0 -10 2.5 -35.5t1.5 -39.5q-3 -1 -1.5 -96 t1.5 -99q0 -8 3 -21t3 -20q0 -16 1.5 -24.5t9 -15.5t22.5 -7q12 0 19.5 13t12 33t5.5 22q4 13 13 29t11 26q5 18 11.5 39t12.5 38t12.5 38t11.5 38q1 3 3.5 15t4.5 18.5t5.5 19t6.5 20.5t8 18.5t11 17t13 13t15.5 9.5t18.5 3q3 0 16.5 -4t17.5 -3q7 1 24 6t32 7q9 2 23 1 t23 -2t23 -2.5t23 -2.5q37 -3 37 -37q0 -27 -23 -90q-27 -67 -46.5 -135.5t-49.5 -125.5q-5 -9 -7 -16.5t-3.5 -19.5t-3.5 -21q-3 -13 -11 -31t-10 -24q-45 -129 -45 -154q0 -32 21 -119q1 -3 16.5 -47.5t19.5 -68.5q1 -6 3 -19t2 -15.5t2 -11.5t3.5 -12t5.5 -13t8 -18 t11 -24q30 -67 70 -209q6 -22 9 -39t4 -23t3 -9q20 -28 31 -66q6 -16 6 -35q0 -17 -10.5 -28t-26.5 -13q-48 -6 -83.5 -6t-70.5 3t-59 3q-16 0 -29 13t-22 34.5t-15 42t-12 44t-10 32.5q-3 6 -5.5 12t-4.5 9.5t-3.5 7.5t-2.5 8.5t-2 9.5q0 16 -8.5 48t-8.5 48q-1 6 -9 20 t-11 21q-2 5 -6 17t-6.5 16.5t-10 9.5t-18.5 5q-27 0 -27 -17q0 -20 0.5 -55.5t0.5 -60.5t-1 -42q-6 -31 -6 -57q0 -5 3 -24t3 -29q0 -30 -1.5 -45t-11 -33.5t-28.5 -30.5l-20 -10q-4 -1 -38 2t-56 -4q-5 -6 -42.5 -2t-41.5 4q-12 0 -28 10t-24 21q-4 5 -4.5 35.5t-3.5 40.5 q-4 15 -3.5 40t-0.5 37q-3 6 -0.5 33t2.5 33q-4 160 -4 242zM129 283q0 -2 -1 -10t-0.5 -11.5t5.5 -3.5q9 0 19 8.5t10 16.5q0 5 -2.5 7t-5.5 2.5t-9 0.5h-7t-4.5 -1t-3.5 -3t-1 -6zM242 823q0 -10 5 -15t11 -5q14 0 14 20q0 30 -9 31q-3 0 -5 -2q-16 -16 -16 -29z" />
<glyph unicode="L" horiz-adv-x="563" d="M47 856q0 135 8 209q1 12 -2 65q0 8 19.5 25t19.5 25t-5 11t-11.5 3.5t-11.5 10t-5 28.5q0 4 -4 30.5t-4 59.5q0 27 2.5 44.5t14 34.5t32.5 21q53 9 105 9q1 0 35.5 -1.5t35.5 1.5q30 4 46 -9q15 -7 19.5 -17.5t4.5 -35.5q0 -8 2 -27t2 -28q0 -19 3.5 -58.5t4 -66 t-5.5 -80.5q-5 -52 -4.5 -79t3.5 -81.5t3 -85.5q0 -250 -4 -338q0 -12 -1.5 -35.5t-1.5 -33.5t1.5 -28t5.5 -36q3 -11 3 -24.5t-1.5 -30t-1.5 -25.5t15.5 -19.5t25.5 -10.5q20 1 55.5 -0.5t47.5 -1.5q25 0 41 -13q20 -13 20 -26q6 -46 6 -72q0 -15 -4 -47q-6 -69 -6 -72 q-8 -49 -82 -49q-22 0 -62 -1t-72 -1t-60 2q-52 3 -115 0q-37 0 -55 6q-15 5 -31 17.5t-19 23.5q-3 9 -4 40t-4 50q-6 32 0 140q3 57 3 120t-1.5 120.5t-1.5 70.5q0 37 3 103t3 83q0 23 -5 44t-5 36zM111 1184q0 -4 30 -4q6 0 6 10q0 3 -1 6t-3 5t-6 -1q-3 -2 -10.5 -2.5 t-11.5 -3t-4 -10.5zM186 870q0 -7 10.5 -16.5t18.5 -9.5q2 0 2 26q0 7 -6 12t-14 5q-3 0 -7 -7t-4 -10z" />
<glyph unicode="M" horiz-adv-x="1101" d="M37 580q-1 24 4.5 44.5t5.5 39.5q0 5 -4 45q-2 11 2 52.5t2 59.5q-9 77 -6 148q2 67 1 111.5t-3 95t-2 63.5q0 31 7 65t7 54q0 65 49 65q4 0 18.5 2.5t26 2.5t33.5 -3q28 -4 47 -3t43 4.5t29 3.5q14 0 34.5 0.5t28 0.5t19 -1t17 -4.5t13 -8.5t15.5 -14q29 -32 35 -72 q0 -4 3 -40t3 -40q0 -13 4 -36.5t6 -45.5q1 -15 6.5 -28.5t5.5 -22.5q0 -12 8.5 -50.5t12.5 -76.5q3 -23 15.5 -30.5t25 0.5t14.5 24q3 27 11 73.5t10 63.5q1 6 7.5 19t6.5 20l-2 27q-1 26 2 26q10 55 10 109q0 33 18 70t48 37q1 0 32.5 2t32.5 -2q9 -3 24 -3t33.5 1.5 t24.5 1.5q26 0 57 0.5t46 0.5t31.5 -0.5t25.5 -2t16 -5.5q10 -5 15.5 -19t11.5 -18q29 -15 29 -81q0 -25 4 -224.5t-2 -214.5q-1 -11 1 -37t-1 -38q-4 -22 -2.5 -59t0.5 -48q0 -8 3 -59.5t3 -59.5q0 -27 -6 -96q-2 -17 2 -59.5t2 -65.5q-3 -27 -3 -51t2 -62t1 -73 q0 -8 1 -30.5t0.5 -33.5t-3.5 -28t-11.5 -29.5t-21.5 -22.5q-6 -6 -14.5 -8.5t-14.5 -2.5t-19 0.5t-18 0.5q-1 0 -42 2t-42 -2q-13 -4 -27 -2t-20.5 3.5t-15 5.5t-10.5 5q-37 10 -37 54q0 9 -3 53.5t-3 79.5q0 17 3 52.5t3 55.5q0 11 -6 63t-6 60q0 12 -6 23.5t-17 11.5 q-15 0 -24 -19.5t-9 -37.5q0 -13 -7 -39t-7 -41q0 -30 -2 -50t-5 -32.5t-3 -16.5q-13 -114 -33 -186q-10 -39 -45 -39q-12 0 -34 -2.5t-36 -1.5q-30 2 -45 9t-24 7q-13 0 -24 13.5t-11 23.5q0 21 -8 45q-8 28 -12.5 78t-8.5 70q-1 6 -5 20t-6.5 27t-2.5 25q0 9 -8 35t-9 46 q0 15 -8.5 35.5t-21.5 20.5q-12 0 -20.5 -9.5t-10.5 -21.5q-5 -21 -1 -88t3 -88q-5 -86 -2 -111q6 -44 0 -86q-2 -11 -20 -28.5t-31 -20.5q-10 -2 -56 -2q-6 0 -19.5 -2t-18.5 -2q-9 0 -29 6.5t-31 5.5q-15 -1 -30 14.5t-15 30.5q0 6 -1 35t-1 55q0 10 6.5 16.5t15 8.5 t17.5 3.5t13.5 3t2.5 5.5q-3 5 -28.5 12.5t-26.5 26.5q-3 50 -3.5 99t0.5 94.5t1 46.5q0 36 -6 117zM121 184q0 -10 20 -10q10 0 16.5 4.5t6.5 9.5q0 3 -5 7t-12 4q-8 0 -17 -4.5t-9 -10.5zM174 1335q8 -12 16 -12q15 0 15 12q0 6 -9.5 7.5t-15.5 7.5q-5 5 -7 -5 q-1 -6 1 -10zM553 449q0 -2 -1 -6.5t-1.5 -7.5l-1 -6t1.5 -5t6 -2q5 0 13 6.5t8 13.5q0 5 -3.5 11t-7.5 6q-6 0 -10 -3.5t-4 -6.5zM772 1112q0 -40 31 -25q1 1 5.5 2.5t6 2.5t3 3.5t1.5 6.5q0 11 -8 18.5t-20 7.5q-7 0 -10.5 -0.5t-6 -4t-2.5 -11.5z" />
<glyph unicode="N" horiz-adv-x="829" d="M39 801q0 7 1 16.5t1.5 17.5l1 16t-0.5 17t-3 17q-2 7 -2.5 18.5t0 22t1.5 24.5t1 23q0 12 9.5 21.5t19.5 15.5t10 10q0 8 -12 12.5t-13 7.5q-6 15 -6 41q0 7 -4 21t-4 24t3 110t3 110q0 29 11 55t32 26q11 0 28 3.5t29 3.5q8 0 34.5 -4t37.5 -3q72 6 78 -6 q2 -8 3.5 -21.5t3 -21.5t5.5 -8q8 0 10.5 10t4.5 33q0 14 14 14q8 0 18 -4q12 -6 20.5 -13t13 -13.5t7.5 -16.5t4 -17.5t3 -20t4 -21.5q0 -2 5.5 -17t6.5 -28l6 -28q6 -27 8 -46q1 -7 7 -17.5t7 -17.5q1 -4 2.5 -13.5t2.5 -17t4 -16t6 -14.5t9 -10t13 -4q22 0 26.5 11 t4.5 48q0 5 -3 18t-3 19q0 14 1 43t1 43q0 74 4 96q12 60 61 60q12 0 39 3t41 3q24 0 60 -9q51 -9 51 -71q0 -15 4 -40t4 -36q0 -10 0.5 -35.5t0.5 -39.5t-1.5 -32t-5.5 -28q-5 -11 -17 -14.5t-12 -6.5q0 -17 17.5 -19t17.5 -5q0 -1 4 -52.5t5 -102.5t-3 -126 q-8 -118 -8 -166q0 -22 2.5 -63t3 -61.5t-3.5 -55.5q-5 -18 0 -61.5t4 -51.5q0 -35 1 -65t1 -43l2 -64q1 -65 -2 -65q-1 -9 0.5 -31.5t-1.5 -39t-15 -27.5q-17 -17 -68 -17q-59 0 -96 -4q-51 -5 -99 3.5t-59 41.5q-3 8 -7.5 31t-8.5 35q-6 15 -6 47q0 7 4.5 16l6 12t-4.5 7 q-11 0 -21 26.5t-10 38.5q-7 24 -19 77.5t-22 82.5q-3 10 -4.5 13.5t-5 10.5t-8.5 10.5t-12 6.5q-9 4 -17 -9t-8 -22q0 -6 1 -16.5t1 -18t-2 -12.5q-3 -9 -3.5 -19.5t0 -17t2 -19.5t1.5 -18q2 -27 2 -139q0 -23 0.5 -47t1 -35t0 -21.5t-2 -16t-5.5 -9.5l-31 -31 q-6 -6 -15 -8.5t-15.5 -2.5t-18.5 0.5t-16 0.5q-5 0 -30 4t-28 0q-5 -4 -21 0t-20 4q-45 0 -51 43q-7 55 0 137q1 7 -2.5 77t-1.5 114q3 0 1 135l-1 135q0 27 -3 86.5t-3 63.5zM500 1067q-20 0 -13 -24q7 -21 19 -23q8 0 8 31q0 16 -14 16zM524 262q0 -5 -2.5 -12t-1.5 -9.5 t8 -2.5q9 0 20 7t11 17q0 17 -20 17q-7 0 -11 -5.5t-4 -11.5z" />
<glyph unicode="O" horiz-adv-x="798" d="M39 836q0 12 2 50t2 60q0 16 10.5 23t20.5 10t10 8q0 4 -10 6.5t-20 9.5t-11 23q-3 6 -1 85l1 79q0 27 12 41q11 11 11 39q0 18 9 42.5t19 37.5q23 27 82 65q23 17 57 17q11 -1 27 2t31 2q73 0 82 -2q12 -2 22 -2q13 0 25.5 3t28.5 5q97 8 175 -38.5t97 -123.5 q4 -14 12 -60t10 -63q2 -26 -7.5 -50t-8.5 -50q0 -8 10.5 -22t10.5 -27q5 -178 -3 -369q-3 -108 -1.5 -151t5 -73t3.5 -38q0 -4 -2 -15t-3.5 -36.5t-1.5 -65.5q0 -38 -15 -97t-44 -87q-42 -39 -63 -48q-14 -6 -29 -8q-18 -3 -36.5 -11t-29.5 -9q-113 -7 -252 0q-6 0 -25.5 8 t-25.5 8q-48 0 -84 25q-47 29 -73 96q-4 13 -9 38.5t-10 43.5q-4 16 -4 35t2 44.5t2 41.5q0 9 -1 27.5t-1 27.5q-4 152 -4 197v127q0 6 3 23.5t3 23.5t-5 31t-5 41zM182 741q1 -7 9 -12.5t16 -5.5q4 0 9 7t1 11q-6 6 -8.5 11.5t-3 8.5t-2 5t-6.5 2q-15 0 -15 -27zM322 635 q0 -15 9 -35t9 -35q0 -23 -3 -67t-3 -66q0 -101 6 -113q19 -40 55 -40q27 0 41 10l21 20q4 6 4 31.5t-1.5 62.5t-0.5 56q4 134 -2 159q-6 24 -6 33q0 10 15 20t15 19q0 7 -24 37q-4 5 -5.5 12.5t-2 22t0 29.5t1 46t0.5 60q0 33 -4.5 96.5t-4.5 96.5q0 26 -13 45.5t-34 19.5 q-20 0 -36.5 -13.5t-16.5 -31.5q0 -33 -4 -94.5t-4 -79.5q-3 -50 2 -227q0 -10 -7 -37t-7 -37zM524 63q0 -12 13 -12q14 0 14 12q0 9 -14 9q-13 0 -13 -9z" />
<glyph unicode="P" horiz-adv-x="784" d="M49 1104q0 13 3.5 22t8 12t8 6t3.5 7q0 7 -10 21t-11 42t-1 55.5t1 50.5t2 38t2 18q6 22 21.5 35.5t38.5 13.5q11 0 69 3.5t70 3.5q11 0 31.5 -7.5t33.5 -7.5q5 0 15.5 5.5t15.5 4.5q17 -2 48.5 4.5t47.5 6.5q7 0 20 -2.5t17 -3.5q12 -1 31 -2t26 -2t18.5 -3.5t21.5 -7.5 q5 -3 30.5 -13t30.5 -13q37 -18 61 -66t35 -102q1 -3 5 -20t6 -31t2 -31q0 -13 -3.5 -37.5t-3.5 -32.5q0 -21 2.5 -46t4.5 -56t0 -74q-7 -89 -7 -127q0 -4 -2 -18t-2 -21q0 -66 -19.5 -117t-62.5 -73q-72 -35 -118 -45q-17 -3 -68 -3t-83 -9t-38 -36q-7 -33 -4 -149 q0 -97 2 -156q0 -8 -14 -43q-4 -5 -2 -23t0 -22q-3 -19 -19.5 -33t-31.5 -14q-22 0 -57 -2.5t-62 -2.5t-51 5q-7 1 -23.5 16.5t-21.5 24.5q-4 9 -6 25t-2 27.5t0.5 27.5t0.5 18v45q-4 51 -4 105.5t2 113.5t2 85q0 8 -2 69t-2 68q0 6 1.5 18t1.5 21.5t-3 15.5 q-3 16 -2.5 32.5t3.5 47t3 43.5q0 30 -2 82.5t-2 83.5q0 14 -3 66t-3 63zM162 477q0 -3 7 -8.5t13 -5.5q8 0 8 10t-8 10q-1 0 -4 0.5t-5.5 0.5t-5 -0.5t-4 -2t-1.5 -4.5zM346 836q0 -3 2 -17t2 -18q0 -27 45 -27q27 0 44.5 15.5t17.5 41.5q0 13 -2 40t-2 40q0 9 1 20t2 19 t1.5 19t-0.5 20q-2 32 -1 54.5t0.5 40.5t-3.5 26q-3 6 -12.5 15.5t-12.5 15.5q-2 2 -10.5 3.5t-16.5 0.5q-4 -1 -10.5 -2t-9.5 -1.5t-7 -1.5t-6.5 -2.5t-5.5 -3t-4.5 -4t-3.5 -6t-4 -8.5q-3 -7 -4 -15t-1.5 -18.5t-0.5 -32.5t0.5 -46t1 -71t0.5 -97z" />
<glyph unicode="Q" horiz-adv-x="798" d="M37 815q0 7 3.5 25.5t2.5 27.5q-4 36 -4.5 74.5t1 89t1.5 74.5v80q-5 57 33 129q12 24 26 37.5t42 29.5t38 23q13 9 42 18t44 9q6 0 70 3t78 3q6 0 40.5 -2.5t49.5 0.5q38 5 86.5 -13.5t83.5 -50.5q8 -7 15 -23.5t11 -21.5q16 -18 35 -72q17 -53 17 -88q0 -38 4 -95.5 t4 -76.5q0 -29 -2 -89t-2 -89q0 -13 -2 -39.5t-2 -42.5q0 -5 2 -27t2 -28q0 -26 3 -142t3 -128q0 -20 -4 -41.5t-4 -24.5q0 -7 3 -36t3 -36q0 -10 -7 -29.5t-8 -27.5q-9 -75 -57 -147q-13 -20 -57.5 -40.5t-59.5 -52.5q-5 -13 0 -30q3 -10 4.5 -14.5t8 -14t19.5 -14t32 -4.5 q20 0 27.5 -9t7.5 -28q0 -25 -4 -44.5t-4 -21.5q0 -19 -15 -33t-49 -14h-84q-19 0 -33 1.5t-28 7t-20.5 8.5t-24.5 13.5t-25 14.5q-44 27 -55 72q-3 15 5 21.5t7 11.5q-1 8 -15.5 15t-15.5 11q-2 8 -7 22.5t-7 22.5q-9 27 -64 37q-51 9 -99.5 40.5t-59.5 78.5l-15 61 q-8 36 -8 82q0 21 2 66t2 69q0 11 -3 33t-3 47q0 14 -1 78.5t-1 104.5q0 26 -4 75t-4 74zM133 694q0 -16 23 -16q7 0 12.5 4.5t5.5 11.5q0 3 -2.5 6t-5.5 4.5t-7 3t-5 1.5q-8 4 -14.5 -1.5t-6.5 -13.5zM328 700q0 -6 5 -21t5 -24q0 -11 -1 -70.5t-1.5 -104.5t2.5 -96t10 -73 q2 -8 5.5 -13t9.5 -9t10 -5.5t14.5 -4.5t15.5 -5h21q20 4 32.5 35t14.5 58q1 7 -2.5 19.5t-3.5 41.5q0 48 -2 92t-2 60q0 100 -2 170q0 18 1 54t1 54l-6 234q0 43 -25 55q-3 3 -8.5 5t-9.5 2t-10 -0.5t-7 -0.5q-36 0 -45 -18q-18 -41 -18 -68q0 -13 3 -39.5t3 -42.5 q0 -9 1 -49.5t1 -88.5t-2 -97q0 -6 -5 -23t-5 -27zM395 1284q0 -6 3 -7.5t11.5 0t12.5 1.5q18 0 18 12q0 15 -20 15q-9 0 -17 -5.5t-8 -15.5z" />
<glyph unicode="R" horiz-adv-x="800" d="M35 133q0 9 5 30.5t5 31.5q0 8 -2 74t-2 73q0 36 -2 108.5t-2 128t4 93.5q1 10 -3 64l-3 55q0 28 3 67t3 64q0 10 7 34.5t7 32.5q0 17 11 25.5t16 19.5q2 4 -5 7.5t-16.5 7t-17.5 12.5t-8 24q0 16 -1.5 39.5t-1.5 41.5t3 34q4 19 4 37t-2 53.5t-2 71.5q0 19 18 40t39 25 q6 5 43 1.5t55 -3.5q16 0 51.5 4t55.5 3q8 0 24.5 -6.5t24.5 -6.5q2 0 30 5.5t85 5.5q14 0 35.5 3t35 0.5t33.5 -12.5q76 -38 110 -64.5t50 -68.5q14 -29 11 -54l-3 -24q1 -7 6 -25.5t6 -24.5t3.5 -24.5t-0.5 -25.5q-3 -35 -1 -106t-6 -95q-14 -70 -22 -92q-5 -14 -28 -49 t-23 -49t6 -26t19 -27t16 -19q6 -10 8.5 -16t4.5 -16t7 -23q22 -62 25 -117v-113q0 -10 3 -77t3 -101q0 -26 7 -64.5t7 -62.5q0 -12 -1.5 -20.5t-5.5 -14t-6.5 -8.5t-9.5 -4.5t-10 -2t-11.5 0t-10.5 0.5q-11 0 -26 -4t-44 -4q-20 0 -44 6t-46 6q-32 0 -61 26.5t-29 55.5 q0 19 -3 47t-3 33q0 28 -3 72t-3 71q0 2 5.5 28t0.5 34q-3 6 -2 68.5t-12 82.5q-2 4 -7 12.5t-7 12t-7 9.5t-9.5 8t-11.5 4t-16 2q-69 0 -69 -21q0 -2 7 -11t7 -36q0 -5 -4 -47.5t-4 -69.5q0 -11 6 -31t6 -32q0 -11 -2.5 -67.5t0.5 -67.5q3 -35 2.5 -87.5t-4.5 -62.5 q-17 -39 -55 -39q-32 0 -75.5 3t-74.5 3q-86 0 -86 45q0 11 -5 33t-5 43zM236 575q0 -12 18 -12q4 0 12 10t8 15q0 3 -1.5 4.5t-4 2t-5 0.5t-5.5 -0.5t-4 -0.5q-18 0 -18 -19zM336 1024q0 -12 -1 -38.5t-0.5 -46t5.5 -42.5q3 -14 20 -26.5t31 -12.5q23 0 37 13.5t14 35.5 q0 20 9.5 47.5t5.5 40.5q-11 35 -15 113q-2 18 -13.5 28.5t-31.5 10.5q-18 0 -30.5 -6t-19 -12.5t-9.5 -22t-3 -24.5t0.5 -29.5t0.5 -28.5zM575 240q0 -15 21 -11q3 2 2.5 7t-4 10.5t-8.5 5.5q-11 0 -11 -12z" />
<glyph unicode="S" horiz-adv-x="757" d="M23 1174q0 48 21.5 107t53.5 91q3 2 15.5 12t16.5 13t15.5 10t18.5 9.5t18.5 5.5t22.5 3q6 0 10 -7.5t6 -16t6 -15.5t11 -6q8 1 14 21t10 24q12 11 64 13.5t80 -2.5q4 -1 42.5 1.5t53.5 -1.5q123 -26 157 -88q2 -4 10 -17.5t10 -18t8 -16.5t8 -20l5 -20t5 -25 q5 -34 8 -41q4 -7 5 -13t0 -14.5t-1 -11.5q0 -25 0.5 -53.5t0.5 -43.5v-30.5t-2 -24t-5 -14.5l-7.5 -7.5l-7.5 -7.5t-7 -6.5t-8.5 -6t-9.5 -3.5t-12 -3t-14 -1q-45 4 -67 0q-13 -2 -46.5 2t-44.5 4q-33 0 -42 16t-9 66q0 12 3 35t3 35q0 4 -6 11.5t-6 17.5q0 22 -37 22 q-28 0 -54 -20t-26 -56q0 -3 3 -10t3 -10q0 -45 5 -55q5 -19 16 -38.5t21.5 -33.5t32 -34.5t32.5 -30t38.5 -32.5t35.5 -30q146 -120 174 -211q4 -15 13 -26.5t13 -24.5q4 -14 5.5 -35.5t5.5 -34.5q12 -38 12 -65q0 -17 2 -46.5t2 -55.5t-4 -54q-2 -7 -9 -27.5t-9 -33.5 q-4 -39 -9 -50q-8 -20 -10 -26q-11 -25 -25 -42.5t-36.5 -30.5t-37.5 -19.5t-50 -18.5q-29 -10 -66 -10q-14 0 -28.5 6.5t-26.5 7.5q-9 1 -26 -9.5t-30 -10.5q-56 0 -133 6q-3 0 -14.5 3.5t-26.5 8.5t-20 6q-65 23 -90 67t-37 124q-10 58 -10 160q0 16 7 27t7 16 q0 7 -7 20.5t-7 20.5q0 37 11.5 50t47.5 21q18 4 98 4q15 0 28 -4t24 -4l14 2q14 1 16 -2q32 -13 35 -31q3 -40 0 -82.5t0 -74.5q3 -26 23 -38.5t43 -12.5q28 0 42.5 24t14.5 55q0 27 -9 64.5t-9 62.5q-4 24 -13 33q-62 71 -96 96q-15 11 -29.5 24.5t-22.5 19.5t-16 8 q-27 5 -36 20q-2 3 -5 8t-5.5 8.5t-6.5 6.5q-8 6 -16.5 13.5t-14 14t-13.5 16.5t-13 15q-34 43 -41 76q-1 6 -13.5 27.5t-17.5 33.5q-20 50 -20 80q0 16 -3 95.5t-3 93.5zM80 1174q1 -1 -2 -11t4 -10q10 -1 12 4.5t2 18.5v4q0 14 -8 14q-5 0 -9.5 -5.5t1.5 -14.5zM162 889 q0 -15 14 -15q3 0 6.5 3.5t3.5 7.5q0 1 -7 2.5t-9 7.5t-7 -3q-1 -2 -1 -3zM649 137q5 0 13 7.5t8 11.5q0 10 -11 10q-3 0 -6.5 -3.5t-3.5 -6.5q0 -4 -1 -9t-1 -7.5t2 -2.5z" />
<glyph unicode="T" horiz-adv-x="604" d="M-12 1300q0 12 1 30t1 30q0 27 24.5 46t51.5 20q13 0 44 2t52 2q17 0 43.5 -2.5t30.5 -1.5q1 0 6.5 0.5t14 1.5t15.5 2q12 2 84 2q29 0 45.5 -3t20.5 -6.5t9 -6.5t13 -3t21 6t18 7l33 2q32 2 35 -2q12 -2 23.5 -11.5t11.5 -23.5q0 -9 4 -46.5t0 -58.5q-3 -4 -0.5 -35.5 t2.5 -40.5q0 -16 -14.5 -38.5t-30.5 -22.5q-21 0 -43.5 -4t-34.5 -4q-9 0 -17 -9.5t-10 -21.5q-4 -29 -0.5 -92t0.5 -92q-8 -79 -8 -178q0 -3 3 -15.5t3 -26t-6 -26.5q-7 -20 -6.5 -26t5 -21t5.5 -29q11 -253 11 -276q0 -12 -2.5 -32.5t-2.5 -27.5q1 -21 2.5 -64t2.5 -65 q0 -8 -3.5 -46.5t-3.5 -45.5t-12 -23.5t-22 -17.5q-24 -3 -36 -1.5t-24 5.5t-16 4q-10 0 -27 -7t-26 -7q-76 0 -100.5 15t-24.5 42q0 10 -4 73t2 97q1 10 -3.5 31t-5.5 31q0 13 9 94q5 68 4.5 97.5t-3.5 88t-3 97.5q0 9 1.5 27t1.5 33.5t-3 31.5q-5 27 -6 67.5t1 98.5t2 82 q0 11 1.5 34.5t1.5 36.5q0 52 -44 74q-5 3 -26.5 2.5t-44.5 3.5q-35 9 -35 51q0 3 -5 15t-5 22q0 4 -1 24t-1 31zM174 203q0 -1 -0.5 -7.5t0 -8t2 -5.5t5 -5t9.5 -1q11 0 11 17q0 11 -7.5 18.5t-19.5 7.5q-2 0 -3 -0.5t-0.5 -2t1 -3.5t1.5 -4.5t1 -5.5z" />
<glyph unicode="U" horiz-adv-x="790" d="M35 1343q0 25 14 41l35 35q10 6 37 6q14 0 49.5 7t60.5 -2q12 -2 36.5 -2.5t38.5 -6t24 -22.5t10 -47q0 -18 2 -56t2 -57q0 -33 2.5 -116.5t1.5 -123.5q-4 -90 -4 -127q0 -35 3 -98t3 -115t-6 -98v-74q0 -16 1.5 -48.5t1.5 -56t-3 -36.5q-1 -8 -22 -19t-21 -18 q0 -6 11.5 -7.5t23.5 1.5q7 1 16.5 -5.5t12.5 -6.5q11 0 28.5 -7.5t22.5 -7.5q39 0 55 31q6 10 6 55q0 35 -3 125t-3 156q0 1 -1.5 51t1.5 51q0 3 3 17.5t3 30.5q0 9 -6 27t-6 28q0 30 3 94t3 94q0 28 -3 82t-3 80q0 20 2 64t2 69q0 56 24 78.5t89 22.5q16 0 30.5 2t22.5 2 q7 0 30 -5.5t35 -5.5q14 0 25.5 -11.5t11.5 -24.5q0 -10 7.5 -24t7.5 -26q0 -9 -4.5 -22t-4.5 -19q0 -9 1.5 -24.5t1.5 -28t-3 -24.5q-6 -36 -6 -41q0 -2 3 -16t3 -36q0 -33 2 -94.5t2 -110t-4 -87.5q-3 -29 0 -50q2 -8 2 -16.5t-1 -19t-1 -15.5q-1 -14 3.5 -76t-3.5 -75 q-6 -18 -6 -31q0 -7 3 -20.5t3 -20.5q0 -22 2.5 -102t-0.5 -103q-1 -14 -4.5 -57t-3.5 -66q0 -45 -20 -83t-55 -60q-72 -45 -140 -45q-15 0 -53.5 2t-46.5 2q-11 0 -33 -4t-41 -4q-73 0 -112 14q-46 13 -95 41q-43 24 -59 59.5t-25 98.5q-1 4 -7.5 23t-6.5 32q0 7 3 37t3 51 q0 138 -4 178q-4 59 -4.5 122.5t1 147.5t1.5 122q0 14 -1.5 55.5t-1.5 76t3 54.5q3 21 0.5 75t-0.5 83q1 24 -3.5 48t-4.5 33zM119 1280q0 -7 10 -12.5t21 -5.5q7 0 8.5 3t1.5 11q0 20 -15 20q-26 0 -26 -16zM231 1026q0 -14 17 -14q4 0 6.5 3.5t1 7t-7.5 3.5q-2 0 -7 2 q-10 3 -10 -2z" />
<glyph unicode="V" horiz-adv-x="761" d="M12 1352q0 38 12 56.5t44 18.5q14 0 41 3.5t41 3.5q23 0 42.5 -13.5t28.5 -13.5q3 0 10 0.5t11 0t9.5 -1t10.5 -3t10 -6.5q34 -23 37 -45q1 -11 8 -51.5t7 -61.5q0 -13 4 -32.5t4 -30.5q0 -4 3 -18t3 -23q0 -51 6 -76q12 -59 10 -96q-1 -15 5 -42.5t6 -37.5 q0 -8 10.5 -19.5t17.5 -11.5q17 0 27 16.5t10 34.5q0 7 -3 22t-3 23q0 13 4.5 31.5t5.5 30.5q1 14 8 60.5t7 72.5q0 12 4 30.5t4 32.5q0 11 1 28t1 21q0 9 8 31t8 35q0 5 3 10.5t3 9.5q0 5 -3 15.5t-3 15.5q0 26 23.5 44t48.5 18q7 0 17.5 0.5t17.5 0.5h15.5t15.5 -1.5 t12 -3.5q13 -3 21.5 -2.5t21.5 3.5t18 3q19 0 36 -16t17 -36q0 -7 -2 -18.5t-2 -17.5q0 -60 -20 -183q-3 -20 -3 -46t-1 -30q-2 -18 -11 -59t-10 -63q-3 -57 -19 -157t-16 -136q0 -27 -5 -68t-5 -53t-4 -26t-4 -15q-2 -19 -23 -195q-9 -84 -16 -116q-1 -5 -3.5 -12t-5 -13.5 t-5.5 -13.5t-4.5 -14t-1.5 -13q0 -1 6 -9t4 -22q-3 -17 -6 -29t-9.5 -27t-17 -24.5t-25.5 -11.5q-28 -4 -49 -4q-3 0 -11 -3t-11 -3q-27 0 -52 5t-38 5q-10 0 -34 -2.5t-49.5 -2.5t-54.5 5q-14 3 -32 24t-21 36q-7 30 -17.5 111t-23 181.5t-18.5 143.5q-3 26 -6 75.5 t-4 65.5q0 2 -5.5 11t-5.5 16q0 111 -22 174q-6 19 -13 65q-7 66 -6 93q0 2 -3 16.5t-3 17.5q0 46 -14 125.5t-17 114.5q-8 64 -8 72zM160 666q0 -7 10 -7q8 0 8 7q0 6 -8 6q-4 0 -7 -2t-3 -4zM440 184q0 -7 4.5 -11.5t10.5 -4.5q2 0 12 -1t15 -0.5t5 5.5q0 6 -12.5 16.5 t-19.5 10.5q-15 0 -15 -15zM514 870q0 -8 27 -8h4.5t3 1t2 3t0.5 6q0 9 -12 9q-25 0 -25 -11z" />
<glyph unicode="W" horiz-adv-x="1181" d="M14 1311q-7 27 -4.5 55t21.5 47q17 14 37 14q13 0 30 2t30.5 2t29.5 -4q10 -2 15 -10t6.5 -16.5t6 -15.5t13.5 -7q3 0 6.5 11t13 22.5t25.5 11.5q22 0 44.5 -23.5t23.5 -53.5q0 -59 3 -86q7 -68 7 -70q0 -10 4.5 -33t5.5 -29q1 -21 -4.5 -23.5t-5.5 -4.5q0 -7 6 -16.5 t8 -18.5q12 -70 12 -145q0 -17 11.5 -27t27.5 -10q25 0 25 51q0 23 6 70.5t6 72.5q0 8 8 27t8 31q0 11 -3 25t-3 22q0 6 5 20t5 17q3 32 9.5 80.5t7.5 74.5q0 22 28 43q10 9 20.5 12.5t17 4t24.5 0.5q24 0 67.5 -3.5t65.5 -3.5q21 0 45 -24q16 -24 16 -86q0 -16 9.5 -50 t9.5 -53q0 -39 11 -113t11 -106q0 -9 6.5 -31t6.5 -38q0 -33 13.5 -46.5t27 -0.5t14.5 45q0 68 14 116q2 9 3.5 49.5t7.5 53.5q4 10 4 51t10 92q1 9 3.5 48t10.5 57q19 43 51 43q14 0 61 3t58 3q86 0 86 -58q0 -10 -3 -21t-3 -20q0 -5 -1 -16t-1 -16q0 -44 -12 -109.5 t-21 -159.5q-28 -319 -30 -335q-2 -15 -12.5 -72.5t-10.5 -89.5q0 -21 -5 -42t-5 -42q0 -20 -4 -61t-4 -64q0 -14 -7.5 -34t-7.5 -34q0 -18 -12 -80q-3 -18 -26.5 -15t-22.5 -11q0 -14 20.5 -24t20.5 -23q0 -43 -12 -60q-1 -1 -8 -10t-9.5 -12t-9 -9.5t-10.5 -9.5 t-10.5 -5.5t-12.5 -2.5q-30 0 -88 4t-88 4q-6 0 -17.5 -0.5t-18 -0.5t-16 1t-18.5 4q-19 7 -26 20t-7.5 37t-2.5 33q-15 77 -15 93q0 25 -7 49t-7 33q0 7 -2 34t-2 31q0 30 -23 47t-32 -10q-3 -9 -3 -25q0 -5 -6 -51t-6.5 -67t-1 -40t-2.5 -31t-4 -21l-3 -13.5t-1 -5.5 q-1 -9 -2.5 -35.5t-4 -37t-12.5 -24.5t-28 -20q-21 -5 -31 -4t-29 4.5t-32 3.5q-10 0 -21 -8t-29 -8t-49 2t-55 2q-22 0 -38.5 4.5t-26 15.5t-15 20t-7.5 27.5t-2.5 28.5t-0.5 31q0 10 -1.5 19t-3.5 14t-4.5 10t-2.5 6q-1 7 0.5 23t-2.5 37q-29 252 -37 311q-1 6 -2 19.5 t-2 17.5q-13 63 -13 78q0 11 -7 25t-9 22q-8 42 -6.5 83.5t0.5 47.5q0 3 -7.5 67.5t-17.5 92.5q-4 8 -5 17.5t-0.5 20.5t-0.5 17q-6 43 -13 122.5t-16 129.5zM190 979q0 -9 4 -22t11 -13q14 0 14 35q0 16 -18 16q-4 0 -7.5 -5.5t-3.5 -10.5zM342 772q0 -4 6 -10t10 -6 q6 0 10.5 5.5t4.5 10.5q0 8 -15 8q-16 0 -16 -8zM713 487q0 -18 32 -18q11 0 11 16q0 15 -21 15q-5 0 -13.5 -5t-8.5 -8zM887 479q0 -18 10 -18q8 0 8 18q0 13 -8 13q-10 0 -10 -13zM954 66q0 -9 11 -9q10 0 10 21q0 4 -6 4q-5 0 -10 -4.5t-5 -11.5z" />
<glyph unicode="X" horiz-adv-x="774" d="M12 1380q0 23 23 37.5t49 14.5q7 0 38 -2.5t38 0.5q4 1 13.5 3t18.5 3.5t15 1.5q16 0 16 -11q0 -4 -1 -9t-1 -7q0 -12 4 -12q5 0 17 13t20 13q23 0 41 -45q6 -14 10 -57q2 -10 6 -20.5t7.5 -19.5t3.5 -19q0 -21 13 -56t15 -53q2 -9 2 -20t2 -19q10 -31 28.5 -26.5 t25.5 30.5q15 54 30 127q1 5 5.5 38t11.5 50q10 20 10 39q0 22 19 37q2 2 5 4.5t4.5 4t3.5 3t5 2t6 0.5q8 0 21 -5t20 -5q5 0 16.5 5t18.5 5t20.5 3.5t20.5 3.5h13h14t12.5 -0.5t12.5 -1.5t10.5 -2.5t10.5 -4.5t7.5 -7t6.5 -9t3.5 -12t1.5 -15q0 -16 -2 -30.5t-6 -35.5 t-6 -32q-7 -41 -25 -100l-7.5 -22.5t-6.5 -21t-4 -17t-2 -17.5q0 -4 0.5 -11.5t0.5 -12t-1 -11t-4 -12.5q-3 -9 -5 -16t-3 -12t-3 -9q-4 -10 -8.5 -14t-7.5 -4t-6 -1t-4 -6q-1 -3 6 -10.5t6 -15.5q-1 -10 -6 -20.5t-6 -22.5q0 -8 -6 -27.5t-9 -36.5q-2 -8 -7.5 -21t-5 -24 t8.5 -31q4 -11 4 -55q0 -20 1.5 -40t4 -35t6.5 -35.5t7 -33t9 -35t9 -34.5q11 -38 33 -162q2 -9 13.5 -46.5t11.5 -51.5q0 -15 7 -38.5t9 -33.5q2 -11 2.5 -24.5t2.5 -28.5t7 -33q7 -21 7.5 -36.5t-3 -22t-8.5 -6.5q-7 0 -17 -15t-18 -16q-14 -3 -32 -3t-41 1.5t-35 1.5 q-9 0 -25.5 -1t-27 -0.5t-21.5 5.5q-18 7 -35 26.5t-20 35.5q-28 108 -35 168q-1 6 -2.5 17.5t-2.5 19t-1 10.5l-3 18t-3 16.5t-3 13t-5.5 16.5t-8.5 18q-11 19 -27 18.5t-22 -16.5t-10 -32.5t-6.5 -33t-3.5 -20.5q-3 -23 -15.5 -81t-15.5 -89q-2 -17 -4 -29.5t-3 -18.5 t-1 -10q0 -6 -10 -9.5t-13 -6.5q-3 -4 -7 -13t-8.5 -13.5t-13.5 -4.5q-25 0 -62 -4t-56 -4q-10 0 -31 4t-31 4t-22.5 12t-12.5 33q0 11 8.5 29t8.5 31q0 14 5 31.5t5 35.5q0 12 2 21.5t6 21t6 21.5q10 46 26 136t26 134q1 4 9.5 30t8.5 36q0 17 14 69q4 15 17 88q0 1 0.5 6 t1 7l1.5 6t3 5.5t4.5 3t6.5 0.5t9 -3q11 -5 21 7.5t10 29.5q0 5 -4.5 9.5t-11.5 4.5h-6q-1 0 -5.5 -2t-11.5 -4t-12 -2q-10 0 -18.5 6.5t-10.5 15.5q-2 6 -2 22t-2 23q-4 16 -6.5 35.5t-5 32t-8.5 23.5q-8 15 -13 38.5t-8 43t-4 22.5q-15 47 -29 110.5t-26 104.5l-7 24 q-6 23 -6 35q0 6 -4.5 19t-3.5 20zM508 453q0 -12 12.5 -18.5t22.5 -6.5q8 0 8 6q0 9 -9 19t-18 10q-16 0 -16 -10z" />
<glyph unicode="Y" horiz-adv-x="753" d="M10 1341q0 26 1.5 40.5t11 29t28.5 16.5q12 1 30.5 1t24.5 -1q6 -5 34 -1t40 4q11 0 35.5 -3.5t28.5 -3.5q22 -3 40 -22.5t21 -40.5l1 -10q1 -11 1 -17q0 -11 9 -26t8 -29q-1 -17 10 -64q18 -74 18 -102q0 -8 4.5 -25t5.5 -22q2 -11 10.5 -19t18.5 -8q14 0 23 23 q9 19 13 42t6 51.5t5 43.5q3 14 9 40t10 47.5t6 39.5q0 3 3 23.5t3 23.5q3 16 12 23q1 1 10.5 11.5t13.5 13.5t14 7.5t20 4.5q20 2 67 2q14 0 40 -5.5t40 -5.5q20 0 34.5 -12.5t14.5 -34.5q0 -20 -8 -41q-3 -8 -4 -22t-4 -19q-8 -14 -21 -71l-22 -121q0 -1 -31 -115 q-5 -16 -8.5 -43t-5.5 -37t-10 -32.5t-9 -34.5q-1 -14 -5.5 -32t-6.5 -30q-2 -11 -8 -33.5t-6 -27.5q0 -12 -6.5 -32t-8.5 -42q-1 -9 -13.5 -34.5t-12.5 -37.5q0 -26 -10.5 -78t-12.5 -75t-2 -66q4 -126 4 -182q0 -5 3 -24.5t3 -24.5q0 -18 -11 -40t-11 -36q0 -12 -9.5 -22 t-21.5 -13q-41 -8 -131 -8q-8 0 -26 4t-25 4q-57 0 -62 41q0 1 -3 43.5t-3 69.5q0 151 -4 203q0 2 -1 31.5t-1 47.5q0 47 -12 72q-8 17 -16 64q-4 22 -17.5 72.5t-17.5 78.5q-10 62 -25 107q-7 18 -10 49t-6 43q0 1 -6.5 14.5t-14 40t-14.5 70.5q-5 32 -13 64.5t-22.5 84.5 t-17.5 64q-1 5 -7 20.5t-9 28t-3 22.5zM176 1233q-6 0 1 -10q3 -4 3 -6q0 -6 9 -15.5t16 -9.5q5 0 6.5 4t0.5 13t-1 10q0 4 -13.5 9t-21.5 5zM240 799q0 -6 5.5 -9.5t10.5 -3.5q27 0 27 11q0 5 -10 9.5t-17 4.5h-6t-4.5 -0.5t-3.5 -2t-1.5 -3.5t-0.5 -6zM274 98 q0 -7 13 -14.5t24 -7.5q5 0 5.5 3t-0.5 9.5t-1 9.5q0 7 -8 12t-14 5q-8 0 -13.5 -5t-5.5 -12z" />
<glyph unicode="Z" horiz-adv-x="647" d="M16 129q0 95 17 147q0 10 18 52q2 5 6 22t7.5 34t7.5 34t6 22q8 20 35 101q5 16 11.5 21.5t13 2.5t13.5 -7.5t12 -9t8 -2t3 14.5q0 10 -12 20t-12 27q0 10 3 31t3 29q0 9 2 15t6 13t6 11q12 29 45 141q4 13 12.5 25.5t10.5 19.5t10 42t14 54q4 13 9.5 26.5t9.5 21.5 t7 21.5t3 31.5q0 16 -2 26t-8.5 17t-17 9.5t-27.5 2.5q-14 0 -37 2t-37 2q-15 0 -28 3.5t-18 4t-24 -3.5q-9 -1 -13 -2.5t-11 2t-10 5.5t-10 7.5t-11 8.5q-14 9 -14 47q0 14 2 34t2 35q0 8 -2.5 22t-2.5 25.5t5 24.5q7 17 12 26.5t16 22t23 15.5q4 5 50.5 2.5t72.5 -2.5 q9 0 51.5 3.5t68.5 4t50 -3.5q17 -5 47.5 -5t72.5 2.5t62 2.5q27 0 49.5 -17t22.5 -43q0 -16 -2 -35t-2 -35q0 -9 3 -35t3 -34q0 -43 -15 -76q-7 -15 -37 -108q-5 -16 -14 -40.5t-14.5 -43t-9.5 -43.5q-5 -25 -16.5 -54.5t-12.5 -31.5q-39 -119 -43 -144q-1 -4 -2.5 -16 t-2.5 -18.5t-3.5 -16t-5.5 -16t-7 -9.5q-10 -8 -16.5 -26t-12.5 -47t-12 -45q-49 -144 -49 -174q0 -11 5 -23t14 -12q17 0 38 -3t25 -3q26 0 51.5 2t40.5 2t33 -4q28 -7 48 -22t20 -38q0 -17 3 -54t3 -58q0 -4 -3 -23t-3 -29q0 -21 -35 -43q-9 -5 -20.5 -7t-19.5 -2t-22 0.5 t-20 0.5q-16 0 -35.5 -3t-36.5 -3q-30 0 -96 5t-96 5q-9 0 -65.5 -4t-82.5 0q-33 4 -61 21q-6 5 -10 10.5t-6.5 13.5t-4 13.5t-2 16t-0.5 15v17v16.5zM399 49q0 -7 13.5 -10.5t25.5 -3.5q2 0 8.5 2.5t6.5 5.5q0 5 -2 8.5t-5 5.5t-6 2q-41 0 -41 -10z" />
<glyph unicode="[" horiz-adv-x="466" d="M45 1257q0 4 -0.5 24t-1 36t1.5 36t6 33q8 20 27 39q12 12 27 17.5t26 5.5t30.5 -2t28.5 -2q40 0 82.5 2t60 3t35.5 -3t33 -14q31 -23 31 -41q0 -21 3 -57t3 -42q3 -29 -5 -43.5t-40 -21.5q-35 -7 -47 -15q-31 -23 -31 -45q0 -45 -1 -115t-1 -89q0 -24 -3 -42t-3 -20 q0 -7 4 -39t4 -63q0 -55 2 -154.5t2 -181t-4 -154.5q0 -2 2 -20t2 -21t-1.5 -37t-1.5 -62.5t3 -35.5q10 -20 23 -33q6 -8 18.5 -12.5t27.5 -7t20 -4.5q13 -5 27 -21t14 -30q0 -121 -11 -138q-9 -18 -23 -22t-42 -4q-10 0 -31 3t-33 3q-9 0 -62 -2t-63 -2q-3 0 -20 2t-31 2 q-27 0 -44.5 8t-24 24t-8 26.5t-1.5 27.5q0 5 2 41.5t2 42.5q0 1 -4 18t-4 25q0 43 4 72q0 2 3 9.5t3 16.5q0 1 -3 13t-3 20q0 7 -2 28t-2 35q1 97 -4 412t4 420q0 9 -3 73.5t-3 77.5zM147 332q0 -13 9 -13q5 0 10.5 6.5t5.5 12.5q0 16 -10 16q-5 0 -10 -7.5t-5 -14.5z" />
<glyph unicode="\" d="M2 1407q-10 55 18 55q23 1 53 2.5t41.5 2t30 0.5t34 -1.5t36.5 -3.5q13 -1 30 -23t21 -36q55 -194 74 -223q24 -40 44.5 -116t25.5 -89q20 -53 60.5 -183t70.5 -198q8 -19 17 -69t20 -68q14 -23 27 -52t20.5 -49t20 -57.5t18.5 -54.5q5 -15 17 -54t22 -68t20 -54 q27 -63 15.5 -83t-76.5 -20q-15 0 -45 4.5t-52 1.5q-41 -7 -69 21q-6 6 -18 37.5t-27 76.5t-28.5 86.5t-25.5 81.5t-14 45q-6 17 -28 61t-27 66q-9 39 -46.5 134.5t-45.5 152.5q-2 14 -7 29.5t-9 24.5t-13 28t-12 25q-10 22 -45 141q-11 35 -38.5 103.5t-37.5 105.5 q-5 16 -20 57.5t-24.5 72t-13.5 58.5q-1 3 -7 12.5t-7 16.5zM272 733q0 -13 2.5 -17.5t12.5 -4.5q9 0 18.5 7.5t9.5 14.5q0 15 -28 15q-15 0 -15 -15z" />
<glyph unicode="]" horiz-adv-x="466" d="M25 1350q0 33 1 45.5t8 27.5t22.5 19t43.5 4q22 0 65.5 -5t67.5 -5q2 0 25.5 3t56.5 3q3 0 17 2t20 2q16 0 29 -10t16 -27q6 -42 6 -106q0 -10 -4 -97.5t-4 -97.5q0 -13 3.5 -75t6.5 -171.5t3 -236.5v-373q0 -5 3 -34t3 -62q0 -22 -3 -118t-3 -106q0 -32 -26 -49.5 t-50 -17.5q-79 0 -92 -4q-14 -4 -27.5 -5.5t-22 -1.5t-26 0.5t-27.5 0.5q-19 0 -34.5 5t-20.5 5q-42 0 -47 31q-4 27 -4 102q0 1 -0.5 14t0 18.5t3 15t8.5 13.5t15 4q12 0 26 6.5t30 6.5q7 0 15.5 9t8.5 15q0 8 2 26.5t2 25.5q0 9 1 32t1 25q0 11 2 40t2 50q0 47 -3 129 t-3 145q0 21 3 125t3 125q0 8 4.5 19t4.5 14q0 11 -9 25q-10 15 -10 135q0 16 2 93t2 105q0 20 -6 23t-22.5 -3.5t-26.5 -6.5q-49 0 -55 18q-6 20 -6 105zM340 889q0 -6 3.5 -10.5t8.5 -4.5q3 0 6.5 4.5t3.5 10.5q0 26 -4 26q-5 0 -11.5 -8t-6.5 -18z" />
<glyph unicode="^" d="M63 856q0 7 7 35q9 35 37.5 111t37.5 104q9 29 31 67t29 56q5 14 15 19.5t11 13.5q1 7 -1.5 19t-2.5 17q0 8 1.5 15.5t3 14t5 14.5t6 12.5t8 12.5t8 11.5t10 11.5t9.5 10.5t10 11t9 9.5q8 9 19.5 10.5t25.5 -1.5t16 -3q5 0 21.5 0.5t26.5 0.5t23 -2.5t22 -8.5 q9 -5 14 -14.5t9 -22t7 -18.5q4 -10 18.5 -27t18.5 -32l14 -56q6 -13 24.5 -59.5t21.5 -57.5q2 -6 7.5 -21t9 -27.5t3.5 -22.5q0 -6 -7 -14.5t-7 -14.5q0 -7 5 -9.5t12.5 -3t18.5 -10t19 -28.5q1 -2 17 -29.5t16 -42.5q0 -4 4 -15t4 -20q0 -11 -10 -26t-21 -15 q-13 0 -34.5 -2t-37.5 -2t-30 4q-28 11 -37 11q-12 0 -23 9t-16 21q-6 17 -23 52.5t-22 52.5q-8 33 -16 41q-4 3 -14 14t-18.5 17t-15.5 6q-10 0 -17 -3t-12 -10t-7 -11.5t-5 -16.5t-4 -15q-28 -89 -30 -98q-2 -14 -15.5 -32.5t-25.5 -18.5q-6 0 -15.5 -8.5t-13.5 -10.5 q-9 -3 -29.5 -3t-33.5 -3q-17 -2 -28.5 0t-24 5.5t-15.5 3.5q-8 0 -15.5 6.5t-7.5 15.5zM162 971q0 -7 4.5 -13t11.5 -6q3 0 5.5 5.5t2.5 9.5q0 3 1 6t2 5q4 7 -1 7q-8 0 -17 -5t-9 -9z" />
<glyph unicode="_" horiz-adv-x="1024" d="M-6 -86q0 12 14 23q4 2 7 8l3 6q4 7 8.5 11t8.5 6.5t11 3.5t10.5 1h13.5h14q110 0 137 4q5 0 22.5 2.5t32.5 2.5q4 0 111 -5q3 0 14 -0.5t33 -1t53 -0.5q32 0 95 1t86 1q6 0 32.5 2.5t32.5 2.5q25 0 74 -2.5t74 -2.5q15 0 37.5 1.5t29.5 1.5q11 0 31 -11.5t25 -13.5 q1 -1 4 -2.5t4.5 -2.5t4 -2.5t4.5 -3t3.5 -3t3 -3.5t2 -4t0.5 -4q0 -5 2 -14t2 -14q0 -47 -16 -64.5t-60 -17.5q-13 0 -62 -3t-54 -3q-26 0 -77 -1t-77 -1t-73 1t-74 1q-7 0 -26.5 3t-31.5 3q-8 0 -25 -3t-26 -3q-65 2 -192.5 2t-194.5 2q-28 1 -39.5 25t-11.5 53v18z M465 -154q0 -2 1 -3t3.5 -1t5 0.5t6.5 1t8 0.5q2 0 8.5 -2t10.5 -2t4 4q0 9 -8 20t-15 11q-12 0 -18 -10t-6 -19z" />
<glyph unicode="`" horiz-adv-x="374" d="M29 1417q0 31 61 31q22 1 53 -8.5t50 -9.5q26 0 45 -31q43 -85 57 -125q4 -16 12 -30.5t8 -18.5q0 -13 -7 -20t-14.5 -8t-21.5 -1.5t-20 -1.5q-42 -5 -70 8q-16 8 -16 29q0 4 -6 22q-5 10 -12 8.5t-15 2.5l-47 47l-18 34q-17 34 -29 41q-10 8 -10 31z" />
<glyph unicode="a" horiz-adv-x="714" d="M39 168q0 1 1.5 36t-1.5 36q-1 6 2 29.5t-2 27.5q-5 10 -5 21t2.5 23t2.5 19q0 9 -0.5 30.5t0 31t2 26t6 30t12.5 28.5l10 20t10.5 19.5t10 15t14 17.5t17.5 16q60 49 102 61q20 6 47.5 20t34.5 17q46 17 59 31q11 13 19 33q16 32 16 45q2 28 -11 55t-38 27 q-21 0 -33 -19.5t-12 -38.5q0 -5 -5 -26t-5 -29q0 -9 -9.5 -20t-25.5 -11t-57 -6.5t-51 0.5q0 3 -24 1l-24 -1q-63 0 -63 103q0 8 10 53q2 11 2 59q0 18 23 64q23 47 35 61t34 25q64 31 68 32q29 9 63.5 9.5t77.5 -2.5t68 -2q23 0 41 -11q5 -5 22 -2t21 2q24 -3 78 -37 q53 -33 71 -139q2 -10 2 -30.5t2 -30.5q6 -36 7.5 -73t-0.5 -80t-2 -52q0 -27 5 -54t5 -32q0 -37 -2 -72.5t-5 -67t-3 -38.5q-3 -4 -1.5 -86t1.5 -86q0 -29 -2 -54.5t-2 -38t4 -28.5q8 -28 8 -74q0 -21 -5.5 -30t-23.5 -13q-6 -2 -26 -0.5t-29 0.5q-13 -1 -34.5 -4.5 t-27.5 -3.5q-36 0 -61 4q-12 2 -31.5 16.5t-34.5 14.5q-21 0 -53 -17.5t-51 -23.5q-21 -6 -66 -6q-98 0 -151 51q-14 14 -26.5 58.5t-12.5 70.5zM270 59q0 -10 17 -10q6 0 15 5t9 9q0 6 -8.5 10.5t-15.5 4.5q-6 0 -11.5 -6t-5.5 -13zM311 295q0 -20 14 -36.5t31 -16.5 q19 0 26 9.5t19 41.5q3 7 3.5 15.5t0 14t-2 15.5t-1.5 14q-2 24 -1.5 52.5t-0.5 52.5q0 11 -8 19.5t-18 8.5q-11 0 -33 -6t-25 -14q0 -1 -2 -12t-2 -19l-1 -67q-2 -67 1 -72zM469 549q0 -12 16 -12q25 0 25 8q0 4 -10.5 9t-14.5 5q-16 0 -16 -10z" />
<glyph unicode="b" horiz-adv-x="724" d="M35 1106q0 34 2 87t2 87q0 3 -2 34.5t-2 47.5q0 23 18.5 43t40.5 20q3 0 21 4t43 5q6 0 11 -9.5t15 -9.5q5 0 10 -25.5t11 -25.5q8 0 8.5 13.5t0 30.5t5.5 22q4 3 10.5 3.5t11.5 -0.5t13 -4t12 -4q14 -4 23.5 -18.5t10.5 -28.5q0 -9 1 -25.5t4.5 -47.5t5.5 -56 q1 -6 -0.5 -25t-2 -37.5t1.5 -37.5t10.5 -31t23.5 -12t37.5 11t40.5 11q9 0 32 4.5t27 4.5q56 7 103.5 -13t66.5 -69q2 -5 7.5 -15t9 -20t4.5 -21q2 -20 -2 -77.5t2 -77.5q5 -27 5 -47.5t-2.5 -41t-2.5 -34.5q0 -35 1.5 -104t1.5 -129.5t-3 -116.5q-1 -18 -3.5 -38t-2.5 -24 q0 -5 3 -19t3 -20q0 -1 2 -20t2 -43q0 -50 -1.5 -74.5t-11.5 -53t-30 -40.5q-3 -1 -19.5 -11t-25 -14t-25 -10.5t-34 -9t-37.5 -2.5q-56 0 -103 22.5t-72 22.5t-46 -17.5t-35 -17.5q-15 0 -45.5 -2t-52.5 -2t-36 4q-40 15 -45 33q-10 39 -10 63q0 10 8 20.5t8 14.5 q0 8 -6 23.5t-8 36.5q-2 22 -2 147q0 26 -3 63t-3.5 52.5t4.5 46.5q5 2 3 57.5t-1 67.5q2 49 -2 101.5t-4 78.5q0 46 -3 144.5t-3 154.5zM311 727q2 -14 2 -48.5t-0.5 -73t0.5 -85.5q0 -12 1.5 -44t0.5 -50q-3 -41 -2.5 -61t2.5 -42t2 -28q0 -20 15 -38.5t37 -18.5 q11 0 26 12t15 22q0 8 3 29t1 39q-4 29 1.5 88.5t2.5 93.5q-3 29 -4 61.5t-1 55.5t0.5 60.5t0.5 58.5q0 2 0.5 14t0.5 23t-1 25t-5 26t-10 18q-21 21 -41 21q-47 0 -47 -78q0 -3 -1.5 -15t-1.5 -28t3 -37zM586 295q0 -8 8 -8t19.5 8.5t11.5 15.5q0 13 -13 13q-7 0 -16.5 -12 t-9.5 -17z" />
<glyph unicode="c" horiz-adv-x="700" d="M33 715q0 19 5 60t5 59q0 1 -3 49.5t3 58.5q11 57 18 72q2 5 7 12.5t6 11.5q4 19 20 34.5t28.5 22t42.5 17.5t36 14q13 6 27 8.5t24.5 3.5t32 1.5t37.5 1.5q25 1 42 -7.5t23.5 -20t14 -21t14.5 -9.5q4 0 7 25t17 25q9 0 18 1t15 2l6 1q20 0 45 -15l68 -41 q25 -16 38 -53.5t13 -73.5q0 -19 3 -59t3 -68q0 -24 2 -52.5t2 -43.5q0 -14 -11.5 -31.5t-31.5 -17.5q-5 0 -23.5 -4t-39.5 -4q-9 0 -20 2t-13 2t-10 -4t-12 -4q-31 0 -43 6q-43 25 -43 51q0 44 -3 61q-1 3 -5 11.5t-5.5 14.5t0.5 20q7 25 -6 41t-35 16q-12 0 -37 -25 q-4 -4 -5 -8t-1.5 -9.5t-1.5 -10.5q-4 -19 -4 -62t2 -109.5t2 -80.5q0 -82 -4 -97q-6 -19 0 -47q3 -10 3 -32t-1.5 -53.5t-1.5 -45.5q0 -33 15.5 -52t41.5 -19q15 0 35 20.5t17 36.5q-1 9 0 31.5t0 31.5q-6 73 10 89q30 30 37 32q59 13 86 15q8 0 25.5 -5.5t25.5 -5.5 q22 0 42.5 -14.5t20.5 -36.5v-115q0 -8 1.5 -21.5t1.5 -24.5t-3 -21q-8 -28 -2 -68q6 -38 -34 -104q-10 -15 -32.5 -35t-39.5 -27q-55 -20 -82 -26q-51 -12 -117 0q-19 4 -40 4t-46 -2t-39 -2q-12 0 -25 3.5t-22 7.5t-23.5 10.5t-21.5 9.5q-43 18 -53 51q-2 7 -18 38.5 t-17 59.5q0 7 -2 63.5t-2 79.5q0 31 -1 76t-1 76q0 1 -2 56.5t-2 105.5q0 15 -2 43t-2 43zM221 244q0 -13 3 -17t14 -4q10 0 10 37q0 16 -4 16t-13.5 -13.5t-9.5 -18.5z" />
<glyph unicode="d" horiz-adv-x="724" d="M35 563q0 8 1.5 17.5t3 18t3 19t2.5 19.5q3 29 -2 129q-1 40 0.5 114.5t1.5 96.5q0 32 9 60.5t18 37.5q19 19 55 45q9 7 19 11.5t24 6.5t26 2t33 1q10 0 35.5 -10.5t36.5 -2.5q6 5 14.5 4.5t14 -3.5t14 -6t14.5 -3q10 0 16 0.5t15 2.5t13 7.5t4 14.5q0 14 1.5 39t1.5 45 t-3 37q-4 27 0 86q2 18 17.5 38.5t33.5 20.5q3 0 21.5 10.5t27.5 10.5q15 1 26.5 0t30.5 -3.5t33 -3.5q6 -1 13.5 0t16.5 2t17 0q12 -1 19.5 -9t10.5 -21.5t4 -25.5t1 -30q0 -17 -2.5 -64.5t0.5 -64.5q0 -5 1 -29.5t1 -29.5v-57q-3 -44 0 -129.5t0 -139.5q0 -113 4 -145 q3 -32 3 -59.5t-1.5 -63.5t-1.5 -65q0 -21 0.5 -61.5t0.5 -65.5t-1 -60t-4 -65q-1 -14 8 -82q1 -9 3.5 -27t3.5 -28t1.5 -25t-1.5 -24t-6 -19.5t-12 -16.5t-20 -10q-31 -6 -108 -6q-51 0 -70 6q-13 5 -31.5 18t-35.5 13q-14 0 -45 -20.5t-54 -20.5q-13 0 -37.5 2t-37.5 2 q-10 0 -30 -2t-30 -2q-32 0 -74 20q-16 7 -31 36t-20 53q-6 43 -6 110q-1 45 0 135t0 135q0 13 -5 37t-5 37zM174 586q2 -2 5 -7t5 -8.5t6 -6.5t9 -3t13.5 5t8.5 9q0 12 -10.5 21.5t-22.5 9.5q-8 0 -14 -7t0 -13zM182 1024q0 -3 10.5 -7.5t22.5 -4.5t12 12q0 3 -6 7t-10 1 q-3 -2 -7 -2.5t-6.5 0t-6 1.5t-5.5 1q-4 0 -4 -8zM307 313q-2 -26 13 -48.5t42 -22.5q15 0 28 12.5t16 28.5q3 15 4 32t0.5 36.5t-1.5 34.5t-3 38t-3 35q-5 65 3 172q0 3 -3.5 35t-3.5 49q0 6 5.5 23t5.5 28q0 16 -1.5 33.5t-6.5 41t-16.5 38t-27.5 14.5q-10 0 -21 -7 t-19 -17.5t-11 -20.5q-4 -13 -4 -43.5t2 -75.5t2 -65q0 -6 3 -21.5t1 -24.5q-4 -28 -4 -100q0 -23 1 -64.5t1 -76t-2 -64.5z" />
<glyph unicode="e" horiz-adv-x="700" d="M41 317q0 28 2 70t2 68q0 49 -2 146t-2 149q0 16 2.5 54t1.5 60q-1 21 3.5 49t4.5 43q0 38 16.5 72t43.5 53q75 49 127 58q19 3 32 2t27.5 -3.5t17.5 -2.5q18 0 59.5 1t67.5 1q16 0 68 -9q13 -3 17.5 -17t4 -27t3.5 -13q3 0 10 14.5t16 14.5q27 0 59.5 -48.5t32.5 -80.5 q0 -4 2.5 -26.5t4.5 -46.5t0 -36q-4 -28 1 -75t5 -54q0 -9 -3 -58.5t-3 -58.5q0 -5 -4 -12l-3 -6q0 -2 3.5 -19.5t3.5 -39.5q0 -20 -9 -35t-26 -15q-5 0 -13.5 -6t-13.5 -6q-24 0 -76.5 -3t-89.5 -3q-6 0 -17.5 3t-17.5 3q-36 0 -63 -18q-15 -10 -20 -21t-5 -39v-80 q0 -4 -0.5 -13.5t-0.5 -15t1.5 -12.5t5.5 -12q13 -16 20 -20t25 -4q19 0 35.5 14.5t16.5 36.5q0 50 4 61q3 9 19 19t28 10q8 0 19 -3t18 -3q1 0 17 6t30 6q11 0 24.5 0.5t20 0.5t14.5 -0.5t12.5 -2t8.5 -4.5q37 -25 37 -57q0 -9 -2 -39t-2 -43q0 -7 -2.5 -21t-2.5 -22 q0 -39 -8 -70q-7 -23 -33 -62t-57 -55q-10 -5 -43 -15.5t-41 -10.5q-15 0 -35 1t-28 1q-19 0 -53 -1t-54 -1q-19 0 -48 7t-50 7q-61 0 -125 74q-25 29 -25 162q0 16 -8 41t-8 38zM223 133q0 -16 23 -16q4 0 9 4t5 12q0 4 -9 4t-11 4q-6 9 -11.5 4.5t-5.5 -12.5zM305 831 q0 -4 -0.5 -20.5t0 -24.5t1.5 -23.5t4 -24t7.5 -18t12 -14t18.5 -4.5q22 0 32 1t19 9t9 25q0 63 2 82q1 12 -1.5 26.5t-16.5 29t-38 14.5q-23 0 -36 -18.5t-13 -39.5z" />
<glyph unicode="f" horiz-adv-x="434" d="M6 971q0 19 3 58t3 61q0 24 31 32q11 3 15 10t5 19.5t3 17.5q8 25 8 99q0 38 16 73t43 50q20 12 29.5 17t24.5 9t34 4q5 0 10.5 -4t14.5 -4q5 0 20 9t23 10q83 12 112 -17q8 -6 13 -13t7.5 -12.5t3.5 -15t1.5 -14.5t0 -17.5t-0.5 -17.5t1 -16t1 -20.5t-2 -16.5 q-15 -49 -55 -55q-23 -4 -29 -12t-6 -25q0 -29 16 -37q22 -13 37 -13q11 0 17.5 -1.5t13 -11t6.5 -27.5q0 -7 3 -23.5t3 -24.5q0 -7 -6 -37.5t-6 -37.5q0 -51 -25 -58q-6 -2 -15.5 -4t-13.5 -3.5t-9 -3.5t-7 -5t-2 -8q0 -7 -6.5 -25t-5.5 -29q9 -93 2 -141q-2 -13 3 -46 t-1 -44q-6 -27 -5 -34.5t5 -40t4 -68.5q0 -29 -2 -85t-2 -81q0 -9 2 -55.5t2 -55.5t-2 -46.5t-2 -61.5q0 -25 -12 -33q-7 -4 -15 -13.5t-17 -15.5t-24 -6q-7 0 -19.5 3t-19.5 3q-3 0 -11 -1.5t-24 -3t-38 -1.5q-4 0 -14 -0.5t-16 -0.5t-13.5 2t-12.5 7q-23 21 -32 39.5 t-9 48.5q0 12 2.5 30t2.5 28q0 11 19 31.5t22 29.5q1 3 -3.5 3t-11.5 -0.5t-14 1t-10.5 9t-1.5 20.5q4 22 0 67q-3 60 -0.5 141.5t0.5 106.5q0 47 -2 89l-3 42q0 20 2.5 65t2.5 73q0 60 -25 67q-16 4 -26.5 25t-10.5 43zM207 508q0 -8 2 -11t12 -3q15 0 15 18q0 16 -7 16 q-10 0 -16 -6t-6 -14zM322 1364q0 -14 14 -14q10 0 10 14q0 2 1 4t1.5 4t0.5 4t-1 3t-4 1q-22 0 -22 -16z" />
<glyph unicode="g" horiz-adv-x="724" d="M25 668q0 28 -1 77t-1 87.5t2 72.5q3 56 30 119q21 56 70 78q7 3 28.5 10.5t32.5 13.5q30 14 72.5 16t98.5 -2t79 -3q71 4 105 -35q12 -12 32 0q6 5 22 11t26 13q14 7 22 6t24 -5.5t25 -4.5q17 0 24 -18t7 -60v-7q0 -27 -0.5 -43t-3.5 -40t-11.5 -36.5t-21.5 -12.5 q-51 0 -37 -123q2 -15 -3 -67t1 -76q11 -63 -12 -174q-14 -59 -58.5 -100.5t-101.5 -47.5q-95 -10 -121 -6q-7 1 -30.5 -4.5t-30.5 -5.5q-31 0 -31 -31q0 -28 25 -39q7 -4 43.5 -4t85.5 2t59 2q2 0 35 -5t57 -5q58 0 115 -76q9 -11 15 -23t10 -25.5t6 -23t3 -27t1 -25v-28.5 v-28v-19v-22t-0.5 -21.5t-3 -22.5t-6 -18t-9.5 -16.5t-14 -9.5q-9 -4 -23 -29t-26 -32q-15 -9 -33.5 -16.5t-34.5 -12t-41 -8t-39.5 -5t-44 -2.5t-40.5 -1h-42.5h-37.5q-7 0 -20.5 3t-20.5 3q-9 0 -28 -3t-28 -3q-29 0 -77 16t-56 39q-4 6 -1 18t3 15q0 7 -18 6.5t-27 11.5 q-23 44 -26 102.5t22 104.5q27 44 27 96q0 7 -7 19.5t-10 36.5q-3 4 -1 14.5t1 14.5t3 14.5t4.5 14t6 14t7.5 14t8 13t8 13t8.5 13t8.5 12.5q6 5 2.5 13.5t-7 13t-11.5 12.5t-11 12q-3 3 -3 13t1.5 21.5t1.5 12.5q0 7 -1.5 8.5t-4.5 -0.5t-7 -4t-9 -0.5t-9 8.5 q-18 30 -18 70q0 65 -4 86q-4 23 -4 70zM209 848q-4 -1 -3 -3.5t5 -9.5t4 -12q0 -7 4 -13.5t10 -6.5q8 0 14.5 10.5t2.5 17.5q-10 17 -37 17zM211 -66q0 -20 20.5 -30t44.5 -10q13 0 36 -2t40 -1q66 5 88 3q28 -2 45 9.5t17 35.5q0 23 -14.5 37t-36.5 14q-5 0 -49 -2t-50 -2 q-14 0 -43 3.5t-47 2.5q-23 -1 -37 -17.5t-14 -40.5zM276 776q-1 -18 2 -107.5t3 -95.5q0 -21 16.5 -32t38.5 -11q13 0 35 19.5t22 42.5q0 10 4 24.5t4 24.5t-4.5 38.5t-3.5 41.5q1 7 -1.5 17.5t-2.5 17.5q0 8 2 22t2 19q0 25 -0.5 39t-4 33t-10 28.5t-19.5 17t-31 7.5 q-20 0 -36 -14.5t-16 -33.5q0 -8 5.5 -23.5t5.5 -23.5q0 -9 -5 -27t-6 -24zM510 160q0 -5 2.5 -5.5t7.5 0.5t6 1t4.5 -0.5t5.5 -0.5t3.5 2.5t1.5 8.5q0 14 -6 14q-25 0 -25 -20z" />
<glyph unicode="h" horiz-adv-x="729" d="M35 958q0 14 3 37t3 37q0 6 -3 30t-3 34q0 27 -1.5 73t-1.5 85t3 77q5 47 20 62q4 5 11 17t14.5 17t21.5 5t41 -1t41 -1q11 0 22.5 -8.5t16.5 -8.5q8 0 20.5 5t20.5 5q9 0 16.5 -2.5t12.5 -8t8.5 -10.5t6 -15.5t3.5 -17.5t1.5 -21t0.5 -22v-24v-24q0 -6 -5.5 -42t1.5 -40 q5 -3 1.5 -20.5t-3.5 -20.5q0 -16 11.5 -31.5t25.5 -15.5q15 0 38.5 9t33.5 11q67 15 78 15q65 0 92 -15q3 -1 8 -17.5t14 -16.5q2 0 10.5 4t12.5 0q28 -19 41.5 -59.5t13.5 -75.5v-105q0 -22 -3 -70t-1 -86q0 -7 3 -28.5t3 -38.5q0 -10 -3 -30t-3 -30q0 -27 7 -158t-1 -163 q-3 -34 0 -102t0 -103q-1 -19 -15.5 -32t-31.5 -13q-7 0 -32.5 1t-49.5 1q-4 0 -13.5 -3t-13.5 -3q-61 0 -78 8q-20 10 -28 37q-3 2 -0.5 22t2.5 29q0 47 -4 74q-3 0 -2 30l2 29q0 22 1.5 69t1 84t-4.5 69q-9 61 0 122q4 29 5 63t-0.5 59t-4.5 65.5t-4 62.5q0 24 -16.5 44 t-36.5 20q-19 0 -41 -35q-1 -2 -7 -41q-3 -18 -3 -37.5t1.5 -72.5t1.5 -113q0 -12 1.5 -34.5t1.5 -40.5t-3 -34q-3 0 -1 -27l1 -26q0 -31 2 -85t2 -100t-4 -91q0 -10 0.5 -39.5t-2 -48.5t-10.5 -33q-10 -18 -28 -23.5t-52 -5.5q-21 0 -65.5 2t-67.5 2q-16 0 -43 41 q-4 7 -4.5 13.5t1 15t1.5 12.5q0 48 -6 66q-4 15 -4 27.5t2 53t2 91.5q0 18 -2 54t-2 54t2 54t2 53q0 23 6 41q2 6 8 5.5t10 -3t5 1.5q0 7 -14.5 23t-14.5 24q0 18 -4.5 86.5t0.5 83.5q5 9 1.5 77.5t-3.5 79.5zM88 569q0 -5 9 -12t18 -8q4 0 4 4q0 7 -6.5 14.5t-14.5 7.5 q-10 0 -10 -6zM514 737q19 -14 35 -14q9 0 11.5 2t2.5 12q0 4 -4.5 8.5t-9.5 4.5q-27 0 -36 -8q-1 -3 1 -5z" />
<glyph unicode="i" horiz-adv-x="360" d="M33 518q0 3 1.5 25t3 58.5t1.5 74.5q0 12 -1 92.5t-1 138.5q0 21 2 64t2 65q0 18 0.5 28t5.5 23.5t14 20.5q23 20 48 20q5 0 20.5 3.5t20.5 3.5q2 0 8 -2.5t12.5 -4.5t9.5 -2q7 0 15.5 1t15.5 2.5t15.5 2.5t15.5 1h6h9t8.5 -0.5t8 -2t5.5 -4.5q12 -18 24 -30 q6 -6 6.5 -23.5t1.5 -21.5q13 -48 4 -125q-1 -10 -10.5 -15.5t-19.5 -6.5t-18.5 -3.5t-8.5 -7.5q0 -10 22 -13t25 -8q5 -7 5.5 -19t-1 -29.5t-0.5 -28.5q0 -4 8 -340q5 -79 0 -119q0 -23 -2 -146.5t-2 -148.5q0 -10 -20 -23.5t-35 -15.5q-19 -4 -48.5 0t-33.5 4 q-11 0 -31 -1.5t-32.5 -1.5t-27 2.5t-24 10.5t-14.5 23q-4 9 -5.5 20t-1.5 18t0.5 20t0.5 18q0 18 -1 50.5t-1 59.5t2 51q2 45 2.5 54t-1.5 38.5t-3 55.5q-6 75 -6 94zM37 1362q2 29 19 51.5t46 22.5q10 0 40.5 4t41.5 0q3 -1 10 -3t12.5 -3.5t8.5 -1.5q2 0 12.5 3t24.5 1 q10 -1 17.5 -5t11 -7.5t11 -12t11.5 -12.5q6 -6 6 -25q0 -8 -10 -8q-3 0 -8.5 2t-9.5 2q-6 0 -14.5 -5t-8.5 -9q0 -8 5 -9.5t12 1t14 2.5t12 -4q8 -4 8 -74q0 -19 -23 -34t-44 -17q-24 -3 -73.5 -0.5t-70.5 0.5q-16 -1 -33 11t-24 25q-4 9 -4 21t2 28.5t2 24.5q0 7 -2 16 t-2 15zM227 158q0 -5 8.5 -12.5t12.5 -6.5q8 2 8 25q0 20 -8 20q-10 0 -15.5 -8.5t-5.5 -17.5z" />
<glyph unicode="j" horiz-adv-x="360" d="M-23 -147q-7 7 -1 26.5t6 20.5q0 11 20 24q20 11 31 49l4 11q4 12 4 24q4 86 4 148q0 1 1.5 60t-1.5 60q-6 64 0 119q1 9 0 24.5t-2.5 28.5t-1.5 15q0 12 12.5 29.5t12.5 31.5q0 9 -10.5 22t-10.5 27q0 15 -4 47t-4 46q0 39 2 116.5t2 116.5q0 4 -2 15.5t-2 15.5 q0 13 3 51.5t1 56.5q-3 28 4 58q2 4 10 12q3 2 8 7l6.5 6.5t5.5 4t7 3.5l7.5 2.5t10.5 1.5q11 2 50 2q8 0 29 -2.5t26 -2.5t25.5 2.5t25.5 2.5q26 0 45 -43q5 -13 -2.5 -29t-7.5 -23q0 -14 10 -24q6 -4 8.5 -12t2.5 -13.5t-0.5 -16t-0.5 -13.5q-1 -47 1 -141.5t1 -141.5 q-1 -24 3.5 -49.5t5.5 -37.5t-7 -46q-4 -12 -4 -26t2 -31t2 -27q0 -17 2 -48t2 -48q0 -4 -3 -30t-3 -46q0 -39 1 -117t1 -117q0 -13 -6 -37t-6 -32q0 -2 3.5 -9t3 -23t-8.5 -46q-23 -84 -82 -133q-6 -5 -15 -8.5t-21 -5.5t-15 -3q-52 -14 -102 -14q-6 0 -19.5 -1t-22 -0.5 t-16.5 5.5q-9 5 -18.5 16t-9.5 19q0 64 -3 70zM39 1286q1 14 0 24t0.5 22.5t5.5 23.5q3 8 3 24t1 19q3 13 12.5 21t26 11t26.5 3.5t29.5 0t20.5 -0.5q2 0 10 1t15.5 1t13.5 -2q11 -3 16.5 -32t9.5 -30q10 -2 14.5 0.5t4.5 13.5q0 44 14 44q26 0 37.5 -29t11.5 -64 q0 -10 -3 -27.5t-3 -27.5q0 -17 -7 -31.5t-19 -15.5q-8 -1 -24 -7t-24 -7q-60 -7 -94 -2q-13 2 -28 3t-21.5 1.5t-16 6t-20.5 17.5q-15 15 -12 39zM100 530q0 -7 7.5 -13.5t15.5 -6.5q15 0 11 15q-3 14 -15 14q-19 0 -19 -9z" />
<glyph unicode="k" horiz-adv-x="727" d="M29 866q0 16 9 40t9 32t-6 33.5t-6 70.5q0 16 1 47t1 56t-2 47q-1 21 0.5 74.5t-0.5 74.5q-3 34 16 63.5t55 29.5q12 0 35.5 5t42.5 5q22 0 29.5 -12.5t9.5 -12.5q3 0 11 7.5t18 7.5q18 0 36.5 -16t18.5 -32q0 -15 6 -45q3 -17 3.5 -33.5t-0.5 -39t-1 -31.5q0 -11 1 -38 t1 -42q0 -19 -0.5 -56t-0.5 -60t1 -53t5 -54q2 -15 2 -86q0 -17 8 -22.5t18 0.5t15 18q25 56 26 59q2 7 10 41.5t17 50.5q9 14 20 48t15 42l6 12t5.5 11.5t5 8.5t6.5 7.5t8 5.5t11.5 4.5t14.5 2.5q1 1 42 0.5t42 -0.5q4 0 16.5 2t16.5 2q5 0 15 -2.5t17 -1.5q17 3 27 -15 t10 -37q0 -33 -18 -69q-28 -62 -47 -123q-44 -145 -86 -234q-13 -25 -13 -57q0 -12 -12.5 -18t-23.5 -4q-7 2 -13 -3t-2 -12q4 -6 8.5 -9t7 -4t8.5 -2t7 -1q24 0 27 -8q4 -9 16 -32t17 -37t8 -30q8 -42 20 -55q12 -15 18.5 -34t11 -47t7.5 -38q3 -13 17.5 -40.5t17.5 -37.5 q4 -11 14.5 -44t15.5 -48q3 -9 7.5 -28.5t5.5 -20.5q3 -10 -3 -22.5t-14 -14.5q-28 -4 -51 0q-5 1 -13.5 -2.5t-12.5 -3.5q-28 0 -63 -3t-38 -3q-41 0 -61 20q-28 31 -33 68q-2 7 -0.5 23.5t-3.5 19.5q-7 10 -17.5 43.5t-26.5 56.5t-42 23q-7 0 -13 -9.5t-8 -17.5 q-3 -12 -3.5 -27.5t0.5 -38t1 -30.5q0 -13 2 -29t2 -30q0 -38 -18 -49q-38 -23 -125 -23q-1 0 -36 -2t-36 2q-32 7 -42.5 19.5t-12.5 31.5q-6 42 -6 109q0 10 2.5 61.5t-0.5 61.5q0 5 -1 14t-1 16q0 12 2 32t2 30q0 3 -2 13t-2 13q-5 61 -6.5 118.5t-0.5 140.5t1 96 q0 24 -3 55.5t-3 54.5zM328 438q0 -4 6 -8t10 -4q6 0 8.5 0.5t4 4t1.5 11.5q0 3 1 7t1.5 7t0.5 6t-1 5t-4 2q-8 0 -18 -10.5t-10 -20.5z" />
<glyph unicode="l" horiz-adv-x="360" d="M31 981q0 16 3 51t3 55q0 3 -3 27.5t-4 50.5t1 70q2 27 2 129q0 23 8 31q4 5 9.5 14t8.5 12.5t10.5 7t18.5 3.5q12 0 27 -2.5t26 -2.5q7 0 32 4.5t32 4.5q10 0 26.5 -2t26.5 -2t21 -11q18 -18 22 -29.5t4 -37.5q0 -78 4 -234q0 -6 5 -43.5t-1 -44.5q-4 -18 -2.5 -37 t0.5 -24q-5 -21 -2 -60q2 -14 2 -77q0 -68 1 -206t1 -206q0 -6 1 -20.5t0.5 -25t-3.5 -20.5q-6 -6 -2 -45t4 -45v-55q0 -18 2 -51.5t2 -61.5t-4 -53q-3 -15 -23.5 -30t-35.5 -15h-160q-12 0 -29.5 14.5t-17.5 24.5q0 4 -4 11t-4 11l4 27q0 4 4 14t4 17q0 4 -3.5 12t-4.5 12 q-2 15 -2 28.5t1 29t1 24.5q0 21 12 31.5t27 12t27 7.5t12 19q-3 8 -21 2t-39.5 -6t-21.5 16q0 22 -0.5 49.5t-1 47t-0.5 22.5q0 14 -2.5 86t0.5 86q4 23 2.5 128t-0.5 134q1 22 -2.5 62.5t-3.5 58.5zM180 948q0 -4 5 -10t12 -6q5 0 14.5 3.5t9.5 6.5q0 4 -4.5 7.5t-11 6.5 t-8.5 5q-6 5 -11.5 0t-5.5 -13z" />
<glyph unicode="m" horiz-adv-x="1093" d="M27 934q0 5 3 41t3 57q0 53 13.5 78t59.5 25q12 0 35 -3.5t39 -3.5q4 0 20 3.5t25 3.5q17 0 56 -14.5t61 -10.5q17 3 41 15.5t33 15.5q10 4 21 5.5t18 1.5t20.5 -0.5t20.5 -0.5q14 0 37.5 -5t39.5 -5q26 0 56 -23.5t47 -23.5q12 0 23 5.5t25.5 15.5t25.5 15q17 8 27.5 12 t23.5 7.5t25.5 4.5t29.5 1q62 0 99 -15.5t65 -62.5q1 -2 3 -5q9 -16 11 -23.5t2 -28.5q0 -6 6 -21t5 -22q-1 -5 0.5 -13.5t3.5 -18t2 -15.5q1 -29 0.5 -48.5t-1.5 -42.5t-1 -28l2 -65q1 -64 -2 -64q-4 -42 0 -139q0 -5 -2 -19.5t-2 -17.5v-29q6 -40 6 -170q0 -36 -1 -98.5 t-1 -98.5q0 -6 1 -16.5t1 -16.5t-1.5 -14t-6.5 -14.5t-13 -13.5q-27 -27 -94 -27q-18 0 -57 3t-60 3q-12 0 -19 6t-9.5 18.5t-3 21.5t0.5 27t1 23q0 14 -5 172t-2 216q1 16 -1.5 74t1.5 91q1 8 5 12.5t9 5t9 3.5t4 10q0 8 -8.5 13.5t-11.5 11.5q-4 12 -3.5 33.5t2.5 59 t1 50.5q-1 10 -12.5 17t-14.5 10q-14 14 -41 14q-9 0 -21.5 -7.5t-13.5 -17.5q-4 -39 0 -118q1 -16 -5.5 -44t-6.5 -46q0 -3 5.5 -15t6.5 -22q4 -36 4 -77.5t-2 -93.5t-2 -79q0 -18 -3 -34t-3 -36q0 -39 3 -116.5t3 -116.5q0 -25 -6 -31q-3 -3 -12 -16.5t-18 -19t-23 -1.5 q-9 4 -33 0t-33 -4q-13 0 -42 -2t-42 -2q-20 0 -41 14.5t-28 30.5q-2 6 -2 64q-5 142 -5 151q0 18 7 49q4 24 0 97q-1 24 -0.5 46t-1 51.5t-5.5 51.5q-4 19 -4.5 36t1 39t1.5 36q0 56 2 63q5 18 5 39.5t-2.5 48.5t-2.5 41q0 19 -13.5 28t-31.5 9q-30 0 -39.5 -23t-9.5 -65 q-3 -61 1 -113q1 -9 -1 -23.5t-2 -17.5q0 -1 2 -19t1 -28v-104q0 -15 3.5 -54t3.5 -69q0 -16 -4.5 -91.5t0.5 -97.5q2 -24 -3 -73q-1 -12 0 -27t1.5 -22t-2.5 -17t-10 -20q-19 -27 -39 -27q-16 0 -42.5 -2t-41.5 -2q-7 0 -24.5 2t-24.5 2t-25.5 1t-25.5 1q-11 0 -23 14 t-12 25q0 5 -1 39t-1.5 62t0.5 59q1 25 5.5 42.5t4.5 24.5t16.5 10t16.5 11q0 7 -22.5 10.5t-22.5 15.5q0 1 1 40t1 71q0 21 1.5 44.5t1 35.5t-4.5 27q-2 11 -2 77q0 6 -2 90t-2 127q0 26 -2 58.5t-2 44.5zM360 1038q0 -36 25 -16q2 2 7 3t8 2.5t3 4.5q0 25 -24 25 q-6 0 -10.5 -3t-6.5 -7.5t-2 -8.5zM834 682q0 -4 3 -8.5t7 -7.5t8 -5t6 -2q5 0 8 0.5t4.5 2.5t2.5 4.5t1 7.5q0 7 -4 13t-8 3q-3 -2 -8.5 -2t-9.5 0.5t-7 -1t-3 -5.5z" />
<glyph unicode="n" horiz-adv-x="729" d="M31 623q0 9 2.5 25.5t3.5 21.5q3 1 1.5 51t-1.5 51q0 28 -3 81t-3 81q0 7 3 26.5t3 26.5q0 9 -3 25.5t-3 25.5q0 3 -0.5 13t0 15t2.5 12t6 12q25 26 33 30q15 10 59 10q9 0 24.5 3.5t24.5 3.5q5 0 17 -1.5t28 -3t23 -2.5q16 -3 55 -26q10 -4 27 -4q22 0 54.5 19.5 t37.5 21.5q11 5 23 5.5t30 -0.5t25 -1q36 0 51 -4q74 -15 104 -84q2 -4 8.5 -18.5t10 -22.5t7 -20t3.5 -21q0 -16 -2 -44.5t-2 -52.5t4 -47q4 0 2 -49l-2 -49q0 -7 1 -18t1 -21.5t-2 -21.5q-5 -33 -5 -71t2.5 -84t2.5 -71q0 -6 -8 -21t-8 -26q0 -8 8 -18t8 -19 q0 -8 -3 -18.5t-3 -13.5q0 -12 6 -27t6 -22q0 -15 1 -46t1 -59t-2 -53q-2 -20 -5 -34.5t-5 -20.5t-2 -7q0 -5 1 -13.5t0.5 -13t-5.5 -9.5q-1 -1 -5.5 -6t-7 -7.5t-7 -5.5t-8.5 -4.5t-9 -1.5q-8 0 -38 3t-48 1t-44.5 0.5t-39.5 1.5q-23 -2 -41 33q-7 16 -8 34.5t1.5 38 t2.5 21.5q-4 102 -4 156q-2 74 -2 219q0 190 2 211q4 40 0 119q-1 22 -21.5 36.5t-42.5 14.5q-13 0 -27 -18t-14 -33q0 -12 -1.5 -32.5t-1.5 -36t3 -28.5q4 -8 1.5 -40t-1.5 -44q7 -134 0 -223q-2 -24 -2 -42.5t1 -38t1 -31.5q0 -21 2 -59.5t2 -69.5t-4 -58q-3 -16 0.5 -45 t-0.5 -51q-2 -9 -16.5 -20t-17.5 -15q-6 -6 -16 -8.5t-18 -2.5t-21.5 0.5t-16.5 0.5h-27q-7 0 -46 3t-46 3q-19 0 -35 16t-16 39l-1 61q-2 62 1 62q1 8 4.5 21t3.5 22q0 2 -2 9.5t-4 28t-2 52.5q0 57 6 88q1 6 13 18t12 23q0 7 -4 12.5t-11.5 11t-9.5 7.5q-5 6 -6.5 14.5 t-0.5 22.5t1 16q0 7 -3 49.5t-3 49.5zM102 1042v-4.5t-0.5 -6.5t-0.5 -6t1.5 -5t3.5 -2q5 0 14 8t9 12q0 6 -4 11.5t-10 5.5q-13 0 -13 -13zM641 360q0 -21 3 -22q2 -2 6 5l5 9q3 2 10 2t7 6q0 4 -6.5 10.5t-8.5 6.5q-16 0 -16 -17z" />
<glyph unicode="o" horiz-adv-x="716" d="M41 741q0 1 -0.5 8t-1 14.5t0 17t1.5 16.5q1 4 7.5 22t6.5 27q0 23 -10 35q-14 22 6 100q11 38 35 78q20 36 98 65q38 13 127 13q5 0 13 1t13 1t9 -2q26 -13 35 -13q6 0 21 6.5t22 6.5q49 0 86 -8.5t68 -34.5q38 -28 54.5 -55.5t16.5 -77.5q0 -9 5 -19t5 -16 q1 -20 0 -36.5t0.5 -36.5t6.5 -36q4 -10 4 -34.5t-2 -50.5t-2 -27q0 -6 2 -76t2.5 -119.5t-2.5 -95.5q-1 -13 1.5 -34.5t2.5 -29.5q0 -113 -23 -219q-7 -31 -20 -52.5t-37.5 -36.5t-41 -22t-54.5 -19q-10 -3 -15 -5q-12 -4 -63 -2t-80 -2q-2 -4 -54 -2l-51 2q-11 0 -54 16 t-50 25q-6 9 -43 41q-17 16 -26 51t-9 68q0 12 2 31.5t2 29.5q0 9 -4.5 24.5t-5.5 20.5q-5 60 0 145q5 26 0.5 146t-4.5 151zM291 332q0 -21 12 -33q8 -8 8 -37q1 -10 11.5 -17t19.5 -7q25 0 40 16.5t15 44.5q0 27 2 84t2 107t-4 94q-4 48 0 145q0 13 17 21q7 3 10 5t2.5 4 t-2 3l-6 4t-6.5 4q-9 6 -14 17t-5.5 23.5t-2.5 26t-5.5 24t-14 17.5t-28.5 7q-11 0 -25 -10.5t-14 -20.5q0 -26 -3 -85t-3 -95q0 -5 4 -15t4 -16q0 -43 -1 -128t-1 -128q0 -12 -6 -29.5t-6 -25.5zM471 872q0 -5 6.5 -7.5t11.5 -10.5q1 -2 4.5 -4t7 0.5t3.5 9.5q0 6 -6 15.5 t-9 9.5q-18 0 -18 -13z" />
<glyph unicode="p" horiz-adv-x="724" d="M39 803q0 13 4 31.5t4 23.5q0 62 -2 80q-6 49 0 109q4 32 14 38q2 1 6 2t6.5 2.5t6 3.5t5.5 5t3 8q2 6 9 9.5t21.5 5.5t16.5 3q86 20 135 -6q28 -14 51 -14q27 0 42 5t38 21q4 3 9.5 5t13 3.5t14.5 2t18 0.5h18.5h22h23.5q11 0 16 -4.5t5 -7.5v-11q0 -3 1 -5.5t3 -4 t6 -0.5q8 2 8 12t8 10q23 0 52.5 -26.5t37.5 -50.5q3 -9 4.5 -30.5t4.5 -31.5q10 -33 10 -73q0 -4 2.5 -54t2.5 -86.5t-3 -75.5q-3 -21 0 -57.5t0 -77.5q-1 -20 -11 -29t-21.5 -8.5t-20.5 -1t-9 -8.5q0 -4 17.5 -10t33 -21t11.5 -40q-3 -28 -2.5 -39t4 -32.5t4.5 -35.5 q1 -27 0 -59t-2.5 -57t-1.5 -29q0 -3 0.5 -23.5t0 -28.5t-3 -22.5t-7.5 -26.5q-25 -57 -43 -69q-52 -35 -156 -35q-19 0 -53 9t-51 9q-21 0 -32 -9t-11 -21t-1.5 -64.5t-1.5 -62.5t-8.5 -31t-9.5 -27q-5 -27 -26.5 -43t-51.5 -16q-5 0 -16.5 2t-16.5 2h-75q-10 0 -26 12 t-21 23q-9 27 -9 67q0 3 -4 25t-4 41q0 7 1 31t1 30q0 16 1.5 46t1.5 54t-3 46v59q0 23 -3 64t-3 74.5t6 62.5q1 5 5.5 12.5t4.5 11.5q0 11 -7 32t-9 30q-4 16 -1.5 51.5t1.5 46.5q-8 100 -8 244zM305 688q0 -4 4 -40.5t4 -41.5q0 -4 1 -35.5t1 -58t-2 -35.5q-4 -20 2.5 -98 t6.5 -86q0 -24 16.5 -40.5t44.5 -16.5q12 0 21.5 20t11.5 37q2 20 2 43t-1 53t-1 47q0 21 3 68t3 71q0 9 -3 25t-3 21q0 12 1.5 50t1.5 68t-3 45v32.5t-4 35.5q-13 20 -23.5 28.5t-28.5 8.5q-47 0 -47 -92q0 -44 -4 -73t-4 -36z" />
<glyph unicode="q" horiz-adv-x="724" d="M41 379q0 124 10 151q1 4 8.5 19.5t8.5 23.5q0 6 -10.5 21t-12.5 24q-5 21 -5.5 51.5t1.5 56t0 58.5q-4 63 0 115q1 15 0.5 59.5t5.5 53.5q18 69 66 98q26 18 84 18q3 0 40.5 4.5t55.5 2.5q17 -2 41 -12t41.5 -18.5t39 -8t38.5 15.5q12 12 26 15t37 3q11 0 32 2.5t39 2.5 t34 -5q22 -8 37 -22.5t18 -32.5q10 -69 0 -131q-1 -11 -0.5 -19t1.5 -20.5t1 -19.5q0 -24 1.5 -60.5t2 -51.5t-1.5 -34q-4 -23 -5 -50t0.5 -48.5t3 -50.5t1.5 -49q0 -65 1 -200t1 -230q0 -58 3 -107t3 -57q0 -43 -6 -101v-23t0.5 -17t-1 -13t-5.5 -12q-1 -2 -3.5 -6.5 t-4.5 -8t-5.5 -7.5t-7 -7.5t-8.5 -5.5q-5 -3 -17 -3.5t-28 0.5t-18 1q-20 0 -56 1t-61 1q-16 0 -34.5 16.5t-18.5 34.5q0 10 -1 21.5t-1 19t2 15.5q3 13 0.5 44t-0.5 44q6 36 6 41q0 41 -35 41q-22 0 -58 -15.5t-55 -15.5q-71 0 -155 24q-22 6 -47 47.5t-25 67.5q0 3 3 14.5 t3 20.5q0 15 -4 27q-6 23 -6 186zM123 854q7 0 17 11.5t10 19.5t-17 8q-5 0 -10 -8q-3 -3 -3.5 -17t3.5 -14zM303 719q0 -2 2.5 -20t4 -39.5t-0.5 -59.5q-1 -23 -1 -47.5t1 -44t0.5 -34t-2.5 -17.5q-8 -24 -7.5 -39t4.5 -42t3 -42q0 -43 4 -55q3 -8 8 -15.5t13 -13.5t16 -6 q22 0 42 13t20 32q0 8 -1 23t-1 26.5t2 21.5q4 16 4 41q0 11 -2 37t-2 45v47q4 20 4 27t-4 28t-4 33v240q0 11 -22 26t-30 15q-37 0 -47 -51q-2 -8 -2 -74q0 -7 1 -19t1 -18q0 -5 -2 -10t-2 -8zM522 317q0 -4 3.5 -6.5t9 -4t10.5 -1.5q4 0 12 4t8 8q0 3 -5 5.5t-12.5 5.5 t-10.5 6q-5 5 -12 -7z" />
<glyph unicode="r" horiz-adv-x="468" d="M35 862q5 18 2.5 73t-0.5 89q1 21 3.5 35.5t7.5 34t15.5 29.5t26.5 10q5 0 26.5 3t30.5 1q12 -2 19.5 -9.5t9.5 -7.5q4 0 11.5 8.5t11.5 8.5q35 0 53 -15q6 -5 13.5 -12t11.5 -10.5t8 -3.5q13 0 28 10q35 24 53.5 30.5t43.5 6.5q38 0 47 -21q20 -49 6 -92 q-5 -14 -2.5 -41.5t0.5 -32.5q-1 -6 -1.5 -36.5t-9 -49t-30.5 -18.5q-8 0 -23 -3t-24 -3q-11 0 -27.5 -18.5t-21.5 -32.5q-1 -3 -1.5 -35t-11.5 -37q-3 -2 -10 -3.5t-12 -3t-9 -5t-4 -9.5q0 -12 18.5 -11t18.5 -9q0 -12 4.5 -36.5t4.5 -39.5q0 -16 -3.5 -44t-3.5 -40 q0 -5 1 -17t1 -23t-2 -21q-4 -23 1.5 -73t0.5 -69q-3 -14 -2.5 -23.5t2.5 -30t2 -32.5q0 -16 -2 -58t-2 -73q0 -92 -49 -92q-31 0 -50 -11t-36 -11t-41 6q-15 3 -29.5 2.5t-23.5 1.5q-4 1 -9 4.5t-8.5 7t-7 8t-4.5 5.5q-18 13 -18 49q0 24 2 98t2 102q0 5 8 8.5t8 8.5 q0 9 -9.5 18.5t-10.5 14.5q-6 30 0 81q5 22 2 65.5t-2 66.5q0 9 1.5 79.5t0.5 118.5q0 13 -4.5 58.5t-1.5 70.5z" />
<glyph unicode="s" horiz-adv-x="690" d="M20 846q-1 26 1 41t10 49q16 70 51 125q11 19 26.5 31.5t37 19t35 9t40.5 5.5q15 2 39.5 7t44 7.5t39.5 0.5q36 -6 49 -6q10 0 32 -1t32 -1q23 0 67 -15q2 -1 17.5 -5.5t25 -10.5t13.5 -15q6 -14 17.5 -28t21 -26.5t12.5 -26.5q2 -12 11 -38.5t9 -33.5q0 -4 2.5 -41.5 t1 -66.5t-9.5 -46q-7 -14 -17.5 -26.5t-17.5 -12.5q-5 0 -15 -4t-20 -4q-9 0 -28.5 3t-28.5 3q-4 0 -27.5 -2.5t-27.5 0.5q-34 9 -45.5 17.5t-11.5 25.5q0 6 -4.5 21.5t-4.5 23.5q0 58 -47 58q-41 0 -47 -15q-5 -11 -5.5 -23t0.5 -31t1 -26q0 -27 21.5 -53.5t48.5 -42.5 q18 -10 50.5 -23.5t59.5 -29t53 -39.5l52 -47q47 -47 47 -84q0 -13 10 -35t10 -33q0 -16 3 -50.5t3 -51.5q0 -59 -4 -88q-2 -13 -10 -45.5t-8 -50.5q0 -24 -35.5 -54t-58.5 -30q-6 0 -12 14t-19 14q-16 0 -16 -14q0 -8 8 -16t8 -11q0 -12 -25 -18t-43 -6q-74 -4 -209 -4 q-42 0 -88 20q-20 9 -35 24t-31.5 38.5t-25.5 33.5q-10 11 -16.5 27.5t-8.5 42.5t-3 38.5t-0.5 46t0.5 34.5q0 44 10.5 68.5t40.5 44.5q14 9 28 10t34 -2.5t32 -3.5q11 0 19 -0.5t16.5 -3t12.5 -3.5t13 -6t11.5 -7t14 -10t15.5 -11q11 -7 14.5 -16.5t2.5 -18.5t0 -21 q1 -7 0 -19t0.5 -20.5t9.5 -17.5q15 -20 35 -20q13 0 27 10.5t14 23.5q0 10 0.5 30.5t0 28.5t-2 22.5t-5.5 22.5t-11.5 18.5t-18.5 19.5q-18 17 -39 30.5t-57 32.5t-47 25q-102 55 -144 162q-2 4 -8 18.5t-9 22.5t-6 20.5t-3 24.5q0 14 -5 96zM233 889v-6t-0.5 -5.5 t-0.5 -5.5v-4.5t1 -3.5t2 -3.5t2.5 -2t4.5 -0.5q4 0 11 13t7 18q0 6 -4 10t-10 4q-5 0 -9 -4t-4 -10zM420 475q0 -6 6 -6q9 0 24 7.5t15 15.5q0 2 -4 2.5t-15 0t-14 -0.5q-4 0 -8 -6.5t-4 -12.5z" />
<glyph unicode="t" horiz-adv-x="432" d="M2 991q0 7 5 22t3 29q-4 26 2 56t17 39q2 2 10 5t14 7.5t8 11.5q11 32 9 47q-3 4 -1.5 39t1.5 39q0 34 23 58t57 24q24 0 86 8q46 5 61 0q14 -5 30.5 -21t16.5 -30q0 -30 4 -64t4 -49q0 -23 9.5 -40t21.5 -17q15 0 32 -10t17 -29q0 -62 -6 -82q-5 -16 -1.5 -45t-0.5 -45 q-6 -22 -31 -37q-5 -4 -19.5 -8t-23 -10.5t-8.5 -20.5t-3 -47t-3 -55q0 -5 1.5 -17t3 -37.5t1.5 -62.5q0 -7 3 -24t3 -23q0 -3 -2.5 -33t-4 -61t0.5 -76q2 -26 2 -53t-1.5 -47.5t-3 -36.5t-2.5 -26t-1 -11q0 -16 3 -42.5t3 -43.5q0 -6 2 -17t2 -16q0 -3 -1 -12t-0.5 -16.5 t3.5 -14.5q2 -7 6 -14t6 -14t2 -19q0 -19 -11.5 -30.5t-34 -15t-41 -4t-46.5 1t-36 1.5q-22 0 -72 4q-26 3 -43 39t-19 64q-2 18 1 28.5t8 13t9.5 6t4.5 9.5q0 5 -12.5 16t-12.5 35q0 15 1 44t1 42q0 27 3.5 72.5t3.5 64.5q0 14 -3.5 42t-3.5 42q0 10 1 32t1 32 q0 43 2.5 117.5t2.5 111.5q0 31 -8.5 55t-22.5 27q-33 5 -33 92zM158 436q0 -7 6 -16.5t14 -9.5q9 0 10 4t-2.5 11t-3.5 9q0 21 -10 21q-3 0 -8.5 -6.5t-5.5 -12.5z" />
<glyph unicode="u" horiz-adv-x="729" d="M33 973q4 28 4 57q0 2 -0.5 13.5t0 16.5t1.5 13.5t4.5 15t8.5 11.5q23 20 39 20q11 0 25.5 5t15.5 5h64q10 0 28.5 1.5t28.5 1.5q25 0 51 -41q6 -9 9 -21t3 -20t-1 -23t-1 -22q0 -30 2 -93t2 -94q0 -8 -3 -26.5t-3 -26.5q1 -9 3.5 -37.5t2.5 -44.5q0 -10 -3 -20t-3 -15 q0 -6 4 -19.5t4 -27.5q0 -7 -3 -22.5t-3 -22.5v-78q0 -27 1 -82t1 -82q0 -4 -2 -12t-2 -15t4 -12q9 -14 24.5 -23t29.5 -9q20 0 33.5 9.5t13.5 27.5q0 11 2 62t2 58v60q0 17 3 34.5t3 26.5q0 10 -6 19q-3 6 -4.5 25.5t-1 38t1 40t0.5 25.5q-4 64 0 96q2 14 1 34.5t-2 35.5 t1 34q1 12 -3.5 41t-4.5 50q0 14 4 45t4 49q0 40 4 47q16 28 35 31q21 3 52.5 -0.5t35.5 -2.5q17 0 28 5.5t21 5.5q21 0 40 -10.5t31 -27t13 -34.5q9 -166 2 -276q-2 -41 1 -118.5t3 -101.5v-176q0 -4 -3 -9t-3 -9q0 -8 1 -22t1 -26t-2 -22q-4 -24 -4 -33q0 -3 4 -22.5 t4 -36.5q-1 -40 5.5 -86t6.5 -72q0 -14 -3.5 -24.5t-11.5 -16.5t-14.5 -10t-20 -5t-20.5 -1.5t-22 0t-20 0.5q-58 0 -99 8q-11 2 -33 15.5t-38 13.5q-18 0 -68.5 -25.5t-99.5 -25.5q-24 0 -59.5 13t-57.5 13q-26 0 -45.5 28t-27 56.5t-11.5 59.5q-2 15 0.5 41.5t1.5 38.5 q-2 36 -2 217q0 12 -2 34.5t-2 32.5q0 16 1 46t1 54.5t-2 47.5q-4 50 0 149q0 5 2 20t2 17q0 13 -5 55t-3 62zM184 131q-3 -10 4.5 -18.5t14.5 -8.5q6 0 13 3.5t11 9t2 10.5q-2 4 -26 4q-3 0 -8 2t-7.5 2t-3.5 -4zM504 303q0 -2 -1.5 -6t-1 -6t4.5 -2t11 3.5t7 6.5 q0 1 -1 3.5t-2.5 4t-4 3t-4.5 1.5q-8 0 -8 -8z" />
<glyph unicode="v" horiz-adv-x="684" d="M10 1081q7 25 21.5 35t38.5 10q12 0 32 1t31 1q8 0 28 1t29 1q29 0 50 -8q19 -7 28 -30q1 -2 9 -13.5t10 -31.5q2 -15 4 -44.5t4 -44.5q1 -8 3 -15.5t3 -12t1.5 -13t0.5 -20.5q0 -13 6 -39t7 -39q0 -9 1.5 -27t1.5 -24q0 -10 1.5 -19.5t4.5 -21.5t5 -18q4 -20 14.5 -25.5 t20.5 4t14 29.5q0 2 5.5 22t6.5 29q0 3 3 34.5t3 33.5q0 10 10.5 24t10.5 21q0 8 -5 21t-5 20q0 63 20 165q3 17 16.5 28t28.5 11q8 0 31.5 5.5t36.5 5.5h3q16 0 25 -0.5t26.5 -1.5t28 -4.5t21.5 -8.5t16 -14t3 -21q0 -3 -1 -8q-2 -12 -2.5 -17t-2.5 -12.5t-4.5 -10t-6.5 -6 t-10 -4.5t-14 -1q-12 0 -13 -5q-1 -7 21 -7t22 -23q0 -7 -6 -47t-6 -45q0 -9 -4.5 -26.5t-3.5 -26.5q2 -19 -2.5 -40.5t-5.5 -31.5q-1 -25 -17 -121q-1 -6 -3 -35.5t-7 -44.5q-8 -24 -8 -28q0 -3 -1 -16t-2.5 -32t-2.5 -32q-1 -25 -11 -71t-10 -74q0 -16 -8 -48t-8 -49 q0 -15 -6 -51t-6 -53q0 -93 -54 -107q-27 -6 -110 -6q-101 0 -158 6q-7 1 -13.5 3.5t-9.5 5.5t-8.5 7.5t-7.5 6.5q-7 6 -5 14.5t11 14.5q2 2 7 3.5t9 2.5t7 3.5t2 6.5q-1 7 -13 7t-23.5 7.5t-12.5 30.5q0 5 -13.5 51.5t-13.5 48.5q-5 35 -10 104.5t-10 104.5q-3 24 -9 35 q-6 10 -6 51q0 3 -5 13.5t-7 17.5q-5 18 -7.5 60t-11.5 63q-10 25 -10 65q0 8 -4.5 25t-5.5 22q-1 9 -1.5 33.5t-2.5 38.5q-12 77 -23 115q-18 63 -6 106zM225 86q0 -5 8.5 -9t16.5 -5.5t12 -1.5q5 0 7.5 0.5t4.5 2.5t2 7q0 8 -5 14t-15 6q-4 0 -17.5 -5.5t-13.5 -8.5z" />
<glyph unicode="w" horiz-adv-x="1075" d="M4 1104q1 1 5.5 5t5.5 5t4.5 4t5.5 3.5t5.5 2.5t6 2.5t6.5 1.5t8.5 1.5t9.5 0.5q16 0 43.5 2.5t30.5 2.5q8 0 13 -7.5t8 -7.5t19.5 7.5t25.5 7.5q19 0 30 -1.5t22 -9.5t15 -24q4 -17 11 -84q1 -10 9.5 -44.5t8.5 -64.5q0 -29 7.5 -57t8.5 -39q1 -15 -0.5 -29.5 t-1.5 -15.5q0 -16 27 -16q12 0 20.5 11.5t13 32t6.5 37.5t3.5 38t1.5 24q14 96 14 121q0 29 21 80q15 41 53 41q11 0 35 2t35 2q7 0 21.5 -7.5t21.5 -7.5q8 0 20 1t17.5 1t13 -3t14.5 -9q21 -21 25 -27q10 -20 10 -30q0 -1 6 -10.5t6 -16.5q2 -43 12 -102t11 -72 q2 -10 5.5 -40.5t8.5 -41.5q7 -21 24.5 -19.5t20.5 25.5q14 104 15 129q1 18 7.5 44t6.5 38q0 99 29 121q33 23 100 23q4 0 23 -3t28 -2q27 3 50.5 -8t23.5 -35q0 -12 -8 -114q-2 -12 -10 -90.5t-19 -122.5q-10 -30 -10 -51q0 -6 2 -18t2 -21.5t-4 -16.5q-6 -12 -9.5 -29 t-5 -32.5t-3.5 -49.5t-5 -63q-17 -126 -28 -186q-21 -111 -21 -152q0 -9 -2 -31.5t-2 -31.5q0 -23 -19 -44t-40 -24q-70 -10 -95 -10q-45 0 -71 8t-29 8q-7 0 -18 -3t-17 -3q-12 0 -21.5 2t-16 4t-10.5 9t-6.5 11t-4.5 16.5t-2.5 19t-1.5 24t-2 27.5q0 4 -4.5 25t-4.5 36 q0 12 -7 26.5t-19 14.5q-33 0 -33 -59q0 -41 -8 -60q-3 -5 -4.5 -15.5t-2 -24.5t-1.5 -19q-5 -41 -56 -41q-20 0 -66 -3t-71 -3q-13 0 -42.5 4.5t-49.5 1.5q-30 -6 -51 10q-24 22 -29 34q-1 4 -2 9q-3 18 -4.5 43.5t-3.5 36.5q-1 12 -7 36.5t-7 41.5q-4 73 -27 223 q-6 48 -21 84q-10 26 -10 101q0 19 -4 44t-4 31q0 13 3.5 21t9.5 11t12.5 4t12.5 1t9.5 1t3.5 5q-1 6 -16 10.5t-30.5 16t-18.5 33.5q-15 93 -15 121q0 10 -5.5 39.5t-10.5 56.5t-5 52t9 32zM532 410q0 -8 5 -10.5t8 1.5q3 3 8 5t9 3.5t7.5 3.5t3.5 5q0 11 -4.5 14.5 t-15.5 3.5q-21 0 -21 -26zM819 510q0 -5 10.5 -15t18.5 -10t8 9t-10.5 20.5t-16.5 11.5q-4 0 -5.5 -0.5t-3 -4t-1.5 -11.5zM823 358q0 -18 23 -18q18 0 18 12q0 4 -3 6t-6.5 2t-8 0.5t-6.5 1.5q-17 11 -17 -4z" />
<glyph unicode="x" horiz-adv-x="677" d="M18 55q0 15 10.5 45t10.5 45q0 14 29 15t30 4q1 4 -12.5 6.5t-25 9t-7.5 19.5t6.5 49t10.5 51q7 16 11 46t5 36q1 7 7 33.5t7 42.5q1 19 13 56.5t16.5 61t-4.5 62.5q-2 7 -11 28.5t-12.5 34.5t-1.5 21q2 12 -6 33.5t-8 31.5q0 16 -20 99q-9 47 -23 90q-13 51 -10 69 q2 8 -5 24.5t-5 23.5q0 13 11.5 23.5t22.5 10.5q3 0 29 3.5t29 3.5q4 0 14.5 2t15.5 2q13 0 41 -5.5t43 -5.5q10 0 18 -2.5t14.5 -8.5t12 -12t9.5 -16.5t7 -18t6 -20.5t4 -19.5t3.5 -20.5t3.5 -19q2 -13 11.5 -34t9.5 -31q0 -33 22 -33q23 0 32 32.5t9 69.5q0 4 1.5 10.5 t5 17.5t5.5 23q8 41 35 70q5 6 11.5 9.5t12 5.5t15 3t14 1h16h13.5q5 0 15.5 2t19 2t16.5 -4q7 -3 29.5 -5t35.5 -8.5t13 -23.5q0 -19 -11 -55t-11 -52q0 -19 -3 -31.5t-9 -27.5t-9 -27q-4 -15 -11.5 -52.5t-12.5 -51.5q-29 -69 -25 -105q1 -7 -3.5 -43t-4.5 -53 q0 -42 8.5 -85t24 -96t20.5 -75q7 -29 22.5 -111.5t26.5 -124.5q13 -48 13 -67q0 -14 -11.5 -22.5t-25.5 -10.5q-12 -2 -36 0t-36 0q-76 -14 -129 6q-15 5 -22 18.5t-10.5 35t-6.5 28.5q-14 34 -22 125q0 5 -6 16t-7 19q-3 18 -15 25t-24 -2t-16 -31q-1 -6 -6.5 -28 t-5.5 -34q0 -11 -13 -61q-3 -10 -5 -34t-9 -34q-24 -35 -35 -43q-12 -10 -51 -10q-5 0 -20 3t-23 1q-37 -9 -82 0q-13 3 -21 17t-8 32zM309 690q0 -18 23 -18q24 0 24 10q0 5 -5 8t-13 6.5t-14 10.5q-2 5 -10 -4q-5 -7 -5 -13zM399 315q0 -8 16 -8h5q16 0 16 10q0 5 -5 10 t-9 5q-8 0 -15.5 -5t-7.5 -12z" />
<glyph unicode="y" horiz-adv-x="684" d="M12 1063q0 17 11 43q2 6 5.5 9t7.5 3.5t10.5 3t12.5 6.5q7 5 17.5 5.5t24.5 -1.5t20 -2q75 0 92 -2q1 0 7 -1.5t7.5 -1.5t6.5 -1.5t7 -2.5t6 -3.5t6 -5t5 -6t6 -8.5q21 -33 27 -78q3 -18 4.5 -61t5.5 -66q1 -6 2 -14t2.5 -15t5.5 -14q2 -5 3.5 -8.5t2 -8.5t0.5 -7v-10.5 v-14.5q0 -16 7 -45t8 -37q0 -5 6.5 -12t13.5 -7q13 0 19 10.5t8 29.5t2 20q2 7 7 17.5t5 13.5q0 6 4 42.5t4 49.5q0 17 7.5 53.5t7.5 58.5q0 17 6 40t6 24q0 27 14.5 51.5t42.5 24.5q10 0 35 2t35 2h13h14.5t14 -0.5t15 -1.5t13.5 -3.5t13 -5.5l10 -7.5t9 -10.5t5 -14.5 t2 -18.5q0 -58 -5 -92q0 -12 -5.5 -35t-6.5 -37q-1 -11 -8.5 -35.5t-5.5 -41.5q2 -33 2 -53t-5.5 -54t-9.5 -54t-11 -53t-11 -51q-4 -24 -16.5 -110.5t-20.5 -122.5q-3 -13 -4.5 -31t-2.5 -35.5t-2.5 -35t-4 -36.5t-6.5 -34q-2 -8 -5 -13t-5.5 -6.5t-4.5 -4t-2 -7.5 q0 -60 -4 -78q-4 -19 -10 -49.5t-10.5 -50.5t-11.5 -46.5t-17 -45t-23.5 -38t-34 -34t-46.5 -24.5q-4 -1 -18 -7t-25 -9t-21 -3q-5 0 -13.5 -5t-13.5 -5l-34 -1q-35 -2 -35 1q-24 2 -53 1t-54.5 -1.5t-43.5 12.5t-21 43q-1 5 2 23.5t-2 23.5q-4 7 -4 14t2 14.5t2 12.5 q0 28 15 46t38 20q17 1 26 2t22.5 5t21 13t10.5 23q4 20 4 69q0 20 -11.5 59.5t-13.5 53.5q-5 38 -13.5 110t-16.5 119q-1 7 -2.5 21t-4 24.5t-6.5 20.5q-5 12 -10 55q0 8 -5.5 38.5t-8.5 37.5q-12 24 -11 78.5t-10 77.5q-8 16 -8 35q0 11 -20.5 121t-18.5 151zM393 78 q0 -8 10 -8q4 0 11.5 5.5t7.5 8.5q0 2 -14 2q-15 0 -15 -8zM428 334q0 -2 -1 -5.5t-2 -6.5t-1 -6t1.5 -5t4.5 -2q11 0 20 7.5t9 17.5q0 8 -4 12t-17 4q-5 0 -7 -2t-2.5 -5t-0.5 -9z" />
<glyph unicode="z" horiz-adv-x="608" d="M14 86v57q0 49 15 90t51 109q3 7 4.5 18.5t3.5 16.5q1 3 7 9t7 13q5 20 19 51.5t18 41.5q1 3 15 52t28 79q66 157 74 178q2 4 6.5 13.5t5 13t3 14t-0.5 16.5v7v7.5t-0.5 7.5t-1 7.5t-2 6.5t-3.5 6.5t-5.5 5t-7.5 3.5q-11 4 -33 4t-53 -2t-45 -2q-2 0 -19 2t-20 2 q-45 11 -45 91q0 20 2 33.5t5 22t3 11.5q8 55 39 57q9 1 24.5 4t28.5 3q17 0 22.5 -16.5t6.5 -16.5q2 0 10 13t27 13q7 0 26 2.5t21 2.5q18 0 51 -2t60 -2t51 4q0 3 49 1l49 -1q2 0 15 -2.5t20 -2.5q25 0 37 -26.5t12 -54.5q0 -64 -10 -95q-3 -9 -14 -26t-13 -25 q-7 -35 -20 -63q-6 -11 -17 -54q-4 -22 -24 -61q-11 -22 -24.5 -66.5t-16.5 -52.5q-4 -11 -18.5 -36.5t-18.5 -41.5q-13 -44 -17 -51q-2 -4 -3 -5t-5 -2.5t-8 -4.5q-31 -15 -18 -37q12 -18 0 -53q-2 -7 -16.5 -35t-14.5 -49q0 -3 -3 -11t-3 -22q0 -12 13 -17.5t24 -5.5 q17 0 48 2.5t48 2.5h12.5h12.5t10.5 -0.5t11 -1.5t9 -3t10 -5t8.5 -7t20 -7t18 -13q1 -3 5 -9.5t6 -18t2 -34.5q0 -4 2 -29t2 -30q0 -31 -5.5 -42t-29.5 -26q-16 -8 -39 -8q-13 0 -89 4t-87 -2q-42 -6 -57 -6q-8 0 -23.5 4t-23.5 4q-13 0 -37 -1.5t-44 -1.5t-38 3 q-7 1 -27 1t-33 4t-24 16q-21 24 -21 57zM281 70q0 -9 10 -9q4 0 4 9q0 5 -5 9.5t-7 4.5q-3 0 -4.5 -1.5t-0.5 -3.5t2 -5t1 -4zM305 481q-9 -20 17 -20q8 0 13.5 4.5t2.5 11.5q-2 5 0 10.5t1.5 10t-5.5 4.5q-20 0 -29 -21z" />
<glyph unicode="{" horiz-adv-x="507" d="M-12 664q0 9 4 26.5t4 26.5q0 15 13.5 27.5t29.5 19t29.5 14.5t13.5 15q0 67 2 102q4 15 1 113.5t-3 113.5q0 46 3 75t7.5 49t5.5 28q6 56 22.5 95t63.5 69q5 3 33 13.5t31 12.5q37 17 125 17q6 0 29 -1.5t34 -0.5q49 4 49 -105q0 -11 -2 -38.5t-2 -41.5q0 -22 -9 -30.5 t-32.5 -11.5t-29.5 -5q-41 -14 -41 -59q4 -200 -15 -303q-4 -24 0 -35.5t1.5 -36.5t-17.5 -59q-5 -12 -29 -42.5t-24 -58.5q0 -23 24 -53.5t29 -44.5q2 -5 8 -21t9 -26t3 -19q0 -11 5.5 -34t5.5 -35q0 -16 2.5 -45t3 -44.5t-3.5 -43.5q-5 -31 -4.5 -46.5t3.5 -44t3 -44.5 q0 -82 41 -91q6 -1 18 -4.5t21 -5.5t14 -2q8 0 15 -10t7 -27q0 -26 -4 -74.5t-4 -72.5q0 -9 -9 -16t-17 -7q-17 0 -42 3t-44 3q-9 0 -29 -5t-29 -5q-74 0 -117.5 20t-61.5 54.5t-28 95.5q-1 6 -5.5 32t-4 27t-2.5 27.5t0 34.5q0 13 -2.5 61.5t-3 83.5t3.5 93q2 21 0 46.5 t-5 45.5t-3 24q0 23 -27 45q-5 5 -23 15t-29 20.5t-11 22.5q0 8 -2 39.5t-2 38.5zM154 743q0 -3 -1 -6t-1.5 -5.5t-0.5 -4.5t1 -3t4 -1q4 0 14 6t10 10q0 7 -5.5 14t-12.5 7q-3 0 -5.5 -6.5t-2.5 -10.5z" />
<glyph unicode="|" d="M233 1196q11 121 11 197q0 1 -0.5 8t0 10.5t1.5 9t4.5 9.5t8.5 6q3 1 16.5 8t26 12.5t16.5 5.5h41h15h18t17.5 -0.5t19 -2.5t16.5 -4.5t16 -7t11.5 -10t9 -14t2.5 -18.5q0 -29 6.5 -41t6.5 -18q0 -39 2 -111t2 -130t-4 -108q-4 -1 -2 -131t2 -131q0 -45 -3.5 -128.5 t-3.5 -135.5q0 -19 6.5 -99t6.5 -159q0 -140 -6 -154q-6 -19 -4.5 -27t6 -24t4.5 -28q0 -24 2 -63t2 -68.5t-4 -55.5q-3 -17 -22 -40t-31 -23q-31 0 -81 -7.5t-61 -7.5q-16 0 -28 6t-15.5 10t-11.5 15q-5 6 -7.5 16.5t-3 16.5t0 21t0.5 16q0 28 -3 200t-3 201q0 2 1 43.5 t1.5 87t0 99t-2.5 83.5v308q0 8 10 21.5t10 21.5q0 4 -10 11.5t-10 18.5q0 18 -5 141.5t2 143.5zM281 885q0 -3 6.5 -3.5t16.5 0.5l11 1q7 0 7 4q0 20 -15 20q-8 0 -17 -8.5t-9 -13.5z" />
<glyph unicode="}" horiz-adv-x="507" d="M4 1313q0 19 3 50t3 50q0 11 17.5 30.5t29.5 26.5q27 9 64 9q38 0 76.5 -5.5t79.5 -18t72 -37.5t42 -60q10 -29 10 -88q0 -28 4.5 -77t4.5 -77q0 -22 1 -68.5t1 -66.5q0 -17 -3 -46.5t-3 -49.5q0 -3 1 -9t2.5 -14.5t2.5 -13.5q6 -35 12 -41q10 -10 29.5 -26t27.5 -23 q10 -9 16 -17t8.5 -18.5t3 -16t0 -21t-0.5 -21.5q0 -29 -1 -42.5t-6 -32t-17 -31t-33 -23.5q-15 -8 -23 -20.5t-8 -20.5q-3 -31 -4 -69.5t-0.5 -67t2.5 -74t2 -68.5q3 -83 0 -166q-2 -55 -55 -143q-9 -15 -39.5 -30t-40.5 -23q-7 -5 -27 -8t-47.5 -3.5t-51.5 -0.5t-52.5 0.5 t-36.5 0.5q-20 0 -33.5 13.5t-13.5 33.5q0 13 -4.5 25.5t-6.5 28.5q-2 12 -2 53q0 9 5 21t12 16q4 2 35.5 12.5t37.5 13.5q47 20 47 88q0 9 -2 40t-2 40v187q0 54 27 133q7 19 32 50.5t25 53.5q0 16 -4 25.5t-15.5 22t-17.5 22.5q-4 7 -14 22t-16 27.5t-6 24.5q0 19 -8.5 57 t-8.5 59q0 48 3 141t3 140q0 10 15.5 16.5t15.5 10.5t-10 4q-4 0 -17 -2t-14 -2q-7 0 -12 11t-15 11q-8 0 -25.5 7t-27.5 7q-16 0 -32.5 21t-16.5 37z" />
<glyph unicode="~" d="M43 625q3 12 13 17t10 7q0 4 -9 11.5t-10 11.5q-4 20 0 61q0 10 4.5 28t11.5 25q39 44 76 64t90 20q17 0 37.5 -4t33 -7.5t36.5 -11.5l33 -11q5 -1 22.5 -7.5t33.5 -12t21 -5.5q8 0 24.5 -7t25.5 -7q3 0 10.5 -2.5t14.5 -2.5t14 5q9 6 29 3.5t30 0.5q1 0 34 17.5t50 17.5 q16 0 16 -21q0 -13 2 -29t2 -28q0 -16 -3 -43t-3 -41q0 -29 -23.5 -48.5t-78.5 -45.5q-30 -15 -80 -15q-40 0 -64 4q-21 5 -106 35.5t-135 30.5h-49q-8 -1 -43 -21q-2 -1 -21.5 -17.5t-34.5 -16.5q-12 0 -15.5 16t1.5 29zM547 756q0 -4 2 -5t7 0t7 1q4 0 9.5 5.5t5.5 10.5 q0 4 -7.5 7t-11.5 3q-12 0 -12 -22z" />
<glyph unicode="&#xa1;" horiz-adv-x="385" d="M37 997l4 72q0 4 -1 16.5t-1 23t2 17.5q10 31 18 39.5t37 8.5q46 0 54 -3q6 -2 14.5 -13t19.5 -11q8 0 21.5 13.5t21.5 13.5q3 0 11 2t14 2q21 0 35 -11q39 -33 39 -53q0 -18 3 -52t3 -52q0 -15 -5 -43t-5 -45q0 -21 -18.5 -42.5t-41.5 -21.5q-20 0 -59.5 -2t-65 -2 t-35.5 4q-55 17 -59 45q-1 6 0.5 21t1.5 16q0 2 -4 18.5t-4 38.5zM41 -82q0 17 2 53.5t2 55.5q0 16 -2 47t-2 45q0 8 2 43t2 39q0 15 5 43.5t5 42.5q0 13 -2 39.5t-2 42.5q0 28 8.5 80.5t8.5 74.5q0 14 5 39t5 39q0 6 -1 29.5t0.5 38t6.5 28.5q2 7 5 19.5t6 22.5t7 18 q6 12 16.5 16t29 3t22.5 -1h22.5h23t19.5 -1t21 -3.5t17 -7.5t18 -12q5 -4 7 -11t2 -13t-0.5 -15.5t-0.5 -12.5q0 -52 5 -123t5 -73t-4.5 -22t0.5 -33q19 -70 19 -162q0 -15 5 -50t5 -53q0 -21 1.5 -87.5t0.5 -102.5q-2 -63 -2 -191q0 -17 -20.5 -36t-53.5 -19q-5 0 -49 -2 t-74 -2q-14 0 -31 8t-28 8q-13 0 -23 12t-10 33q0 9 -2 46t-2 67zM164 -88q0 -18 6 -18q14 0 14 14q0 1 0.5 5.5t0.5 7t-2 5t-7 2.5q-4 0 -8 -5.5t-4 -10.5z" />
<glyph unicode="&#xa2;" d="M53 997q0 17 2.5 35.5t7.5 44t7 35.5q8 57 14 66q20 36 41 57q17 18 63 37.5t60 44.5q10 23 10 29q0 3 -2 14t-2 24t11 27t30 14q5 0 31.5 5.5t50.5 5.5q3 0 17 -2t18 -2q17 0 40 -13.5t23 -34.5q0 -11 3.5 -31.5t2.5 -33.5q0 -12 12.5 -21t36.5 -17.5t27 -10.5 q7 -5 26.5 -17t25.5 -16.5t15.5 -16t14.5 -26.5q3 -10 20 -51q9 -23 10 -72.5t5 -75.5q5 -31 2 -84q0 -43 -10 -57q-14 -19 -39 -28t-40 -10t-50 -1q-7 0 -22.5 2t-22.5 2q-16 0 -35 11.5t-19 29.5q0 12 -5 44.5t-5 51.5q0 11 -2 28.5t-2 23.5q0 11 -19 26t-28 15 q-12 0 -29 -12.5t-18 -22.5q-10 -157 -9 -188.5t11 -139.5q1 -7 -0.5 -24.5t-1.5 -20.5q-3 -56 0 -121q1 -12 -1 -34t-1 -38.5t8 -31.5q2 -3 6 -6.5t8.5 -7.5t5.5 -5q10 -6 31 -6q19 0 33 15.5t14 37.5q0 11 2 31t2 36t-4 30q-8 25 6 61q5 11 20.5 22.5t31.5 14.5q9 2 19 2 t22.5 -1t19.5 -1q6 0 18.5 -4t18.5 -4t14.5 1t14.5 1t10 -2q13 -5 27.5 -19t15.5 -24q8 -82 8 -92v-34.5v-37t-1 -32t-2.5 -36t-4.5 -31t-8 -35.5t-11 -32q-17 -43 -38 -62t-48.5 -26.5t-36.5 -13.5q-29 -19 -40 -39t-13 -51q-1 -23 -17 -38.5t-38 -15.5q-10 0 -48.5 -5.5 t-58.5 -0.5q-27 8 -43 35q-10 16 -12 45.5t-12 42.5q-16 19 -56.5 36t-46.5 21t-11.5 9t-10 9.5t-9 11.5t-7.5 10.5t-7.5 12t-6 11.5t-7 13.5t-6.5 12.5q-10 20 -10 52q0 12 -5.5 27.5t-5.5 25.5q0 17 -3 67t-1 78q1 10 20 26t19 26q0 5 -5.5 8t-12 5t-12 10t-5.5 22 q0 15 -5.5 102t1.5 102q3 28 2.5 48.5t-2.5 60.5t-2 61zM412 1223q0 -13 16 -13q27 0 27 9q0 7 -10.5 11.5t-16.5 4.5t-9 -0.5t-5 -3t-2 -8.5zM422 283q0 -10 3.5 -12.5t12.5 -2.5t20 7t11 14q0 4 -3 6t-7 1.5t-9 -1t-6 -0.5q-10 0 -13.5 -0.5t-6 -3t-2.5 -8.5zM496 1014 q0 -5 3 -6.5t10 -0.5l7 1q6 0 8.5 0.5t4 3t1.5 8.5q0 4 -10 4q-4 0 -14 -3.5t-10 -6.5z" />
<glyph unicode="&#xa3;" d="M33 57q0 11 1.5 31t1.5 36.5t-3 31.5q-9 43 26 71q11 14 21 21q4 3 16 12.5t15 12t12.5 10t12.5 11.5t10 11.5t10 14t7 15t7 17.5q11 32 -25 68q-9 11 -35.5 11.5t-35.5 6.5q-1 1 -5 4l-6 4.5t-5 4.5t-4.5 6.5t-2.5 7.5q-5 31 1.5 65.5t6.5 44.5q0 11 3 18t11 11t12 5.5 t16 3t14 1.5q9 2 17.5 14t8.5 27q0 12 -22 65t-45 122t-25 119q-1 10 1 47t-3 43q-6 20 -6 88q0 23 9 68.5t9 72.5q0 8 2.5 17t7.5 20t9 18t11 19.5t9 15.5q12 23 34.5 37t47.5 14q11 0 32.5 10.5t35.5 10.5q13 0 35.5 2.5t41.5 2.5t37 -5q10 -3 32 1.5t28 4.5q66 0 84 -10 q16 -9 43.5 -18.5t47 -20.5t32.5 -29q3 -4 12.5 -17t14 -20t10 -17.5t6.5 -19.5q8 -40 8 -82q0 -6 5 -27.5t5 -49.5q0 -25 2 -76t1.5 -90.5t-5.5 -75.5q-11 -80 -55 -80q-71 5 -92 2q-11 -1 -32 4.5t-30 5.5q-18 0 -29.5 12t-11.5 25q0 5 -4 40t-4 71q0 19 1 59t1 60 q0 55 -18 69q-22 22 -58 17q-12 -1 -23 -16t-11 -29v-58q-5 -43 8 -145l2 -22q2 -21 2 -33q0 -7 6 -17t6 -20q0 -11 1.5 -21.5t5 -22.5t5.5 -18t8.5 -21.5t8.5 -19.5q2 -5 9.5 -25t13.5 -33.5t15.5 -30t21 -25.5t24.5 -9q9 0 32 3.5t33 3.5q14 0 40.5 -4t43.5 -3 q14 0 32.5 -16t18.5 -29q0 -17 -3 -46t-3 -40q0 -21 -16 -37t-39 -16q-14 0 -59.5 -4t-63.5 -4q-13 0 -29 -11t-24 -24q-1 -3 -11 -22.5t-17 -36t-7 -23.5q0 -17 9 -34t26 -17q14 0 40 3t38 3q69 0 123 -6q18 -2 29.5 -12.5t15.5 -29t5 -31t1 -34.5q0 -7 -5 -21.5t-5 -21.5 q0 -11 -13 -18t-14 -10q-1 -2 2 -3.5t7 -2.5t7.5 -5t3.5 -10q0 -48 -45 -51q-4 0 -27.5 -3t-33.5 -3q-15 0 -46 3t-46 3t-43 -3t-41 -3q-22 0 -68.5 -2t-77.5 -2t-43 4q-12 7 -47 3t-47 -3q-23 3 -41 20.5t-18 38.5zM227 649q0 -24 15 -24q12 0 12 20q0 1 1 4l2 6t-0.5 5 t-4.5 2q-8 0 -16.5 -4.5t-8.5 -8.5zM283 352q12 0 21 7.5t9 19.5q0 5 -0.5 7.5t-4 4.5t-11.5 2q-7 0 -10 -2t-3.5 -4.5t-0.5 -7.5q0 -4 -2 -11.5t-2 -11.5t4 -4z" />
<glyph unicode="&#xa4;" d="M43 463q0 23 34 55t34 60q0 7 -4 23.5t-3 25.5q2 13 -8 44t-10 44q0 65 6 94l6.5 19.5t5.5 25.5q0 18 -7 31t-27 34t-25 27q-12 17 4 53q4 10 15.5 12.5t13.5 6.5q12 18 29.5 19t31.5 -17q5 -7 13 -14.5l16 -15t10 -9.5q14 -10 45 -10q11 0 31 5t33 5q12 0 36.5 6t38.5 6 q76 0 103 -8q6 -2 14.5 -6t15 -6t15.5 -2q5 0 7.5 0.5t4.5 2t3.5 3t4 3t5.5 3.5q9 6 22 20.5t26.5 24.5t28.5 10q11 0 18 -5.5t12.5 -15t10.5 -13.5q1 -1 7 -6.5t8.5 -8t5 -10t0.5 -14.5t-8.5 -18.5t-18.5 -24.5q-2 -2 -14.5 -14t-16.5 -21q-6 -15 -5 -36.5t7 -33.5 q47 -99 9 -188q-9 -23 -9 -51q0 -4 -1.5 -18t1.5 -15q2 -6 44 -43q10 -9 15.5 -23t0.5 -20q-3 -4 -5.5 -15.5t-10.5 -19.5q-33 -33 -52 -23q-34 15 -69 45q-9 9 -45 9q-24 0 -76 -9q-2 -4 -54.5 -2t-54.5 2q-9 0 -34 8.5t-48 8.5q-4 0 -11.5 1t-12 1.5t-10 -1.5t-9.5 -7 q-6 -7 -24 -23t-23 -22q-14 -17 -35 -17q-20 0 -40.5 22t-20.5 46zM219 721q0 -45 10.5 -74t42.5 -49l9 -7q9 -7 13.5 -9.5l13.5 -7.5t18.5 -7t19.5 -2q76 0 113 33t57 117q9 38 -10.5 73t-56.5 60q-40 24 -80 24q-29 0 -56.5 -20t-46.5 -25q-22 -6 -34.5 -35.5t-12.5 -70.5 z" />
<glyph unicode="&#xa5;" d="M31 1382q0 25 10 27q12 2 20 8.5t22 11.5t46 5q16 0 33.5 -1t23.5 -1.5t15 0.5q15 3 33 1.5t22 -8.5q3 -5 17.5 -18.5t17.5 -22.5q3 -7 6.5 -16t5.5 -13.5t4 -10.5t3.5 -12t2.5 -13q4 -25 13 -76.5t12 -73.5q10 -66 10 -67q6 -25 26 -30.5t32 20.5q4 8 4 47q0 7 2 14.5 t4.5 16t3.5 14.5q2 14 8 38t6 31q0 12 8 28.5t9 21.5q2 8 2 16.5t-1 19t-1 15.5q0 36 28 61q10 9 20 13t17.5 4.5t23 0.5t27.5 1q23 2 80 2q14 0 24.5 -5.5t15.5 -15.5t5 -24q0 -11 -5 -28.5t-5 -23.5q0 -3 -3 -35.5t-3 -35.5q-2 -37 -24.5 -115.5t-22.5 -120.5 q0 -18 -13.5 -49t-13.5 -51q0 -14 -3 -34t-3 -21q0 -16 -31 -140q-11 -49 -26 -137q0 -13 -1 -23t4.5 -17.5t9.5 -13t14 -9.5t18 -6t21.5 -3t24 -1.5t25.5 -0.5q18 0 30.5 -11.5t12.5 -31.5q0 -13 -14.5 -26t-26.5 -13h-82q-55 0 -61 -45q-3 -20 6 -36.5t23 -16.5 q3 0 19.5 -2.5t29.5 -3.5t31 2q7 1 22.5 -1t22.5 -1q9 2 23 -13t14 -32q0 -12 -12.5 -26.5t-24.5 -14.5q-8 0 -50 -2t-49 -2q-23 0 -39 -15.5t-16 -37.5q0 -4 -3.5 -53.5t-2.5 -57.5q2 -12 -2 -31t-8 -22t-12.5 -13t-16 -14t-18.5 -4q-1 0 -12.5 5t-22.5 1q-10 -3 -20 -4 t-17 -1t-20 0.5t-21 0.5q-6 0 -25.5 -1.5t-29.5 -0.5q-12 1 -21.5 4.5t-15.5 7t-10.5 11t-6.5 12t-3 15.5t-1 15.5v18.5v18q0 8 -3 47t-3 46q0 12 -14 27.5t-25 15.5q-6 0 -34 2t-33 2q-26 0 -49 11t-23 36q0 12 12 28.5t23 16.5q16 0 38.5 2t35.5 2q10 0 18 4t12 8.5 t15 16.5q4 5 4 30t-13 35t-39 10q-13 0 -32.5 -2t-28.5 -2q-26 0 -35.5 7t-9.5 28q0 25 31 41q15 7 53.5 8.5t54.5 18.5q8 8 11 17.5t2.5 15.5t-4.5 20.5t-5 21.5q-3 12 -10 37.5t-11.5 42t-8 41t-2.5 45.5q0 48 -9 62q-15 22 -22.5 49.5t-13 71.5t-7.5 53q-4 21 -24.5 91.5 t-20.5 109.5q0 46 -14 82q-10 27 -10 79zM139 1200q0 -5 7.5 -14.5t13.5 -9.5q8 0 8 8q0 7 -3 15.5t-7 15t-8 6.5q-11 0 -11 -21zM471 543q0 -17 27 -17q4 0 10 5t6 12t-3.5 8.5t-12.5 1.5q-27 0 -27 -10z" />
<glyph unicode="&#xa6;" d="M242 1118q-2 56 -2.5 107t0 79.5t1.5 51.5t1 24q0 2 3 16.5t3 22.5q-1 26 18.5 40t46.5 14q11 0 35 -5.5t35 -5.5q6 0 18.5 1t19.5 1.5t15.5 -2.5t14.5 -10l13 -13t17 -20t6 -18t3.5 -89t1.5 -106l3 -60q3 -60 -3 -99q-5 -43 -3 -75.5t6 -61.5t3 -33q-3 -14 -3 -30.5 t1.5 -33.5t1.5 -22v-91q0 -20 -11.5 -36t-29.5 -19q-19 -2 -43 3l-25 5q-7 0 -31.5 -5t-38.5 -5q-8 0 -20.5 -0.5t-16.5 -0.5t-11.5 1.5t-9.5 3.5t-5.5 6.5t-5 11.5t-2.5 17q-4 26 8 41q1 1 -1.5 6t-5.5 17t-3 28q0 252 -4 344zM250 -86q4 53 3 110.5t-3 110t0 58.5 q10 24 6 40q-5 27 -6 64t0 81t0 64q0 39 6 54q7 27 17.5 34t39.5 7q10 0 28 -2.5t28 -2.5q7 0 24 2.5t29 2.5q27 0 48 -15t28 -41q2 -5 2 -47t-0.5 -87t0.5 -81q0 -16 1.5 -66t2 -74t-0.5 -62t-5 -68q-2 -20 2 -80.5t4 -118.5q0 -37 -19.5 -62.5t-52.5 -25.5q-17 0 -62 5 t-69 3q-8 -1 -22.5 9t-22.5 22q-4 5 -6 74.5t0 91.5zM336 858q5 0 13.5 9.5t8.5 15.5q0 8 -10 8q-12 0 -12 -12q0 -2 -1.5 -8t-1.5 -9.5t3 -3.5z" />
<glyph unicode="&#xa7;" horiz-adv-x="714" d="M33 682q0 4 3.5 21t8.5 39t6 28q3 13 11.5 29t16 28t13.5 28.5t6 31.5q0 12 -3.5 20t-12.5 18.5t-14 18.5q-11 16 -17.5 37.5t-8.5 38.5t-4 41t-5 39q-3 16 -3 33.5t1.5 41t1.5 37.5q0 38 11.5 76.5t41 74t70.5 48.5q1 0 32 12.5t50 14.5q16 3 40.5 1.5t36.5 4.5 q8 3 19.5 3.5t22.5 -0.5t21.5 -2.5t19.5 -3t12 -1.5q112 0 172 -45q55 -40 78.5 -103t23.5 -159q0 -24 -11.5 -43t-31.5 -19q-7 0 -23.5 -5.5t-25.5 -4.5q-47 5 -76.5 0.5t-53 3t-40.5 35.5q-4 7 -4 55q0 13 -6 26t-16.5 22t-22.5 9q-8 0 -15.5 -3.5t-10.5 -5.5t-10 -9.5 l-7 -7.5q-5 -6 -7 -17t-2 -20t0.5 -22.5t0.5 -16.5q0 -17 4 -31.5t12 -25t16.5 -18.5t21.5 -14.5t22.5 -10.5t23 -9t20.5 -8q26 -12 46.5 -32t35.5 -25q77 -25 115 -68q18 -20 31.5 -60.5t13.5 -70.5v-59q0 -20 3 -53t3 -56q0 -65 -26 -139q-4 -11 -26 -33t-22 -39 q0 -23 9 -40t24.5 -40t24.5 -49q16 -40 16 -200q0 -13 -3 -24.5t-3 -16.5q0 -11 -2.5 -22.5t-6 -19.5t-8.5 -21t-8 -23q-7 -26 -29.5 -50t-47.5 -24q-4 0 -11.5 2.5t-11.5 0.5t-8 -11q-4 -12 -18.5 -19.5t-26.5 -7.5q-28 0 -95 -3t-112 -3q-46 0 -90.5 12t-79.5 33t-56.5 51 t-21.5 64q0 21 -7 48t-7 44q0 80 10 92q6 10 21 23.5t24 13.5q12 -1 25.5 -1t30 0.5t26.5 0.5q2 0 25.5 1.5t39.5 0t25 -7.5q3 -2 11 -7.5t11 -8t6 -8t3 -11.5q0 -9 5 -28t5 -29q0 -21 14 -38.5t37 -17.5q16 0 26 10t13.5 30t4.5 33.5t1 35.5q0 6 -7.5 22.5t-16.5 28.5 q-18 19 -48.5 35t-74.5 32.5t-49 18.5q-52 23 -113 84q-18 21 -24 57q-2 8 -14 25.5t-13 28.5q-8 61 -8 227zM213 379q-4 -9 13 -20t28 -11q14 0 14 14q0 7 -6.5 12t-15.5 5q-3 0 -11.5 2t-14 2t-7.5 -4zM299 655l5 -14.5t5 -36.5q0 -8 -2 -26.5t-2 -30.5q0 -21 17.5 -47.5 t37.5 -26.5q26 0 40 20.5t14 53.5q0 21 -3 64.5t-3 66.5q0 28 -15 42.5t-43 14.5q-19 0 -27 -10.5t-14 -38.5q-1 -5 -5.5 -14.5t-4.5 -16.5zM528 -141q3 -9 23 -9q6 0 6 19q0 4 -3.5 8t-8.5 4q-6 0 -13 -6.5t-4 -15.5z" />
<glyph unicode="&#xa8;" horiz-adv-x="374" d="M-61 1255q0 10 -3.5 33.5t-5 44t-0.5 41.5t10.5 35t28.5 16q15 1 52 -2.5t49 0.5q8 1 23 -0.5t20 -1.5q27 0 39 -15t12 -38v-49.5t2 -50.5q5 -23 -12.5 -37t-51.5 -14q-21 0 -41 8q-7 1 -7.5 1.5t-9 -3.5t-13.5 -6q-7 -4 -19 -2t-18.5 4t-18 6.5t-16.5 5.5q-7 1 -13.5 9 t-6.5 15zM217 1319q0 5 -0.5 21t0 23t2.5 17.5t6 16.5q22 28 41 28q40 1 65.5 -2.5t33.5 -3.5t20.5 1t20.5 1q12 0 19 -9t7 -21q0 -9 3 -26t3 -26q0 -13 4 -63q2 -24 -14.5 -41.5t-40.5 -17.5q-10 0 -45.5 -1.5t-51.5 -0.5t-37 8.5t-32 23.5q-6 7 -7 17t1 27.5t2 27.5z M385 1325q0 -10 14 -10q3 0 8 2.5t5 5.5q0 5 -4 11.5t-9 0.5q-3 -4 -8.5 -5t-5.5 -5z" />
<glyph unicode="&#xa9;" horiz-adv-x="1198" d="M45 770q0 19 -1 54t-1 64t2 54q1 11 2.5 25.5t2.5 25.5t2 25t1 26t10.5 41t10.5 41q0 8 5.5 25t6.5 23q2 17 28 59t29 49q26 59 102 101t148 49q15 1 36.5 4t35 4.5t46.5 2.5t83 1q71 0 124.5 -5t106.5 -18.5t101 -36.5q61 -29 100 -77t68 -117q7 -17 15 -38t15.5 -45 t12 -48t4.5 -41q0 -14 -6 -39.5t-7 -36.5q-1 -17 8 -45.5t9 -46.5q0 -16 -2 -47t-2 -45q0 -29 2 -92t2 -95q0 -167 -4 -184q-12 -48 -23.5 -85t-29.5 -79t-39 -72.5t-51.5 -60t-67 -48t-86 -29.5t-107.5 -11q-4 0 -15 7t-20 7q-6 0 -8.5 -3t-2.5 -7.5t-2 -8.5t-7 -5 q-18 -6 -123 -6q-11 0 -32.5 -0.5t-32.5 -0.5t-28 1.5t-32 5.5q-154 36 -256 108q-19 12 -32 44.5t-13 52.5q0 6 -14 10t-19 10t-9 19.5t-5 15.5q-16 48 -16 84q0 28 -10.5 88.5t-10.5 91.5q0 30 -2 102t-2 152zM203 827q0 -7 5 -14.5t5 -13.5q0 -50 1.5 -108.5t3 -97.5 t1.5 -40q0 -13 3 -39t3 -45q0 -8 2 -31.5t2 -31.5q0 -43 21 -132q7 -25 31 -53q2 -2 14.5 -15t19.5 -19.5t19 -16t23 -14.5t22 -6q6 -1 43.5 -3.5t56.5 -7.5q26 -5 53 -7t66 -2.5t53 -0.5q3 0 29 6t29 6q27 4 65 4q11 1 23 5t19.5 7t22 10t19.5 9q16 7 38.5 31t38.5 48.5 t19 37.5q4 14 9.5 48.5t5.5 45.5q0 7 13 14t13 11q0 7 -8 15.5t-8 14.5q-2 33 -2 93.5t1 124t1 71.5q0 11 -2 41.5l-2 30.5q0 6 2 20t2 21q0 8 -2 23.5t-2 23.5q0 5 2 17.5t2 17.5q0 19 -6.5 51.5t-7.5 40.5q-1 4 -5 30.5t-5 33t-6 27.5t-9 31.5t-12 26t-17 27.5 q-29 37 -41 47q-9 9 -22 16t-21.5 10t-28 8.5t-24.5 6.5q-31 10 -76 10q-6 0 -18 4t-18 4q-175 0 -269 -18q-11 -2 -24 -8.5t-31 -18.5l-21 -14q-62 -37 -77 -115q-2 -8 -7 -29t-9.5 -38t-4.5 -19q0 -16 -3 -73t-3 -113q0 -4 -5 -14t-5 -13zM369 637q0 16 3 37.5t3 30.5 q0 24 -3 90t-3 118q0 23 8 43t8 21q0 4 -2.5 7.5t-5 9.5t-2.5 16q0 41 13.5 71t34 46.5t54 25.5t63 11.5t70.5 2.5q21 0 38.5 -3t19.5 -3q10 0 25.5 -2.5t32.5 -8.5t24 -13q65 -70 65 -144q0 -10 -1 -21t-2.5 -21l-3 -20t-2.5 -20.5t-1 -19.5q0 -36 -2 -41q-7 -20 -28 -28.5 t-42 -8.5q-14 0 -22.5 6t-12.5 13.5t-15.5 13.5t-29.5 6q-10 0 -14.5 8t-5 21t0.5 27.5t0.5 31t-3.5 27.5q-4 14 -11 17t-26 3q-10 0 -16.5 -1.5t-10.5 -4.5t-6 -6.5t-2.5 -10.5t-0.5 -12t0.5 -15t0.5 -17q0 -15 -3 -51.5t-3 -59.5q0 -50 3 -157.5t3 -162.5q0 -24 12 -38.5 t33 -14.5q18 0 29.5 15t11.5 38q-2 12 -2 29t1 39.5t1 34.5t13.5 28.5t23.5 16.5q14 0 46.5 3t45.5 3q7 0 17 -8t17 -18t7 -15q0 -8 2 -46t2 -46t-0.5 -15t-1.5 -11.5t-1.5 -9.5t-0.5 -9q0 -37 -4 -70q-1 -7 -2.5 -19t-3 -17t-4 -13.5t-6.5 -15.5t-11 -15q-53 -63 -200 -63 q-6 0 -21 4t-20 4q-72 7 -117 29q-22 11 -36.5 47.5t-14.5 64.5q0 42 -3 120.5t-3 115.5zM502 1018q0 -27 8 -27q7 0 11.5 8t4.5 15q0 4 -4.5 9t-9.5 5q-3 0 -6.5 -3t-3.5 -7z" />
<glyph unicode="&#xaa;" horiz-adv-x="555" d="M27 778q0 10 3.5 36.5t2.5 39.5q-7 42 0 89.5t35 86.5q11 17 49.5 37.5t42.5 24.5q45 41 82 41q30 0 51.5 24t21.5 51q0 41 -53 41q-28 0 -36.5 -16.5t-8.5 -46.5q0 -31 -70 -31q-10 0 -34.5 4t-36.5 4q-23 0 -35 33q-3 5 -3.5 19t0.5 32t1 19q0 70 37.5 122t109.5 52 q82 0 125 6q31 5 63 -2t44.5 -13.5t44.5 -25.5q43 -35 43 -113q0 -18 2 -54t2 -54q0 -7 2 -87.5t2 -88.5q0 -26 -1 -69t-1 -69q0 -57 2 -82q1 -9 7.5 -38.5t6.5 -53.5q0 -30 -45 -57q-6 -4 -15.5 -6t-17 -1.5t-25 1t-30.5 0.5q-15 0 -40 16.5t-40 16.5q-17 0 -55 -18 t-53 -19q-24 -5 -68.5 -1.5t-60.5 27.5q-28 36 -33 41q-3 3 -5.5 6.5t-4.5 8.5t-3.5 8t-2.5 9l-1.5 9t-0.5 10.5v10v10.5v10zM31 430q0 16 -2 35t-2 32.5t4 28.5q2 6 7 11.5t12.5 11t10.5 8.5q15 15 29.5 20t42.5 5q7 0 32 -2t40 -2q26 0 87 -2.5t81 -0.5q23 0 42.5 3.5 t20.5 3.5q34 0 61 -24t27 -58q0 -10 -5 -30.5t-5 -29.5q0 -16 -13.5 -30.5t-31.5 -14.5q-9 0 -32 -7t-46 -5q-44 4 -92 4t-101.5 -2t-78.5 -2q-3 0 -14 -1t-18.5 0t-12.5 5q-3 2 -13 9t-15 11t-10 10.5t-5 12.5zM231 874q0 -37 7 -46t34 -9q13 0 25.5 10t11.5 21 q-2 10 -0.5 32.5t0.5 32.5q-1 11 -17 22t-24 11q-37 0 -37 -74zM258 496q0 -15 27 -15q18 0 18 8q0 5 -12 13t-19 8t-10.5 -5t-3.5 -9zM424 1176q0 -10 4.5 -14.5t13.5 3.5q1 1 7.5 4t11 7t4.5 8t-6.5 8t-14.5 4t-14 -6t-6 -14z" />
<glyph unicode="&#xab;" horiz-adv-x="776" d="M29 510q-25 51 4 92q3 4 4.5 11t3.5 13.5t4 10.5q7 9 17.5 29.5t19 40t10.5 22.5l17 23q8 19 16 51q10 31 55 110q28 58 66 58q7 0 43 3t39 3l41 -4h9h10t9 -1t9.5 -2.5t6.5 -4.5t5.5 -8t1.5 -11q0 -30 -19 -57q-1 -1 -10.5 -32.5t-17.5 -47.5q-17 -35 -35 -69.5t-26 -50 t-19.5 -41.5t-24.5 -62q0 -27 4 -45q1 -3 5 -23.5t10 -38.5t16 -37q28 -53 109 -215q20 -35 20 -47q0 -7 -7 -13.5t-15 -9.5t-15 -3q-26 0 -81.5 4t-82.5 4q-10 0 -20.5 8.5t-18.5 21t-14 26t-8 24.5q-1 9 -12.5 20.5t-14.5 18.5q-38 76 -41 84q-11 23 -35 67.5t-38 77.5z M350 569q0 10 2.5 18.5t5 13t8.5 13t9 13.5q22 45 33 82q3 14 12 29.5t21 33.5t18 31q5 10 18 44t17 42q5 17 12.5 32t22.5 30.5t32 15.5q3 0 15 -3t20 -3q7 0 14 3t14.5 7t12.5 6h31q84 0 84 -35q0 -12 -6.5 -24t-15 -24.5t-11.5 -21.5l-10 -34q-24 -60 -25 -62 q-4 -8 -17 -33t-16 -31.5t-12 -25.5t-11.5 -26.5t-8 -23t-7 -26.5t-3 -25.5t-1.5 -29.5q0 -51 35 -119q12 -22 47 -102.5t45 -97.5q17 -34 17 -56q0 -3 -4.5 -8t-10 -8.5t-8.5 -3.5q-9 0 -44 -3t-69 -3q-1 0 -15 -0.5t-19.5 0t-15 3t-15.5 7.5q-2 2 -11.5 10.5t-17.5 16.5 t-12 14q-3 5 -10 22t-13 25q-6 10 -20.5 44.5t-29 68t-19.5 41.5q-26 42 -39 77q-3 8 -11.5 25.5t-13 32t-4.5 28.5z" />
<glyph unicode="&#xac;" d="M31 778q0 21 20.5 38.5t42.5 17.5t81.5 5t82.5 -1q32 -5 83 -4.5t56 0.5q0 -2 73 -1l73 1q10 0 28.5 -7.5t28.5 -7.5h5q88 1 97 -49q5 -21 5 -60.5v-41.5q4 -34 4 -69t-2 -76.5t-2 -63.5q0 -3 0.5 -16t0.5 -20.5t-2.5 -18.5t-7.5 -19q-50 -59 -92 -35q-7 4 -17.5 4 t-23 -2t-16.5 -2q-40 0 -68 25q-12 10 -12 63q0 8 -3 31.5t-3 30.5q0 18 -1 28t-4.5 25.5t-13.5 23t-26 7.5q-18 0 -65 4t-62 4q-25 0 -71.5 -4t-74.5 -4q-6 0 -18.5 9t-32.5 9q-22 0 -33 4.5t-18 20.5q-10 25 -10 67q0 70 -2 84zM592 481q0 -6 5 -13t11 -7q18 0 6 18 q-2 3 -2.5 7t-0.5 7.5t-2 6t-7 2.5q-10 0 -10 -17v-2v-2z" />
<glyph unicode="&#xad;" horiz-adv-x="497" d="M25 590q0 14 17 33.5t28 21.5q31 5 61 6t71.5 -0.5t59.5 -1.5q6 0 65 -3t68 -3q25 0 43.5 -16.5t18.5 -36.5q0 -9 1 -25t1 -29.5t-2 -27.5q-2 -8 -17 -27q-16 -22 -57 -22q-17 0 -55 -3t-56 -3q-160 0 -211 6q-11 1 -19.5 10t-8.5 16t-2 27t-2 27q0 8 -2 25.5t-2 25.5z " />
<glyph unicode="&#xae;" horiz-adv-x="1198" d="M47 514q-9 30 -4 196t4 199q0 15 13.5 79t13.5 85q0 63 31.5 140.5t80.5 111.5q6 4 27.5 17t24.5 16q8 6 23 21.5t28.5 24.5t29.5 9q18 0 123 21q42 10 150 10q13 0 46 1.5t56.5 0.5t44.5 -6q4 -1 32.5 -3t31.5 -3q143 -34 205 -103q5 -5 23 -19.5t24 -27.5 q5 -11 26.5 -54.5t22.5 -47.5q43 -128 43 -277q0 -20 -2 -59t-2 -49q0 -11 -27 -11q-8 0 -10 -2t-2 -8t0.5 -9t3 -5t8.5 -2q4 0 12.5 6t13.5 6t5 -12q0 -355 -4 -395q-1 -14 -8.5 -33.5t-8.5 -24.5q-2 -6 -6 -30.5t-10 -34.5q-32 -71 -61 -109q-47 -62 -185 -117 q-22 -8 -98.5 -16t-77.5 -8q-14 -4 -34.5 -6t-34 -2.5t-40.5 0t-34 0.5q-17 0 -55.5 4.5t-57.5 5.5q-118 11 -237 92q-22 15 -43.5 52t-28.5 46q-35 44 -45 109q-1 6 -9 27t-8 34q0 53 -2 77.5t-6 43t-6 39.5zM139 817q0 -7 10 -15.5t17 -8.5q8 0 8 30q0 29 -6 29 q-10 0 -19.5 -13t-9.5 -22zM215 477q0 -10 6 -33t6 -59q0 -13 2 -27t8 -33t8.5 -27.5t12 -33t10.5 -28.5q5 -12 21 -25q75 -68 143 -68q20 0 92 -8t150 -8q5 0 26 6t45 6q16 0 27.5 1t20 1t18.5 3.5t14.5 4.5t16 8t15.5 9t20.5 13t23.5 16q11 6 21 21.5t15.5 27.5t13.5 33.5 t10 25.5q6 15 10 32.5t6 31.5t3 36t1 34v39v38q0 31 3 80t3 59q0 5 3.5 49.5t-3.5 73.5q-6 53 -6 209q0 43 -20 125q-10 40 -20 58.5t-40 54.5q-1 1 -3 3.5t-4.5 5t-10.5 8t-20 12t-34.5 16.5t-52.5 22q-14 6 -37 8.5t-40.5 2.5t-51.5 -0.5t-45 -0.5q-24 0 -67.5 -5 t-65.5 -5q-30 0 -59.5 -13t-44.5 -13q-35 0 -73.5 -50t-41.5 -90q-2 -33 -15.5 -86t-15.5 -75q-18 -188 2 -461q0 -5 -3 -12t-3 -13zM383 506q1 28 3.5 83.5t2.5 75.5t-2 64q-1 9 1.5 37t-1.5 37q-11 45 -11.5 75t4.5 87t5 120q0 36 24.5 54t43.5 18q33 2 69 3t80 1.5 t68 1.5q18 0 55 -16q71 -23 88 -68q8 -19 12.5 -37t6.5 -40.5t2.5 -34t0 -41t-0.5 -37.5q0 -7 1.5 -19.5t1.5 -23t-3 -19.5q-1 -5 -9 -26t-8 -29q0 -10 -12 -34t-12 -40q0 -15 3.5 -26t10 -24.5t10.5 -24.5q2 -6 8 -16.5t9.5 -24t3.5 -33.5q0 -7 -1.5 -32.5t-1 -50 t4.5 -48.5v-78q0 -3 4.5 -17.5t3.5 -23.5q-4 -27 -31 -27t-51.5 -0.5t-35 -1t-20 0t-16.5 1.5q-9 1 -16.5 12t-7.5 19q0 17 -3 62t-3 77q0 6 5 23.5t5 28.5q0 3 -5 15t-5 15q0 1 -2 18t-4 24t-7 20t-13 18.5t-20 5.5q-19 0 -34 -12q-11 -7 -17 -15t-7.5 -19.5t-2 -18.5 t1.5 -22.5t2 -20.5q0 -3 1.5 -19t2 -24.5t0 -23t-3.5 -27.5q-3 -14 -3 -29t1.5 -33.5t1.5 -28.5q0 -33 -20.5 -42t-87.5 -9q-10 0 -18.5 9t-14.5 10q-33 5 -33 34q0 23 -2.5 86t-1.5 101zM555 842q0 -33 25 -51q29 -18 94 -9q7 6 5 14t-8.5 23t-6.5 21q0 4 -1 17t-1 26.5 t2 25.5q4 30 2 57.5t-7 34.5q-9 11 -65 11q-11 0 -20.5 -7.5t-12.5 -17.5q0 -1 1.5 -23t-1.5 -34v-49q0 -6 -3 -19.5t-3 -19.5z" />
<glyph unicode="&#xaf;" horiz-adv-x="374" d="M-53 1298q0 41 12 52t49 18q6 1 10 2q22 4 38 4t37.5 -2t39.5 -2q11 0 53 -4t54 -4q8 0 24 4.5t21 5.5q51 9 102 -2q17 -7 26 -21.5t10 -25t1 -31.5q0 -43 -15.5 -57t-46.5 -14q-19 0 -111.5 -5t-115.5 1q-13 1 -40 5.5t-40 4.5q-10 0 -29.5 -1t-29.5 -1q-17 0 -31 14 q-18 16 -18 59z" />
<glyph unicode="&#xb0;" horiz-adv-x="555" d="M20 1116q0 81 11 117q6 19 47 92q7 13 14.5 22t20.5 16t19 10t24.5 8.5t23.5 7.5q6 2 19.5 9.5t31 13t41.5 5.5q51 0 140 -35q38 -13 55 -41q68 -103 68 -170q0 -138 -76 -204q-13 -13 -38 -21.5t-36 -19.5q-6 -6 -13.5 -11t-18 -8t-16.5 -4.5t-19.5 -2.5t-18 -1h-20 h-17.5q-12 0 -24.5 2.5t-20.5 5t-22 7t-19 6.5q-74 25 -115 94q-4 6 -15 37t-13 41q-1 4 -7 12.5t-6 11.5zM188 1157q0 -81 41 -88q12 -4 47 -4q3 0 13 -5t20 -5q20 0 38 39.5t18 68.5q0 40 -29.5 63t-73.5 23q-12 0 -22 -6.5t-20.5 -19t-14.5 -15.5q-17 -17 -17 -51z" />
<glyph unicode="&#xb1;" d="M37 772q0 10 3.5 15.5t8.5 6.5t8.5 3t3.5 6q0 3 -10.5 11.5t-13.5 19.5q-4 15 -4 31t2 35t2 28q0 45 59 39q10 -1 22 1.5t25 5.5t23 3q5 0 19 -1t23 -0.5t15 3.5q12 5 15.5 11.5t7.5 23.5q10 30 10 43q0 10 -2 34.5t-2 36.5q0 70 47 70q15 0 42 2t42 2q10 0 16.5 -14 t10.5 -14t5 6t5.5 12t17.5 6q10 0 25.5 -16t15.5 -25q0 -3 2.5 -20t3.5 -33t-2 -41q-1 -4 0 -18.5t2.5 -29t1.5 -16.5q0 -8 9 -13t18 -5q6 0 28.5 -4.5t30.5 0.5q7 4 38 0t38 -4q16 0 31 -15q9 -6 14.5 -14t7.5 -19t2.5 -18t0.5 -20v-13q0 -6 -2.5 -47t-2.5 -49 q-21 -35 -47 -41q-12 -2 -35.5 0.5t-35.5 -0.5q-21 -4 -41 -1t-36 -2.5t-18 -24.5q0 -7 -1 -21t-1 -16q4 -82 0 -109q-1 -9 -5 -15.5t-7 -9.5t-10 -8t-10 -8q-15 -12 -32 -15.5t-48 -1t-37 2.5q-74 0 -74 22q0 11 -6 25t-6 18q-1 24 0.5 64.5t1.5 58.5q0 35 -51 35 q-3 0 -18 3t-27 3.5t-31 -2.5q-15 -3 -24 -2.5t-20 2.5t-13 2q-10 0 -20.5 12t-10.5 23zM43 344q-25 111 55 111q1 0 41 2t54 2q42 0 67 4q59 5 76 2q46 -8 106 6q12 3 23 -1t22.5 -9.5t24.5 -5.5q16 0 50 2t50 2q12 0 33 -7.5t31 -7.5q7 0 13 -5.5t8.5 -12t2.5 -12.5 q0 -46 5 -80q3 -22 1.5 -43.5t-6.5 -26.5l-8.5 -8.5t-10.5 -10l-9 -7.5t-11.5 -7t-11.5 -2q-20 0 -61 -5t-58 -5q-18 0 -43 4t-36 4q-15 0 -45 -4t-44 -4q-22 0 -68 2t-69 2q-25 0 -67.5 3t-71.5 3q-16 0 -26.5 13t-10.5 26q0 7 1 21t1 22q0 1 -8 33zM373 776q0 -12 22 -12 q7 0 12 5t5 13t-6 12.5t-13 4.5q-5 0 -6.5 -0.5t-1.5 -2v-3t-0.5 -3.5t-3.5 -4q-8 -5 -8 -10z" />
<glyph unicode="&#xb2;" horiz-adv-x="561" d="M27 684q0 10 5 29t5 28q0 56 6 68q9 24 22.5 44t37 47.5t30.5 37.5q19 24 41.5 42t51 36.5t44.5 30.5q27 21 43.5 60t16.5 73q0 63 -45 63q-15 0 -25.5 -7.5t-15.5 -17t-7.5 -28t-3 -29t-0.5 -32.5v-9q0 -26 -14 -37.5t-29 -11.5q-8 0 -24 -4t-25 -4q-13 0 -35 6t-30 6 q-15 0 -27 13t-12 45q0 3 -2 22.5t-2 37t4 26.5q2 4 10 34q5 15 12.5 46.5t12.5 49t18.5 36.5t32.5 28q73 29 96 29q6 0 23 2t28 2q9 0 31 -5.5t35 -2.5t25.5 3.5t24.5 -2.5t21 -6.5t23.5 -9.5t24.5 -10q25 -10 43 -45t18 -59q0 -9 9.5 -48.5t9.5 -70.5q0 -52 -1 -74.5 t-11 -59t-31 -59.5q-6 -7 -28.5 -32t-37 -39t-31.5 -25q-16 -11 -40 -24.5t-38 -23t-24 -22.5q-4 -5 -15 -13t-14 -15q-3 -6 -10.5 -18.5t-11.5 -21.5t-4 -18q0 -10 5.5 -22t16.5 -12q17 0 43 3t39 3q10 0 35 -3t35 -3q9 0 34.5 2.5t38.5 1.5q9 -2 22 -14t13 -19 q0 -5 -1 -18.5t-1 -24.5t2 -18q2 -24 0.5 -32t-8 -20.5t-8.5 -19.5q-3 -11 -14 -19t-21 -8q-9 0 -76.5 -3t-165.5 -3q-13 0 -38 -0.5t-40.5 -0.5t-34 1t-30.5 4q-19 5 -35.5 22t-19.5 38q-3 19 3.5 27t17 6.5t19.5 0t9 9.5q0 5 -13 7.5t-25.5 14.5t-12.5 39z" />
<glyph unicode="&#xb3;" horiz-adv-x="561" d="M33 1212q0 28 1 47.5t4 45t10.5 43t18.5 33.5t29.5 24t42.5 8q11 0 30 12.5t28 14.5q36 8 57 8q7 0 20.5 -4t20.5 -4q8 0 19.5 1.5t22 2.5t19.5 0q35 -10 45 -14q40 -15 63.5 -37.5t37.5 -57.5q6 -15 9.5 -27.5t4 -20.5t1 -26.5t1.5 -33.5q3 -61 -5 -104t-30 -85 q-3 -6 -9 -15.5t-8.5 -14t-4.5 -13t-2 -18.5t3 -17.5t9 -16t8 -13.5t15 -21.5t20.5 -45.5t7.5 -83q0 -12 2.5 -35.5t2.5 -42t-5 -34.5q-33 -107 -104 -136q-24 -7 -28.5 -2t-6 15t-6.5 10q-11 0 -17 -6.5t-7.5 -15t-5 -15t-11.5 -6.5q-125 0 -160 8q-25 6 -72 29 q-44 26 -53 47q-14 33 -14 68q0 9 -1.5 32.5t-0.5 35.5t4.5 28t14.5 23.5t30 7.5t48.5 6t47.5 6q11 0 24 -13t13 -26q0 -21 13.5 -38t37.5 -17q16 0 28.5 12t12.5 24q0 9 3 24t3 24q0 7 -3 25.5t-3 25.5q0 14 -16 28t-29 13q-18 -1 -53.5 4.5t-38.5 5.5q-31 0 -31 35 q0 7 -5 20.5t-5 20.5q-1 16 3 33.5t3 29.5q-2 14 13 25.5t34 11.5q16 0 40.5 1.5t33.5 0.5q15 -2 30 3t17 5q7 0 12 5.5t5 13.5q0 7 -3.5 20t-3.5 21q0 2 0.5 19.5t0 24t-3 20.5t-8 20.5t-15.5 12t-25 5.5q-19 0 -33 -13t-14 -30q0 -21 -13.5 -33t-31.5 -12q-7 0 -26.5 -2 t-36.5 -2q-8 0 -20.5 5t-20.5 5q-17 0 -26 17.5t-9 33.5z" />
<glyph unicode="&#xb4;" horiz-adv-x="374" d="M61 1221q0 14 7.5 29.5t16 32t9.5 28.5q1 9 5.5 19.5t10 23t7.5 22.5q10 42 28.5 54t69.5 12q29 0 37 -6q4 -3 -2.5 -14t0.5 -15q3 -2 9.5 2.5t16 11.5t15.5 9q18 6 25.5 -11t-1.5 -33q-11 -28 -40.5 -65.5t-38.5 -52.5q-1 -2 -14.5 -23.5t-18 -26.5t-17.5 -14.5 t-28 -11.5q-18 -2 -41 1t-31 3q-10 0 -17.5 7t-7.5 18z" />
<glyph unicode="&#xb5;" horiz-adv-x="729" d="M35 561q0 94 8 234q3 50 0 160.5t0 125.5q13 58 98 58q13 0 32 -5t32 -6q7 0 28.5 2.5t28.5 2.5q17 0 27.5 -10t14.5 -32.5t4.5 -35.5t0.5 -41q0 -23 -2.5 -53t-2.5 -41t3 -31q4 -16 4 -72q0 -21 -3 -66.5t-1 -82.5q0 -51 4 -121q2 -33 0.5 -117t-0.5 -117 q0 -27 11.5 -47t35.5 -20q52 0 52 41q0 33 3 91t3 91q0 37 -5.5 190t-0.5 232q2 28 -2 110.5t2 90.5q3 12 7.5 20.5t13 13.5t15 8t19.5 4l19.5 1.5t24 0t23.5 -0.5q11 0 18 -4t12 -10t7 -7q3 -4 16.5 -2.5t16.5 0.5q48 -7 64 -55q5 -15 6 -57t-0.5 -98.5t-1.5 -59.5 q0 -44 2 -139t2 -138q0 -77 -4 -114q-2 -18 -2 -42t1 -54t1 -46q0 -20 8 -44t4 -58q-2 -18 -2 -148q0 -23 -10.5 -40t-30.5 -17q-8 0 -23 2t-27.5 2t-23.5 -4q-9 -4 -18.5 -4.5t-16 0t-16.5 2t-16 2.5q-16 1 -48 18t-44 17q-14 0 -37.5 -19.5t-34.5 -19.5q-17 0 -17 -33 q0 -18 2 -55t2 -66.5t-4 -52.5q-2 -9 -16.5 -18.5t-42.5 -9.5q-12 0 -35.5 -9t-34.5 -10q-53 -3 -84 2q-16 3 -30 16.5t-21 28.5q-4 10 -5 29.5t0 45t1 26.5q0 11 20.5 18t20.5 12q0 9 -7.5 13.5t-16 7.5t-16 16.5t-7.5 36.5q0 44 1.5 169.5t0.5 197.5q-1 29 -5.5 92.5 t-4.5 101.5zM111 530q0 -36 14 -36q9 0 10.5 4t-1 10t-2 17t6.5 22q5 9 -0.5 13.5t-13.5 4.5q-14 0 -14 -35zM582 365q0 -10 16 -14.5t16 9.5q0 17 -22 17q-2 0 -6 -4t-4 -8z" />
<glyph unicode="&#xb6;" horiz-adv-x="942" d="M20 989q0 36 3 65t5.5 43.5t8.5 37t8 32.5q1 2 1.5 11.5t3 25.5t5.5 31q26 112 84 143q84 45 146 45q7 0 93.5 2.5t104.5 1.5q114 -4 189 -4q10 0 46 2t48 2q23 0 51 -14.5t33 -38.5q1 -11 4.5 -29.5t3.5 -33.5q0 -8 8 -30.5t8 -31.5q0 -39 3.5 -99.5t3.5 -94.5 q0 -18 -3 -77.5t-1 -90.5q1 -9 -3 -31t-4 -25t3.5 -20.5t3.5 -30.5q0 -161 4 -243q4 -41 1.5 -163t-1.5 -163q1 -48 1 -103t-0.5 -122t-0.5 -103v-9v-11t-0.5 -10.5t-1.5 -11t-2.5 -9.5t-4 -8.5t-6.5 -5.5q-12 -7 -31 -8.5t-46.5 0.5t-32.5 2q-13 0 -30 15.5t-24 18.5 q-8 3 -12.5 9.5t-6 16t-2 16t0 18.5t0.5 16v125q0 5 3 22.5t3 22.5q0 19 -5 32t-5 19q-4 25 -1 190.5t3 190.5q0 24 -3 181.5t1 181.5q1 28 -1.5 162t-2.5 143q0 27 -41 27q-5 0 -12.5 -9.5t-14 -28t-6.5 -40.5q0 -19 -2 -113.5t-2 -116.5v-2q0 -13 2 -122.5t2 -124.5 q0 -44 -3.5 -130t-3.5 -153t7 -119q6 -44 6.5 -108.5t-3 -165.5t-3.5 -133q0 -41 -45 -41q-23 0 -66 3.5t-57 4.5q-11 0 -21 11.5t-10 21.5q-4 66 -2.5 123t-1.5 59q-1 9 -1 42t1 46q2 19 -1 53t-3 49q0 13 2 48.5t2 62.5q0 67 -41 67q-27 0 -50 2.5t-35 5.5t-13 3 q-3 0 -17.5 4t-21.5 4q-81 0 -133 67q-8 10 -15 22.5t-11.5 22t-8.5 26t-6 24.5t-5.5 27.5t-4.5 25.5q-1 9 -3.5 20t-4 20.5t-2.5 20.5q-2 25 -2 54.5t1 65t1 54.5q0 7 -2.5 43t-2.5 74zM408 1122q0 -13 9 -25.5t17 -6.5q4 1 0.5 8t-2.5 10q1 4 -7 12t-13 8q-4 0 -4 -6z" />
<glyph unicode="&#xb7;" horiz-adv-x="374" d="M39 588q-1 1 -0.5 35.5t0.5 35.5q0 7 -1 22t-1 28t2 26q1 10 6.5 27t5.5 24q0 4 -3 16t-3 19q0 17 12.5 37.5t28.5 20.5q7 0 50 -2.5t50 -2.5t23 4.5t24 4.5q55 0 72 -11q1 -1 8 -4.5t10 -6t7.5 -7t5.5 -10.5q2 -7 2 -20.5t-1 -32t-1 -27.5q0 -24 -1.5 -41.5t-2.5 -24.5 l-2 -8q0 -15 4 -37.5t4 -34.5q0 -67 -37 -71q-89 -6 -201 -6q-20 0 -40 14t-21 33z" />
<glyph unicode="&#xb8;" horiz-adv-x="374" d="M-4 -199q0 43 27 43q5 0 17 3t19 3q3 0 21 -1t22 -1q24 0 27 -8q7 -18 39 -18q29 0 29 22q0 16 -6.5 22.5t-22 9t-21.5 5.5q-14 6 -23 24t-9 40q0 39 8 55q10 19 33 21t41 -9q6 -3 10 -39q2 -16 19 -19t49.5 -8t58.5 -24q9 -7 21.5 -25.5t15.5 -21.5q9 -12 2 -51 q-5 -25 -27.5 -48.5t-52.5 -29.5l-41 -4q-4 -1 -18 -5.5t-23 -4.5q-83 0 -143 14q-25 6 -48.5 21t-23.5 34z" />
<glyph unicode="&#xb9;" horiz-adv-x="313" d="M49 756q0 22 3 71.5t3 73.5q0 20 -3 75.5t-3 98.5q0 10 6 31.5t6 30.5q0 15 -6 46t-6 52q0 12 3 37t3 39q0 10 12.5 24.5t32.5 22.5q27 12 43 28q5 6 12.5 17t12.5 16.5t14.5 10t22.5 4.5q14 0 31.5 -13.5t17.5 -27.5q0 -31 2 -79t3 -70.5t-1 -45.5q-1 -10 0.5 -66 t-4.5 -57q-5 -14 -4 -19l4.5 -22.5t3.5 -34.5q0 -34 2 -95t2 -109.5t-4 -89.5q-2 -16 -2 -35t1 -42.5t1 -35.5q0 -30 -24 -48t-58 -18q-60 0 -72 2q-26 4 -26 39q0 10 -10.5 20.5t-12.5 16.5q-4 9 -4 78q0 17 9 28l10 11q-1 2 -11 9t-10 26z" />
<glyph unicode="&#xba;" horiz-adv-x="550" d="M27 459q0 6 3 16.5t3 16.5q0 2 1.5 9t2.5 16t0 18q0 4 3.5 8.5t9.5 9.5t7 6q25 25 103 25q47 0 89.5 1t49.5 1q25 0 42.5 -1t25 -2t13.5 -2t9 -1q45 0 76 -7q13 -3 27 -19t14 -32q0 -14 -3 -40t-3 -40q0 -6 -3.5 -15t-4.5 -13q-2 -6 -5 -10.5t-8 -7t-9.5 -4t-12.5 -2 t-14 -0.5t-16.5 0.5t-16.5 0.5q-10 0 -32 2t-30 2t-17 -2t-14 -2q-10 0 -28 1t-32.5 1t-27.5 -2q-21 -4 -44.5 -4t-52 2t-44.5 2q-23 0 -42 22t-19 46zM27 950q0 18 1.5 53.5t1.5 63t-3 47.5q-11 81 0 184q1 5 10.5 15.5t9.5 19.5q0 27 10 37q27 30 58.5 46t55.5 20.5 t75 9.5q24 2 54 -4t44 -6q58 0 99.5 -30t58.5 -87q2 -5 2 -30.5t0.5 -70t3.5 -81.5q4 -12 1 -122t-3 -138q0 -13 -2 -54.5t-2 -58.5q0 -30 -31 -78q-6 -9 -20 -17t-27 -12t-33 -10t-26 -8q-30 -11 -88 -9.5t-91 -2.5q-16 -3 -45 7.5t-43 20.5q-15 10 -26.5 24t-19 27 t-12.5 36t-8 36t-4 42.5t-1 41v45.5v43zM231 864q9 -41 39 -41q16 0 26.5 8.5t10.5 22.5q0 8 3 59.5t3 59.5q0 5 2 13t2 11q0 18 -2 40t-2 26q0 6 -1 21.5t-1 32.5t2 34q3 39 -6 57q-19 45 -37 45q-10 0 -22 -9t-12 -17q0 -15 -2.5 -94t-2.5 -95q0 -10 -2 -28.5t-2 -33 t4 -24.5q7 -7 3 -43t-3 -45zM276 508q0 -10 15 -10q26 0 26 10q0 3 -1 4.5t-3.5 2t-5 0.5t-6.5 -0.5t-6 -0.5q-19 0 -19 -6zM352 795q0 -5 13 -13t18 -8q8 0 8 10q0 15 -12 15q-27 0 -27 -4z" />
<glyph unicode="&#xbb;" horiz-adv-x="776" d="M20 184q0 28 21 62q2 2 6 11t11 23.5t14 26.5q9 15 17.5 40t12.5 32q16 25 25 47t15 43.5t10 32.5q16 33 16 65q0 35 -31 86q-2 4 -7 25t-11 29q-9 13 -20.5 42t-16.5 37q-7 10 -62 138q-4 8 -4.5 18.5t5.5 19.5t20 9q5 0 32.5 2t32.5 2q13 0 26.5 -6t21.5 -6h41 q7 0 24 -11q17 -14 33 -37.5t23.5 -39t25.5 -54.5q49 -98 55 -116q4 -11 18.5 -31t18.5 -31q2 -8 7.5 -26t6.5 -24t2.5 -19t-1 -24.5t-7.5 -27.5q-13 -37 -37.5 -88t-31.5 -76q-7 -24 -29.5 -65.5t-28.5 -56.5q-12 -30 -20 -46q-6 -8 -11.5 -13.5t-13.5 -9t-13 -5.5 t-15.5 -3t-14.5 -1h-17.5h-16.5q-6 0 -17.5 -2t-17.5 -2t-22.5 -1t-26.5 -0.5t-22.5 2.5t-19 9.5t-6.5 19.5zM340 940q0 35 43 35q7 0 22.5 -2t22.5 -2q8 0 26.5 2t20.5 2q63 0 84 -21q12 -8 27 -45q2 -6 41 -84q15 -30 30 -65q3 -8 30.5 -58.5t31.5 -58.5q3 -7 13 -24 t14 -28.5t4 -25.5q0 -19 -11 -44.5t-28 -56.5t-23 -46q-5 -10 -46 -91t-46 -91q-28 -52 -45 -64t-64 -12h-49q-5 0 -35.5 2t-35.5 2q-11 0 -17.5 9.5t-3.5 21.5q7 23 22 53t19 41q2 5 14 22t15 33q3 14 13 35.5t24.5 49t21.5 42.5q29 87 29 96q0 4 1 12t0.5 14t-5.5 15 q-20 42 -53 95.5t-44 78.5q-11 27 -29 61t-26 55t-8 42z" />
<glyph unicode="&#xbc;" horiz-adv-x="964" d="M49 756q0 22 3 71.5t3 73.5q0 20 -3 75.5t-3 98.5q0 10 6 31.5t6 30.5q0 15 -6 46t-6 52q0 12 3 37t3 39q0 10 12.5 24.5t32.5 22.5q27 12 43 28q5 6 12.5 17t12.5 16.5t14.5 10t22.5 4.5q14 0 31.5 -13.5t17.5 -27.5q0 -31 2 -79t3 -70.5t-1 -45.5q-1 -10 0.5 -66 t-4.5 -57q-5 -14 -4 -19l4.5 -22.5t3.5 -34.5q0 -34 2 -95t2 -109.5t-4 -89.5q-2 -16 -2 -35t1 -42.5t1 -35.5q0 -30 -24 -48t-58 -18q-60 0 -72 2q-26 4 -26 39q0 10 -10.5 20.5t-12.5 16.5q-4 9 -4 78q0 17 9 28l10 11q-1 2 -11 9t-10 26zM147 41q10 56 60 178q6 16 24 75 t31 87q5 11 9.5 20t7 14.5t4.5 14.5q1 7 26 94q6 22 17.5 45.5t15.5 32.5q5 12 9 36t9 36q14 28 35 87.5t25 69.5q14 34 27.5 73t30.5 92t24 75q12 32 23 65t19 55.5t19 47.5q2 5 13.5 43t13.5 43q2 6 5.5 14.5t8 18.5t6.5 16q6 17 15 22t26 5q27 0 27 -19q0 -7 -5 -18 t-5 -18q-5 -8 -17 -55t-16 -54q-8 -12 -14 -27t-9.5 -26.5t-8 -30.5t-7.5 -29q-8 -25 -25 -53q-12 -19 -26 -67q-5 -15 -21 -61.5t-18 -57.5q-4 -19 -27 -82.5t-28 -83.5q-31 -110 -58 -162q-23 -50 -37 -102q-9 -40 -37 -109q-2 -6 -14 -30.5t-12 -36.5q0 -21 -21 -70 q0 -1 -4 -10.5t-10.5 -25.5t-14.5 -36.5t-18 -49t-20 -58.5q-7 -23 -39 -23q-11 0 -16.5 10t-2.5 25zM432 285q3 15 9 32.5t15.5 38t10.5 23.5q34 82 49 127q5 16 22 44t21 54q4 24 55 129q8 15 18.5 46t18.5 49.5t26.5 34.5t45.5 16q19 0 42 10t46 10q9 0 16 -3t18.5 -11 t16.5 -11q8 -5 10.5 -9.5t1 -15.5t-1.5 -13q0 -42 2.5 -114t2.5 -110q0 -8 -5.5 -28t-5.5 -27q0 -8 3 -18.5t3 -18.5q0 -28 4.5 -85t4.5 -85t37 -28q17 0 21 -28t-1 -56l-4 -27q0 -34 -23 -37h-6.5t-9 -3t-8.5 -11q-10 -20 -10 -58q0 -9 -2.5 -36t-2.5 -31 q0 -16 -16.5 -28.5t-34.5 -6.5q-10 4 -20.5 4t-23.5 -2t-21 -2q-4 0 -13 -0.5t-13 -0.5t-11 2.5t-14 8.5q-17 12 -22 26.5t-5 51.5q0 29 -6 43t-12 16t-25 5q-18 3 -58.5 0.5t-58.5 -0.5q-8 1 -20.5 6.5t-28.5 5.5q-13 0 -22 13t-9 26q0 11 -5.5 33.5t-0.5 48.5zM618 365 q-1 -12 -1 -18t7.5 -9t11 -3.5t8.5 -0.5h1q14 0 18 0.5t11 3t9 9.5t3 20q1 10 -1.5 30t-2.5 27q0 19 1 39t1 26q0 11 -6 14t-12 -9q-8 -14 -17 -45q-6 -23 -17 -47.5t-14 -36.5zM754 240q0 -6 5.5 -10.5t12.5 -4.5q8 0 8 15q0 8 -7.5 14t-16.5 6q-2 0 -2 -20z" />
<glyph unicode="&#xbd;" horiz-adv-x="1040" d="M49 756q0 22 3 71.5t3 73.5q0 20 -3 75.5t-3 98.5q0 10 6 31.5t6 30.5q0 15 -6 46t-6 52q0 12 3 37t3 39q0 10 12.5 24.5t32.5 22.5q27 12 43 28q5 6 12.5 17t12.5 16.5t14.5 10t22.5 4.5q14 0 31.5 -13.5t17.5 -27.5q0 -31 2 -79t3 -70.5t-1 -45.5q-1 -10 0.5 -66 t-4.5 -57q-5 -14 -4 -19l4.5 -22.5t3.5 -34.5q0 -34 2 -95t2 -109.5t-4 -89.5q-2 -16 -2 -35t1 -42.5t1 -35.5q0 -30 -24 -48t-58 -18q-60 0 -72 2q-26 4 -26 39q0 10 -10.5 20.5t-12.5 16.5q-4 9 -4 78q0 17 9 28l10 11q-1 2 -11 9t-10 26zM147 41q10 56 60 178q6 16 24 75 t31 87q5 11 9.5 20t7 14.5t4.5 14.5q1 7 26 94q6 22 17.5 45.5t15.5 32.5q5 12 9 36t9 36q14 28 35 87.5t25 69.5q14 34 27.5 73t30.5 92t24 75q12 32 23 65t19 55.5t19 47.5q2 5 13.5 43t13.5 43q2 6 5.5 14.5t8 18.5t6.5 16q6 17 15 22t26 5q27 0 27 -19q0 -7 -5 -18 t-5 -18q-5 -8 -17 -55t-16 -54q-8 -12 -14 -27t-9.5 -26.5t-8 -30.5t-7.5 -29q-8 -25 -25 -53q-12 -19 -26 -67q-5 -15 -21 -61.5t-18 -57.5q-4 -19 -27 -82.5t-28 -83.5q-31 -110 -58 -162q-23 -50 -37 -102q-9 -40 -37 -109q-2 -6 -14 -30.5t-12 -36.5q0 -21 -21 -70 q0 -1 -4 -10.5t-10.5 -25.5t-14.5 -36.5t-18 -49t-20 -58.5q-7 -23 -39 -23q-11 0 -16.5 10t-2.5 25zM506 166q0 10 5 29t5 28q0 35 6 47q9 24 22.5 44t37 47.5t30.5 37.5q19 24 42 42t51.5 36.5t44.5 30.5q27 21 43 59t16 72q0 63 -45 63q-18 0 -29.5 -8.5t-16 -28t-5 -32 t-0.5 -39.5v-12q0 -26 -14 -38t-29 -12q-8 0 -24 -4t-25 -4q-13 0 -35.5 6.5t-30.5 6.5q-39 0 -39 57q0 3 -2 22t-2 36t4 26q2 3 10 35q5 15 12.5 46.5t12.5 48.5t18.5 36t32.5 28q72 29 96 29q6 0 23.5 2t28.5 2q9 0 30.5 -5.5t34.5 -2.5t25.5 3.5t24.5 -2.5t21 -6.5 t23.5 -9.5t24.5 -10q25 -10 43 -45t18 -59q0 -9 9.5 -48.5t9.5 -70.5q0 -115 -43 -190q-33 -54 -97 -97q-16 -11 -40 -24t-38 -22.5t-24 -22.5q-4 -5 -15 -13.5t-14 -15.5q-4 -8 -15 -17t-11 -20q0 -10 5.5 -22t16.5 -12q17 0 43 3t39 3q10 0 35 -3t35 -3q9 0 35 2.5t39 1.5 q9 -2 21.5 -14t12.5 -19q0 -5 -1 -18.5t-1 -25t2 -18.5q2 -24 0.5 -31.5t-8 -20t-8.5 -19.5q-3 -11 -14 -19t-21 -8q-9 0 -76 -3t-165 -3q-13 0 -38.5 -0.5t-40.5 -0.5t-34 1t-31 4q-20 5 -36 21.5t-19 37.5q-3 19 3.5 27t17 6.5t19.5 0t9 9.5q0 5 -12.5 8t-25.5 15t-13 39z " />
<glyph unicode="&#xbe;" horiz-adv-x="1175" d="M33 1212q0 28 1 47.5t4 45t10.5 43t18.5 33.5t29.5 24t42.5 8q11 0 30 12.5t28 14.5q36 8 57 8q7 0 20.5 -4t20.5 -4q8 0 19.5 1.5t22 2.5t19.5 0q35 -10 45 -14q40 -15 63.5 -37.5t37.5 -57.5q6 -15 9.5 -27.5t4 -20.5t1 -26.5t1.5 -33.5q3 -61 -5 -104t-30 -85 q-3 -6 -9 -15.5t-8.5 -14t-4.5 -13t-2 -18.5t3 -17.5t9 -16t8 -13.5t15 -21.5t20.5 -45.5t7.5 -83q0 -12 2.5 -35.5t2.5 -42t-5 -34.5q-33 -107 -104 -136q-24 -7 -28.5 -2t-6 15t-6.5 10q-11 0 -17 -6.5t-7.5 -15t-5 -15t-11.5 -6.5q-125 0 -160 8q-25 6 -72 29 q-44 26 -53 47q-14 33 -14 68q0 9 -1.5 32.5t-0.5 35.5t4.5 28t14.5 23.5t30 7.5t48.5 6t47.5 6q11 0 24 -13t13 -26q0 -21 13.5 -38t37.5 -17q16 0 28.5 12t12.5 24q0 9 3 24t3 24q0 7 -3 25.5t-3 25.5q0 14 -16 28t-29 13q-18 -1 -53.5 4.5t-38.5 5.5q-31 0 -31 35 q0 7 -5 20.5t-5 20.5q-1 16 3 33.5t3 29.5q-2 14 13 25.5t34 11.5q16 0 40.5 1.5t33.5 0.5q15 -2 30 3t17 5q7 0 12 5.5t5 13.5q0 7 -3.5 20t-3.5 21q0 2 0.5 19.5t0 24t-3 20.5t-8 20.5t-15.5 12t-25 5.5q-19 0 -33 -13t-14 -30q0 -21 -13.5 -33t-31.5 -12q-7 0 -26.5 -2 t-36.5 -2q-8 0 -20.5 5t-20.5 5q-17 0 -26 17.5t-9 33.5zM356 41q10 56 60 178q6 15 15.5 45.5t19.5 62.5t20 54q5 11 9.5 20t7 14.5t4.5 14.5q3 16 6 27t9 30.5t11 36.5q6 22 17.5 45.5t15.5 32.5q4 10 6.5 23.5t5 26t6.5 22.5q14 28 35 87.5t25 69.5q14 34 27.5 73 t30.5 92t24 75q12 32 23 65t19 55.5t19 47.5q2 5 13.5 43t13.5 43q2 6 5.5 14.5t8 18.5t6.5 16q6 17 15 22t26 5q27 0 27 -19q0 -7 -5 -18t-5 -18q-5 -8 -17 -55t-16 -54q-8 -12 -14 -27t-9.5 -26.5t-8 -30.5t-7.5 -29q-8 -25 -25 -53q-5 -7 -8 -12.5t-5.5 -12.5t-3.5 -10 t-4 -14.5t-5 -17.5q-5 -15 -21 -61.5t-18 -57.5q-3 -15 -14.5 -47t-24 -66.5t-17.5 -52.5q-33 -114 -57 -162q-23 -50 -37 -102q-9 -40 -37 -109q-2 -6 -14 -30.5t-12 -36.5q0 -21 -21 -70q0 -1 -4 -10.5t-10.5 -25.5t-14.5 -36.5t-18 -49t-20 -58.5q-4 -14 -13 -18.5 t-26 -4.5q-11 0 -16.5 10t-2.5 25zM643 285q3 15 9 32.5t15.5 38t10.5 23.5q34 82 49 127q5 16 22 44t21 54q1 8 5 19.5t8.5 22t11 24.5t11 23.5t11 22.5l8.5 17q5 11 11 26t10 28t10 27.5t12.5 25.5t15.5 20t21.5 14t28.5 5q19 0 42 10t46 10q9 0 16 -3t18.5 -11t16.5 -11 q8 -5 10.5 -9.5t1 -15.5t-1.5 -13q0 -42 2 -114t2 -110q0 -8 -5 -28t-5 -27q0 -8 3 -18.5t3 -18.5q0 -28 4.5 -85t4.5 -85q0 -9 2 -14t10.5 -9.5t23.5 -4.5q18 0 22 -28t0 -55l-5 -28q0 -34 -23 -37h-6.5t-9 -3t-8.5 -11q-11 -22 -11 -58q0 -9 -2 -36t-2 -31 q0 -16 -16.5 -28.5t-34.5 -6.5q-8 3 -17 3.5t-15.5 -0.5t-16 -2t-16.5 -1q-4 0 -13 -0.5t-13.5 -0.5t-11.5 2.5t-14 8.5q-12 8 -17 17t-7 22t-2 39q0 22 -2 35t-9.5 19t-12 7t-19.5 3q-18 3 -58.5 0.5t-58.5 -0.5q-8 1 -20.5 6.5t-28.5 5.5q-6 0 -12 4t-10 9.5t-6.5 12.5 t-2.5 13q0 11 -5.5 33.5t-0.5 48.5zM829 365q-7 -31 27 -31q14 0 18 0.5t11 3t9 9.5t3 20q1 10 -1.5 30t-2.5 27q0 14 0.5 27t1 22.5t0.5 15.5q0 11 -6 14t-12 -9q-8 -15 -17 -45q-6 -23 -17 -47.5t-14 -36.5zM965 240q0 -4 2.5 -7.5t6.5 -5.5t9 -2q8 0 8 15q0 8 -7.5 14 t-16.5 6q-2 0 -2.5 -2t0 -9t0.5 -9z" />
<glyph unicode="&#xbf;" horiz-adv-x="698" d="M20 123q0 93 35 162q3 6 10.5 22t12 25t11.5 22t15 23.5t17 19.5q8 9 25 25t28 28.5t21 30.5q2 3 13 22t17 30.5t12.5 28.5t6.5 28q0 20 7 54t7 54q0 18 8.5 29t26.5 15t29.5 5t33.5 1q29 0 43 -0.5t36 -5t32 -13t18.5 -25.5t8.5 -42l-5 -41q0 -5 -2.5 -36t-3.5 -34 q-30 -97 -55 -133q-3 -4 -7.5 -11t-7.5 -11.5t-7.5 -10t-8.5 -8.5q-26 -21 -44 -65.5t-27 -57.5q-15 -23 -15 -96q0 -14 -2 -38.5t-2 -33.5q0 -62 8 -79q12 -23 47 -23q46 0 46 71q0 14 -2 44.5t-1.5 49t4 40t16 32t34.5 10.5q14 0 33 7.5t36 7.5q13 0 43 -2t39 -2 q58 0 58 -39q0 -9 3 -23t3 -28v-56q0 -28 3.5 -63.5t2 -63t-11.5 -71.5q-10 -48 -47 -99q-27 -35 -79.5 -52t-88.5 -17q-34 0 -101.5 3t-101.5 3q-61 0 -80 8q-12 4 -24 10t-25.5 13.5t-22.5 11.5q-18 8 -32.5 30t-20 37.5t-14.5 44.5q-3 10 -3 22t1.5 34.5t1.5 42.5 q0 10 -5.5 55.5t-5.5 77.5zM219 954q0 31 -2 53t-3.5 29.5t-0.5 23t6 42.5q3 18 19 35t32 20q8 5 39.5 2.5t38.5 -2.5q16 0 76 6q67 3 90 -47q4 -7 4 -19t-2 -32t-2 -33q0 -12 3 -44.5t3 -45.5q0 -8 1 -26t1 -30t-2 -16q-6 -13 -19 -27.5t-22 -13.5q-21 2 -39 2t-47 -1 t-57 -1q-35 0 -80 15q-28 9 -31 24q-6 25 -6 86zM233 -106q-10 -6 4 -13q7 -4 15 -4q10 0 21.5 10t11.5 21q0 14 -11 14q-9 0 -20 -11.5t-21 -16.5z" />
<glyph unicode="&#xc0;" horiz-adv-x="776" d="M10 74q2 11 4 39t2 32q4 43 16.5 131.5t14.5 106.5q1 7 8.5 22.5t7.5 24.5q0 2 -3 26t-1 42q3 17 7.5 57t7.5 57q1 13 7.5 57.5t11.5 83t5 46.5q0 12 4 36.5t4 38.5q0 21 9 60.5t10 66.5q1 14 6 51.5t4 59.5q-1 20 2.5 43t9 50t7.5 44q1 9 1 29t1 29q1 11 9 20t9 14 q3 17 16 48q14 30 70 30q105 13 172 13q17 0 24.5 -11.5t4.5 -23.5q-3 -9 0.5 -15t9.5 -6q5 0 8.5 1.5t4.5 5t1.5 6t0 8.5t-0.5 8q0 8 8.5 14.5t19 8t19.5 -0.5q3 -1 10 -3.5t10.5 -4t9.5 -5t9.5 -7t7 -9t5.5 -12.5q7 -24 12.5 -76t7.5 -67q3 -16 6 -66.5t11 -76.5 q7 -27 14 -107q3 -21 10 -64t12 -76.5t5 -53.5q0 -62 8 -74t11 -29t3.5 -39t1.5 -30q4 -30 8 -88t6 -80q1 -6 12 -62t15 -116q1 -24 10.5 -71.5t12.5 -72.5q5 -67 8 -82t-7.5 -28t-29.5 -13q-4 0 -21.5 -6t-31.5 -6q-13 0 -37.5 3t-40.5 3q-5 0 -18.5 -2t-18.5 -2 q-16 0 -30 3.5t-23 7.5t-17 13.5t-12.5 15.5t-9 19.5t-6 19t-5 21t-4.5 19.5q-7 29 -20 44t-41 15q-10 0 -38.5 -3t-33.5 -7q-9 -7 -15 -15t-9.5 -13t-6 -17t-3 -15t-2 -19.5t-1.5 -18.5q-3 -20 -6 -32t-14.5 -25t-30.5 -13h-65q-1 0 -12 -3t-23 -3q-82 0 -92 10 q-10 8 -10 29q0 5 -7.5 14t-5.5 23zM193 1708q0 31 61 31q22 1 52 -9t50 -10q26 0 45 -30q46 -90 58 -125q4 -16 12 -30.5t8 -18.5q0 -13 -7 -20t-14.5 -8t-21.5 -1.5t-20 -1.5q-42 -5 -70 8q-16 8 -16 29q0 4 -6 22q-5 10 -12 8t-15 2q-3 2 -13 12.5t-21 22t-13 13.5 l-17.5 34t-29.5 41q-10 8 -10 31zM324 555q0 -5 -0.5 -18.5t-0.5 -21t1 -19.5t4 -18.5t8 -14t13.5 -11t19.5 -3.5q41 0 41 55q0 11 -4.5 32.5t-4.5 34.5q0 10 1 24t1.5 24.5t0 24t-2.5 24.5q-1 3 -6 14t-6 27q0 1 -2 20t-2 25q0 5 -3.5 8t-7 4.5t-5.5 1.5q-15 0 -23 -10 t-8 -25q0 -32 -8 -96l-3 -23.5t-3 -58.5zM455 1331q0 -7 2.5 -8.5t11.5 -1.5q12 0 12 10q0 2 0.5 6t0.5 6.5t-1 5t-3 4t-5 1.5q-7 0 -12.5 -7.5t-5.5 -15.5zM606 715q0 -15 6 -15q3 0 5.5 2.5t4 7.5t1.5 11q0 10 -3.5 20.5t-7.5 10.5q-6 0 -7.5 -6t0 -18t1.5 -13z" />
<glyph unicode="&#xc1;" horiz-adv-x="776" d="M10 74q2 11 4 39t2 32q4 43 16.5 131.5t14.5 106.5q1 7 8.5 22.5t7.5 24.5q0 2 -3 26t-1 42q3 17 7.5 57t7.5 57q1 13 7.5 57.5t11.5 83t5 46.5q0 12 4 36.5t4 38.5q0 21 9 60.5t10 66.5q1 14 6 51.5t4 59.5q-1 20 2.5 43t9 50t7.5 44q1 9 1 29t1 29q1 11 9 20t9 14 q3 17 16 48q14 30 70 30q105 13 172 13q17 0 24.5 -11.5t4.5 -23.5q-3 -9 0.5 -15t9.5 -6q5 0 8.5 1.5t4.5 5t1.5 6t0 8.5t-0.5 8q0 8 8.5 14.5t19 8t19.5 -0.5q3 -1 10 -3.5t10.5 -4t9.5 -5t9.5 -7t7 -9t5.5 -12.5q7 -24 12.5 -76t7.5 -67q3 -16 6 -66.5t11 -76.5 q7 -27 14 -107q3 -21 10 -64t12 -76.5t5 -53.5q0 -62 8 -74t11 -29t3.5 -39t1.5 -30q4 -30 8 -88t6 -80q1 -6 12 -62t15 -116q1 -24 10.5 -71.5t12.5 -72.5q5 -67 8 -82t-7.5 -28t-29.5 -13q-4 0 -21.5 -6t-31.5 -6q-13 0 -37.5 3t-40.5 3q-5 0 -18.5 -2t-18.5 -2 q-16 0 -30 3.5t-23 7.5t-17 13.5t-12.5 15.5t-9 19.5t-6 19t-5 21t-4.5 19.5q-7 29 -20 44t-41 15q-10 0 -38.5 -3t-33.5 -7q-9 -7 -15 -15t-9.5 -13t-6 -17t-3 -15t-2 -19.5t-1.5 -18.5q-3 -20 -6 -32t-14.5 -25t-30.5 -13h-65q-1 0 -12 -3t-23 -3q-82 0 -92 10 q-10 8 -10 29q0 5 -7.5 14t-5.5 23zM299 1511q0 18 16 47.5t17 43.5q1 11 10 32.5t12 32.5q10 42 29 54t70 12q27 0 36 -7q4 -3 -2.5 -13.5t0.5 -14.5q3 -2 9.5 2t16 11t15.5 9q19 6 26.5 -10t-1.5 -33q-11 -28 -40.5 -65t-39.5 -53q-4 -6 -12.5 -20t-13 -20t-13 -15.5 t-18 -14t-21.5 -6.5q-10 -1 -20.5 -1t-17 1.5t-16 2.5t-17.5 1q-10 0 -17.5 6.5t-7.5 17.5zM324 555q0 -5 -0.5 -18.5t-0.5 -21t1 -19.5t4 -18.5t8 -14t13.5 -11t19.5 -3.5q41 0 41 55q0 11 -4.5 32.5t-4.5 34.5q0 10 1 24t1.5 24.5t0 24t-2.5 24.5q-1 3 -6 14t-6 27 q0 1 -2 20t-2 25q0 5 -3.5 8t-7 4.5t-5.5 1.5q-15 0 -23 -10t-8 -25q0 -32 -8 -96l-3 -23.5t-3 -58.5zM455 1331q0 -7 2.5 -8.5t11.5 -1.5q12 0 12 10q0 2 0.5 6t0.5 6.5t-1 5t-3 4t-5 1.5q-7 0 -12.5 -7.5t-5.5 -15.5zM606 715q0 -15 6 -15q3 0 5.5 2.5t4 7.5t1.5 11 q0 10 -3.5 20.5t-7.5 10.5q-6 0 -7.5 -6t0 -18t1.5 -13z" />
<glyph unicode="&#xc2;" horiz-adv-x="776" d="M10 74q2 11 4 39t2 32q4 43 16.5 131.5t14.5 106.5q1 7 8.5 22.5t7.5 24.5q0 2 -3 26t-1 42q3 17 7.5 57t7.5 57q1 13 7.5 57.5t11.5 83t5 46.5q0 12 4 36.5t4 38.5q0 21 9 60.5t10 66.5q1 14 6 51.5t4 59.5q-1 20 2.5 43t9 50t7.5 44q1 9 1 29t1 29q1 11 9 20t9 14 q3 17 16 48q14 30 70 30q105 13 172 13q17 0 24.5 -11.5t4.5 -23.5q-3 -9 0.5 -15t9.5 -6q5 0 8.5 1.5t4.5 5t1.5 6t0 8.5t-0.5 8q0 8 8.5 14.5t19 8t19.5 -0.5q3 -1 10 -3.5t10.5 -4t9.5 -5t9.5 -7t7 -9t5.5 -12.5q7 -24 12.5 -76t7.5 -67q3 -16 6 -66.5t11 -76.5 q7 -27 14 -107q3 -21 10 -64t12 -76.5t5 -53.5q0 -62 8 -74t11 -29t3.5 -39t1.5 -30q4 -30 8 -88t6 -80q1 -6 12 -62t15 -116q1 -24 10.5 -71.5t12.5 -72.5q5 -67 8 -82t-7.5 -28t-29.5 -13q-4 0 -21.5 -6t-31.5 -6q-13 0 -37.5 3t-40.5 3q-5 0 -18.5 -2t-18.5 -2 q-16 0 -30 3.5t-23 7.5t-17 13.5t-12.5 15.5t-9 19.5t-6 19t-5 21t-4.5 19.5q-7 29 -20 44t-41 15q-10 0 -38.5 -3t-33.5 -7q-9 -7 -15 -15t-9.5 -13t-6 -17t-3 -15t-2 -19.5t-1.5 -18.5q-3 -20 -6 -32t-14.5 -25t-30.5 -13h-65q-1 0 -12 -3t-23 -3q-82 0 -92 10 q-10 8 -10 29q0 5 -7.5 14t-5.5 23zM180 1503q0 12 4 24.5t7.5 19t13.5 24.5q4 8 12 26t15.5 30.5t17.5 19.5t17.5 18t13 22l6.5 13q6 8 12.5 14t11.5 10t11 6.5t10 4t10 2t9 0.5h10h10q23 0 41 -7.5t28 -7.5q12 0 28 -8.5t26 -21.5q11 -14 23.5 -35t25.5 -42.5t26 -37.5 q10 -13 20.5 -36t10.5 -32q0 -20 -31 -24q-60 -5 -80 0t-43 28q-8 8 -17.5 19.5t-14.5 16t-13 8.5t-18 4q-6 0 -10.5 -3t-6.5 -5.5t-6.5 -9.5t-5.5 -9q-14 -22 -28 -33q-14 -14 -41 -14q-5 0 -18 -2.5t-20.5 -2.5t-19.5 3q-1 0 -9.5 0.5t-16.5 1.5t-14.5 5t-6.5 11zM324 555 q0 -5 -0.5 -18.5t-0.5 -21t1 -19.5t4 -18.5t8 -14t13.5 -11t19.5 -3.5q41 0 41 55q0 11 -4.5 32.5t-4.5 34.5q0 11 1.5 30.5t1.5 35.5t-3 31q-1 3 -6 14t-6 27q0 1 -2 20t-2 25q0 5 -3.5 8t-7 4.5t-5.5 1.5q-15 0 -23 -10t-8 -25q0 -32 -8 -96l-3 -23.5t-3 -58.5zM455 1331 q0 -7 2.5 -8.5t11.5 -1.5q12 0 12 10q0 2 0.5 6t0.5 6.5t-1 5t-3 4t-5 1.5q-7 0 -12.5 -7.5t-5.5 -15.5zM606 715q0 -15 6 -15q3 0 5.5 2.5t4 7.5t1.5 11q0 10 -3.5 20.5t-7.5 10.5q-6 0 -7.5 -6t0 -18t1.5 -13z" />
<glyph unicode="&#xc3;" horiz-adv-x="776" d="M10 74q2 11 4 39t2 32q4 43 16.5 131.5t14.5 106.5q1 7 8.5 22.5t7.5 24.5q0 2 -3 26t-1 42q3 17 7.5 57t7.5 57q1 13 7.5 57.5t11.5 83t5 46.5q0 12 4 36.5t4 38.5q0 21 9 60.5t10 66.5q1 14 6 51.5t4 59.5q-1 20 2.5 43t9 50t7.5 44q1 9 1 29t1 29q1 11 9 20t9 14 q3 17 16 48q14 30 70 30q105 13 172 13q17 0 24.5 -11.5t4.5 -23.5q-3 -9 0.5 -15t9.5 -6q5 0 8.5 1.5t4.5 5t1.5 6t0 8.5t-0.5 8q0 8 8.5 14.5t19 8t19.5 -0.5q3 -1 10 -3.5t10.5 -4t9.5 -5t9.5 -7t7 -9t5.5 -12.5q7 -24 12.5 -76t7.5 -67q3 -16 6 -66.5t11 -76.5 q7 -27 14 -107q3 -21 10 -64t12 -76.5t5 -53.5q0 -62 8 -74t11 -29t3.5 -39t1.5 -30q4 -30 8 -88t6 -80q1 -6 12 -62t15 -116q1 -24 10.5 -71.5t12.5 -72.5q5 -67 8 -82t-7.5 -28t-29.5 -13q-4 0 -21.5 -6t-31.5 -6q-13 0 -37.5 3t-40.5 3q-5 0 -18.5 -2t-18.5 -2 q-16 0 -30 3.5t-23 7.5t-17 13.5t-12.5 15.5t-9 19.5t-6 19t-5 21t-4.5 19.5q-7 29 -20 44t-41 15q-10 0 -38.5 -3t-33.5 -7q-9 -7 -15 -15t-9.5 -13t-6 -17t-3 -15t-2 -19.5t-1.5 -18.5q-3 -20 -6 -32t-14.5 -25t-30.5 -13h-65q-1 0 -12 -3t-23 -3q-82 0 -92 10 q-10 8 -10 29q0 5 -7.5 14t-5.5 23zM158 1565q-3 32 22 75q43 68 129 68q50 0 72 -20q25 -25 37 -25q39 0 57 4q13 3 41 24t57 21q7 0 18.5 -6t18.5 -6q2 0 5.5 -4t7 -9t6 -10.5t2.5 -9.5q0 -35 -6 -47q-18 -44 -37 -70q-36 -43 -148 -43q-19 0 -34 4.5t-32 13.5t-26 13 l-12 6t-23 6q-15 0 -30 -6.5t-21 -15.5q-15 -21 -55 -21q-6 0 -14.5 6t-12.5 15q-2 4 -7.5 10.5t-9.5 13t-5 13.5zM324 555q0 -5 -0.5 -18.5t-0.5 -21t1 -19.5t4 -18.5t8 -14t13.5 -11t19.5 -3.5q41 0 41 55q0 11 -4.5 32.5t-4.5 34.5q0 10 1 24t1.5 24.5t0 24t-2.5 24.5 q-1 3 -6 14t-6 27q0 1 -2 20t-2 25q0 5 -3.5 8t-7 4.5t-5.5 1.5q-15 0 -23 -10t-8 -25q0 -32 -8 -96l-3 -23.5t-3 -58.5zM418 1612q0 -10 14 -10q9 0 15 5t6 13q0 2 -1.5 3t-4 1.5t-5.5 0.5h-7t-7 1q-6 3 -8.5 0.5t-2.5 -4t0.5 -5.5t0.5 -5zM455 1331q0 -7 2.5 -8.5 t11.5 -1.5q12 0 12 10q0 2 0.5 6t0.5 6.5t-1 5t-3 4t-5 1.5q-7 0 -12.5 -7.5t-5.5 -15.5zM606 715q0 -15 6 -15q3 0 5.5 2.5t4 7.5t1.5 11q0 10 -3.5 20.5t-7.5 10.5q-6 0 -7.5 -6t0 -18t1.5 -13z" />
<glyph unicode="&#xc4;" horiz-adv-x="776" d="M10 74q2 11 4 39t2 32q4 43 16.5 131.5t14.5 106.5q1 7 8.5 22.5t7.5 24.5q0 2 -3 26t-1 42q3 17 7.5 57t7.5 57q1 13 7.5 57.5t11.5 83t5 46.5q0 12 4 36.5t4 38.5q0 21 9 60.5t10 66.5q1 14 6 51.5t4 59.5q-1 20 2.5 43t9 50t7.5 44q1 9 1 29t1 29q1 11 9 20t9 14 q3 17 16 48q14 30 70 30q105 13 172 13q17 0 24.5 -11.5t4.5 -23.5q-3 -9 0.5 -15t9.5 -6q5 0 8.5 1.5t4.5 5t1.5 6t0 8.5t-0.5 8q0 8 8.5 14.5t19 8t19.5 -0.5q3 -1 10 -3.5t10.5 -4t9.5 -5t9.5 -7t7 -9t5.5 -12.5q7 -24 12.5 -76t7.5 -67q3 -16 6 -66.5t11 -76.5 q7 -27 14 -107q3 -21 10 -64t12 -76.5t5 -53.5q0 -62 8 -74t11 -29t3.5 -39t1.5 -30q4 -30 8 -88t6 -80q1 -6 12 -62t15 -116q1 -24 10.5 -71.5t12.5 -72.5q5 -67 8 -82t-7.5 -28t-29.5 -13q-4 0 -21.5 -6t-31.5 -6q-13 0 -37.5 3t-40.5 3q-5 0 -18.5 -2t-18.5 -2 q-16 0 -30 3.5t-23 7.5t-17 13.5t-12.5 15.5t-9 19.5t-6 19t-5 21t-4.5 19.5q-7 29 -20 44t-41 15q-10 0 -38.5 -3t-33.5 -7q-9 -7 -15 -15t-9.5 -13t-6 -17t-3 -15t-2 -19.5t-1.5 -18.5q-3 -20 -6 -32t-14.5 -25t-30.5 -13h-65q-1 0 -12 -3t-23 -3q-82 0 -92 10 q-10 8 -10 29q0 5 -7.5 14t-5.5 23zM139 1546q0 10 -3 33.5t-4.5 44t-0.5 41.5t11 35t28 16q15 1 51.5 -2.5t48.5 0.5q8 1 23 -0.5t20 -1.5q27 0 39.5 -15t12 -37.5t0 -49.5t2.5 -51q5 -23 -12.5 -37.5t-51.5 -14.5q-19 0 -41 9q-2 2 -6 1t-6.5 -2t-8 -3.5t-10.5 -4.5 q-7 -4 -19 -2t-18.5 4.5t-17.5 6.5t-16 6q-8 2 -14.5 9.5t-6.5 14.5zM324 555q0 -5 -0.5 -18.5t-0.5 -21t1 -19.5t4 -18.5t8 -14t13.5 -11t19.5 -3.5q41 0 41 55q0 11 -4.5 32.5t-4.5 34.5q0 10 1 24t1.5 24.5t0 24t-2.5 24.5q-1 3 -6 14t-6 27q0 1 -2 20t-2 25q0 5 -3.5 8 t-7 4.5t-5.5 1.5q-15 0 -23 -10t-8 -25q0 -32 -8 -96l-3 -23.5t-3 -58.5zM418 1610q0 6 -0.5 17t-0.5 18t1 15.5t3 15.5t5 12q22 28 41 28q30 1 48 -0.5t28.5 -3.5t21.5 -2q8 0 20.5 1t20.5 1q6 0 11 -2.5t8.5 -7t5.5 -10t2 -11.5q0 -9 3 -25.5t3 -25.5q0 -13 4 -63 q2 -24 -14.5 -42t-40.5 -18q-13 0 -45 -1.5t-52 0t-42 7.5q-4 1 -14 10.5t-13 14.5q-6 7 -7 17t1 27.5t2 27.5zM455 1331q0 -7 2.5 -8.5t11.5 -1.5q12 0 12 10q0 2 0.5 6t0.5 6.5t-1 5t-3 4t-5 1.5q-7 0 -12.5 -7.5t-5.5 -15.5zM586 1616q0 -10 14 -10q3 0 7.5 2.5t4.5 5.5 q0 6 -3.5 12t-8.5 0q-3 -4 -8.5 -5t-5.5 -5zM606 715q0 -15 6 -15q3 0 5.5 2.5t4 7.5t1.5 11q0 10 -3.5 20.5t-7.5 10.5q-6 0 -7.5 -6t0 -18t1.5 -13z" />
<glyph unicode="&#xc5;" horiz-adv-x="776" d="M10 74q2 11 4 39t2 32q4 43 16.5 131.5t14.5 106.5q1 7 8.5 22.5t7.5 24.5q0 2 -3 26t-1 42q3 17 7.5 57t7.5 57q1 13 7.5 57.5t11.5 83t5 46.5q0 12 4 36.5t4 38.5q0 21 9 60.5t10 66.5q1 14 6 51.5t4 59.5q-1 20 2.5 43t9 50t7.5 44q1 9 1 29t1 29q1 11 9 20t9 14 q3 17 16 48q14 30 70 30q105 13 172 13q17 0 24.5 -11.5t4.5 -23.5q-3 -9 0.5 -15t9.5 -6q5 0 8.5 1.5t4.5 5t1.5 6t0 8.5t-0.5 8q0 8 8.5 14.5t19 8t19.5 -0.5q3 -1 10 -3.5t10.5 -4t9.5 -5t9.5 -7t7 -9t5.5 -12.5q7 -24 12.5 -76t7.5 -67q3 -16 6 -66.5t11 -76.5 q7 -27 14 -107q3 -21 10 -64t12 -76.5t5 -53.5q0 -62 8 -74t11 -29t3.5 -39t1.5 -30q4 -30 8 -88t6 -80q1 -6 12 -62t15 -116q1 -24 10.5 -71.5t12.5 -72.5q5 -67 8 -82t-7.5 -28t-29.5 -13q-4 0 -21.5 -6t-31.5 -6q-13 0 -37.5 3t-40.5 3q-5 0 -18.5 -2t-18.5 -2 q-16 0 -30 3.5t-23 7.5t-17 13.5t-12.5 15.5t-9 19.5t-6 19t-5 21t-4.5 19.5q-7 29 -20 44t-41 15q-10 0 -38.5 -3t-33.5 -7q-9 -7 -15 -15t-9.5 -13t-6 -17t-3 -15t-2 -19.5t-1.5 -18.5q-3 -20 -6 -32t-14.5 -25t-30.5 -13h-65q-1 0 -12 -3t-23 -3q-82 0 -92 10 q-10 8 -10 29q0 5 -7.5 14t-5.5 23zM225 1638q0 37 35 72q29 32 57.5 49t67.5 17q54 0 104 -46.5t50 -103.5q0 -13 -10 -33.5t-13 -33.5q-7 -28 -53.5 -52t-77.5 -24q-22 0 -47.5 9t-32.5 11q-33 7 -56.5 50.5t-23.5 84.5zM324 555q0 -5 -0.5 -18.5t-0.5 -21t1 -19.5 t4 -18.5t8 -14t13.5 -11t19.5 -3.5q41 0 41 55q0 11 -4.5 32.5t-4.5 34.5q0 10 1 24t1.5 24.5t0 24t-2.5 24.5q-1 3 -6 14t-6 27q0 1 -2 20t-2 25q0 5 -3.5 8t-7 4.5t-5.5 1.5q-15 0 -23 -10t-8 -25q0 -32 -8 -96l-3 -23.5t-3 -58.5zM340 1620q0 -22 11.5 -30.5t33.5 -8.5 t34.5 14t12.5 37q0 16 -12.5 30.5t-30.5 14.5t-33.5 -19t-15.5 -38zM455 1331q0 -7 2.5 -8.5t11.5 -1.5q12 0 12 10q0 2 0.5 6t0.5 6.5t-1 5t-3 4t-5 1.5q-7 0 -12.5 -7.5t-5.5 -15.5zM606 715q0 -15 6 -15q3 0 5.5 2.5t4 7.5t1.5 11q0 10 -3.5 20.5t-7.5 10.5q-6 0 -7.5 -6 t0 -18t1.5 -13z" />
<glyph unicode="&#xc6;" horiz-adv-x="1034" d="M12 43q0 17 7 48.5t8 41.5q5 30 20.5 84.5t20.5 77.5q3 15 4.5 38.5t3.5 28.5q1 5 6 15.5t6 15.5q3 14 10 39t11 46.5t4 41.5q0 12 3.5 23t10 24.5t8.5 20.5q11 34 24.5 109.5t20.5 103.5q4 17 11.5 39.5t12 42.5t7.5 45q2 26 10 52t10 46q0 5 -1 15t-1 14q2 11 11.5 29 t11.5 30q1 5 16.5 70.5t18.5 75.5q4 15 8.5 44.5t8.5 48t17.5 39t36.5 31.5q13 6 63 11.5t68 5.5q15 0 85.5 -6.5t78.5 -6.5q9 0 23 -11t20 -11q8 0 20 10t17 12q9 3 193 3q16 0 25 -2.5t12.5 -5.5t10 -10t15.5 -13q8 -6 12 -15.5t5 -14t0.5 -20t-0.5 -16.5q0 -10 1.5 -40 t0 -50.5t-6.5 -38.5q-5 -16 -21 -31.5t-30 -15.5q-3 0 -30 -2t-44 -2.5t-30 2.5q0 5 -23.5 1.5t-25.5 -3.5q-14 0 -27.5 -13t-13.5 -28q0 -8 1 -23.5t1 -28.5t-2 -24q-3 -19 -3 -40.5t1.5 -48t1.5 -40.5q0 -9 17.5 -16.5t29.5 -7.5q7 0 55.5 -2t56.5 -2q35 0 35 -60 q0 -9 -1 -31.5t-1 -31.5q0 -7 3 -32t-1 -26q-3 -9 -6.5 -24.5t-7.5 -24.5t-12 -16q-10 -10 -25.5 -13t-29 -2t-29.5 -2q-57 -8 -74 -34q-16 -24 -16 -31q0 -15 -10 -24t-19.5 -13.5t-9.5 -7.5q0 -9 19.5 -15t19.5 -20q0 -5 3 -31t3 -32q0 -96 6 -107q9 -13 23.5 -16.5 t44 -0.5t38.5 3h76q28 2 49 -33q1 -2 8.5 -9.5t11 -13.5t3.5 -12q0 -22 -2 -68t-2 -69q0 -20 -19 -47t-32 -23q-21 5 -29.5 3.5t-26 -5.5t-33.5 -4q-30 0 -90 -2t-90 -2t-88 2t-88 2q-22 0 -41.5 12t-19.5 27q0 17 -2 51.5t-2 53.5q0 6 -11.5 15t-15.5 15q-3 5 -16 5 t-34 -2.5t-30 -2.5q-18 0 -31 -12.5t-17.5 -24t-10.5 -32.5q-2 -6 -6 -5t-9.5 3.5t-10 5t-8 0.5t-3.5 -9q0 -9 14 -18.5t14 -19.5q0 -37 -33 -52.5t-73 -15.5q-24 0 -69 3t-62 3q-27 0 -27 37zM369 500q0 -39 30 -39q39 0 45.5 17.5t6.5 92.5q0 4 -1 15.5t-1 22.5t2 20 q2 15 0.5 33t-4.5 34l-3 15q-2 21 -17.5 22.5t-20.5 -22.5q-13 -61 -21 -119q-1 -11 -8.5 -42.5t-7.5 -49.5zM498 1245q0 -5 7 -12.5t11 -7.5q16 0 28 3.5t16.5 7.5t4.5 7q0 6 -7.5 8.5t-22.5 4t-23 4.5t-11 -3t-3 -12zM659 512q0 -12 23 -12q4 0 5.5 0.5t3 2.5t1.5 7 q0 3 -10 9.5t-14 6.5q-3 0 -6 -5.5t-3 -8.5zM659 731q0 -20 15 -20q8 0 10 2.5t2 11.5q0 5 -7.5 12.5t-14.5 7.5q-4 0 -5.5 -2t-0.5 -7zM801 825q0 -8 16 -8q10 0 10 8q0 6 -10 6q-16 0 -16 -6z" />
<glyph unicode="&#xc7;" horiz-adv-x="780" d="M33 432q0 7 3 43t3 51q0 22 1 98.5t1 96.5q0 5 -5.5 112t1.5 142q3 44 2.5 76.5t-2.5 72.5t-2 45q0 70 20 129q43 115 193 142q34 4 49.5 3.5t37 -3t32.5 -2.5q2 0 10 1.5t26.5 3t45.5 1.5q51 0 86 -6q65 -13 116 -49q42 -32 62 -111q10 -40 10 -61q0 -2 6 -16.5t6 -35.5 q0 -3 -3 -13t-3 -13q0 -8 -12 -17.5t-12 -21.5q0 -4 14.5 -11.5t15.5 -17.5q6 -69 0 -139q-3 -33 -37 -33q-11 0 -23 5t-18 5q-5 0 -14.5 -5.5t-15.5 -6.5q-27 -4 -113 -4q-26 3 -40 28.5t-11 47.5q6 14 1 55.5t-5 56.5q0 46 -10 54q-15 12 -60 12q-31 0 -44 -11.5 t-13 -41.5q0 -26 3 -75t3 -75q0 -13 -4 -37t-4 -33q0 -11 3.5 -38t2.5 -43q-4 -36 -1.5 -145.5t1.5 -145.5q-1 -54 4.5 -119.5t5.5 -71.5q0 -13 15 -21.5t30 -8.5q21 0 33 5t20 21q2 4 8.5 10t10.5 14.5t4 22.5q0 50 0.5 85t1 50.5t0.5 16.5q0 7 -3 23t-3 24q0 42 24 49 q20 6 70 6q20 0 37.5 5.5t32.5 7.5q5 3 32 1.5t33 -1.5q14 0 30.5 -21.5t16.5 -36.5q0 -75 -6 -114q-2 -14 -18.5 -22t-16.5 -11q0 -16 16.5 -22t18.5 -13q2 -16 1 -40t-3 -64.5t-2 -55.5q0 -49 -22 -88q-32 -64 -50 -82q-22 -22 -69.5 -38.5t-89.5 -16.5q-12 0 -35 1t-35 1 q-14 0 -19 -16t7 -25q4 -3 46.5 -12t72.5 -31q7 -5 36 -39q9 -12 2 -51q-6 -29 -34.5 -53t-85.5 -29q-4 -1 -18 -5.5t-23 -4.5q-84 0 -144 14q-25 6 -48 21t-23 34q0 43 26 43q4 0 16.5 3t20.5 3q3 0 21 -1t22 -1q24 0 27 -8q7 -18 39 -18q28 0 28 22q0 16 -6 22t-21.5 9.5 t-21.5 5.5q-14 6 -23.5 24.5t-9.5 39.5q0 28 -9 40.5t-38 16.5q-68 8 -86 29q-9 9 -31 18t-30 14q-12 9 -22 21.5t-15.5 20.5t-11.5 28.5t-7.5 26.5t-7 33.5t-6.5 31.5q-23 97 -16 144q3 8 0.5 34.5t-2.5 28.5zM201 586q0 -12 14 -8q4 2 11 3t11.5 2t4.5 3q0 16 -23 16 q-18 0 -18 -16zM645 437.5q-7 -9.5 0.5 -18t18 -9.5t14.5 4q2 11 -12 22t-21 1.5z" />
<glyph unicode="&#xc8;" horiz-adv-x="626" d="M41 342q-3 6 2 39t2 59q-4 56 -3.5 88.5t3 106t2.5 119.5q0 14 -3 71.5t-1 79.5q1 13 -1 37.5t-1 36.5q6 54 6 137q0 8 12 12t13 5q12 12 -6 12q-1 0 -4 -0.5t-5.5 -0.5t-5.5 2t-4 5q-6 18 -6 29q0 1 -1 12.5t-1 25.5t2 29q3 27 0 48.5t-1 47.5t13 46q21 43 74 43 q5 0 29 1.5t46 2t60 -1.5q27 -2 71 1.5t54 0.5q13 -4 25.5 -4t25 2t17.5 2h65q23 -6 33.5 -9.5t23.5 -15.5t13 -29q0 -8 4 -49.5t4 -48.5q0 -13 -3 -40t-3 -42q0 -20 -41 -41q-13 -6 -27.5 -7t-34.5 1t-30 2q-7 0 -37 -7t-35 -7q-17 0 -27 -8t-14 -27t-5 -30.5t0 -39.5 t1 -34q0 -7 2 -44t2 -45q0 -6 11.5 -18t23.5 -12q11 0 34 -2t36 -2q9 0 26.5 -2t26.5 -2t17.5 -10.5t8.5 -22.5q0 -16 5.5 -72t-0.5 -92q-3 -39 -25 -51q-8 -5 -24 -7t-29 -2t-33.5 0.5t-26.5 0.5q-11 0 -29.5 -19.5t-21.5 -32.5q-4 -19 0 -62.5t0 -60.5q-2 -12 2 -66t4 -58 q0 -23 29 -31q4 -1 31 -0.5t51 -1.5q39 -3 78 0q16 2 36.5 -19.5t20.5 -42.5q0 -10 2 -66.5t2 -68.5q0 -17 -16 -39q-22 -26 -39 -37q-2 -2 -35.5 -6t-70.5 -6t-62 2q-23 4 -67.5 -1.5t-61.5 -2.5q-15 2 -62 2t-71 6q-3 1 -11.5 2.5t-14.5 3t-13 5t-12 8.5q-7 7 -11 15 t-4.5 13.5t-1.5 16t-2 16.5q-5 34 -5 107.5t7 95.5q4 7 2.5 17t-2 13.5t-4 10.5t-4.5 8zM88 1149q0 -8 19 1q7 3 10 3q16 0 16 12q0 11 -16 11q-6 0 -17.5 -11t-11.5 -16zM117 373q0 -5 10 -12t20 -7q11 0 11 6q0 9 -4.5 13t-12 5.5t-8.5 2.5q-7 4 -11.5 0.5t-4.5 -8.5z M133 1708q0 31 62 31q22 1 52.5 -9t49.5 -10q26 0 45 -30q43 -85 57 -125q4 -16 12.5 -30.5t8.5 -18.5q0 -13 -7 -20t-15 -8t-22 -1.5t-20 -1.5q-41 -5 -69 8q-17 9 -17 29q0 4 -6 22q-5 10 -11.5 8t-14.5 2l-48 48l-18 34q-17 34 -29 41q-10 7 -10 31z" />
<glyph unicode="&#xc9;" horiz-adv-x="626" d="M41 342q-3 6 2 39t2 59q-4 56 -3.5 88.5t3 106t2.5 119.5q0 14 -3 71.5t-1 79.5q1 13 -1 37.5t-1 36.5q6 54 6 137q0 8 12 12t13 5q12 12 -6 12q-1 0 -4 -0.5t-5.5 -0.5t-5.5 2t-4 5q-6 18 -6 29q0 1 -1 12.5t-1 25.5t2 29q3 27 0 48.5t-1 47.5t13 46q21 43 74 43 q5 0 29 1.5t46 2t60 -1.5q27 -2 71 1.5t54 0.5q13 -4 25.5 -4t25 2t17.5 2h65q23 -6 33.5 -9.5t23.5 -15.5t13 -29q0 -8 4 -49.5t4 -48.5q0 -13 -3 -40t-3 -42q0 -20 -41 -41q-13 -6 -27.5 -7t-34.5 1t-30 2q-7 0 -37 -7t-35 -7q-17 0 -27 -8t-14 -27t-5 -30.5t0 -39.5 t1 -34q0 -7 2 -44t2 -45q0 -6 11.5 -18t23.5 -12q11 0 34 -2t36 -2q9 0 26.5 -2t26.5 -2t17.5 -10.5t8.5 -22.5q0 -16 5.5 -72t-0.5 -92q-3 -39 -25 -51q-8 -5 -24 -7t-29 -2t-33.5 0.5t-26.5 0.5q-11 0 -29.5 -19.5t-21.5 -32.5q-4 -19 0 -62.5t0 -60.5q-2 -12 2 -66t4 -58 q0 -23 29 -31q4 -1 31 -0.5t51 -1.5q39 -3 78 0q16 2 36.5 -19.5t20.5 -42.5q0 -10 2 -66.5t2 -68.5q0 -17 -16 -39q-22 -26 -39 -37q-2 -2 -35.5 -6t-70.5 -6t-62 2q-23 4 -67.5 -1.5t-61.5 -2.5q-15 2 -62 2t-71 6q-3 1 -11.5 2.5t-14.5 3t-13 5t-12 8.5q-7 7 -11 15 t-4.5 13.5t-1.5 16t-2 16.5q-5 34 -5 107.5t7 95.5q4 7 2.5 17t-2 13.5t-4 10.5t-4.5 8zM88 1149q0 -8 19 1q7 3 10 3q16 0 16 12q0 11 -16 11q-6 0 -17.5 -11t-11.5 -16zM117 373q0 -5 10 -12t20 -7q11 0 11 6q0 9 -4.5 13t-12 5.5t-8.5 2.5q-7 4 -11.5 0.5t-4.5 -8.5z M240 1511q0 18 15.5 47.5t16.5 43.5q1 11 10.5 32.5t12.5 32.5q10 42 28.5 54t69.5 12q28 0 37 -7q4 -3 -2.5 -13.5t0.5 -14.5q3 -2 9.5 2t16 11t15.5 9q19 6 26.5 -10t-1.5 -33q-11 -28 -40.5 -65t-39.5 -53q-1 -2 -14.5 -23.5t-18 -26.5t-17.5 -14.5t-28 -11.5 q-18 -2 -41 1t-31 3q-10 0 -17 6.5t-7 17.5z" />
<glyph unicode="&#xca;" horiz-adv-x="626" d="M41 342q-3 6 2 39t2 59q-4 56 -3.5 88.5t3 106t2.5 119.5q0 14 -3 71.5t-1 79.5q1 13 -1 37.5t-1 36.5q6 54 6 137q0 8 12 12t13 5q12 12 -6 12q-1 0 -4 -0.5t-5.5 -0.5t-5.5 2t-4 5q-6 18 -6 29q0 1 -1 12.5t-1 25.5t2 29q3 27 0 48.5t-1 47.5t13 46q21 43 74 43 q5 0 29 1.5t46 2t60 -1.5q27 -2 71 1.5t54 0.5q13 -4 25.5 -4t25 2t17.5 2h65q23 -6 33.5 -9.5t23.5 -15.5t13 -29q0 -8 4 -49.5t4 -48.5q0 -13 -3 -40t-3 -42q0 -20 -41 -41q-13 -6 -27.5 -7t-34.5 1t-30 2q-7 0 -37 -7t-35 -7q-17 0 -27 -8t-14 -27t-5 -30.5t0 -39.5 t1 -34q0 -7 2 -44t2 -45q0 -6 11.5 -18t23.5 -12q11 0 34 -2t36 -2q9 0 26.5 -2t26.5 -2t17.5 -10.5t8.5 -22.5q0 -16 5.5 -72t-0.5 -92q-3 -39 -25 -51q-8 -5 -24 -7t-29 -2t-33.5 0.5t-26.5 0.5q-11 0 -29.5 -19.5t-21.5 -32.5q-4 -19 0 -62.5t0 -60.5q-2 -12 2 -66t4 -58 q0 -23 29 -31q4 -1 31 -0.5t51 -1.5q39 -3 78 0q16 2 36.5 -19.5t20.5 -42.5q0 -10 2 -66.5t2 -68.5q0 -17 -16 -39q-22 -26 -39 -37q-2 -2 -35.5 -6t-70.5 -6t-62 2q-23 4 -67.5 -1.5t-61.5 -2.5q-15 2 -62 2t-71 6q-3 1 -11.5 2.5t-14.5 3t-13 5t-12 8.5q-7 7 -11 15 t-4.5 13.5t-1.5 16t-2 16.5q-5 34 -5 107.5t7 95.5q4 7 2.5 17t-2 13.5t-4 10.5t-4.5 8zM88 1149q0 -8 19 1q7 3 10 3q16 0 16 12q0 11 -16 11q-6 0 -17.5 -11t-11.5 -16zM117 373q0 -5 10 -12t20 -7q11 0 11 6q0 9 -4.5 13t-12 5.5t-8.5 2.5q-7 4 -11.5 0.5t-4.5 -8.5z M119 1503q0 25 24 68q4 8 12 26t15.5 30.5t17.5 19.5t17.5 18t13 22l6.5 13q7 9 14 15.5t13.5 10.5t11 6.5t12 3.5t10.5 1h12h11q23 0 41 -7.5t29 -7.5q12 0 27.5 -8.5t25.5 -21.5q13 -16 36.5 -55t39.5 -60q10 -13 20.5 -36t10.5 -32q0 -20 -31 -24q-60 -5 -80 0t-43 28 q-8 8 -17.5 19.5t-14.5 16t-13 8.5t-18 4q-6 0 -10.5 -3t-6.5 -5.5t-6.5 -9.5t-5.5 -9q-13 -20 -29 -33q-14 -14 -41 -14q-1 0 -27.5 -4t-29.5 2q-1 0 -14 0.5t-23 4.5t-10 13z" />
<glyph unicode="&#xcb;" horiz-adv-x="626" d="M41 342q-3 6 2 39t2 59q-4 56 -3.5 88.5t3 106t2.5 119.5q0 14 -3 71.5t-1 79.5q1 13 -1 37.5t-1 36.5q6 54 6 137q0 8 12 12t13 5q12 12 -6 12q-1 0 -4 -0.5t-5.5 -0.5t-5.5 2t-4 5q-6 18 -6 29q0 1 -1 12.5t-1 25.5t2 29q3 27 0 48.5t-1 47.5t13 46q21 43 74 43 q5 0 29 1.5t46 2t60 -1.5q27 -2 71 1.5t54 0.5q13 -4 25.5 -4t25 2t17.5 2h65q23 -6 33.5 -9.5t23.5 -15.5t13 -29q0 -8 4 -49.5t4 -48.5q0 -13 -3 -40t-3 -42q0 -20 -41 -41q-13 -6 -27.5 -7t-34.5 1t-30 2q-7 0 -37 -7t-35 -7q-17 0 -27 -8t-14 -27t-5 -30.5t0 -39.5 t1 -34q0 -7 2 -44t2 -45q0 -6 11.5 -18t23.5 -12q11 0 34 -2t36 -2q9 0 26.5 -2t26.5 -2t17.5 -10.5t8.5 -22.5q0 -16 5.5 -72t-0.5 -92q-3 -39 -25 -51q-8 -5 -24 -7t-29 -2t-33.5 0.5t-26.5 0.5q-11 0 -29.5 -19.5t-21.5 -32.5q-4 -19 0 -62.5t0 -60.5q-2 -12 2 -66t4 -58 q0 -23 29 -31q4 -1 31 -0.5t51 -1.5q39 -3 78 0q16 2 36.5 -19.5t20.5 -42.5q0 -10 2 -66.5t2 -68.5q0 -17 -16 -39q-22 -26 -39 -37q-2 -2 -35.5 -6t-70.5 -6t-62 2q-23 4 -67.5 -1.5t-61.5 -2.5q-15 2 -62 2t-71 6q-3 1 -11.5 2.5t-14.5 3t-13 5t-12 8.5q-7 7 -11 15 t-4.5 13.5t-1.5 16t-2 16.5q-5 34 -5 107.5t7 95.5q4 7 2.5 17t-2 13.5t-4 10.5t-4.5 8zM78 1546q0 3 -6.5 56.5t1 81.5t36.5 32q15 1 51.5 -2.5t48.5 0.5q8 1 23 -0.5t20 -1.5q27 0 39 -15t12 -38v-49.5t2 -50.5q5 -23 -12.5 -37.5t-50.5 -14.5q-18 0 -41 9q-7 1 -8 1 t-9.5 -4t-13.5 -6q-19 -1 -25.5 -1t-24.5 7.5t-22 8.5q-7 1 -13.5 8.5t-6.5 15.5zM88 1149q0 -8 19 1q7 3 10 3q16 0 16 12q0 11 -16 11q-6 0 -17.5 -11t-11.5 -16zM117 373q0 -5 10 -12t20 -7q11 0 11 6q0 9 -4.5 13t-12 5.5t-8.5 2.5q-7 4 -11.5 0.5t-4.5 -8.5zM356 1610 v17v18.5t0.5 15t3 16t5.5 11.5q22 28 41 28q39 1 64.5 -2.5t33.5 -3.5t20.5 1t20.5 1q12 0 19 -9t7 -22q0 -9 3.5 -25.5t3.5 -25.5q0 -13 4 -63q2 -24 -15 -42t-41 -18q-14 0 -36 -1t-35.5 -1.5t-32 1.5t-35.5 7q-4 1 -14 10.5t-13 14.5q-6 7 -7 17t1 27.5t2 27.5zM524 1616 q0 -10 15 -10q3 0 7.5 2.5t4.5 5.5q0 6 -3.5 12t-8.5 0q-3 -4 -9 -5t-6 -5z" />
<glyph unicode="&#xcc;" horiz-adv-x="401" d="M4 1708q0 31 62 31q22 1 52 -9t50 -10q26 0 45 -30q43 -85 57 -125q4 -16 12.5 -30.5t8.5 -18.5q0 -13 -7 -20t-15 -8t-22 -1.5t-20 -1.5q-41 -5 -69 8q-17 9 -17 29q0 4 -6 22q-5 10 -11.5 8t-14.5 2q-3 2 -13 12t-22 22.5t-13 13.5l-17 34q-18 34 -30 41q-10 7 -10 31z M47 1219q3 16 12.5 23t18 9t8.5 6q0 3 -10.5 3.5t-20.5 6.5t-8 23q2 23 2 72q0 2 0.5 9t0.5 9t1 7t2 7t2.5 6t4 6.5l6 6t8.5 6.5q23 17 43 17q9 0 25 -2.5t25.5 -3t27.5 3.5q3 4 26.5 1t28.5 -3q15 0 28.5 -8.5t18.5 -8.5q24 -1 35.5 -16t11.5 -33q0 -5 1 -27.5t1.5 -40 t-0.5 -36.5q-4 -45 -0.5 -152t0.5 -170q0 -3 2 -24t2 -31q0 -41 -2 -117t-2 -119q0 -59 3 -179t3 -181q0 -8 1.5 -25.5t1 -31t-4.5 -25.5q-4 -13 -4 -26.5t2 -30.5t2 -27q0 -6 1.5 -17.5t1.5 -20.5t-3 -17q-7 -29 -18 -45t-33 -17q-41 -3 -57.5 -2t-31 3.5t-20.5 2.5 q-7 0 -22.5 -5t-22.5 -5q-35 0 -59 15t-27 48q-8 108 -4 162q3 63 2 100.5t-4.5 74.5t-3.5 40q0 33 -2 93.5t-2 108.5t4 89q5 36 1.5 132.5t-1.5 137.5q0 9 5 31t5 27q0 10 -5 29.5t-5 29.5q0 6 -3.5 50.5t1.5 50.5zM215 70q0 -17 18 -17q2 0 6.5 -2.5t7 -4t3.5 0.5 q0 8 -7.5 19.5t-13.5 11.5q-14 0 -14 -8z" />
<glyph unicode="&#xcd;" horiz-adv-x="401" d="M47 1219q3 16 12.5 23t18 9t8.5 6q0 3 -10.5 3.5t-20.5 6.5t-8 23q2 23 2 72q0 2 0.5 9t0.5 9t1 7t2 7t2.5 6t4 6.5l6 6t8.5 6.5q23 17 43 17q9 0 25 -2.5t25.5 -3t27.5 3.5q3 4 26.5 1t28.5 -3q15 0 28.5 -8.5t18.5 -8.5q24 -1 35.5 -16t11.5 -33q0 -5 1 -27.5t1.5 -40 t-0.5 -36.5q-4 -45 -0.5 -152t0.5 -170q0 -3 2 -24t2 -31q0 -41 -2 -117t-2 -119q0 -59 3 -179t3 -181q0 -8 1.5 -25.5t1 -31t-4.5 -25.5q-4 -13 -4 -26.5t2 -30.5t2 -27q0 -6 1.5 -17.5t1.5 -20.5t-3 -17q-7 -29 -18 -45t-33 -17q-41 -3 -57.5 -2t-31 3.5t-20.5 2.5 q-7 0 -22.5 -5t-22.5 -5q-35 0 -59 15t-27 48q-8 108 -4 162q3 63 2 100.5t-4.5 74.5t-3.5 40q0 33 -2 93.5t-2 108.5t4 89q5 36 1.5 132.5t-1.5 137.5q0 9 5 31t5 27q0 10 -5 29.5t-5 29.5q0 6 -3.5 50.5t1.5 50.5zM111 1511q0 18 15.5 47.5t16.5 43.5q1 11 10.5 32.5 t12.5 32.5q10 42 28.5 54t69.5 12q28 0 37 -7q4 -3 -2.5 -13.5t0.5 -14.5q3 -2 9.5 2t16 11t15.5 9q19 6 26.5 -10t-1.5 -33q-11 -28 -40.5 -65t-39.5 -53q-1 -2 -14.5 -23.5t-18 -26.5t-17.5 -14.5t-28 -11.5q-18 -2 -41 1t-31 3q-10 0 -17 6.5t-7 17.5zM215 70 q0 -17 18 -17q2 0 6.5 -2.5t7 -4t3.5 0.5q0 8 -7.5 19.5t-13.5 11.5q-14 0 -14 -8z" />
<glyph unicode="&#xce;" horiz-adv-x="401" d="M-8 1503q0 25 24 68q4 8 12 26t15.5 30.5t17.5 19.5t17.5 18t13 22l6.5 13q7 9 14 15.5t13.5 10.5t11 6.5t12 3.5t10.5 1h12h11q18 0 30 -3.5t21 -7.5t19 -4q12 0 27.5 -8.5t25.5 -21.5q13 -16 36.5 -55t39.5 -60q7 -9 14 -23t12 -26.5t5 -18.5q0 -20 -31 -24 q-60 -5 -80 0t-43 28q-8 8 -17.5 19.5t-14.5 16t-13 8.5t-18 4q-6 0 -10.5 -3t-6.5 -5.5t-6.5 -9.5t-5.5 -9q-13 -20 -29 -33q-14 -14 -41 -14q-1 0 -27.5 -4t-29.5 2q-1 0 -14 0.5t-23 4.5t-10 13zM47 1219q3 16 12.5 23t18 9t8.5 6q0 3 -10.5 3.5t-20.5 6.5t-8 23 q2 23 2 72q0 2 0.5 9t0.5 9t1 7t2 7t2.5 6t4 6.5l6 6t8.5 6.5q23 17 43 17q9 0 25 -2.5t25.5 -3t27.5 3.5q3 5 26.5 1.5t28.5 -3.5q15 0 28.5 -8.5t18.5 -8.5q24 -1 35.5 -16t11.5 -33q0 -5 1 -27.5t1.5 -40t-0.5 -36.5q-4 -45 -0.5 -152t0.5 -170q0 -3 2 -24t2 -31 q0 -40 -2 -116t-2 -120q0 -59 3 -179t3 -181q0 -8 1.5 -25.5t1 -31t-4.5 -25.5q-4 -13 -4 -26.5t2 -30.5t2 -27q0 -6 1.5 -17.5t1.5 -20.5t-3 -17q-7 -29 -18 -45t-33 -17q-27 -2 -46.5 -2t-29 1.5t-18.5 3t-15 1.5q-7 0 -22.5 -5t-22.5 -5q-35 0 -59 15t-27 48 q-8 108 -4 162q3 63 2 100.5t-4.5 74.5t-3.5 40q0 33 -2 93.5t-2 108.5t4 89q5 36 1.5 132.5t-1.5 137.5q0 9 5 31t5 27q0 10 -5 29.5t-5 29.5q0 6 -3.5 50.5t1.5 50.5zM215 70q0 -7 5 -12t13 -5q2 0 6.5 -2.5t7 -4t3.5 0.5q0 8 -7.5 19.5t-13.5 11.5q-14 0 -14 -8z" />
<glyph unicode="&#xcf;" horiz-adv-x="401" d="M-49 1546q0 3 -6.5 56.5t1 81.5t36.5 32q15 1 51.5 -2.5t48.5 0.5q8 1 23 -0.5t20 -1.5q27 0 39 -15t12 -38v-49.5t2 -50.5q5 -23 -12.5 -37.5t-50.5 -14.5q-19 0 -41 9q-7 1 -8 1t-9.5 -4t-13.5 -6q-19 -1 -25.5 -1t-24.5 7.5t-22 8.5q-8 1 -14 8.5t-6 15.5zM47 1219 q3 16 12.5 23t18 9t8.5 6q0 3 -10.5 3.5t-20.5 6.5t-8 23q2 23 2 72q0 2 0.5 9t0.5 9t1 7t2 7t2.5 6t4 6.5l6 6t8.5 6.5q23 17 43 17q9 0 25 -2.5t25.5 -3t27.5 3.5q3 4 26.5 1t28.5 -3q15 0 28.5 -8.5t18.5 -8.5q24 -1 35.5 -16t11.5 -33q0 -5 1 -27.5t1.5 -40t-0.5 -36.5 q-4 -45 -0.5 -152t0.5 -170q0 -3 2 -24t2 -31q0 -41 -2 -117t-2 -119q0 -59 3 -179t3 -181q0 -8 1.5 -25.5t1 -31t-4.5 -25.5q-4 -13 -4 -26.5t2 -30.5t2 -27q0 -6 1.5 -17.5t1.5 -20.5t-3 -17q-7 -29 -18 -45t-33 -17q-41 -3 -57.5 -2t-31 3.5t-20.5 2.5q-7 0 -22.5 -5 t-22.5 -5q-35 0 -59 15t-27 48q-8 108 -4 162q3 63 2 100.5t-4.5 74.5t-3.5 40q0 33 -2 93.5t-2 108.5t4 89q5 36 1.5 132.5t-1.5 137.5q0 9 5 31t5 27q0 10 -5 29.5t-5 29.5q0 6 -3.5 50.5t1.5 50.5zM215 70q0 -17 18 -17q2 0 6.5 -2.5t7 -4t3.5 0.5q0 8 -7.5 19.5 t-13.5 11.5q-14 0 -14 -8zM229 1610v17v18.5t0.5 15t3 16t5.5 11.5q22 28 41 28q39 1 64.5 -2.5t33.5 -3.5t20.5 1t20.5 1q12 0 19 -9t7 -22q0 -9 3.5 -25.5t3.5 -25.5q0 -13 4 -63q2 -24 -15 -42t-41 -18q-15 0 -36.5 -1t-35 -1.5t-32 1.5t-35.5 7q-4 1 -14 10.5t-13 14.5 q-6 7 -7 17t1 27.5t2 27.5zM397 1616q0 -10 15 -10q3 0 7.5 2.5t4.5 5.5q0 6 -3.5 12t-8.5 0q-3 -4 -9 -5t-6 -5z" />
<glyph unicode="&#xd0;" horiz-adv-x="808" d="M6 803q0 45 23 59q9 5 13.5 12t5 10.5t0 14t-0.5 12.5q0 17 1 50.5t1 61.5t-2 52q-4 46 -4 115t1.5 116.5t2.5 55.5q8 36 18 45q6 6 17 10q30 13 55 13q34 0 76.5 3t60.5 3q24 0 38.5 -5t18 -11.5t7 -11.5t8.5 -5q4 0 9 3t11.5 8.5t10.5 8.5q20 13 74 9q3 0 24 1t25 1 q12 0 46 -6t42 -9q11 -3 26.5 -12.5t24.5 -13.5q38 -16 45 -27q25 -24 48.5 -74t23.5 -82q0 -198 2 -331q0 -3 4 -75.5t-2 -84.5q-7 -48 -0.5 -136t-1.5 -165q-2 -19 3.5 -97.5t-1.5 -101.5q-5 -24 -22 -72t-21 -57q-12 -18 -26 -31t-33 -21t-32.5 -12.5t-39.5 -11 t-39 -10.5q-11 -3 -46.5 -3.5t-76 0.5t-86.5 -1q-127 -6 -188 0q-50 5 -62 14q-23 18 -29 32.5t-6 43.5q0 4 -1 43t0.5 64.5t6.5 44.5q3 10 34.5 13t31.5 13q0 6 -7.5 8.5t-20 4t-19.5 4.5t-15 15.5t-8 23.5q0 20 -5 44t-5 42q0 8 4 35.5t2 41.5q-3 19 -3.5 38.5t0.5 42.5 t1 30q0 32 -24 45q-8 4 -13 16.5t-6.5 32t-1.5 36t1 40.5t1 35zM346 588q-2 -30 5.5 -77t0.5 -85q-2 -11 -0.5 -37t0.5 -37q-1 -14 1.5 -25t5.5 -17.5t3 -8.5q0 -20 48 -20q12 0 31.5 15.5t19.5 29.5q0 26 1.5 74.5t1.5 87.5t-3 73q-6 92 -3.5 144t8 99t5.5 50 q0 7 -6.5 25.5t-7.5 23.5q-4 26 -1.5 98t1.5 97q0 13 -10.5 28.5t-22.5 20.5h-21q-55 0 -55 -35q0 -22 2 -69t2 -70q0 -10 -1.5 -35.5t-0.5 -36.5q0 -11 9.5 -21t23.5 -10q9 0 15 -7t9.5 -20t5.5 -27.5t2 -32.5v-32t-0.5 -30.5t-0.5 -22.5q0 -32 -5 -42t-26 -19 q-16 -6 -24 -12.5t-10 -13.5t-3 -23zM508 1266q0 -13 16 -13q3 0 11 -4t12 -5t8 5q4 13 -5.5 22t-17.5 9q-24 0 -24 -14z" />
<glyph unicode="&#xd1;" horiz-adv-x="829" d="M39 801q0 7 1 16.5t1.5 17.5l1 16t-0.5 17t-3 17q-2 7 -2.5 18.5t0 22t1.5 24.5t1 23q0 12 9.5 21.5t19.5 15.5t10 10q0 8 -12 12.5t-13 7.5q-6 15 -6 41q0 7 -4 21t-4 24t3 110t3 110q0 29 11 55t32 26q11 0 28 3.5t29 3.5q8 0 34.5 -4t37.5 -3q72 6 78 -6 q2 -8 3.5 -21.5t3 -21.5t5.5 -8q8 0 10.5 10t4.5 33q0 14 14 14q8 0 18 -4q12 -6 20.5 -13t13 -13.5t7.5 -16.5t4 -17.5t3 -20t4 -21.5q0 -2 5.5 -17t6.5 -28l6 -27.5t8 -46.5q1 -7 7 -17.5t7 -17.5q1 -4 2.5 -13.5t2.5 -17t4 -16t6 -14.5t9 -10t13 -4q22 0 26.5 11t4.5 48 q0 5 -3 18t-3 19q0 14 1 43t1 43q0 74 4 96q12 60 61 60q12 0 39 3t41 3q24 0 60 -9q51 -9 51 -71q0 -15 4 -40t4 -36q0 -10 0.5 -35.5t0.5 -39.5t-1.5 -32t-5.5 -28q-5 -11 -17 -14.5t-12 -6.5q0 -17 17.5 -19t17.5 -5q0 -1 4 -52.5t5 -102.5t-3 -126q-8 -118 -8 -166 q0 -22 2.5 -63t3 -61.5t-3.5 -55.5q-5 -18 0 -61.5t4 -51.5q0 -35 1 -65t1 -43l2 -64q1 -65 -2 -65q-1 -9 0.5 -31.5t-1.5 -39t-15 -27.5q-17 -17 -68 -17q-59 0 -96 -4q-51 -5 -99 3.5t-59 41.5q-3 8 -7.5 31t-8.5 35q-6 15 -6 47q0 7 4.5 16l6 12t-4.5 7q-11 0 -21 26.5 t-10 38.5q-7 24 -19 77.5t-22 82.5q-3 10 -4.5 13.5t-5 10.5t-8.5 10.5t-12 6.5q-9 4 -17 -9t-8 -22q0 -6 1 -16.5t1 -18t-2 -12.5q-3 -9 -3.5 -19.5t0 -17t2 -19.5t1.5 -18q2 -27 2 -139q0 -23 0.5 -47t1 -35t0 -21.5t-2 -16t-5.5 -9.5l-31 -31q-6 -6 -15 -8.5t-15.5 -2.5 t-18.5 0.5t-16 0.5q-5 0 -30 4t-28 0q-5 -4 -21 0t-20 4q-45 0 -51 43q-7 55 0 137q1 7 -2.5 77t-1.5 114q3 0 1 135l-1 135q0 27 -3 86.5t-3 63.5zM186 1565q-3 31 23 75q43 68 129 68q50 0 72 -20q25 -25 36 -25q40 0 58 4q13 3 41 24t57 21q7 0 18.5 -6t18.5 -6 q5 0 12.5 -13t7.5 -20q0 -35 -6 -47q-18 -44 -37 -70q-22 -26 -59 -34.5t-88 -8.5q-19 0 -34 4.5t-32 13.5t-26 13q-1 0 -12.5 6t-22.5 6q-15 0 -30 -6.5t-21 -15.5q-15 -21 -55 -21q-6 0 -14.5 6t-12.5 15q-2 3 -12 15.5t-11 21.5zM446 1612q0 -10 15 -10q9 0 14.5 5 t5.5 13q0 3 -3 4t-10 1t-11 1q-6 3 -8.5 0.5t-3 -3.5t0 -5.5t0.5 -5.5zM500 1067q-20 0 -13 -24q7 -21 19 -23q8 0 8 31q0 16 -14 16zM524 262q0 -5 -2.5 -12t-1.5 -9.5t8 -2.5q9 0 20 7t11 17q0 17 -20 17q-7 0 -11 -5.5t-4 -11.5z" />
<glyph unicode="&#xd2;" horiz-adv-x="798" d="M39 836q0 12 2 50t2 60q0 16 10.5 23t20.5 10t10 8q0 4 -10 6.5t-20 9.5t-11 23q-3 6 -1 85l1 79q0 27 12 41q11 11 11 39q0 18 9 42.5t19 37.5q23 27 82 65q23 17 57 17q11 -1 27 2t31 2q73 0 82 -2q12 -2 22 -2q13 0 25.5 3t28.5 5q97 8 175 -38.5t97 -123.5 q4 -14 12 -60t10 -63q2 -26 -7.5 -50t-8.5 -50q0 -8 10.5 -22t10.5 -27q5 -178 -3 -369q-3 -108 -1.5 -151t5 -73t3.5 -38q0 -4 -2 -15t-3.5 -36.5t-1.5 -65.5q0 -38 -15 -97t-44 -87q-42 -39 -63 -48q-14 -6 -29 -8q-18 -3 -36.5 -11t-29.5 -9q-113 -7 -252 0q-6 0 -25.5 8 t-25.5 8q-48 0 -84 25q-47 29 -73 96q-4 13 -9 38.5t-10 43.5q-4 16 -4 35t2 44.5t2 41.5q0 9 -1 27.5t-1 27.5q-4 152 -4 197v127q0 6 3 23.5t3 23.5t-5 31t-5 41zM182 741q1 -7 9 -12.5t16 -5.5q4 0 9 7t1 11q-6 6 -8.5 11.5t-3 8.5t-2 5t-6.5 2q-15 0 -15 -27zM203 1708 q0 31 61 31q22 1 53 -9t50 -10q26 0 45 -30q43 -85 57 -125q4 -16 12 -30.5t8 -18.5q0 -13 -7 -20t-14.5 -8t-21.5 -1.5t-20 -1.5q-42 -5 -70 8q-16 8 -16 29q0 4 -6 22q-5 10 -12 8t-15 2q-3 2 -13 12.5t-21 22t-13 13.5l-18 34q-17 34 -29 41q-10 7 -10 31zM322 635 q0 -15 9 -35t9 -35q0 -23 -3 -67t-3 -66q0 -101 6 -113q19 -40 55 -40q27 0 41 10l21 20q4 6 4 31.5t-1.5 62.5t-0.5 56q4 134 -2 159q-6 24 -6 33q0 10 15 20t15 19q0 7 -24 37q-4 5 -5.5 12.5t-2 22t0 29.5t1 46t0.5 60q0 33 -4.5 96.5t-4.5 96.5q0 26 -13 45.5t-34 19.5 q-20 0 -36.5 -13.5t-16.5 -31.5q0 -33 -3.5 -94.5t-4.5 -79.5q-3 -50 2 -227q0 -10 -7 -37t-7 -37zM524 63q0 -12 13 -12q14 0 14 12q0 9 -14 9q-13 0 -13 -9z" />
<glyph unicode="&#xd3;" horiz-adv-x="798" d="M39 836q0 12 2 50t2 60q0 16 10.5 23t20.5 10t10 8q0 4 -10 6.5t-20 9.5t-11 23q-3 6 -1 85l1 79q0 27 12 41q11 11 11 39q0 18 9 42.5t19 37.5q23 27 82 65q23 17 57 17q11 -1 27 2t31 2q73 0 82 -2q12 -2 22 -2q13 0 25.5 3t28.5 5q97 8 175 -38.5t97 -123.5 q4 -14 12 -60t10 -63q2 -26 -7.5 -50t-8.5 -50q0 -8 10.5 -22t10.5 -27q5 -178 -3 -369q-3 -108 -1.5 -151t5 -73t3.5 -38q0 -4 -2 -15t-3.5 -36.5t-1.5 -65.5q0 -38 -15 -97t-44 -87q-42 -39 -63 -48q-14 -6 -29 -8q-18 -3 -36.5 -11t-29.5 -9q-113 -7 -252 0q-6 0 -25.5 8 t-25.5 8q-48 0 -84 25q-47 29 -73 96q-4 13 -9 38.5t-10 43.5q-4 16 -4 35t2 44.5t2 41.5q0 9 -1 27.5t-1 27.5q-4 152 -4 197v127q0 6 3 23.5t3 23.5t-5 31t-5 41zM182 741q1 -7 9 -12.5t16 -5.5q4 0 9 7t1 11q-6 6 -8.5 11.5t-3 8.5t-2 5t-6.5 2q-15 0 -15 -27zM309 1511 q0 18 16 47.5t17 43.5q1 11 10.5 32.5t12.5 32.5q10 42 28.5 54t69.5 12q28 0 37 -7q4 -3 -2.5 -13.5t0.5 -14.5q3 -2 9.5 2t16 11t15.5 9q19 6 26 -10.5t-2 -32.5q-11 -28 -40.5 -65t-39.5 -53q-4 -6 -12.5 -19.5t-13 -20t-13 -15.5t-17.5 -14t-21 -7q-18 -2 -41 1t-31 3 q-10 0 -17.5 6.5t-7.5 17.5zM322 635q0 -15 9 -35t9 -35q0 -23 -3 -67t-3 -66q0 -101 6 -113q19 -40 55 -40q27 0 41 10l21 20q4 6 4 31.5t-1.5 62.5t-0.5 56q4 134 -2 159q-6 24 -6 33q0 10 15 20t15 19q0 7 -24 37q-4 5 -5.5 12.5t-2 22t0 29.5t1 46t0.5 60 q0 33 -4.5 96.5t-4.5 96.5q0 26 -13 45.5t-34 19.5q-20 0 -36.5 -13.5t-16.5 -31.5q0 -33 -3.5 -94.5t-4.5 -79.5q-3 -50 2 -227q0 -10 -7 -37t-7 -37zM524 63q0 -12 13 -12q14 0 14 12q0 9 -14 9q-13 0 -13 -9z" />
<glyph unicode="&#xd4;" horiz-adv-x="798" d="M39 836q0 12 2 50t2 60q0 16 10.5 23t20.5 10t10 8q0 4 -10 6.5t-20 9.5t-11 23q-3 6 -1 85l1 79q0 27 12 41q11 11 11 39q0 18 9 42.5t19 37.5q23 27 82 65q23 17 57 17q11 -1 27 2t31 2q73 0 82 -2q12 -2 22 -2q13 0 25.5 3t28.5 5q97 8 175 -38.5t97 -123.5 q4 -14 12 -60t10 -63q2 -26 -7.5 -50t-8.5 -50q0 -8 10.5 -22t10.5 -27q5 -178 -3 -369q-3 -108 -1.5 -151t5 -73t3.5 -38q0 -4 -2 -15t-3.5 -36.5t-1.5 -65.5q0 -38 -15 -97t-44 -87q-42 -39 -63 -48q-14 -6 -29 -8q-18 -3 -36.5 -11t-29.5 -9q-113 -7 -252 0q-6 0 -25.5 8 t-25.5 8q-48 0 -84 25q-47 29 -73 96q-4 13 -9 38.5t-10 43.5q-4 16 -4 35t2 44.5t2 41.5q0 9 -1 27.5t-1 27.5q-4 152 -4 197v127q0 6 3 23.5t3 23.5t-5 31t-5 41zM182 741q1 -7 9 -12.5t16 -5.5q4 0 9 7t1 11q-6 6 -8.5 11.5t-3 8.5t-2 5t-6.5 2q-15 0 -15 -27zM190 1503 q0 23 25 68q4 8 12 26t15.5 30.5t17.5 19.5t17.5 18t13 22l6.5 13q6 8 12.5 14t11.5 10t11 6.5t10 4t10 2t9 0.5h10h10q23 0 41 -7.5t29 -7.5q30 0 53 -30q13 -16 36.5 -55t39.5 -60q10 -13 20 -36t10 -32q0 -20 -30 -24q-61 -5 -80.5 0t-42.5 28q-8 8 -18 19.5t-14.5 16 t-13 8.5t-18.5 4q-6 0 -10.5 -3t-6.5 -6t-5.5 -9.5t-5.5 -8.5q-13 -20 -29 -33q-14 -14 -41 -14q-1 0 -27.5 -4t-29.5 2q-1 0 -14.5 0.5t-23.5 4.5t-10 13zM322 635q0 -15 9 -35t9 -35q0 -23 -3 -67t-3 -66q0 -101 6 -113q19 -40 55 -40q27 0 41 10l21 20q4 6 4 31.5 t-1.5 62.5t-0.5 56q4 134 -2 159q-6 24 -6 33q0 10 15 20t15 19q0 7 -24 37q-4 5 -5.5 12.5t-2 22t0 29.5t1 46t0.5 60q0 33 -4.5 96.5t-4.5 96.5q0 26 -13 45.5t-34 19.5q-20 0 -36.5 -13.5t-16.5 -31.5q0 -33 -3.5 -94.5t-4.5 -79.5q-3 -50 2 -227q0 -10 -7 -37t-7 -37z M524 63q0 -12 13 -12q14 0 14 12q0 9 -14 9q-13 0 -13 -9z" />
<glyph unicode="&#xd5;" horiz-adv-x="798" d="M39 836q0 12 2 50t2 60q0 16 10.5 23t20.5 10t10 8q0 4 -10 6.5t-20 9.5t-11 23q-3 6 -1 85l1 79q0 27 12 41q11 11 11 39q0 18 9 42.5t19 37.5q23 27 82 65q23 17 57 17q11 -1 27 2t31 2q73 0 82 -2q12 -2 22 -2q13 0 25.5 3t28.5 5q97 8 175 -38.5t97 -123.5 q4 -14 12 -60t10 -63q2 -26 -7.5 -50t-8.5 -50q0 -8 10.5 -22t10.5 -27q5 -178 -3 -369q-3 -108 -1.5 -151t5 -73t3.5 -38q0 -4 -2 -15t-3.5 -36.5t-1.5 -65.5q0 -38 -15 -97t-44 -87q-42 -39 -63 -48q-14 -6 -29 -8q-18 -3 -36.5 -11t-29.5 -9q-113 -7 -252 0q-6 0 -25.5 8 t-25.5 8q-48 0 -84 25q-47 29 -73 96q-4 13 -9 38.5t-10 43.5q-4 16 -4 35t2 44.5t2 41.5q0 9 -1 27.5t-1 27.5q-4 152 -4 197v127q0 6 3 23.5t3 23.5t-5 31t-5 41zM168 1565q-3 32 22 75q43 68 129 68q50 0 72 -20q25 -25 37 -25q39 0 57 4q13 3 41.5 24t57.5 21 q7 0 18.5 -6t18.5 -6q5 0 12.5 -13t7.5 -20q0 -35 -6 -47q-18 -44 -37 -70q-36 -43 -147 -43q-19 0 -34 4.5t-32.5 14t-26.5 12.5q-1 0 -12 6t-22 6q-37 0 -52 -22q-15 -21 -55 -21q-6 0 -14.5 6t-12.5 15q-1 3 -11 15.5t-11 21.5zM182 741q1 -7 9 -12.5t16 -5.5q4 0 9 7 t1 11q-6 6 -8.5 11.5t-3 8.5t-2 5t-6.5 2q-15 0 -15 -27zM322 635q0 -15 9 -35t9 -35q0 -23 -3 -67t-3 -66q0 -101 6 -113q19 -40 55 -40q27 0 41 10l21 20q4 6 4 31.5t-1.5 62.5t-0.5 56q4 134 -2 159q-6 24 -6 33q0 10 15 20t15 19q0 7 -24 37q-4 5 -5.5 12.5t-2 22 t0 29.5t1 46t0.5 60q0 33 -4.5 96.5t-4.5 96.5q0 26 -13 45.5t-34 19.5q-20 0 -36.5 -13.5t-16.5 -31.5q0 -33 -3.5 -94.5t-4.5 -79.5q-3 -50 2 -227q0 -10 -7 -37t-7 -37zM428 1612q0 -10 14 -10q9 0 15 5t6 13q0 3 -3 4t-10.5 1t-11.5 1q-6 3 -8.5 0.5t-2.5 -4t0.5 -5.5 t0.5 -5zM524 63q0 -12 13 -12q14 0 14 12q0 9 -14 9q-13 0 -13 -9z" />
<glyph unicode="&#xd6;" horiz-adv-x="798" d="M39 836q0 12 2 50t2 60q0 16 10.5 23t20.5 10t10 8q0 4 -10 6.5t-20 9.5t-11 23q-3 6 -1 85l1 79q0 27 12 41q11 11 11 39q0 18 9 42.5t19 37.5q23 27 82 65q23 17 57 17q11 -1 27 2t31 2q73 0 82 -2q12 -2 22 -2q13 0 25.5 3t28.5 5q97 8 175 -38.5t97 -123.5 q4 -14 12 -60t10 -63q2 -26 -7.5 -50t-8.5 -50q0 -8 10.5 -22t10.5 -27q5 -178 -3 -369q-3 -108 -1.5 -151t5 -73t3.5 -38q0 -4 -2 -15t-3.5 -36.5t-1.5 -65.5q0 -38 -15 -97t-44 -87q-42 -39 -63 -48q-14 -6 -29 -8q-18 -3 -36.5 -11t-29.5 -9q-113 -7 -252 0q-6 0 -25.5 8 t-25.5 8q-48 0 -84 25q-47 29 -73 96q-4 13 -9 38.5t-10 43.5q-4 16 -4 35t2 44.5t2 41.5q0 9 -1 27.5t-1 27.5q-4 152 -4 197v127q0 6 3 23.5t3 23.5t-5 31t-5 41zM150 1546q0 4 -7 56.5t0.5 81t36.5 32.5q15 1 52 -2.5t49 0.5q8 1 23 -0.5t20 -1.5q27 0 39 -15t12 -38 v-49.5t2 -50.5q5 -23 -12.5 -37.5t-51.5 -14.5q-19 0 -41 9q-6 1 -7.5 1t-9.5 -4t-13 -6q-19 -1 -25.5 -1t-24.5 7.5t-22 8.5q-8 1 -14 8.5t-6 15.5zM182 741q1 -7 9 -12.5t16 -5.5q4 0 9 7t1 11q-6 6 -8.5 11.5t-3 8.5t-2 5t-6.5 2q-15 0 -15 -27zM322 635q0 -15 9 -35 t9 -35q0 -23 -3 -67t-3 -66q0 -101 6 -113q19 -40 55 -40q27 0 41 10l21 20q4 6 4 31.5t-1.5 62.5t-0.5 56q4 134 -2 159q-6 24 -6 33q0 10 15 20t15 19q0 7 -24 37q-4 5 -5.5 12.5t-2 22t0 29.5t1 46t0.5 60q0 33 -4.5 96.5t-4.5 96.5q0 26 -13 45.5t-34 19.5 q-20 0 -36.5 -13.5t-16.5 -31.5q0 -33 -3.5 -94.5t-4.5 -79.5q-3 -50 2 -227q0 -10 -7 -37t-7 -37zM428 1610q0 5 -0.5 21t0 23t2.5 17.5t6 16.5q22 28 41 28q39 1 64.5 -2.5t33.5 -3.5t20.5 1t20.5 1q12 0 19.5 -9.5t7.5 -21.5q0 -9 3 -25.5t3 -25.5q0 -13 4 -63 q2 -24 -14.5 -42t-40.5 -18q-14 0 -36 -1t-35.5 -1.5t-32 1.5t-35.5 7q-4 1 -14 10.5t-13 14.5q-6 7 -7 17t1 27.5t2 27.5zM524 63q0 -12 13 -12q14 0 14 12q0 9 -14 9q-13 0 -13 -9zM596 1616q0 -10 14 -10q3 0 8 2.5t5 5.5q0 5 -4 11.5t-9 0.5q-3 -4 -8.5 -5t-5.5 -5z" />
<glyph unicode="&#xd7;" d="M51 895v8.5v8.5t1 7.5t2.5 8.5t4.5 7.5t7 8.5q7 5 19.5 21.5t25 34.5t14.5 20q13 16 53 16q6 0 10.5 -1t7.5 -2.5t6.5 -4t5.5 -4.5t5.5 -6t5.5 -6q5 -5 22 -18t27 -23t17 -21q32 -51 77 -51q11 0 24 7t21 14t22.5 20.5t16.5 15.5q37 29 46 41q10 13 16.5 19t18 12t26.5 6 q16 0 22 -14q3 -6 22.5 -13.5t27.5 -13.5q9 -6 15 -13t13.5 -16.5t12.5 -15.5q7 -7 8.5 -29.5t-4.5 -31.5q-39 -55 -84 -96q-6 -5 -15 -15t-18 -16q-8 -5 -9.5 -12t0.5 -16t1 -13q-4 -23 18 -47q2 -2 39.5 -37t67.5 -78q13 -20 8 -35q-3 -10 -10 -20.5t-13.5 -18 t-18.5 -18.5t-18 -16t-20 -16t-16 -13q-10 -10 -35 -10q-5 0 -21.5 8t-19.5 12q-56 56 -66 68q-8 8 -19 16.5t-18.5 14.5t-9.5 8q-18 18 -55 -5q-14 -9 -24.5 -19t-26.5 -28.5t-21 -23.5q-7 -8 -27.5 -24.5t-29.5 -26.5q-8 -12 -33 -10t-35 22q-12 23 -38 40t-31 23 q-13 13 -14.5 26t5.5 25t16 22.5t20.5 22.5t15.5 21q6 12 40.5 48t34.5 67q0 8 -0.5 13.5t-2.5 10t-3.5 7t-6.5 8.5t-7 10q-3 5 -37 33.5t-37 31.5q-6 9 -18.5 18t-19.5 19t-7 27zM254 649q0 -13 16 -16.5t21 2.5q3 3 -1 7.5t-11 10.5t-9 11q-9 16 -14 -3q-2 -7 -2 -12z" />
<glyph unicode="&#xd8;" horiz-adv-x="798" d="M39 1061q0 4 1.5 15t3 36.5t1.5 65.5q0 38 15 97t44 87q19 18 29 26t27.5 17t36.5 12q18 3 35.5 12t29.5 9q56 0 108.5 2t55.5 2q34 0 48.5 4.5t27.5 16.5t24 18q10 6 72 6q17 0 55 1t41 1q16 0 28.5 -9t12.5 -28q0 -18 -15 -51t-15 -51q0 -10 14 -35q9 -16 14 -50t8 -46 q4 -16 4 -35t-2 -44.5t-2 -41.5q0 -9 1 -28t1 -28q5 -190 5 -196q0 -25 0.5 -53t0.5 -44t-1 -30q0 -6 -3.5 -23.5t-3.5 -23.5t5.5 -31t5.5 -41q0 -12 -2 -50.5t-2 -60.5q0 -37 2 -106t2 -115q0 -43 -17 -63q-10 -10 -10 -39q0 -18 -9.5 -42.5t-19.5 -37.5q-25 -29 -82 -66 q-21 -16 -57 -16q-12 1 -27 -1.5t-26 -2.5q-17 0 -52.5 2t-56.5 2q-59 0 -73 -16q-36 -45 -86 -45q-27 0 -76.5 2t-79.5 2q-12 0 -18.5 18.5t-6.5 34.5q0 12 6.5 33.5t6.5 36.5q0 10 4 43.5t-2 44.5q-1 3 -7.5 27t-11 49t-4.5 47q0 3 -0.5 21t-1.5 60t-2 95q-5 163 2 342 q3 109 2 151.5t-4.5 72.5t-3.5 38zM205 932q0 -8 5 -15.5t11 -7.5q3 0 5 2t3 5t1 6v6l-1 4q0 16 -10 16t-12 -3.5t-2 -12.5zM322 1049q0 -4 -4 -33.5t-3 -49.5t11 -20q16 0 37 43t30 72q15 35 15 55q0 25 -35 25q-9 0 -16 -2.5t-11.5 -6t-8.5 -11t-6 -12.5t-3.5 -15 t-2.5 -14.5t-2 -16t-1 -14.5zM379 311q0 -26 35 -26q47 0 47 96v29t0.5 28t0 25t-1 22.5t-1.5 16.5t-3 12t-5 4q-33 0 -48 -80q-1 -5 -12.5 -51t-11.5 -76zM475 596q0 -7 6 -11.5t13 -4.5q6 0 11.5 6.5t2.5 17.5q-1 4 -2.5 4.5t-3 0t-5 -1.5t-5.5 -1q-17 0 -17 -10zM561 530 q0 -22 14 -22q6 0 11.5 6.5t5.5 11.5q0 4 -7 8t-10 7q-3 4 -8.5 -1.5t-5.5 -9.5z" />
<glyph unicode="&#xd9;" horiz-adv-x="790" d="M35 1343q0 25 14 41l35 35q10 6 37 6q14 0 49.5 7t60.5 -2q12 -2 36.5 -2.5t38.5 -6t24 -22.5t10 -47q0 -18 2 -56t2 -57q0 -33 2.5 -116.5t1.5 -123.5q-4 -90 -4 -127q0 -35 3 -98t3 -115t-6 -98v-74q0 -16 1.5 -48.5t1.5 -56t-3 -36.5q-1 -8 -22 -19t-21 -18 q0 -6 11.5 -7.5t23.5 1.5q7 1 16.5 -5.5t12.5 -6.5q11 0 28.5 -7.5t22.5 -7.5q39 0 55 31q6 10 6 55q0 35 -3 125t-3 156q0 1 -1.5 51t1.5 51q0 3 3 17.5t3 30.5q0 9 -6 27t-6 28q0 30 3 94t3 94q0 28 -3 82t-3 80q0 20 2 64t2 69q0 56 24 78.5t89 22.5q16 0 30.5 2t22.5 2 q7 0 30 -5.5t35 -5.5q14 0 25.5 -11.5t11.5 -24.5q0 -10 7.5 -24t7.5 -26q0 -9 -4.5 -22t-4.5 -19q0 -9 1.5 -24.5t1.5 -28t-3 -24.5q-6 -36 -6 -41q0 -2 3 -16t3 -36q0 -33 2 -94.5t2 -110t-4 -87.5q-3 -29 0 -50q2 -8 2 -16.5t-1 -19t-1 -15.5q-1 -14 3.5 -76t-3.5 -75 q-6 -18 -6 -31q0 -7 3 -20.5t3 -20.5q0 -22 2.5 -102t-0.5 -103q-1 -14 -4.5 -57t-3.5 -66q0 -45 -20 -83t-55 -60q-72 -45 -140 -45q-15 0 -53.5 2t-46.5 2q-11 0 -33 -4t-41 -4q-73 0 -112 14q-46 13 -95 41q-43 24 -59 59.5t-25 98.5q-1 4 -7.5 23t-6.5 32q0 7 3 37t3 51 q0 138 -4 178q-4 59 -4.5 122.5t1 147.5t1.5 122q0 14 -1.5 55.5t-1.5 76t3 54.5q3 21 0.5 75t-0.5 83q1 24 -3.5 48t-4.5 33zM119 1280q0 -7 10 -12.5t21 -5.5q7 0 8.5 3t1.5 11q0 20 -15 20q-26 0 -26 -16zM201 1708q0 31 61 31q22 1 53 -9t50 -10q26 0 45 -30 q43 -85 57 -125q4 -16 12 -30.5t8 -18.5q0 -13 -7 -20t-14.5 -8t-21.5 -1.5t-20 -1.5q-42 -5 -70 8q-16 8 -16 29q0 4 -6 22q-5 10 -12 8t-15 2q-3 2 -13 12.5t-21 22t-13 13.5l-18 34q-17 34 -29 41q-10 7 -10 31zM231 1026q0 -14 17 -14q4 0 6.5 3.5t1 7t-7.5 3.5 q-2 0 -7 2q-10 3 -10 -2z" />
<glyph unicode="&#xda;" horiz-adv-x="790" d="M35 1343q0 25 14 41l35 35q10 6 37 6q14 0 49.5 7t60.5 -2q12 -2 36.5 -2.5t38.5 -6t24 -22.5t10 -47q0 -18 2 -56t2 -57q0 -33 2.5 -116.5t1.5 -123.5q-4 -90 -4 -127q0 -35 3 -98t3 -115t-6 -98v-74q0 -16 1.5 -48.5t1.5 -56t-3 -36.5q-1 -8 -22 -19t-21 -18 q0 -6 11.5 -7.5t23.5 1.5q7 1 16.5 -5.5t12.5 -6.5q11 0 28.5 -7.5t22.5 -7.5q39 0 55 31q6 10 6 55q0 35 -3 125t-3 156q0 1 -1.5 51t1.5 51q0 3 3 17.5t3 30.5q0 9 -6 27t-6 28q0 30 3 94t3 94q0 28 -3 82t-3 80q0 20 2 64t2 69q0 56 24 78.5t89 22.5q16 0 30.5 2t22.5 2 q7 0 30 -5.5t35 -5.5q14 0 25.5 -11.5t11.5 -24.5q0 -10 7.5 -24t7.5 -26q0 -9 -4.5 -22t-4.5 -19q0 -9 1.5 -24.5t1.5 -28t-3 -24.5q-6 -36 -6 -41q0 -2 3 -16t3 -36q0 -33 2 -94.5t2 -110t-4 -87.5q-3 -29 0 -50q2 -8 2 -16.5t-1 -19t-1 -15.5q-1 -14 3.5 -76t-3.5 -75 q-6 -18 -6 -31q0 -7 3 -20.5t3 -20.5q0 -22 2.5 -102t-0.5 -103q-1 -14 -4.5 -57t-3.5 -66q0 -45 -20 -83t-55 -60q-72 -45 -140 -45q-15 0 -53.5 2t-46.5 2q-11 0 -33 -4t-41 -4q-73 0 -112 14q-46 13 -95 41q-43 24 -59 59.5t-25 98.5q-1 4 -7.5 23t-6.5 32q0 7 3 37t3 51 q0 138 -4 178q-4 59 -4.5 122.5t1 147.5t1.5 122q0 14 -1.5 55.5t-1.5 76t3 54.5q3 21 0.5 75t-0.5 83q1 24 -3.5 48t-4.5 33zM119 1280q0 -7 10 -12.5t21 -5.5q7 0 8.5 3t1.5 11q0 20 -15 20q-26 0 -26 -16zM231 1026q0 -14 17 -14q4 0 6.5 3.5t1 7t-7.5 3.5q-2 0 -7 2 q-10 3 -10 -2zM305 1511q0 18 16 47.5t17 43.5q1 11 10 32.5t12 32.5q10 42 29 54t70 12q28 0 37 -7q4 -3 -2.5 -13.5t0.5 -14.5q3 -2 9.5 2t16 11t15.5 9q19 6 26 -10.5t-2 -32.5q-11 -28 -40.5 -65t-39.5 -53q-1 -2 -14.5 -23.5t-18 -26.5t-17.5 -14.5t-28 -11.5 q-18 -2 -40.5 1t-30.5 3q-10 0 -17.5 6.5t-7.5 17.5z" />
</font>
</defs>
</svg>
